G04 #@! TF.GenerationSoftware,KiCad,Pcbnew,5.0.2-bee76a0~70~ubuntu14.04.1*
G04 #@! TF.CreationDate,2019-04-02T14:46:03+02:00*
G04 #@! TF.ProjectId,shield_a,73686965-6c64-45f6-912e-6b696361645f,1.1*
G04 #@! TF.SameCoordinates,Original*
G04 #@! TF.FileFunction,Copper,L2,Bot*
G04 #@! TF.FilePolarity,Positive*
%FSLAX46Y46*%
G04 Gerber Fmt 4.6, Leading zero omitted, Abs format (unit mm)*
G04 Created by KiCad (PCBNEW 5.0.2-bee76a0~70~ubuntu14.04.1) date Uto 02 Tra 2019 14:46:03*
%MOMM*%
%LPD*%
G01*
G04 APERTURE LIST*
G04 #@! TA.AperFunction,ComponentPad*
%ADD10R,1.700000X1.700000*%
G04 #@! TD*
G04 #@! TA.AperFunction,ComponentPad*
%ADD11O,1.700000X1.700000*%
G04 #@! TD*
G04 #@! TA.AperFunction,ComponentPad*
%ADD12R,2.000000X2.000000*%
G04 #@! TD*
G04 #@! TA.AperFunction,ComponentPad*
%ADD13C,2.000000*%
G04 #@! TD*
G04 #@! TA.AperFunction,ComponentPad*
%ADD14O,1.600000X1.600000*%
G04 #@! TD*
G04 #@! TA.AperFunction,ComponentPad*
%ADD15R,1.600000X1.600000*%
G04 #@! TD*
G04 #@! TA.AperFunction,ComponentPad*
%ADD16C,1.440000*%
G04 #@! TD*
G04 #@! TA.AperFunction,ComponentPad*
%ADD17C,1.800000*%
G04 #@! TD*
G04 #@! TA.AperFunction,WasherPad*
%ADD18C,4.000000*%
G04 #@! TD*
G04 #@! TA.AperFunction,ComponentPad*
%ADD19C,1.600000*%
G04 #@! TD*
G04 #@! TA.AperFunction,ComponentPad*
%ADD20R,1.800000X1.800000*%
G04 #@! TD*
G04 #@! TA.AperFunction,ComponentPad*
%ADD21C,1.500000*%
G04 #@! TD*
G04 #@! TA.AperFunction,ComponentPad*
%ADD22R,1.500000X1.500000*%
G04 #@! TD*
G04 #@! TA.AperFunction,ComponentPad*
%ADD23R,1.800000X1.070000*%
G04 #@! TD*
G04 #@! TA.AperFunction,ComponentPad*
%ADD24O,1.800000X1.070000*%
G04 #@! TD*
G04 #@! TA.AperFunction,Conductor*
%ADD25C,0.500000*%
G04 #@! TD*
G04 #@! TA.AperFunction,Conductor*
%ADD26C,0.254000*%
G04 #@! TD*
G04 APERTURE END LIST*
D10*
G04 #@! TO.P,DS1,1*
G04 #@! TO.N,GND*
X111760000Y-70485000D03*
D11*
G04 #@! TO.P,DS1,2*
G04 #@! TO.N,+5V*
X114300000Y-70485000D03*
G04 #@! TO.P,DS1,3*
G04 #@! TO.N,Net-(DS1-Pad3)*
X116840000Y-70485000D03*
G04 #@! TO.P,DS1,4*
G04 #@! TO.N,D2*
X119380000Y-70485000D03*
G04 #@! TO.P,DS1,5*
G04 #@! TO.N,GND*
X121920000Y-70485000D03*
G04 #@! TO.P,DS1,6*
G04 #@! TO.N,D3*
X124460000Y-70485000D03*
G04 #@! TO.P,DS1,7*
G04 #@! TO.N,Net-(DS1-Pad7)*
X127000000Y-70485000D03*
G04 #@! TO.P,DS1,8*
G04 #@! TO.N,Net-(DS1-Pad8)*
X129540000Y-70485000D03*
G04 #@! TO.P,DS1,9*
G04 #@! TO.N,Net-(DS1-Pad9)*
X132080000Y-70485000D03*
G04 #@! TO.P,DS1,10*
G04 #@! TO.N,Net-(DS1-Pad10)*
X134620000Y-70485000D03*
G04 #@! TO.P,DS1,11*
G04 #@! TO.N,D4*
X137160000Y-70485000D03*
G04 #@! TO.P,DS1,12*
G04 #@! TO.N,D5*
X139700000Y-70485000D03*
G04 #@! TO.P,DS1,13*
G04 #@! TO.N,D6*
X142240000Y-70485000D03*
G04 #@! TO.P,DS1,14*
G04 #@! TO.N,D7*
X144780000Y-70485000D03*
G04 #@! TO.P,DS1,15*
G04 #@! TO.N,+5V*
X147320000Y-70485000D03*
G04 #@! TO.P,DS1,16*
G04 #@! TO.N,Net-(DS1-Pad16)*
X149860000Y-70485000D03*
G04 #@! TD*
D12*
G04 #@! TO.P,BZ1,1*
G04 #@! TO.N,Net-(A1-Pad28)*
X111125000Y-98425000D03*
D13*
G04 #@! TO.P,BZ1,2*
G04 #@! TO.N,GND*
X118725000Y-98425000D03*
D12*
G04 #@! TO.P,BZ1,1*
G04 #@! TO.N,Net-(A1-Pad28)*
X112395000Y-98425000D03*
D13*
G04 #@! TO.P,BZ1,2*
G04 #@! TO.N,GND*
X117475000Y-98425000D03*
G04 #@! TD*
D14*
G04 #@! TO.P,A1,32*
G04 #@! TO.N,Net-(A1-Pad32)*
X126750000Y-66040000D03*
G04 #@! TO.P,A1,31*
G04 #@! TO.N,Net-(A1-Pad31)*
X129290000Y-66040000D03*
D15*
G04 #@! TO.P,A1,1*
G04 #@! TO.N,Net-(A1-Pad1)*
X135890000Y-114300000D03*
D14*
G04 #@! TO.P,A1,17*
G04 #@! TO.N,D2*
X166370000Y-66040000D03*
G04 #@! TO.P,A1,2*
G04 #@! TO.N,Net-(A1-Pad2)*
X138430000Y-114300000D03*
G04 #@! TO.P,A1,18*
G04 #@! TO.N,D3*
X163830000Y-66040000D03*
G04 #@! TO.P,A1,3*
G04 #@! TO.N,Net-(A1-Pad3)*
X140970000Y-114300000D03*
G04 #@! TO.P,A1,19*
G04 #@! TO.N,D4*
X161290000Y-66040000D03*
G04 #@! TO.P,A1,4*
G04 #@! TO.N,Net-(A1-Pad4)*
X143510000Y-114300000D03*
G04 #@! TO.P,A1,20*
G04 #@! TO.N,D5*
X158750000Y-66040000D03*
G04 #@! TO.P,A1,5*
G04 #@! TO.N,+5V*
X146050000Y-114300000D03*
G04 #@! TO.P,A1,21*
G04 #@! TO.N,D6*
X156210000Y-66040000D03*
G04 #@! TO.P,A1,6*
G04 #@! TO.N,GND*
X148590000Y-114300000D03*
G04 #@! TO.P,A1,22*
G04 #@! TO.N,D7*
X153670000Y-66040000D03*
G04 #@! TO.P,A1,7*
G04 #@! TO.N,GND*
X151130000Y-114300000D03*
G04 #@! TO.P,A1,23*
G04 #@! TO.N,D8*
X149610000Y-66040000D03*
G04 #@! TO.P,A1,8*
G04 #@! TO.N,Net-(A1-Pad8)*
X153670000Y-114300000D03*
G04 #@! TO.P,A1,24*
G04 #@! TO.N,D9*
X147070000Y-66040000D03*
G04 #@! TO.P,A1,9*
G04 #@! TO.N,Net-(A1-Pad9)*
X158750000Y-114300000D03*
G04 #@! TO.P,A1,25*
G04 #@! TO.N,D10*
X144530000Y-66040000D03*
G04 #@! TO.P,A1,10*
G04 #@! TO.N,Net-(A1-Pad10)*
X161290000Y-114300000D03*
G04 #@! TO.P,A1,26*
G04 #@! TO.N,D11*
X141990000Y-66040000D03*
G04 #@! TO.P,A1,11*
G04 #@! TO.N,Net-(A1-Pad11)*
X163830000Y-114300000D03*
G04 #@! TO.P,A1,27*
G04 #@! TO.N,Net-(A1-Pad27)*
X139450000Y-66040000D03*
G04 #@! TO.P,A1,12*
G04 #@! TO.N,Net-(A1-Pad12)*
X166370000Y-114300000D03*
G04 #@! TO.P,A1,28*
G04 #@! TO.N,Net-(A1-Pad28)*
X136910000Y-66040000D03*
G04 #@! TO.P,A1,13*
G04 #@! TO.N,SDA*
X168910000Y-114300000D03*
G04 #@! TO.P,A1,29*
G04 #@! TO.N,GND*
X134370000Y-66040000D03*
G04 #@! TO.P,A1,14*
G04 #@! TO.N,SCL*
X171450000Y-114300000D03*
G04 #@! TO.P,A1,30*
G04 #@! TO.N,Net-(A1-Pad30)*
X131830000Y-66040000D03*
G04 #@! TO.P,A1,15*
G04 #@! TO.N,Net-(A1-Pad15)*
X171450000Y-66040000D03*
G04 #@! TO.P,A1,16*
G04 #@! TO.N,Net-(A1-Pad16)*
X168910000Y-66040000D03*
G04 #@! TD*
D13*
G04 #@! TO.P,SW1,2*
G04 #@! TO.N,GND*
X152345000Y-104775000D03*
G04 #@! TO.P,SW1,1*
G04 #@! TO.N,A1*
X156845000Y-104775000D03*
G04 #@! TO.P,SW1,2*
G04 #@! TO.N,GND*
X152345000Y-111275000D03*
G04 #@! TO.P,SW1,1*
G04 #@! TO.N,A1*
X156845000Y-111275000D03*
G04 #@! TD*
D16*
G04 #@! TO.P,RV2,3*
G04 #@! TO.N,+5V*
X116205000Y-111125000D03*
G04 #@! TO.P,RV2,2*
G04 #@! TO.N,Net-(DS1-Pad3)*
X113665000Y-113665000D03*
G04 #@! TO.P,RV2,1*
G04 #@! TO.N,GND*
X111125000Y-111125000D03*
G04 #@! TD*
D17*
G04 #@! TO.P,RV1,3*
G04 #@! TO.N,+5V*
X124540000Y-104140000D03*
G04 #@! TO.P,RV1,2*
G04 #@! TO.N,Net-(A1-Pad9)*
X127040000Y-104140000D03*
G04 #@! TO.P,RV1,1*
G04 #@! TO.N,GND*
X129540000Y-104140000D03*
D18*
G04 #@! TO.P,RV1,*
G04 #@! TO.N,*
X122290000Y-111640000D03*
X131790000Y-111640000D03*
G04 #@! TD*
D14*
G04 #@! TO.P,R4,2*
G04 #@! TO.N,Net-(D3-Pad2)*
X146685000Y-85090000D03*
D19*
G04 #@! TO.P,R4,1*
G04 #@! TO.N,D3*
X146685000Y-77470000D03*
G04 #@! TD*
D14*
G04 #@! TO.P,R13,2*
G04 #@! TO.N,Net-(D10-Pad3)*
X127635000Y-85090000D03*
D19*
G04 #@! TO.P,R13,1*
G04 #@! TO.N,D7*
X127635000Y-77470000D03*
G04 #@! TD*
D20*
G04 #@! TO.P,D1,1*
G04 #@! TO.N,Net-(D0-Pad1)*
X155575000Y-92075000D03*
D17*
G04 #@! TO.P,D1,2*
G04 #@! TO.N,Net-(D1-Pad2)*
X155575000Y-89535000D03*
G04 #@! TD*
D14*
G04 #@! TO.P,R10,2*
G04 #@! TO.N,Net-(A1-Pad11)*
X147955000Y-111125000D03*
D19*
G04 #@! TO.P,R10,1*
G04 #@! TO.N,A2*
X147955000Y-103505000D03*
G04 #@! TD*
G04 #@! TO.P,R12,1*
G04 #@! TO.N,D6*
X130810000Y-77470000D03*
D14*
G04 #@! TO.P,R12,2*
G04 #@! TO.N,Net-(D10-Pad4)*
X130810000Y-85090000D03*
G04 #@! TD*
D21*
G04 #@! TO.P,Q1,2*
G04 #@! TO.N,Net-(A1-Pad27)*
X114935000Y-88265000D03*
G04 #@! TO.P,Q1,3*
G04 #@! TO.N,GND*
X112395000Y-88265000D03*
D22*
G04 #@! TO.P,Q1,1*
G04 #@! TO.N,Net-(D0-Pad1)*
X117475000Y-88265000D03*
G04 #@! TD*
D19*
G04 #@! TO.P,R1,1*
G04 #@! TO.N,Net-(R1-Pad1)*
X156210000Y-77470000D03*
D14*
G04 #@! TO.P,R1,2*
G04 #@! TO.N,Net-(D0-Pad2)*
X156210000Y-85090000D03*
G04 #@! TD*
D17*
G04 #@! TO.P,D4,2*
G04 #@! TO.N,Net-(D4-Pad2)*
X140335000Y-89535000D03*
D20*
G04 #@! TO.P,D4,1*
G04 #@! TO.N,Net-(D0-Pad1)*
X140335000Y-92075000D03*
G04 #@! TD*
D17*
G04 #@! TO.P,D0,2*
G04 #@! TO.N,Net-(D0-Pad2)*
X160655000Y-89535000D03*
D20*
G04 #@! TO.P,D0,1*
G04 #@! TO.N,Net-(D0-Pad1)*
X160655000Y-92075000D03*
G04 #@! TD*
D19*
G04 #@! TO.P,R3,1*
G04 #@! TO.N,D2*
X149860000Y-77470000D03*
D14*
G04 #@! TO.P,R3,2*
G04 #@! TO.N,Net-(D2-Pad2)*
X149860000Y-85090000D03*
G04 #@! TD*
D20*
G04 #@! TO.P,D5,1*
G04 #@! TO.N,Net-(D0-Pad1)*
X135255000Y-92075000D03*
D17*
G04 #@! TO.P,D5,2*
G04 #@! TO.N,Net-(D5-Pad2)*
X135255000Y-89535000D03*
G04 #@! TD*
D20*
G04 #@! TO.P,D3,1*
G04 #@! TO.N,Net-(D0-Pad1)*
X145415000Y-92075000D03*
D17*
G04 #@! TO.P,D3,2*
G04 #@! TO.N,Net-(D3-Pad2)*
X145415000Y-89535000D03*
G04 #@! TD*
D20*
G04 #@! TO.P,D7,1*
G04 #@! TO.N,Net-(D0-Pad1)*
X125095000Y-92075000D03*
D17*
G04 #@! TO.P,D7,2*
G04 #@! TO.N,Net-(D7-Pad2)*
X125095000Y-89535000D03*
G04 #@! TD*
G04 #@! TO.P,D6,2*
G04 #@! TO.N,Net-(D6-Pad2)*
X130175000Y-89535000D03*
D20*
G04 #@! TO.P,D6,1*
G04 #@! TO.N,Net-(D0-Pad1)*
X130175000Y-92075000D03*
G04 #@! TD*
D14*
G04 #@! TO.P,R2,2*
G04 #@! TO.N,Net-(D1-Pad2)*
X153035000Y-85090000D03*
D19*
G04 #@! TO.P,R2,1*
G04 #@! TO.N,Net-(R2-Pad1)*
X153035000Y-77470000D03*
G04 #@! TD*
D17*
G04 #@! TO.P,D2,2*
G04 #@! TO.N,Net-(D2-Pad2)*
X150495000Y-89535000D03*
D20*
G04 #@! TO.P,D2,1*
G04 #@! TO.N,Net-(D0-Pad1)*
X150495000Y-92075000D03*
G04 #@! TD*
D19*
G04 #@! TO.P,R7,1*
G04 #@! TO.N,D6*
X137160000Y-77470000D03*
D14*
G04 #@! TO.P,R7,2*
G04 #@! TO.N,Net-(D6-Pad2)*
X137160000Y-85090000D03*
G04 #@! TD*
G04 #@! TO.P,R6,2*
G04 #@! TO.N,Net-(D5-Pad2)*
X140335000Y-85090000D03*
D19*
G04 #@! TO.P,R6,1*
G04 #@! TO.N,D5*
X140335000Y-77470000D03*
G04 #@! TD*
D10*
G04 #@! TO.P,J1,1*
G04 #@! TO.N,+5V*
X173990000Y-108585000D03*
D11*
G04 #@! TO.P,J1,2*
G04 #@! TO.N,GND*
X173990000Y-106045000D03*
G04 #@! TO.P,J1,3*
G04 #@! TO.N,SCL*
X173990000Y-103505000D03*
G04 #@! TO.P,J1,4*
G04 #@! TO.N,SDA*
X173990000Y-100965000D03*
G04 #@! TD*
D21*
G04 #@! TO.P,Q2,2*
G04 #@! TO.N,Net-(A1-Pad12)*
X170815000Y-82550000D03*
G04 #@! TO.P,Q2,3*
G04 #@! TO.N,GND*
X173355000Y-82550000D03*
D22*
G04 #@! TO.P,Q2,1*
G04 #@! TO.N,Net-(Q2-Pad1)*
X168275000Y-82550000D03*
G04 #@! TD*
D13*
G04 #@! TO.P,SW3,2*
G04 #@! TO.N,GND*
X140390000Y-111125000D03*
G04 #@! TO.P,SW3,1*
G04 #@! TO.N,Net-(A1-Pad3)*
X135890000Y-111125000D03*
G04 #@! TO.P,SW3,2*
G04 #@! TO.N,GND*
X140390000Y-104625000D03*
G04 #@! TO.P,SW3,1*
G04 #@! TO.N,Net-(A1-Pad3)*
X135890000Y-104625000D03*
G04 #@! TD*
D14*
G04 #@! TO.P,R15,2*
G04 #@! TO.N,GND*
X173990000Y-87630000D03*
D19*
G04 #@! TO.P,R15,1*
G04 #@! TO.N,Net-(A1-Pad12)*
X173990000Y-95250000D03*
G04 #@! TD*
G04 #@! TO.P,R18,1*
G04 #@! TO.N,SCL*
X170815000Y-95250000D03*
D14*
G04 #@! TO.P,R18,2*
G04 #@! TO.N,+5V*
X170815000Y-87630000D03*
G04 #@! TD*
G04 #@! TO.P,R8,2*
G04 #@! TO.N,Net-(D7-Pad2)*
X133985000Y-85090000D03*
D19*
G04 #@! TO.P,R8,1*
G04 #@! TO.N,D7*
X133985000Y-77470000D03*
G04 #@! TD*
D14*
G04 #@! TO.P,R17,2*
G04 #@! TO.N,+5V*
X167640000Y-87630000D03*
D19*
G04 #@! TO.P,R17,1*
G04 #@! TO.N,SDA*
X167640000Y-95250000D03*
G04 #@! TD*
G04 #@! TO.P,R9,1*
G04 #@! TO.N,A1*
X144145000Y-103505000D03*
D14*
G04 #@! TO.P,R9,2*
G04 #@! TO.N,Net-(A1-Pad10)*
X144145000Y-111125000D03*
G04 #@! TD*
D23*
G04 #@! TO.P,D9,1*
G04 #@! TO.N,Net-(D10-Pad1)*
X147955000Y-99695000D03*
D24*
G04 #@! TO.P,D9,2*
G04 #@! TO.N,D9*
X147955000Y-98425000D03*
G04 #@! TO.P,D9,3*
G04 #@! TO.N,Net-(D10-Pad3)*
X147955000Y-97155000D03*
G04 #@! TO.P,D9,4*
G04 #@! TO.N,Net-(D10-Pad4)*
X147955000Y-95885000D03*
G04 #@! TD*
D19*
G04 #@! TO.P,R16,1*
G04 #@! TO.N,Net-(DS1-Pad16)*
X153670000Y-70485000D03*
D14*
G04 #@! TO.P,R16,2*
G04 #@! TO.N,Net-(Q2-Pad1)*
X161290000Y-70485000D03*
G04 #@! TD*
D24*
G04 #@! TO.P,D10,4*
G04 #@! TO.N,Net-(D10-Pad4)*
X137795000Y-95885000D03*
G04 #@! TO.P,D10,3*
G04 #@! TO.N,Net-(D10-Pad3)*
X137795000Y-97155000D03*
G04 #@! TO.P,D10,2*
G04 #@! TO.N,D10*
X137795000Y-98425000D03*
D23*
G04 #@! TO.P,D10,1*
G04 #@! TO.N,Net-(D10-Pad1)*
X137795000Y-99695000D03*
G04 #@! TD*
D19*
G04 #@! TO.P,R11,1*
G04 #@! TO.N,D5*
X124460000Y-77470000D03*
D14*
G04 #@! TO.P,R11,2*
G04 #@! TO.N,Net-(D10-Pad1)*
X124460000Y-85090000D03*
G04 #@! TD*
D19*
G04 #@! TO.P,R5,1*
G04 #@! TO.N,D4*
X143510000Y-77470000D03*
D14*
G04 #@! TO.P,R5,2*
G04 #@! TO.N,Net-(D4-Pad2)*
X143510000Y-85090000D03*
G04 #@! TD*
D19*
G04 #@! TO.P,R14,1*
G04 #@! TO.N,Net-(A1-Pad27)*
X121285000Y-85090000D03*
D14*
G04 #@! TO.P,R14,2*
G04 #@! TO.N,GND*
X121285000Y-77470000D03*
G04 #@! TD*
D15*
G04 #@! TO.P,SW4,1*
G04 #@! TO.N,Net-(A1-Pad15)*
X163195000Y-77470000D03*
D14*
G04 #@! TO.P,SW4,3*
G04 #@! TO.N,Net-(R2-Pad1)*
X160655000Y-85090000D03*
G04 #@! TO.P,SW4,2*
G04 #@! TO.N,Net-(A1-Pad16)*
X160655000Y-77470000D03*
G04 #@! TO.P,SW4,4*
G04 #@! TO.N,Net-(R1-Pad1)*
X163195000Y-85090000D03*
G04 #@! TD*
D24*
G04 #@! TO.P,D8,4*
G04 #@! TO.N,Net-(D10-Pad4)*
X158115000Y-95885000D03*
G04 #@! TO.P,D8,3*
G04 #@! TO.N,Net-(D10-Pad3)*
X158115000Y-97155000D03*
G04 #@! TO.P,D8,2*
G04 #@! TO.N,D8*
X158115000Y-98425000D03*
D23*
G04 #@! TO.P,D8,1*
G04 #@! TO.N,Net-(D10-Pad1)*
X158115000Y-99695000D03*
G04 #@! TD*
G04 #@! TO.P,D11,1*
G04 #@! TO.N,Net-(D10-Pad1)*
X127635000Y-99695000D03*
D24*
G04 #@! TO.P,D11,2*
G04 #@! TO.N,D11*
X127635000Y-98425000D03*
G04 #@! TO.P,D11,3*
G04 #@! TO.N,Net-(D10-Pad3)*
X127635000Y-97155000D03*
G04 #@! TO.P,D11,4*
G04 #@! TO.N,Net-(D10-Pad4)*
X127635000Y-95885000D03*
G04 #@! TD*
D13*
G04 #@! TO.P,SW2,1*
G04 #@! TO.N,A2*
X164465000Y-111275000D03*
G04 #@! TO.P,SW2,2*
G04 #@! TO.N,GND*
X159965000Y-111275000D03*
G04 #@! TO.P,SW2,1*
G04 #@! TO.N,A2*
X164465000Y-104775000D03*
G04 #@! TO.P,SW2,2*
G04 #@! TO.N,GND*
X159965000Y-104775000D03*
G04 #@! TD*
D25*
G04 #@! TO.N,GND*
X112395000Y-88265000D02*
X121285000Y-79375000D01*
X121285000Y-79375000D02*
X121285000Y-78920300D01*
X117475000Y-98425000D02*
X117475000Y-93345000D01*
X117475000Y-93345000D02*
X112395000Y-88265000D01*
X121285000Y-77470000D02*
X121285000Y-78920300D01*
X118725000Y-98425000D02*
X121197600Y-100897600D01*
X121197600Y-100897600D02*
X121197600Y-102569500D01*
X129540000Y-104140000D02*
X127969500Y-102569500D01*
X127969500Y-102569500D02*
X121197600Y-102569500D01*
X121285000Y-77470000D02*
X121285000Y-76019700D01*
X121285000Y-76019700D02*
X121920000Y-75384700D01*
X121920000Y-75384700D02*
X121920000Y-70485000D01*
X159965000Y-104775000D02*
X159965000Y-111275000D01*
X133570001Y-66839999D02*
X134370000Y-66040000D01*
X132919999Y-67490001D02*
X133570001Y-66839999D01*
X111760000Y-69135000D02*
X113404999Y-67490001D01*
X111760000Y-70485000D02*
X111760000Y-69135000D01*
X121920000Y-67490001D02*
X132919999Y-67490001D01*
X113404999Y-67490001D02*
X121920000Y-67490001D01*
X173990000Y-83185000D02*
X173355000Y-82550000D01*
X173990000Y-87630000D02*
X173990000Y-83185000D01*
X139390001Y-103625001D02*
X140390000Y-104625000D01*
X138739999Y-102974999D02*
X139390001Y-103625001D01*
X130812792Y-104140000D02*
X131977793Y-102974999D01*
X131977793Y-102974999D02*
X138739999Y-102974999D01*
X129540000Y-104140000D02*
X130812792Y-104140000D01*
X118725000Y-103525000D02*
X111125000Y-111125000D01*
X118725000Y-98425000D02*
X118725000Y-103525000D01*
G04 #@! TO.N,Net-(D5-Pad2)*
X139700000Y-85090000D02*
X140335000Y-85090000D01*
X135255000Y-89535000D02*
X139700000Y-85090000D01*
G04 #@! TO.N,Net-(D3-Pad2)*
X145415000Y-89535000D02*
X146685000Y-88265000D01*
X146685000Y-88265000D02*
X146685000Y-85090000D01*
G04 #@! TO.N,Net-(R1-Pad1)*
X156210000Y-78105000D02*
X156210000Y-77470000D01*
X163195000Y-85090000D02*
X156210000Y-78105000D01*
G04 #@! TO.N,Net-(D1-Pad2)*
X153035000Y-86995000D02*
X153035000Y-85090000D01*
X155575000Y-89535000D02*
X153035000Y-86995000D01*
G04 #@! TO.N,D9*
X150695400Y-67510400D02*
X148540400Y-67510400D01*
X151344800Y-83153300D02*
X154488100Y-80010000D01*
X149860000Y-98425000D02*
X153035000Y-95250000D01*
X153035000Y-95250000D02*
X153035000Y-88900000D01*
X148540400Y-67510400D02*
X147070000Y-66040000D01*
X151344800Y-87209800D02*
X151344800Y-83153300D01*
X153035000Y-88900000D02*
X151344800Y-87209800D01*
X152090010Y-68905010D02*
X150695400Y-67510400D01*
X147955000Y-98425000D02*
X149860000Y-98425000D01*
X154488100Y-80010000D02*
X154488100Y-73476900D01*
X155575000Y-69540010D02*
X154940000Y-68905010D01*
X155575000Y-72390000D02*
X155575000Y-69540010D01*
X154940000Y-68905010D02*
X152090010Y-68905010D01*
X154488100Y-73476900D02*
X155575000Y-72390000D01*
G04 #@! TO.N,+5V*
X170815000Y-87630000D02*
X170815000Y-89080300D01*
X173990000Y-108585000D02*
X175512600Y-107062400D01*
X175512600Y-107062400D02*
X175512600Y-93777900D01*
X175512600Y-93777900D02*
X170815000Y-89080300D01*
X146470001Y-69635001D02*
X147320000Y-70485000D01*
X145819999Y-68984999D02*
X146470001Y-69635001D01*
X115800001Y-68984999D02*
X145819999Y-68984999D01*
X114300000Y-70485000D02*
X115800001Y-68984999D01*
X143093600Y-107950000D02*
X128350000Y-107950000D01*
X146050000Y-110906400D02*
X143093600Y-107950000D01*
X128350000Y-107950000D02*
X124540000Y-104140000D01*
X146050000Y-114300000D02*
X146050000Y-110906400D01*
X117555000Y-111125000D02*
X124540000Y-104140000D01*
X116205000Y-111125000D02*
X117555000Y-111125000D01*
G04 #@! TO.N,Net-(A1-Pad9)*
X157299700Y-114300000D02*
X155008000Y-112008300D01*
X155008000Y-112008300D02*
X155008000Y-110318500D01*
X155008000Y-110318500D02*
X151607600Y-106918100D01*
X151607600Y-106918100D02*
X129818100Y-106918100D01*
X129818100Y-106918100D02*
X127040000Y-104140000D01*
X158750000Y-114300000D02*
X157299700Y-114300000D01*
G04 #@! TO.N,Net-(A1-Pad12)*
X169360100Y-93543500D02*
X167279500Y-93543500D01*
X167279500Y-93543500D02*
X166179100Y-94643900D01*
X166179100Y-94643900D02*
X166179100Y-112658800D01*
X166179100Y-112658800D02*
X166370000Y-112849700D01*
X173990000Y-95250000D02*
X172283500Y-93543500D01*
X172283500Y-93543500D02*
X169360100Y-93543500D01*
X170815000Y-82550000D02*
X169360100Y-84004900D01*
X169360100Y-84004900D02*
X169360100Y-93543500D01*
X166370000Y-114300000D02*
X166370000Y-112849700D01*
G04 #@! TO.N,Net-(A1-Pad28)*
X136910000Y-66040000D02*
X135454100Y-64584100D01*
X135454100Y-64584100D02*
X115020200Y-64584100D01*
X115020200Y-64584100D02*
X110007100Y-69597200D01*
X110007100Y-69597200D02*
X110007100Y-95656800D01*
X110007100Y-95656800D02*
X111125000Y-96774700D01*
X111125000Y-98425000D02*
X111125000Y-96774700D01*
G04 #@! TO.N,SDA*
X168910000Y-114300000D02*
X168910000Y-112849700D01*
X167640000Y-95250000D02*
X167640000Y-111579700D01*
X167640000Y-111579700D02*
X168910000Y-112849700D01*
G04 #@! TO.N,Net-(D10-Pad4)*
X130010001Y-85889999D02*
X130810000Y-85090000D01*
X128624999Y-87275001D02*
X130010001Y-85889999D01*
X128624999Y-93860001D02*
X128624999Y-87275001D01*
X127635000Y-94850000D02*
X128624999Y-93860001D01*
X127635000Y-95885000D02*
X127635000Y-94850000D01*
G04 #@! TO.N,Net-(D10-Pad3)*
X127635000Y-92710000D02*
X127635000Y-86221370D01*
X127635000Y-86221370D02*
X127635000Y-85090000D01*
X126284990Y-96293004D02*
X126284990Y-93980000D01*
X126365000Y-93980000D02*
X127635000Y-92710000D01*
X127146986Y-97155000D02*
X126284990Y-96293004D01*
X127635000Y-97155000D02*
X127146986Y-97155000D01*
G04 #@! TO.N,Net-(D10-Pad1)*
X124460000Y-85090000D02*
X124460000Y-86390000D01*
X127635000Y-99695000D02*
X126235000Y-99695000D01*
X126235000Y-99695000D02*
X123543800Y-97003800D01*
X123543800Y-97003800D02*
X123543800Y-87306200D01*
X123543800Y-87306200D02*
X124460000Y-86390000D01*
G04 #@! TO.N,D7*
X133848600Y-77606400D02*
X132522700Y-78932300D01*
X132522700Y-78932300D02*
X129097300Y-78932300D01*
X129097300Y-78932300D02*
X127635000Y-77470000D01*
X133985000Y-77470000D02*
X133848600Y-77606400D01*
X133848600Y-77606400D02*
X136067900Y-79825800D01*
X136067900Y-79825800D02*
X140066800Y-79825800D01*
X140066800Y-79825800D02*
X141785400Y-78107200D01*
X141785400Y-78107200D02*
X141785400Y-76528900D01*
X141785400Y-76528900D02*
X144780000Y-73534300D01*
X144780000Y-73534300D02*
X144780000Y-70485000D01*
G04 #@! TO.N,D6*
X137160000Y-77470000D02*
X142240000Y-72390000D01*
X142240000Y-72390000D02*
X142240000Y-70485000D01*
G04 #@! TO.N,D5*
X135692600Y-75992700D02*
X139700000Y-71985300D01*
X140335000Y-77470000D02*
X138882100Y-78922900D01*
X138882100Y-78922900D02*
X136533300Y-78922900D01*
X136533300Y-78922900D02*
X135692600Y-78082200D01*
X135692600Y-78082200D02*
X135692600Y-75992700D01*
X124460000Y-77470000D02*
X125937300Y-75992700D01*
X125937300Y-75992700D02*
X135692600Y-75992700D01*
X139700000Y-70485000D02*
X139700000Y-71985300D01*
G04 #@! TO.N,A2*
X164465000Y-104775000D02*
X164465000Y-111275000D01*
G04 #@! TO.N,Net-(DS1-Pad3)*
X116840000Y-71985300D02*
X116840000Y-70485000D01*
X110967100Y-77858200D02*
X116840000Y-71985300D01*
X110967100Y-95219100D02*
X110967100Y-77858200D01*
X113538000Y-96012000D02*
X111760000Y-96012000D01*
X111760000Y-96012000D02*
X110967100Y-95219100D01*
X113792000Y-100584000D02*
X114300000Y-100076000D01*
X114300000Y-100076000D02*
X114300000Y-96774000D01*
X114300000Y-96774000D02*
X113538000Y-96012000D01*
X109754999Y-111782601D02*
X109754999Y-101954001D01*
X113665000Y-113665000D02*
X111637398Y-113665000D01*
X111637398Y-113665000D02*
X109754999Y-111782601D01*
X111125000Y-100584000D02*
X113792000Y-100584000D01*
X109754999Y-101954001D02*
X111125000Y-100584000D01*
G04 #@! TO.N,D8*
X150910000Y-66040000D02*
X149610000Y-66040000D01*
X158115000Y-98425000D02*
X159515000Y-98425000D01*
X159515000Y-98425000D02*
X165100000Y-92840000D01*
X165100000Y-92840000D02*
X165100000Y-84213000D01*
X165100000Y-84213000D02*
X158357000Y-77470000D01*
X158357000Y-77470000D02*
X158356002Y-77470000D01*
X152400000Y-67530000D02*
X150910000Y-66040000D01*
X158356002Y-77470000D02*
X156845000Y-75958998D01*
X156845000Y-68800000D02*
X155575000Y-67530000D01*
X156845000Y-75958998D02*
X156845000Y-68800000D01*
X152400000Y-67530000D02*
X155575000Y-67530000D01*
G04 #@! TO.N,D10*
X150125800Y-68210800D02*
X146700800Y-68210800D01*
X142875000Y-94745000D02*
X142875000Y-87984600D01*
X142875000Y-87984600D02*
X145234700Y-85624900D01*
X146700800Y-68210800D02*
X144530000Y-66040000D01*
X137795000Y-98425000D02*
X139195000Y-98425000D01*
X148555500Y-81078600D02*
X148648300Y-81078600D01*
X139195000Y-98425000D02*
X142875000Y-94745000D01*
X148648300Y-81078600D02*
X151390000Y-78336900D01*
X145234700Y-85624900D02*
X145234700Y-84399400D01*
X151390000Y-69475000D02*
X150125800Y-68210800D01*
X145234700Y-84399400D02*
X148555500Y-81078600D01*
X151390000Y-78336900D02*
X151390000Y-69475000D01*
G04 #@! TO.N,A1*
X144145000Y-103505000D02*
X145615700Y-102034300D01*
X145615700Y-102034300D02*
X154104300Y-102034300D01*
X154104300Y-102034300D02*
X156845000Y-104775000D01*
X156845000Y-111275000D02*
X156845000Y-104775000D01*
G04 #@! TO.N,SCL*
X171877500Y-103505000D02*
X171877500Y-112422200D01*
X171877500Y-112422200D02*
X171450000Y-112849700D01*
X172489700Y-103505000D02*
X171877500Y-103505000D01*
X173990000Y-103505000D02*
X172489700Y-103505000D01*
X171450000Y-114300000D02*
X171450000Y-112849700D01*
X171877500Y-96312500D02*
X170815000Y-95250000D01*
X171877500Y-103505000D02*
X171877500Y-96312500D01*
G04 #@! TO.N,Net-(A1-Pad11)*
X153013000Y-109596800D02*
X153995400Y-110579200D01*
X153995400Y-110579200D02*
X153995400Y-112327400D01*
X153995400Y-112327400D02*
X157429800Y-115761800D01*
X157429800Y-115761800D02*
X162368200Y-115761800D01*
X162368200Y-115761800D02*
X163830000Y-114300000D01*
X150933500Y-109596800D02*
X153013000Y-109596800D01*
X149405300Y-111125000D02*
X150933500Y-109596800D01*
X147955000Y-111125000D02*
X149405300Y-111125000D01*
G04 #@! TO.N,Net-(Q2-Pad1)*
X168275000Y-77470000D02*
X161290000Y-70485000D01*
X168275000Y-82550000D02*
X168275000Y-77470000D01*
G04 #@! TO.N,Net-(D0-Pad2)*
X156210000Y-86390000D02*
X159355000Y-89535000D01*
X159355000Y-89535000D02*
X160655000Y-89535000D01*
X156210000Y-85090000D02*
X156210000Y-86390000D01*
G04 #@! TD*
D26*
G04 #@! TO.N,GND*
G36*
X109442947Y-68909775D02*
X109369051Y-68959151D01*
X109173448Y-69251891D01*
X109122100Y-69510036D01*
X109122100Y-69510039D01*
X109104763Y-69597200D01*
X109122100Y-69684361D01*
X109122101Y-95569634D01*
X109104763Y-95656800D01*
X109173448Y-96002109D01*
X109319676Y-96220954D01*
X109319678Y-96220956D01*
X109369052Y-96294849D01*
X109442945Y-96344223D01*
X109917546Y-96818825D01*
X109877235Y-96826843D01*
X109667191Y-96967191D01*
X109526843Y-97177235D01*
X109477560Y-97425000D01*
X109477560Y-99425000D01*
X109526843Y-99672765D01*
X109667191Y-99882809D01*
X109877235Y-100023157D01*
X110125000Y-100072440D01*
X110384981Y-100072440D01*
X109190844Y-101266578D01*
X109116951Y-101315952D01*
X109067577Y-101389845D01*
X109067575Y-101389847D01*
X108921347Y-101608692D01*
X108852662Y-101954001D01*
X108870000Y-102041166D01*
X108869999Y-111695440D01*
X108852662Y-111782601D01*
X108869999Y-111869762D01*
X108869999Y-111869765D01*
X108921347Y-112127910D01*
X109116950Y-112420650D01*
X109190846Y-112470026D01*
X110949975Y-114229156D01*
X110999349Y-114303049D01*
X111073242Y-114352423D01*
X111073243Y-114352424D01*
X111125235Y-114387164D01*
X111292088Y-114498652D01*
X111550233Y-114550000D01*
X111550237Y-114550000D01*
X111637397Y-114567337D01*
X111724557Y-114550000D01*
X112633740Y-114550000D01*
X112897454Y-114813714D01*
X113395474Y-115020000D01*
X113934526Y-115020000D01*
X114432546Y-114813714D01*
X114813714Y-114432546D01*
X115020000Y-113934526D01*
X115020000Y-113395474D01*
X114813714Y-112897454D01*
X114432546Y-112516286D01*
X113934526Y-112310000D01*
X113395474Y-112310000D01*
X112897454Y-112516286D01*
X112633740Y-112780000D01*
X112003977Y-112780000D01*
X111622781Y-112398804D01*
X111830869Y-112312611D01*
X111895169Y-112074774D01*
X111125000Y-111304605D01*
X111110858Y-111318748D01*
X110931253Y-111139143D01*
X110945395Y-111125000D01*
X111304605Y-111125000D01*
X112074774Y-111895169D01*
X112312611Y-111830869D01*
X112492333Y-111322658D01*
X112463892Y-110784356D01*
X112312611Y-110419131D01*
X112074774Y-110354831D01*
X111304605Y-111125000D01*
X110945395Y-111125000D01*
X110931253Y-111110858D01*
X111110858Y-110931253D01*
X111125000Y-110945395D01*
X111895169Y-110175226D01*
X111830869Y-109937389D01*
X111322658Y-109757667D01*
X110784356Y-109786108D01*
X110639999Y-109845903D01*
X110639999Y-102320579D01*
X111491579Y-101469000D01*
X113704839Y-101469000D01*
X113792000Y-101486337D01*
X113879161Y-101469000D01*
X113879165Y-101469000D01*
X114137310Y-101417652D01*
X114430049Y-101222049D01*
X114479425Y-101148153D01*
X114864154Y-100763424D01*
X114938049Y-100714049D01*
X115133652Y-100421310D01*
X115185000Y-100163165D01*
X115185000Y-100163161D01*
X115202337Y-100076001D01*
X115185000Y-99988841D01*
X115185000Y-98160461D01*
X115829092Y-98160461D01*
X115853144Y-98810460D01*
X116055613Y-99299264D01*
X116322468Y-99397927D01*
X117096250Y-98624145D01*
X117103144Y-98810460D01*
X117151765Y-98927840D01*
X116502073Y-99577532D01*
X116600736Y-99844387D01*
X117210461Y-100070908D01*
X117860460Y-100046856D01*
X118113546Y-99942024D01*
X118460461Y-100070908D01*
X119110460Y-100046856D01*
X119599264Y-99844387D01*
X119697927Y-99577532D01*
X119036672Y-98916277D01*
X119120908Y-98689539D01*
X119119055Y-98639450D01*
X119877532Y-99397927D01*
X120144387Y-99299264D01*
X120370908Y-98689539D01*
X120346856Y-98039540D01*
X120144387Y-97550736D01*
X119877532Y-97452073D01*
X119103750Y-98225855D01*
X119096856Y-98039540D01*
X119048235Y-97922160D01*
X119697927Y-97272468D01*
X119599264Y-97005613D01*
X118989539Y-96779092D01*
X118339540Y-96803144D01*
X118086454Y-96907976D01*
X117739539Y-96779092D01*
X117089540Y-96803144D01*
X116600736Y-97005613D01*
X116502073Y-97272468D01*
X117163328Y-97933723D01*
X117079092Y-98160461D01*
X117080945Y-98210550D01*
X116322468Y-97452073D01*
X116055613Y-97550736D01*
X115829092Y-98160461D01*
X115185000Y-98160461D01*
X115185000Y-96861161D01*
X115202337Y-96774000D01*
X115185000Y-96686839D01*
X115185000Y-96686835D01*
X115133652Y-96428690D01*
X115101231Y-96380169D01*
X114987424Y-96209845D01*
X114987423Y-96209844D01*
X114938049Y-96135951D01*
X114864156Y-96086577D01*
X114225425Y-95447847D01*
X114176049Y-95373951D01*
X113883310Y-95178348D01*
X113625165Y-95127000D01*
X113625161Y-95127000D01*
X113538000Y-95109663D01*
X113450839Y-95127000D01*
X112126579Y-95127000D01*
X111852100Y-94852522D01*
X111852100Y-89541884D01*
X112190171Y-89662201D01*
X112740448Y-89634230D01*
X113118923Y-89477460D01*
X113186912Y-89236517D01*
X112395000Y-88444605D01*
X112380858Y-88458748D01*
X112201253Y-88279143D01*
X112215395Y-88265000D01*
X112574605Y-88265000D01*
X113366517Y-89056912D01*
X113607460Y-88988923D01*
X113666745Y-88822342D01*
X113760853Y-89049540D01*
X114150460Y-89439147D01*
X114659506Y-89650000D01*
X115210494Y-89650000D01*
X115719540Y-89439147D01*
X116088531Y-89070156D01*
X116126843Y-89262765D01*
X116267191Y-89472809D01*
X116477235Y-89613157D01*
X116725000Y-89662440D01*
X118225000Y-89662440D01*
X118472765Y-89613157D01*
X118682809Y-89472809D01*
X118823157Y-89262765D01*
X118872440Y-89015000D01*
X118872440Y-87515000D01*
X118830908Y-87306200D01*
X122641463Y-87306200D01*
X122658801Y-87393365D01*
X122658800Y-96916639D01*
X122641463Y-97003800D01*
X122658800Y-97090961D01*
X122658800Y-97090964D01*
X122710148Y-97349109D01*
X122905751Y-97641849D01*
X122979647Y-97691225D01*
X125547577Y-100259156D01*
X125596951Y-100333049D01*
X125670844Y-100382423D01*
X125670845Y-100382424D01*
X125889690Y-100528652D01*
X126147835Y-100580000D01*
X126147839Y-100580000D01*
X126213940Y-100593148D01*
X126277191Y-100687809D01*
X126487235Y-100828157D01*
X126735000Y-100877440D01*
X128535000Y-100877440D01*
X128782765Y-100828157D01*
X128992809Y-100687809D01*
X129133157Y-100477765D01*
X129182440Y-100230000D01*
X129182440Y-99160000D01*
X129133157Y-98912235D01*
X129104527Y-98869387D01*
X129192921Y-98425000D01*
X129102115Y-97968489D01*
X128982853Y-97790000D01*
X129102115Y-97611511D01*
X129192921Y-97155000D01*
X129102115Y-96698489D01*
X128982853Y-96520000D01*
X129102115Y-96341511D01*
X129192921Y-95885000D01*
X129102115Y-95428489D01*
X128843523Y-95041477D01*
X128754551Y-94982028D01*
X129189155Y-94547424D01*
X129263048Y-94498050D01*
X129317907Y-94415949D01*
X129458651Y-94205311D01*
X129458651Y-94205310D01*
X129509999Y-93947166D01*
X129509999Y-93947163D01*
X129527336Y-93860002D01*
X129509999Y-93772841D01*
X129509999Y-93622440D01*
X131075000Y-93622440D01*
X131322765Y-93573157D01*
X131532809Y-93432809D01*
X131673157Y-93222765D01*
X131722440Y-92975000D01*
X131722440Y-91175000D01*
X133707560Y-91175000D01*
X133707560Y-92975000D01*
X133756843Y-93222765D01*
X133897191Y-93432809D01*
X134107235Y-93573157D01*
X134355000Y-93622440D01*
X136155000Y-93622440D01*
X136402765Y-93573157D01*
X136612809Y-93432809D01*
X136753157Y-93222765D01*
X136802440Y-92975000D01*
X136802440Y-91175000D01*
X138787560Y-91175000D01*
X138787560Y-92975000D01*
X138836843Y-93222765D01*
X138977191Y-93432809D01*
X139187235Y-93573157D01*
X139435000Y-93622440D01*
X141235000Y-93622440D01*
X141482765Y-93573157D01*
X141692809Y-93432809D01*
X141833157Y-93222765D01*
X141882440Y-92975000D01*
X141882440Y-91175000D01*
X141833157Y-90927235D01*
X141692809Y-90717191D01*
X141482765Y-90576843D01*
X141467092Y-90573725D01*
X141636310Y-90404507D01*
X141870000Y-89840330D01*
X141870000Y-89229670D01*
X141636310Y-88665493D01*
X141204507Y-88233690D01*
X140640330Y-88000000D01*
X140029670Y-88000000D01*
X139465493Y-88233690D01*
X139033690Y-88665493D01*
X138800000Y-89229670D01*
X138800000Y-89840330D01*
X139033690Y-90404507D01*
X139202908Y-90573725D01*
X139187235Y-90576843D01*
X138977191Y-90717191D01*
X138836843Y-90927235D01*
X138787560Y-91175000D01*
X136802440Y-91175000D01*
X136753157Y-90927235D01*
X136612809Y-90717191D01*
X136402765Y-90576843D01*
X136387092Y-90573725D01*
X136556310Y-90404507D01*
X136790000Y-89840330D01*
X136790000Y-89251578D01*
X139670035Y-86371544D01*
X139775091Y-86441740D01*
X140193667Y-86525000D01*
X140476333Y-86525000D01*
X140894909Y-86441740D01*
X141369577Y-86124577D01*
X141686740Y-85649909D01*
X141798113Y-85090000D01*
X141686740Y-84530091D01*
X141369577Y-84055423D01*
X140894909Y-83738260D01*
X140476333Y-83655000D01*
X140193667Y-83655000D01*
X139775091Y-83738260D01*
X139300423Y-84055423D01*
X138983260Y-84530091D01*
X138977035Y-84561386D01*
X138594130Y-84944291D01*
X138511740Y-84530091D01*
X138194577Y-84055423D01*
X137719909Y-83738260D01*
X137301333Y-83655000D01*
X137018667Y-83655000D01*
X136600091Y-83738260D01*
X136125423Y-84055423D01*
X135808260Y-84530091D01*
X135696887Y-85090000D01*
X135808260Y-85649909D01*
X136125423Y-86124577D01*
X136600091Y-86441740D01*
X137014292Y-86524130D01*
X135538422Y-88000000D01*
X134949670Y-88000000D01*
X134385493Y-88233690D01*
X133953690Y-88665493D01*
X133720000Y-89229670D01*
X133720000Y-89840330D01*
X133953690Y-90404507D01*
X134122908Y-90573725D01*
X134107235Y-90576843D01*
X133897191Y-90717191D01*
X133756843Y-90927235D01*
X133707560Y-91175000D01*
X131722440Y-91175000D01*
X131673157Y-90927235D01*
X131532809Y-90717191D01*
X131322765Y-90576843D01*
X131307092Y-90573725D01*
X131476310Y-90404507D01*
X131710000Y-89840330D01*
X131710000Y-89229670D01*
X131476310Y-88665493D01*
X131044507Y-88233690D01*
X130480330Y-88000000D01*
X129869670Y-88000000D01*
X129509999Y-88148981D01*
X129509999Y-87641579D01*
X130633562Y-86518017D01*
X130668667Y-86525000D01*
X130951333Y-86525000D01*
X131369909Y-86441740D01*
X131844577Y-86124577D01*
X132161740Y-85649909D01*
X132273113Y-85090000D01*
X132521887Y-85090000D01*
X132633260Y-85649909D01*
X132950423Y-86124577D01*
X133425091Y-86441740D01*
X133843667Y-86525000D01*
X134126333Y-86525000D01*
X134544909Y-86441740D01*
X135019577Y-86124577D01*
X135336740Y-85649909D01*
X135448113Y-85090000D01*
X135336740Y-84530091D01*
X135019577Y-84055423D01*
X134544909Y-83738260D01*
X134126333Y-83655000D01*
X133843667Y-83655000D01*
X133425091Y-83738260D01*
X132950423Y-84055423D01*
X132633260Y-84530091D01*
X132521887Y-85090000D01*
X132273113Y-85090000D01*
X132161740Y-84530091D01*
X131844577Y-84055423D01*
X131369909Y-83738260D01*
X130951333Y-83655000D01*
X130668667Y-83655000D01*
X130250091Y-83738260D01*
X129775423Y-84055423D01*
X129458260Y-84530091D01*
X129346887Y-85090000D01*
X129381983Y-85266438D01*
X128963034Y-85685387D01*
X128986740Y-85649909D01*
X129098113Y-85090000D01*
X128986740Y-84530091D01*
X128669577Y-84055423D01*
X128194909Y-83738260D01*
X127776333Y-83655000D01*
X127493667Y-83655000D01*
X127075091Y-83738260D01*
X126600423Y-84055423D01*
X126283260Y-84530091D01*
X126171887Y-85090000D01*
X126283260Y-85649909D01*
X126600423Y-86124577D01*
X126750000Y-86224521D01*
X126750000Y-86308534D01*
X126750001Y-86308539D01*
X126750000Y-92343421D01*
X126642440Y-92450981D01*
X126642440Y-91175000D01*
X126593157Y-90927235D01*
X126452809Y-90717191D01*
X126242765Y-90576843D01*
X126227092Y-90573725D01*
X126396310Y-90404507D01*
X126630000Y-89840330D01*
X126630000Y-89229670D01*
X126396310Y-88665493D01*
X125964507Y-88233690D01*
X125400330Y-88000000D01*
X124789670Y-88000000D01*
X124428800Y-88149477D01*
X124428800Y-87672778D01*
X125024156Y-87077423D01*
X125098049Y-87028049D01*
X125147425Y-86954154D01*
X125293651Y-86735311D01*
X125293652Y-86735310D01*
X125345000Y-86477165D01*
X125345000Y-86477161D01*
X125362337Y-86390001D01*
X125345000Y-86302841D01*
X125345000Y-86224521D01*
X125494577Y-86124577D01*
X125811740Y-85649909D01*
X125923113Y-85090000D01*
X125811740Y-84530091D01*
X125494577Y-84055423D01*
X125019909Y-83738260D01*
X124601333Y-83655000D01*
X124318667Y-83655000D01*
X123900091Y-83738260D01*
X123425423Y-84055423D01*
X123108260Y-84530091D01*
X122996887Y-85090000D01*
X123108260Y-85649909D01*
X123425423Y-86124577D01*
X123454450Y-86143972D01*
X122979645Y-86618777D01*
X122905752Y-86668151D01*
X122856378Y-86742044D01*
X122856376Y-86742046D01*
X122710148Y-86960891D01*
X122641463Y-87306200D01*
X118830908Y-87306200D01*
X118823157Y-87267235D01*
X118682809Y-87057191D01*
X118472765Y-86916843D01*
X118225000Y-86867560D01*
X116725000Y-86867560D01*
X116477235Y-86916843D01*
X116267191Y-87057191D01*
X116126843Y-87267235D01*
X116088531Y-87459844D01*
X115719540Y-87090853D01*
X115210494Y-86880000D01*
X114659506Y-86880000D01*
X114150460Y-87090853D01*
X113760853Y-87480460D01*
X113671603Y-87695930D01*
X113607460Y-87541077D01*
X113366517Y-87473088D01*
X112574605Y-88265000D01*
X112215395Y-88265000D01*
X112201253Y-88250858D01*
X112380858Y-88071253D01*
X112395000Y-88085395D01*
X113186912Y-87293483D01*
X113118923Y-87052540D01*
X112599829Y-86867799D01*
X112049552Y-86895770D01*
X111852100Y-86977558D01*
X111852100Y-84804561D01*
X119850000Y-84804561D01*
X119850000Y-85375439D01*
X120068466Y-85902862D01*
X120472138Y-86306534D01*
X120999561Y-86525000D01*
X121570439Y-86525000D01*
X122097862Y-86306534D01*
X122501534Y-85902862D01*
X122720000Y-85375439D01*
X122720000Y-84804561D01*
X122501534Y-84277138D01*
X122097862Y-83873466D01*
X121570439Y-83655000D01*
X120999561Y-83655000D01*
X120472138Y-83873466D01*
X120068466Y-84277138D01*
X119850000Y-84804561D01*
X111852100Y-84804561D01*
X111852100Y-78224778D01*
X112257837Y-77819041D01*
X119893086Y-77819041D01*
X120132611Y-78325134D01*
X120547577Y-78701041D01*
X120935961Y-78861904D01*
X121158000Y-78739915D01*
X121158000Y-77597000D01*
X121412000Y-77597000D01*
X121412000Y-78739915D01*
X121634039Y-78861904D01*
X122022423Y-78701041D01*
X122437389Y-78325134D01*
X122676914Y-77819041D01*
X122555629Y-77597000D01*
X121412000Y-77597000D01*
X121158000Y-77597000D01*
X120014371Y-77597000D01*
X119893086Y-77819041D01*
X112257837Y-77819041D01*
X112955919Y-77120959D01*
X119893086Y-77120959D01*
X120014371Y-77343000D01*
X121158000Y-77343000D01*
X121158000Y-76200085D01*
X121412000Y-76200085D01*
X121412000Y-77343000D01*
X122555629Y-77343000D01*
X122676914Y-77120959D01*
X122437389Y-76614866D01*
X122022423Y-76238959D01*
X121634039Y-76078096D01*
X121412000Y-76200085D01*
X121158000Y-76200085D01*
X120935961Y-76078096D01*
X120547577Y-76238959D01*
X120132611Y-76614866D01*
X119893086Y-77120959D01*
X112955919Y-77120959D01*
X117404156Y-72672723D01*
X117478049Y-72623349D01*
X117673652Y-72330610D01*
X117725000Y-72072465D01*
X117725000Y-72072461D01*
X117742337Y-71985300D01*
X117725000Y-71898139D01*
X117725000Y-71679656D01*
X117910625Y-71555625D01*
X118110000Y-71257239D01*
X118309375Y-71555625D01*
X118800582Y-71883839D01*
X119233744Y-71970000D01*
X119526256Y-71970000D01*
X119959418Y-71883839D01*
X120450625Y-71555625D01*
X120663843Y-71236522D01*
X120724817Y-71366358D01*
X121153076Y-71756645D01*
X121563110Y-71926476D01*
X121793000Y-71805155D01*
X121793000Y-70612000D01*
X121773000Y-70612000D01*
X121773000Y-70358000D01*
X121793000Y-70358000D01*
X121793000Y-70338000D01*
X122047000Y-70338000D01*
X122047000Y-70358000D01*
X122067000Y-70358000D01*
X122067000Y-70612000D01*
X122047000Y-70612000D01*
X122047000Y-71805155D01*
X122276890Y-71926476D01*
X122686924Y-71756645D01*
X123115183Y-71366358D01*
X123176157Y-71236522D01*
X123389375Y-71555625D01*
X123880582Y-71883839D01*
X124313744Y-71970000D01*
X124606256Y-71970000D01*
X125039418Y-71883839D01*
X125530625Y-71555625D01*
X125730000Y-71257239D01*
X125929375Y-71555625D01*
X126420582Y-71883839D01*
X126853744Y-71970000D01*
X127146256Y-71970000D01*
X127579418Y-71883839D01*
X128070625Y-71555625D01*
X128270000Y-71257239D01*
X128469375Y-71555625D01*
X128960582Y-71883839D01*
X129393744Y-71970000D01*
X129686256Y-71970000D01*
X130119418Y-71883839D01*
X130610625Y-71555625D01*
X130810000Y-71257239D01*
X131009375Y-71555625D01*
X131500582Y-71883839D01*
X131933744Y-71970000D01*
X132226256Y-71970000D01*
X132659418Y-71883839D01*
X133150625Y-71555625D01*
X133350000Y-71257239D01*
X133549375Y-71555625D01*
X134040582Y-71883839D01*
X134473744Y-71970000D01*
X134766256Y-71970000D01*
X135199418Y-71883839D01*
X135690625Y-71555625D01*
X135890000Y-71257239D01*
X136089375Y-71555625D01*
X136580582Y-71883839D01*
X137013744Y-71970000D01*
X137306256Y-71970000D01*
X137739418Y-71883839D01*
X138230625Y-71555625D01*
X138430000Y-71257239D01*
X138629375Y-71555625D01*
X138778472Y-71655249D01*
X135326022Y-75107700D01*
X126024461Y-75107700D01*
X125937300Y-75090363D01*
X125850139Y-75107700D01*
X125850135Y-75107700D01*
X125591990Y-75159048D01*
X125373145Y-75305276D01*
X125373144Y-75305277D01*
X125299251Y-75354651D01*
X125249877Y-75428544D01*
X124643421Y-76035000D01*
X124174561Y-76035000D01*
X123647138Y-76253466D01*
X123243466Y-76657138D01*
X123025000Y-77184561D01*
X123025000Y-77755439D01*
X123243466Y-78282862D01*
X123647138Y-78686534D01*
X124174561Y-78905000D01*
X124745439Y-78905000D01*
X125272862Y-78686534D01*
X125676534Y-78282862D01*
X125895000Y-77755439D01*
X125895000Y-77286579D01*
X126303879Y-76877700D01*
X126327106Y-76877700D01*
X126200000Y-77184561D01*
X126200000Y-77755439D01*
X126418466Y-78282862D01*
X126822138Y-78686534D01*
X127349561Y-78905000D01*
X127818421Y-78905000D01*
X128409877Y-79496456D01*
X128459251Y-79570349D01*
X128533144Y-79619723D01*
X128533145Y-79619724D01*
X128597619Y-79662804D01*
X128751990Y-79765952D01*
X129010135Y-79817300D01*
X129010139Y-79817300D01*
X129097299Y-79834637D01*
X129184459Y-79817300D01*
X132435539Y-79817300D01*
X132522700Y-79834637D01*
X132609861Y-79817300D01*
X132609865Y-79817300D01*
X132868010Y-79765952D01*
X133160749Y-79570349D01*
X133210125Y-79496453D01*
X133801578Y-78905000D01*
X133895591Y-78905000D01*
X135380470Y-80389945D01*
X135429851Y-80463849D01*
X135582404Y-80565782D01*
X135722571Y-80659444D01*
X135722581Y-80659446D01*
X135722590Y-80659452D01*
X135922768Y-80699270D01*
X136067879Y-80728137D01*
X136155049Y-80710800D01*
X139979639Y-80710800D01*
X140066800Y-80728137D01*
X140153961Y-80710800D01*
X140153965Y-80710800D01*
X140412110Y-80659452D01*
X140704849Y-80463849D01*
X140754225Y-80389953D01*
X142349556Y-78794623D01*
X142423449Y-78745249D01*
X142474295Y-78669154D01*
X142556592Y-78545988D01*
X142697138Y-78686534D01*
X143224561Y-78905000D01*
X143795439Y-78905000D01*
X144322862Y-78686534D01*
X144726534Y-78282862D01*
X144945000Y-77755439D01*
X144945000Y-77184561D01*
X145250000Y-77184561D01*
X145250000Y-77755439D01*
X145468466Y-78282862D01*
X145872138Y-78686534D01*
X146399561Y-78905000D01*
X146970439Y-78905000D01*
X147497862Y-78686534D01*
X147901534Y-78282862D01*
X148120000Y-77755439D01*
X148120000Y-77184561D01*
X147901534Y-76657138D01*
X147497862Y-76253466D01*
X146970439Y-76035000D01*
X146399561Y-76035000D01*
X145872138Y-76253466D01*
X145468466Y-76657138D01*
X145250000Y-77184561D01*
X144945000Y-77184561D01*
X144726534Y-76657138D01*
X144322862Y-76253466D01*
X143795439Y-76035000D01*
X143530878Y-76035000D01*
X145344156Y-74221723D01*
X145418049Y-74172349D01*
X145613652Y-73879610D01*
X145665000Y-73621465D01*
X145665000Y-73621461D01*
X145682337Y-73534300D01*
X145665000Y-73447139D01*
X145665000Y-71679656D01*
X145850625Y-71555625D01*
X146050000Y-71257239D01*
X146249375Y-71555625D01*
X146740582Y-71883839D01*
X147173744Y-71970000D01*
X147466256Y-71970000D01*
X147899418Y-71883839D01*
X148390625Y-71555625D01*
X148590000Y-71257239D01*
X148789375Y-71555625D01*
X149280582Y-71883839D01*
X149713744Y-71970000D01*
X150006256Y-71970000D01*
X150439418Y-71883839D01*
X150505001Y-71840018D01*
X150505000Y-76183935D01*
X150145439Y-76035000D01*
X149574561Y-76035000D01*
X149047138Y-76253466D01*
X148643466Y-76657138D01*
X148425000Y-77184561D01*
X148425000Y-77755439D01*
X148643466Y-78282862D01*
X149047138Y-78686534D01*
X149571563Y-78903758D01*
X148235386Y-80239936D01*
X148210190Y-80244948D01*
X148210188Y-80244949D01*
X148210189Y-80244949D01*
X147991345Y-80391176D01*
X147991344Y-80391177D01*
X147917451Y-80440551D01*
X147868077Y-80514444D01*
X144670545Y-83711977D01*
X144596652Y-83761351D01*
X144547278Y-83835244D01*
X144547276Y-83835246D01*
X144444734Y-83988710D01*
X144069909Y-83738260D01*
X143651333Y-83655000D01*
X143368667Y-83655000D01*
X142950091Y-83738260D01*
X142475423Y-84055423D01*
X142158260Y-84530091D01*
X142046887Y-85090000D01*
X142158260Y-85649909D01*
X142475423Y-86124577D01*
X142950091Y-86441740D01*
X143130413Y-86477608D01*
X142310845Y-87297177D01*
X142236952Y-87346551D01*
X142187578Y-87420444D01*
X142187576Y-87420446D01*
X142041348Y-87639291D01*
X141972663Y-87984600D01*
X141990001Y-88071765D01*
X141990000Y-94378421D01*
X139329777Y-97038645D01*
X139262115Y-96698489D01*
X139142853Y-96520000D01*
X139262115Y-96341511D01*
X139352921Y-95885000D01*
X139262115Y-95428489D01*
X139003523Y-95041477D01*
X138616511Y-94782885D01*
X138275231Y-94715000D01*
X137314769Y-94715000D01*
X136973489Y-94782885D01*
X136586477Y-95041477D01*
X136327885Y-95428489D01*
X136237079Y-95885000D01*
X136327885Y-96341511D01*
X136447147Y-96520000D01*
X136327885Y-96698489D01*
X136237079Y-97155000D01*
X136327885Y-97611511D01*
X136447147Y-97790000D01*
X136327885Y-97968489D01*
X136237079Y-98425000D01*
X136325473Y-98869387D01*
X136296843Y-98912235D01*
X136247560Y-99160000D01*
X136247560Y-100230000D01*
X136296843Y-100477765D01*
X136437191Y-100687809D01*
X136647235Y-100828157D01*
X136895000Y-100877440D01*
X138695000Y-100877440D01*
X138942765Y-100828157D01*
X139152809Y-100687809D01*
X139293157Y-100477765D01*
X139342440Y-100230000D01*
X139342440Y-99298011D01*
X139540310Y-99258652D01*
X139833049Y-99063049D01*
X139882425Y-98989153D01*
X143439156Y-95432423D01*
X143513049Y-95383049D01*
X143564356Y-95306264D01*
X143708652Y-95090310D01*
X143733665Y-94964561D01*
X143760000Y-94832165D01*
X143760000Y-94832161D01*
X143777337Y-94745000D01*
X143760000Y-94657839D01*
X143760000Y-88351178D01*
X145798856Y-86312323D01*
X145800001Y-86311558D01*
X145800000Y-87898421D01*
X145698421Y-88000000D01*
X145109670Y-88000000D01*
X144545493Y-88233690D01*
X144113690Y-88665493D01*
X143880000Y-89229670D01*
X143880000Y-89840330D01*
X144113690Y-90404507D01*
X144282908Y-90573725D01*
X144267235Y-90576843D01*
X144057191Y-90717191D01*
X143916843Y-90927235D01*
X143867560Y-91175000D01*
X143867560Y-92975000D01*
X143916843Y-93222765D01*
X144057191Y-93432809D01*
X144267235Y-93573157D01*
X144515000Y-93622440D01*
X146315000Y-93622440D01*
X146562765Y-93573157D01*
X146772809Y-93432809D01*
X146913157Y-93222765D01*
X146962440Y-92975000D01*
X146962440Y-91175000D01*
X146913157Y-90927235D01*
X146772809Y-90717191D01*
X146562765Y-90576843D01*
X146547092Y-90573725D01*
X146716310Y-90404507D01*
X146950000Y-89840330D01*
X146950000Y-89251579D01*
X147249156Y-88952423D01*
X147323049Y-88903049D01*
X147383329Y-88812835D01*
X147510407Y-88622649D01*
X147518652Y-88610310D01*
X147570000Y-88352165D01*
X147570000Y-88352161D01*
X147587337Y-88265001D01*
X147570000Y-88177841D01*
X147570000Y-86224521D01*
X147719577Y-86124577D01*
X148036740Y-85649909D01*
X148148113Y-85090000D01*
X148036740Y-84530091D01*
X147719577Y-84055423D01*
X147244909Y-83738260D01*
X147163593Y-83722085D01*
X148968415Y-81917263D01*
X148993610Y-81912252D01*
X149286349Y-81716649D01*
X149335725Y-81642753D01*
X151954156Y-79024323D01*
X152028049Y-78974949D01*
X152221314Y-78685710D01*
X152222138Y-78686534D01*
X152749561Y-78905000D01*
X153320439Y-78905000D01*
X153603100Y-78787918D01*
X153603100Y-79643421D01*
X150780645Y-82465877D01*
X150706752Y-82515251D01*
X150657378Y-82589144D01*
X150657376Y-82589146D01*
X150511148Y-82807991D01*
X150442463Y-83153300D01*
X150459801Y-83240465D01*
X150459801Y-83764915D01*
X150419909Y-83738260D01*
X150001333Y-83655000D01*
X149718667Y-83655000D01*
X149300091Y-83738260D01*
X148825423Y-84055423D01*
X148508260Y-84530091D01*
X148396887Y-85090000D01*
X148508260Y-85649909D01*
X148825423Y-86124577D01*
X149300091Y-86441740D01*
X149718667Y-86525000D01*
X150001333Y-86525000D01*
X150419909Y-86441740D01*
X150459800Y-86415086D01*
X150459800Y-87122639D01*
X150442463Y-87209800D01*
X150459800Y-87296961D01*
X150459800Y-87296964D01*
X150511148Y-87555109D01*
X150706751Y-87847849D01*
X150780647Y-87897225D01*
X150942177Y-88058755D01*
X150800330Y-88000000D01*
X150189670Y-88000000D01*
X149625493Y-88233690D01*
X149193690Y-88665493D01*
X148960000Y-89229670D01*
X148960000Y-89840330D01*
X149193690Y-90404507D01*
X149362908Y-90573725D01*
X149347235Y-90576843D01*
X149137191Y-90717191D01*
X148996843Y-90927235D01*
X148947560Y-91175000D01*
X148947560Y-92975000D01*
X148996843Y-93222765D01*
X149137191Y-93432809D01*
X149347235Y-93573157D01*
X149595000Y-93622440D01*
X151395000Y-93622440D01*
X151642765Y-93573157D01*
X151852809Y-93432809D01*
X151993157Y-93222765D01*
X152042440Y-92975000D01*
X152042440Y-91175000D01*
X151993157Y-90927235D01*
X151852809Y-90717191D01*
X151642765Y-90576843D01*
X151627092Y-90573725D01*
X151796310Y-90404507D01*
X152030000Y-89840330D01*
X152030000Y-89229670D01*
X151971245Y-89087824D01*
X152150001Y-89266580D01*
X152150000Y-94883421D01*
X149493422Y-97540000D01*
X149436339Y-97540000D01*
X149512921Y-97155000D01*
X149422115Y-96698489D01*
X149302853Y-96520000D01*
X149422115Y-96341511D01*
X149512921Y-95885000D01*
X149422115Y-95428489D01*
X149163523Y-95041477D01*
X148776511Y-94782885D01*
X148435231Y-94715000D01*
X147474769Y-94715000D01*
X147133489Y-94782885D01*
X146746477Y-95041477D01*
X146487885Y-95428489D01*
X146397079Y-95885000D01*
X146487885Y-96341511D01*
X146607147Y-96520000D01*
X146487885Y-96698489D01*
X146397079Y-97155000D01*
X146487885Y-97611511D01*
X146607147Y-97790000D01*
X146487885Y-97968489D01*
X146397079Y-98425000D01*
X146485473Y-98869387D01*
X146456843Y-98912235D01*
X146407560Y-99160000D01*
X146407560Y-100230000D01*
X146456843Y-100477765D01*
X146597191Y-100687809D01*
X146807235Y-100828157D01*
X147055000Y-100877440D01*
X148855000Y-100877440D01*
X149102765Y-100828157D01*
X149312809Y-100687809D01*
X149453157Y-100477765D01*
X149502440Y-100230000D01*
X149502440Y-99310000D01*
X149772839Y-99310000D01*
X149860000Y-99327337D01*
X149947161Y-99310000D01*
X149947165Y-99310000D01*
X150205310Y-99258652D01*
X150498049Y-99063049D01*
X150547425Y-98989153D01*
X153599156Y-95937423D01*
X153673049Y-95888049D01*
X153722425Y-95814154D01*
X153828798Y-95654955D01*
X153868652Y-95595310D01*
X153920000Y-95337165D01*
X153920000Y-95337160D01*
X153937337Y-95250001D01*
X153920000Y-95162841D01*
X153920000Y-89131579D01*
X154040000Y-89251579D01*
X154040000Y-89840330D01*
X154273690Y-90404507D01*
X154442908Y-90573725D01*
X154427235Y-90576843D01*
X154217191Y-90717191D01*
X154076843Y-90927235D01*
X154027560Y-91175000D01*
X154027560Y-92975000D01*
X154076843Y-93222765D01*
X154217191Y-93432809D01*
X154427235Y-93573157D01*
X154675000Y-93622440D01*
X156475000Y-93622440D01*
X156722765Y-93573157D01*
X156932809Y-93432809D01*
X157073157Y-93222765D01*
X157122440Y-92975000D01*
X157122440Y-91175000D01*
X157073157Y-90927235D01*
X156932809Y-90717191D01*
X156722765Y-90576843D01*
X156707092Y-90573725D01*
X156876310Y-90404507D01*
X157110000Y-89840330D01*
X157110000Y-89229670D01*
X156876310Y-88665493D01*
X156444507Y-88233690D01*
X155880330Y-88000000D01*
X155291579Y-88000000D01*
X153920000Y-86628422D01*
X153920000Y-86224521D01*
X154069577Y-86124577D01*
X154386740Y-85649909D01*
X154498113Y-85090000D01*
X154746887Y-85090000D01*
X154858260Y-85649909D01*
X155175423Y-86124577D01*
X155325001Y-86224522D01*
X155325001Y-86302835D01*
X155307663Y-86390000D01*
X155376348Y-86735309D01*
X155522576Y-86954154D01*
X155522577Y-86954155D01*
X155571952Y-87028049D01*
X155645845Y-87077423D01*
X158667577Y-90099156D01*
X158716951Y-90173049D01*
X158790844Y-90222423D01*
X158790845Y-90222424D01*
X159009689Y-90368651D01*
X159009690Y-90368652D01*
X159267835Y-90420000D01*
X159267839Y-90420000D01*
X159355000Y-90437337D01*
X159381291Y-90432108D01*
X159522908Y-90573725D01*
X159507235Y-90576843D01*
X159297191Y-90717191D01*
X159156843Y-90927235D01*
X159107560Y-91175000D01*
X159107560Y-92975000D01*
X159156843Y-93222765D01*
X159297191Y-93432809D01*
X159507235Y-93573157D01*
X159755000Y-93622440D01*
X161555000Y-93622440D01*
X161802765Y-93573157D01*
X162012809Y-93432809D01*
X162153157Y-93222765D01*
X162202440Y-92975000D01*
X162202440Y-91175000D01*
X162153157Y-90927235D01*
X162012809Y-90717191D01*
X161802765Y-90576843D01*
X161787092Y-90573725D01*
X161956310Y-90404507D01*
X162190000Y-89840330D01*
X162190000Y-89229670D01*
X161956310Y-88665493D01*
X161524507Y-88233690D01*
X160960330Y-88000000D01*
X160349670Y-88000000D01*
X159785493Y-88233690D01*
X159545381Y-88473802D01*
X157215550Y-86143972D01*
X157244577Y-86124577D01*
X157561740Y-85649909D01*
X157673113Y-85090000D01*
X157561740Y-84530091D01*
X157244577Y-84055423D01*
X156769909Y-83738260D01*
X156351333Y-83655000D01*
X156068667Y-83655000D01*
X155650091Y-83738260D01*
X155175423Y-84055423D01*
X154858260Y-84530091D01*
X154746887Y-85090000D01*
X154498113Y-85090000D01*
X154386740Y-84530091D01*
X154069577Y-84055423D01*
X153594909Y-83738260D01*
X153176333Y-83655000D01*
X152893667Y-83655000D01*
X152475091Y-83738260D01*
X152229800Y-83902158D01*
X152229800Y-83519878D01*
X155052256Y-80697423D01*
X155126149Y-80648049D01*
X155216246Y-80513211D01*
X155321751Y-80355311D01*
X155321752Y-80355310D01*
X155373100Y-80097165D01*
X155373100Y-80097161D01*
X155390437Y-80010001D01*
X155373100Y-79922841D01*
X155373100Y-78662496D01*
X155397138Y-78686534D01*
X155634538Y-78784868D01*
X155645847Y-78792425D01*
X160509292Y-83655870D01*
X160095091Y-83738260D01*
X159620423Y-84055423D01*
X159303260Y-84530091D01*
X159191887Y-85090000D01*
X159303260Y-85649909D01*
X159620423Y-86124577D01*
X160095091Y-86441740D01*
X160513667Y-86525000D01*
X160796333Y-86525000D01*
X161214909Y-86441740D01*
X161689577Y-86124577D01*
X161925000Y-85772242D01*
X162160423Y-86124577D01*
X162635091Y-86441740D01*
X163053667Y-86525000D01*
X163336333Y-86525000D01*
X163754909Y-86441740D01*
X164215001Y-86134317D01*
X164215000Y-92473421D01*
X159649777Y-97038645D01*
X159582115Y-96698489D01*
X159462853Y-96520000D01*
X159582115Y-96341511D01*
X159672921Y-95885000D01*
X159582115Y-95428489D01*
X159323523Y-95041477D01*
X158936511Y-94782885D01*
X158595231Y-94715000D01*
X157634769Y-94715000D01*
X157293489Y-94782885D01*
X156906477Y-95041477D01*
X156647885Y-95428489D01*
X156557079Y-95885000D01*
X156647885Y-96341511D01*
X156767147Y-96520000D01*
X156647885Y-96698489D01*
X156557079Y-97155000D01*
X156647885Y-97611511D01*
X156767147Y-97790000D01*
X156647885Y-97968489D01*
X156557079Y-98425000D01*
X156645473Y-98869387D01*
X156616843Y-98912235D01*
X156567560Y-99160000D01*
X156567560Y-100230000D01*
X156616843Y-100477765D01*
X156757191Y-100687809D01*
X156967235Y-100828157D01*
X157215000Y-100877440D01*
X159015000Y-100877440D01*
X159262765Y-100828157D01*
X159472809Y-100687809D01*
X159613157Y-100477765D01*
X159662440Y-100230000D01*
X159662440Y-99298011D01*
X159860310Y-99258652D01*
X160153049Y-99063049D01*
X160202425Y-98989153D01*
X165664156Y-93527423D01*
X165738049Y-93478049D01*
X165828988Y-93341951D01*
X165933652Y-93185310D01*
X165959510Y-93055310D01*
X165985000Y-92927165D01*
X165985000Y-92927161D01*
X166002337Y-92840000D01*
X165985000Y-92752839D01*
X165985000Y-84300159D01*
X166002337Y-84212999D01*
X165985000Y-84125840D01*
X165985000Y-84125835D01*
X165933652Y-83867690D01*
X165794604Y-83659591D01*
X165787424Y-83648845D01*
X165787423Y-83648844D01*
X165738049Y-83574951D01*
X165664156Y-83525577D01*
X161002558Y-78863979D01*
X161214909Y-78821740D01*
X161689577Y-78504577D01*
X161770215Y-78383894D01*
X161796843Y-78517765D01*
X161937191Y-78727809D01*
X162147235Y-78868157D01*
X162395000Y-78917440D01*
X163995000Y-78917440D01*
X164242765Y-78868157D01*
X164452809Y-78727809D01*
X164593157Y-78517765D01*
X164642440Y-78270000D01*
X164642440Y-76670000D01*
X164593157Y-76422235D01*
X164452809Y-76212191D01*
X164242765Y-76071843D01*
X163995000Y-76022560D01*
X162395000Y-76022560D01*
X162147235Y-76071843D01*
X161937191Y-76212191D01*
X161796843Y-76422235D01*
X161770215Y-76556106D01*
X161689577Y-76435423D01*
X161214909Y-76118260D01*
X160796333Y-76035000D01*
X160513667Y-76035000D01*
X160095091Y-76118260D01*
X159620423Y-76435423D01*
X159303260Y-76910091D01*
X159261021Y-77122443D01*
X159044424Y-76905846D01*
X158995049Y-76831951D01*
X158918148Y-76780567D01*
X157730000Y-75592420D01*
X157730000Y-68887159D01*
X157747337Y-68799999D01*
X157730000Y-68712839D01*
X157730000Y-68712835D01*
X157678652Y-68454690D01*
X157483049Y-68161951D01*
X157409156Y-68112577D01*
X156701855Y-67405277D01*
X156769909Y-67391740D01*
X157244577Y-67074577D01*
X157480000Y-66722242D01*
X157715423Y-67074577D01*
X158190091Y-67391740D01*
X158608667Y-67475000D01*
X158891333Y-67475000D01*
X159309909Y-67391740D01*
X159784577Y-67074577D01*
X160020000Y-66722242D01*
X160255423Y-67074577D01*
X160730091Y-67391740D01*
X161148667Y-67475000D01*
X161431333Y-67475000D01*
X161849909Y-67391740D01*
X162324577Y-67074577D01*
X162560000Y-66722242D01*
X162795423Y-67074577D01*
X163270091Y-67391740D01*
X163688667Y-67475000D01*
X163971333Y-67475000D01*
X164389909Y-67391740D01*
X164864577Y-67074577D01*
X165100000Y-66722242D01*
X165335423Y-67074577D01*
X165810091Y-67391740D01*
X166228667Y-67475000D01*
X166511333Y-67475000D01*
X166929909Y-67391740D01*
X167404577Y-67074577D01*
X167640000Y-66722242D01*
X167875423Y-67074577D01*
X168350091Y-67391740D01*
X168768667Y-67475000D01*
X169051333Y-67475000D01*
X169469909Y-67391740D01*
X169944577Y-67074577D01*
X170180000Y-66722242D01*
X170415423Y-67074577D01*
X170890091Y-67391740D01*
X171308667Y-67475000D01*
X171591333Y-67475000D01*
X172009909Y-67391740D01*
X172484577Y-67074577D01*
X172801740Y-66599909D01*
X172913113Y-66040000D01*
X172801740Y-65480091D01*
X172484577Y-65005423D01*
X172009909Y-64688260D01*
X171591333Y-64605000D01*
X171308667Y-64605000D01*
X170890091Y-64688260D01*
X170415423Y-65005423D01*
X170180000Y-65357758D01*
X169944577Y-65005423D01*
X169469909Y-64688260D01*
X169051333Y-64605000D01*
X168768667Y-64605000D01*
X168350091Y-64688260D01*
X167875423Y-65005423D01*
X167640000Y-65357758D01*
X167404577Y-65005423D01*
X166929909Y-64688260D01*
X166511333Y-64605000D01*
X166228667Y-64605000D01*
X165810091Y-64688260D01*
X165335423Y-65005423D01*
X165100000Y-65357758D01*
X164864577Y-65005423D01*
X164389909Y-64688260D01*
X163971333Y-64605000D01*
X163688667Y-64605000D01*
X163270091Y-64688260D01*
X162795423Y-65005423D01*
X162560000Y-65357758D01*
X162324577Y-65005423D01*
X161849909Y-64688260D01*
X161431333Y-64605000D01*
X161148667Y-64605000D01*
X160730091Y-64688260D01*
X160255423Y-65005423D01*
X160020000Y-65357758D01*
X159784577Y-65005423D01*
X159309909Y-64688260D01*
X158891333Y-64605000D01*
X158608667Y-64605000D01*
X158190091Y-64688260D01*
X157715423Y-65005423D01*
X157480000Y-65357758D01*
X157244577Y-65005423D01*
X156769909Y-64688260D01*
X156351333Y-64605000D01*
X156068667Y-64605000D01*
X155650091Y-64688260D01*
X155175423Y-65005423D01*
X154940000Y-65357758D01*
X154704577Y-65005423D01*
X154229909Y-64688260D01*
X153811333Y-64605000D01*
X153528667Y-64605000D01*
X153110091Y-64688260D01*
X152635423Y-65005423D01*
X152318260Y-65480091D01*
X152206887Y-66040000D01*
X152218137Y-66096559D01*
X151597425Y-65475847D01*
X151548049Y-65401951D01*
X151255310Y-65206348D01*
X150997165Y-65155000D01*
X150997161Y-65155000D01*
X150910000Y-65137663D01*
X150822839Y-65155000D01*
X150744521Y-65155000D01*
X150644577Y-65005423D01*
X150169909Y-64688260D01*
X149751333Y-64605000D01*
X149468667Y-64605000D01*
X149050091Y-64688260D01*
X148575423Y-65005423D01*
X148340000Y-65357758D01*
X148104577Y-65005423D01*
X147629909Y-64688260D01*
X147211333Y-64605000D01*
X146928667Y-64605000D01*
X146510091Y-64688260D01*
X146035423Y-65005423D01*
X145800000Y-65357758D01*
X145564577Y-65005423D01*
X145089909Y-64688260D01*
X144671333Y-64605000D01*
X144388667Y-64605000D01*
X143970091Y-64688260D01*
X143495423Y-65005423D01*
X143260000Y-65357758D01*
X143024577Y-65005423D01*
X142549909Y-64688260D01*
X142131333Y-64605000D01*
X141848667Y-64605000D01*
X141430091Y-64688260D01*
X140955423Y-65005423D01*
X140720000Y-65357758D01*
X140484577Y-65005423D01*
X140009909Y-64688260D01*
X139591333Y-64605000D01*
X139308667Y-64605000D01*
X138890091Y-64688260D01*
X138415423Y-65005423D01*
X138180000Y-65357758D01*
X137944577Y-65005423D01*
X137469909Y-64688260D01*
X137051333Y-64605000D01*
X136768667Y-64605000D01*
X136733561Y-64611983D01*
X136204578Y-64083000D01*
X172171910Y-64083000D01*
X173407001Y-65318093D01*
X173407000Y-76384076D01*
X173393091Y-76454000D01*
X173407000Y-76523924D01*
X173407000Y-76523925D01*
X173448195Y-76731027D01*
X173605119Y-76965880D01*
X173664402Y-77005492D01*
X175947001Y-79288092D01*
X175947001Y-92960722D01*
X171730452Y-88744174D01*
X171849577Y-88664577D01*
X172166740Y-88189909D01*
X172208684Y-87979041D01*
X172598086Y-87979041D01*
X172837611Y-88485134D01*
X173252577Y-88861041D01*
X173640961Y-89021904D01*
X173863000Y-88899915D01*
X173863000Y-87757000D01*
X174117000Y-87757000D01*
X174117000Y-88899915D01*
X174339039Y-89021904D01*
X174727423Y-88861041D01*
X175142389Y-88485134D01*
X175381914Y-87979041D01*
X175260629Y-87757000D01*
X174117000Y-87757000D01*
X173863000Y-87757000D01*
X172719371Y-87757000D01*
X172598086Y-87979041D01*
X172208684Y-87979041D01*
X172278113Y-87630000D01*
X172208685Y-87280959D01*
X172598086Y-87280959D01*
X172719371Y-87503000D01*
X173863000Y-87503000D01*
X173863000Y-86360085D01*
X174117000Y-86360085D01*
X174117000Y-87503000D01*
X175260629Y-87503000D01*
X175381914Y-87280959D01*
X175142389Y-86774866D01*
X174727423Y-86398959D01*
X174339039Y-86238096D01*
X174117000Y-86360085D01*
X173863000Y-86360085D01*
X173640961Y-86238096D01*
X173252577Y-86398959D01*
X172837611Y-86774866D01*
X172598086Y-87280959D01*
X172208685Y-87280959D01*
X172166740Y-87070091D01*
X171849577Y-86595423D01*
X171374909Y-86278260D01*
X170956333Y-86195000D01*
X170673667Y-86195000D01*
X170255091Y-86278260D01*
X170245100Y-86284936D01*
X170245100Y-84371478D01*
X170681578Y-83935000D01*
X171090494Y-83935000D01*
X171599540Y-83724147D01*
X171802170Y-83521517D01*
X172563088Y-83521517D01*
X172631077Y-83762460D01*
X173150171Y-83947201D01*
X173700448Y-83919230D01*
X174078923Y-83762460D01*
X174146912Y-83521517D01*
X173355000Y-82729605D01*
X172563088Y-83521517D01*
X171802170Y-83521517D01*
X171989147Y-83334540D01*
X172078397Y-83119070D01*
X172142540Y-83273923D01*
X172383483Y-83341912D01*
X173175395Y-82550000D01*
X173534605Y-82550000D01*
X174326517Y-83341912D01*
X174567460Y-83273923D01*
X174752201Y-82754829D01*
X174724230Y-82204552D01*
X174567460Y-81826077D01*
X174326517Y-81758088D01*
X173534605Y-82550000D01*
X173175395Y-82550000D01*
X172383483Y-81758088D01*
X172142540Y-81826077D01*
X172083255Y-81992658D01*
X171989147Y-81765460D01*
X171802170Y-81578483D01*
X172563088Y-81578483D01*
X173355000Y-82370395D01*
X174146912Y-81578483D01*
X174078923Y-81337540D01*
X173559829Y-81152799D01*
X173009552Y-81180770D01*
X172631077Y-81337540D01*
X172563088Y-81578483D01*
X171802170Y-81578483D01*
X171599540Y-81375853D01*
X171090494Y-81165000D01*
X170539506Y-81165000D01*
X170030460Y-81375853D01*
X169661469Y-81744844D01*
X169623157Y-81552235D01*
X169482809Y-81342191D01*
X169272765Y-81201843D01*
X169160000Y-81179413D01*
X169160000Y-77557161D01*
X169177337Y-77470000D01*
X169160000Y-77382839D01*
X169160000Y-77382835D01*
X169108652Y-77124690D01*
X169106159Y-77120959D01*
X168962424Y-76905845D01*
X168962423Y-76905844D01*
X168913049Y-76831951D01*
X168839156Y-76782577D01*
X162718017Y-70661439D01*
X162753113Y-70485000D01*
X162641740Y-69925091D01*
X162324577Y-69450423D01*
X161849909Y-69133260D01*
X161431333Y-69050000D01*
X161148667Y-69050000D01*
X160730091Y-69133260D01*
X160255423Y-69450423D01*
X159938260Y-69925091D01*
X159826887Y-70485000D01*
X159938260Y-71044909D01*
X160255423Y-71519577D01*
X160730091Y-71836740D01*
X161148667Y-71920000D01*
X161431333Y-71920000D01*
X161466439Y-71913017D01*
X167390001Y-77836580D01*
X167390000Y-81179413D01*
X167277235Y-81201843D01*
X167067191Y-81342191D01*
X166926843Y-81552235D01*
X166877560Y-81800000D01*
X166877560Y-83300000D01*
X166926843Y-83547765D01*
X167067191Y-83757809D01*
X167277235Y-83898157D01*
X167525000Y-83947440D01*
X168469192Y-83947440D01*
X168457763Y-84004900D01*
X168475100Y-84092061D01*
X168475100Y-86462137D01*
X168199909Y-86278260D01*
X167781333Y-86195000D01*
X167498667Y-86195000D01*
X167080091Y-86278260D01*
X166605423Y-86595423D01*
X166288260Y-87070091D01*
X166176887Y-87630000D01*
X166288260Y-88189909D01*
X166605423Y-88664577D01*
X167080091Y-88981740D01*
X167498667Y-89065000D01*
X167781333Y-89065000D01*
X168199909Y-88981740D01*
X168475101Y-88797863D01*
X168475101Y-92658500D01*
X167366661Y-92658500D01*
X167279500Y-92641163D01*
X167192339Y-92658500D01*
X167192335Y-92658500D01*
X166934190Y-92709848D01*
X166715345Y-92856076D01*
X166715344Y-92856077D01*
X166641451Y-92905451D01*
X166592077Y-92979344D01*
X165614947Y-93956475D01*
X165541051Y-94005851D01*
X165345448Y-94298591D01*
X165294100Y-94556736D01*
X165294100Y-94556739D01*
X165276763Y-94643900D01*
X165294100Y-94731061D01*
X165294100Y-103348713D01*
X164790222Y-103140000D01*
X164139778Y-103140000D01*
X163538847Y-103388914D01*
X163078914Y-103848847D01*
X162830000Y-104449778D01*
X162830000Y-105100222D01*
X163078914Y-105701153D01*
X163538847Y-106161086D01*
X163580000Y-106178132D01*
X163580001Y-109871868D01*
X163538847Y-109888914D01*
X163078914Y-110348847D01*
X162830000Y-110949778D01*
X162830000Y-111600222D01*
X163078914Y-112201153D01*
X163538847Y-112661086D01*
X164086392Y-112887887D01*
X163971333Y-112865000D01*
X163688667Y-112865000D01*
X163270091Y-112948260D01*
X162795423Y-113265423D01*
X162560000Y-113617758D01*
X162324577Y-113265423D01*
X161849909Y-112948260D01*
X161431333Y-112865000D01*
X161148667Y-112865000D01*
X160730091Y-112948260D01*
X160255423Y-113265423D01*
X160020000Y-113617758D01*
X159784577Y-113265423D01*
X159309909Y-112948260D01*
X158891333Y-112865000D01*
X158608667Y-112865000D01*
X158190091Y-112948260D01*
X157715423Y-113265423D01*
X157635826Y-113384548D01*
X157161279Y-112910000D01*
X157170222Y-112910000D01*
X157771153Y-112661086D01*
X158004707Y-112427532D01*
X158992073Y-112427532D01*
X159090736Y-112694387D01*
X159700461Y-112920908D01*
X160350460Y-112896856D01*
X160839264Y-112694387D01*
X160937927Y-112427532D01*
X159965000Y-111454605D01*
X158992073Y-112427532D01*
X158004707Y-112427532D01*
X158231086Y-112201153D01*
X158399096Y-111795541D01*
X158545613Y-112149264D01*
X158812468Y-112247927D01*
X159785395Y-111275000D01*
X160144605Y-111275000D01*
X161117532Y-112247927D01*
X161384387Y-112149264D01*
X161610908Y-111539539D01*
X161586856Y-110889540D01*
X161384387Y-110400736D01*
X161117532Y-110302073D01*
X160144605Y-111275000D01*
X159785395Y-111275000D01*
X158812468Y-110302073D01*
X158545613Y-110400736D01*
X158407059Y-110773682D01*
X158231086Y-110348847D01*
X158004707Y-110122468D01*
X158992073Y-110122468D01*
X159965000Y-111095395D01*
X160937927Y-110122468D01*
X160839264Y-109855613D01*
X160229539Y-109629092D01*
X159579540Y-109653144D01*
X159090736Y-109855613D01*
X158992073Y-110122468D01*
X158004707Y-110122468D01*
X157771153Y-109888914D01*
X157730000Y-109871868D01*
X157730000Y-106178132D01*
X157771153Y-106161086D01*
X158004707Y-105927532D01*
X158992073Y-105927532D01*
X159090736Y-106194387D01*
X159700461Y-106420908D01*
X160350460Y-106396856D01*
X160839264Y-106194387D01*
X160937927Y-105927532D01*
X159965000Y-104954605D01*
X158992073Y-105927532D01*
X158004707Y-105927532D01*
X158231086Y-105701153D01*
X158399096Y-105295541D01*
X158545613Y-105649264D01*
X158812468Y-105747927D01*
X159785395Y-104775000D01*
X160144605Y-104775000D01*
X161117532Y-105747927D01*
X161384387Y-105649264D01*
X161610908Y-105039539D01*
X161586856Y-104389540D01*
X161384387Y-103900736D01*
X161117532Y-103802073D01*
X160144605Y-104775000D01*
X159785395Y-104775000D01*
X158812468Y-103802073D01*
X158545613Y-103900736D01*
X158407059Y-104273682D01*
X158231086Y-103848847D01*
X158004707Y-103622468D01*
X158992073Y-103622468D01*
X159965000Y-104595395D01*
X160937927Y-103622468D01*
X160839264Y-103355613D01*
X160229539Y-103129092D01*
X159579540Y-103153144D01*
X159090736Y-103355613D01*
X158992073Y-103622468D01*
X158004707Y-103622468D01*
X157771153Y-103388914D01*
X157170222Y-103140000D01*
X156519778Y-103140000D01*
X156478625Y-103157046D01*
X154791725Y-101470147D01*
X154742349Y-101396251D01*
X154449610Y-101200648D01*
X154191465Y-101149300D01*
X154191461Y-101149300D01*
X154104300Y-101131963D01*
X154017139Y-101149300D01*
X145702861Y-101149300D01*
X145615700Y-101131963D01*
X145528539Y-101149300D01*
X145528535Y-101149300D01*
X145270390Y-101200648D01*
X145051545Y-101346876D01*
X145051544Y-101346877D01*
X144977651Y-101396251D01*
X144928277Y-101470144D01*
X144328421Y-102070000D01*
X143859561Y-102070000D01*
X143332138Y-102288466D01*
X142928466Y-102692138D01*
X142710000Y-103219561D01*
X142710000Y-103790439D01*
X142928466Y-104317862D01*
X143332138Y-104721534D01*
X143859561Y-104940000D01*
X144430439Y-104940000D01*
X144957862Y-104721534D01*
X145361534Y-104317862D01*
X145580000Y-103790439D01*
X145580000Y-103321579D01*
X145982279Y-102919300D01*
X146644372Y-102919300D01*
X146520000Y-103219561D01*
X146520000Y-103790439D01*
X146738466Y-104317862D01*
X147142138Y-104721534D01*
X147669561Y-104940000D01*
X148240439Y-104940000D01*
X148767862Y-104721534D01*
X148978935Y-104510461D01*
X150699092Y-104510461D01*
X150723144Y-105160460D01*
X150925613Y-105649264D01*
X151192468Y-105747927D01*
X152165395Y-104775000D01*
X152524605Y-104775000D01*
X153497532Y-105747927D01*
X153764387Y-105649264D01*
X153990908Y-105039539D01*
X153966856Y-104389540D01*
X153764387Y-103900736D01*
X153497532Y-103802073D01*
X152524605Y-104775000D01*
X152165395Y-104775000D01*
X151192468Y-103802073D01*
X150925613Y-103900736D01*
X150699092Y-104510461D01*
X148978935Y-104510461D01*
X149171534Y-104317862D01*
X149390000Y-103790439D01*
X149390000Y-103622468D01*
X151372073Y-103622468D01*
X152345000Y-104595395D01*
X153317927Y-103622468D01*
X153219264Y-103355613D01*
X152609539Y-103129092D01*
X151959540Y-103153144D01*
X151470736Y-103355613D01*
X151372073Y-103622468D01*
X149390000Y-103622468D01*
X149390000Y-103219561D01*
X149265628Y-102919300D01*
X153737722Y-102919300D01*
X155227046Y-104408625D01*
X155210000Y-104449778D01*
X155210000Y-105100222D01*
X155458914Y-105701153D01*
X155918847Y-106161086D01*
X155960001Y-106178132D01*
X155960000Y-109871868D01*
X155918847Y-109888914D01*
X155838816Y-109968945D01*
X155716647Y-109786108D01*
X155695424Y-109754345D01*
X155695423Y-109754344D01*
X155646049Y-109680451D01*
X155572156Y-109631077D01*
X152351940Y-106410862D01*
X152730460Y-106396856D01*
X153219264Y-106194387D01*
X153317927Y-105927532D01*
X152345000Y-104954605D01*
X151372073Y-105927532D01*
X151411104Y-106033100D01*
X141268437Y-106033100D01*
X141362927Y-105777532D01*
X140390000Y-104804605D01*
X139417073Y-105777532D01*
X139511563Y-106033100D01*
X136763007Y-106033100D01*
X136816153Y-106011086D01*
X137276086Y-105551153D01*
X137525000Y-104950222D01*
X137525000Y-104360461D01*
X138744092Y-104360461D01*
X138768144Y-105010460D01*
X138970613Y-105499264D01*
X139237468Y-105597927D01*
X140210395Y-104625000D01*
X140569605Y-104625000D01*
X141542532Y-105597927D01*
X141809387Y-105499264D01*
X142035908Y-104889539D01*
X142011856Y-104239540D01*
X141809387Y-103750736D01*
X141542532Y-103652073D01*
X140569605Y-104625000D01*
X140210395Y-104625000D01*
X139237468Y-103652073D01*
X138970613Y-103750736D01*
X138744092Y-104360461D01*
X137525000Y-104360461D01*
X137525000Y-104299778D01*
X137276086Y-103698847D01*
X137049707Y-103472468D01*
X139417073Y-103472468D01*
X140390000Y-104445395D01*
X141362927Y-103472468D01*
X141264264Y-103205613D01*
X140654539Y-102979092D01*
X140004540Y-103003144D01*
X139515736Y-103205613D01*
X139417073Y-103472468D01*
X137049707Y-103472468D01*
X136816153Y-103238914D01*
X136215222Y-102990000D01*
X135564778Y-102990000D01*
X134963847Y-103238914D01*
X134503914Y-103698847D01*
X134255000Y-104299778D01*
X134255000Y-104950222D01*
X134503914Y-105551153D01*
X134963847Y-106011086D01*
X135016993Y-106033100D01*
X130184679Y-106033100D01*
X129816328Y-105664750D01*
X129909460Y-105660839D01*
X130354148Y-105476643D01*
X130440554Y-105220159D01*
X129540000Y-104319605D01*
X129525858Y-104333748D01*
X129346253Y-104154143D01*
X129360395Y-104140000D01*
X129719605Y-104140000D01*
X130620159Y-105040554D01*
X130876643Y-104954148D01*
X131086458Y-104380664D01*
X131060839Y-103770540D01*
X130876643Y-103325852D01*
X130620159Y-103239446D01*
X129719605Y-104140000D01*
X129360395Y-104140000D01*
X128459841Y-103239446D01*
X128344539Y-103278290D01*
X128341310Y-103270493D01*
X128130658Y-103059841D01*
X128639446Y-103059841D01*
X129540000Y-103960395D01*
X130440554Y-103059841D01*
X130354148Y-102803357D01*
X129780664Y-102593542D01*
X129170540Y-102619161D01*
X128725852Y-102803357D01*
X128639446Y-103059841D01*
X128130658Y-103059841D01*
X127909507Y-102838690D01*
X127345330Y-102605000D01*
X126734670Y-102605000D01*
X126170493Y-102838690D01*
X125790000Y-103219183D01*
X125409507Y-102838690D01*
X124845330Y-102605000D01*
X124234670Y-102605000D01*
X123670493Y-102838690D01*
X123238690Y-103270493D01*
X123005000Y-103834670D01*
X123005000Y-104423421D01*
X117212341Y-110216081D01*
X116972546Y-109976286D01*
X116474526Y-109770000D01*
X115935474Y-109770000D01*
X115437454Y-109976286D01*
X115056286Y-110357454D01*
X114850000Y-110855474D01*
X114850000Y-111394526D01*
X115056286Y-111892546D01*
X115437454Y-112273714D01*
X115935474Y-112480000D01*
X116474526Y-112480000D01*
X116972546Y-112273714D01*
X117236260Y-112010000D01*
X117467839Y-112010000D01*
X117555000Y-112027337D01*
X117642161Y-112010000D01*
X117642165Y-112010000D01*
X117900310Y-111958652D01*
X118193049Y-111763049D01*
X118242425Y-111689153D01*
X118815712Y-111115866D01*
X119655000Y-111115866D01*
X119655000Y-112164134D01*
X120056155Y-113132608D01*
X120797392Y-113873845D01*
X121765866Y-114275000D01*
X122814134Y-114275000D01*
X123782608Y-113873845D01*
X124523845Y-113132608D01*
X124925000Y-112164134D01*
X124925000Y-111115866D01*
X129155000Y-111115866D01*
X129155000Y-112164134D01*
X129556155Y-113132608D01*
X130297392Y-113873845D01*
X131265866Y-114275000D01*
X132314134Y-114275000D01*
X133282608Y-113873845D01*
X134023845Y-113132608D01*
X134425000Y-112164134D01*
X134425000Y-111860638D01*
X134503914Y-112051153D01*
X134963847Y-112511086D01*
X135564778Y-112760000D01*
X136215222Y-112760000D01*
X136816153Y-112511086D01*
X137049707Y-112277532D01*
X139417073Y-112277532D01*
X139515736Y-112544387D01*
X140125461Y-112770908D01*
X140775460Y-112746856D01*
X141264264Y-112544387D01*
X141362927Y-112277532D01*
X140390000Y-111304605D01*
X139417073Y-112277532D01*
X137049707Y-112277532D01*
X137276086Y-112051153D01*
X137525000Y-111450222D01*
X137525000Y-110860461D01*
X138744092Y-110860461D01*
X138768144Y-111510460D01*
X138970613Y-111999264D01*
X139237468Y-112097927D01*
X140210395Y-111125000D01*
X140569605Y-111125000D01*
X141542532Y-112097927D01*
X141809387Y-111999264D01*
X142035908Y-111389539D01*
X142011856Y-110739540D01*
X141809387Y-110250736D01*
X141542532Y-110152073D01*
X140569605Y-111125000D01*
X140210395Y-111125000D01*
X139237468Y-110152073D01*
X138970613Y-110250736D01*
X138744092Y-110860461D01*
X137525000Y-110860461D01*
X137525000Y-110799778D01*
X137276086Y-110198847D01*
X137049707Y-109972468D01*
X139417073Y-109972468D01*
X140390000Y-110945395D01*
X141362927Y-109972468D01*
X141264264Y-109705613D01*
X140654539Y-109479092D01*
X140004540Y-109503144D01*
X139515736Y-109705613D01*
X139417073Y-109972468D01*
X137049707Y-109972468D01*
X136816153Y-109738914D01*
X136215222Y-109490000D01*
X135564778Y-109490000D01*
X134963847Y-109738914D01*
X134503914Y-110198847D01*
X134274536Y-110752614D01*
X134023845Y-110147392D01*
X133282608Y-109406155D01*
X132314134Y-109005000D01*
X131265866Y-109005000D01*
X130297392Y-109406155D01*
X129556155Y-110147392D01*
X129155000Y-111115866D01*
X124925000Y-111115866D01*
X124523845Y-110147392D01*
X123782608Y-109406155D01*
X122814134Y-109005000D01*
X121765866Y-109005000D01*
X120797392Y-109406155D01*
X120056155Y-110147392D01*
X119655000Y-111115866D01*
X118815712Y-111115866D01*
X124256579Y-105675000D01*
X124823422Y-105675000D01*
X127662577Y-108514156D01*
X127711951Y-108588049D01*
X127785844Y-108637423D01*
X127785845Y-108637424D01*
X127871210Y-108694463D01*
X128004690Y-108783652D01*
X128262835Y-108835000D01*
X128262839Y-108835000D01*
X128350000Y-108852337D01*
X128437161Y-108835000D01*
X142727022Y-108835000D01*
X143651977Y-109759956D01*
X143585091Y-109773260D01*
X143110423Y-110090423D01*
X142793260Y-110565091D01*
X142681887Y-111125000D01*
X142793260Y-111684909D01*
X143110423Y-112159577D01*
X143585091Y-112476740D01*
X144003667Y-112560000D01*
X144286333Y-112560000D01*
X144704909Y-112476740D01*
X145165001Y-112169317D01*
X145165000Y-113165479D01*
X145015423Y-113265423D01*
X144780000Y-113617758D01*
X144544577Y-113265423D01*
X144069909Y-112948260D01*
X143651333Y-112865000D01*
X143368667Y-112865000D01*
X142950091Y-112948260D01*
X142475423Y-113265423D01*
X142240000Y-113617758D01*
X142004577Y-113265423D01*
X141529909Y-112948260D01*
X141111333Y-112865000D01*
X140828667Y-112865000D01*
X140410091Y-112948260D01*
X139935423Y-113265423D01*
X139700000Y-113617758D01*
X139464577Y-113265423D01*
X138989909Y-112948260D01*
X138571333Y-112865000D01*
X138288667Y-112865000D01*
X137870091Y-112948260D01*
X137395423Y-113265423D01*
X137314785Y-113386106D01*
X137288157Y-113252235D01*
X137147809Y-113042191D01*
X136937765Y-112901843D01*
X136690000Y-112852560D01*
X135090000Y-112852560D01*
X134842235Y-112901843D01*
X134632191Y-113042191D01*
X134491843Y-113252235D01*
X134442560Y-113500000D01*
X134442560Y-115100000D01*
X134491843Y-115347765D01*
X134632191Y-115557809D01*
X134842235Y-115698157D01*
X135090000Y-115747440D01*
X136690000Y-115747440D01*
X136937765Y-115698157D01*
X137147809Y-115557809D01*
X137288157Y-115347765D01*
X137314785Y-115213894D01*
X137395423Y-115334577D01*
X137870091Y-115651740D01*
X138288667Y-115735000D01*
X138571333Y-115735000D01*
X138989909Y-115651740D01*
X139464577Y-115334577D01*
X139700000Y-114982242D01*
X139935423Y-115334577D01*
X140410091Y-115651740D01*
X140828667Y-115735000D01*
X141111333Y-115735000D01*
X141529909Y-115651740D01*
X142004577Y-115334577D01*
X142240000Y-114982242D01*
X142475423Y-115334577D01*
X142950091Y-115651740D01*
X143368667Y-115735000D01*
X143651333Y-115735000D01*
X144069909Y-115651740D01*
X144544577Y-115334577D01*
X144780000Y-114982242D01*
X145015423Y-115334577D01*
X145490091Y-115651740D01*
X145908667Y-115735000D01*
X146191333Y-115735000D01*
X146609909Y-115651740D01*
X147084577Y-115334577D01*
X147340947Y-114950892D01*
X147437611Y-115155134D01*
X147852577Y-115531041D01*
X148240961Y-115691904D01*
X148463000Y-115569915D01*
X148463000Y-114427000D01*
X148717000Y-114427000D01*
X148717000Y-115569915D01*
X148939039Y-115691904D01*
X149327423Y-115531041D01*
X149742389Y-115155134D01*
X149860000Y-114906633D01*
X149977611Y-115155134D01*
X150392577Y-115531041D01*
X150780961Y-115691904D01*
X151003000Y-115569915D01*
X151003000Y-114427000D01*
X148717000Y-114427000D01*
X148463000Y-114427000D01*
X148443000Y-114427000D01*
X148443000Y-114173000D01*
X148463000Y-114173000D01*
X148463000Y-113030085D01*
X148717000Y-113030085D01*
X148717000Y-114173000D01*
X151003000Y-114173000D01*
X151003000Y-113030085D01*
X150780961Y-112908096D01*
X150392577Y-113068959D01*
X149977611Y-113444866D01*
X149860000Y-113693367D01*
X149742389Y-113444866D01*
X149327423Y-113068959D01*
X148939039Y-112908096D01*
X148717000Y-113030085D01*
X148463000Y-113030085D01*
X148240961Y-112908096D01*
X147852577Y-113068959D01*
X147437611Y-113444866D01*
X147340947Y-113649108D01*
X147084577Y-113265423D01*
X146935000Y-113165479D01*
X146935000Y-112169317D01*
X147395091Y-112476740D01*
X147813667Y-112560000D01*
X148096333Y-112560000D01*
X148514909Y-112476740D01*
X148989577Y-112159577D01*
X149089521Y-112010000D01*
X149318139Y-112010000D01*
X149405300Y-112027337D01*
X149492461Y-112010000D01*
X149492465Y-112010000D01*
X149750610Y-111958652D01*
X150043349Y-111763049D01*
X150092725Y-111689153D01*
X150701673Y-111080206D01*
X150723144Y-111660460D01*
X150925613Y-112149264D01*
X151192468Y-112247927D01*
X152165395Y-111275000D01*
X152151253Y-111260858D01*
X152330858Y-111081253D01*
X152345000Y-111095395D01*
X152359143Y-111081253D01*
X152538748Y-111260858D01*
X152524605Y-111275000D01*
X152538748Y-111289143D01*
X152359143Y-111468748D01*
X152345000Y-111454605D01*
X151372073Y-112427532D01*
X151470736Y-112694387D01*
X152080461Y-112920908D01*
X152730460Y-112896856D01*
X153185561Y-112708347D01*
X153307976Y-112891554D01*
X153307978Y-112891556D01*
X153318206Y-112906863D01*
X153110091Y-112948260D01*
X152635423Y-113265423D01*
X152379053Y-113649108D01*
X152282389Y-113444866D01*
X151867423Y-113068959D01*
X151479039Y-112908096D01*
X151257000Y-113030085D01*
X151257000Y-114173000D01*
X151277000Y-114173000D01*
X151277000Y-114427000D01*
X151257000Y-114427000D01*
X151257000Y-115569915D01*
X151479039Y-115691904D01*
X151867423Y-115531041D01*
X152282389Y-115155134D01*
X152379053Y-114950892D01*
X152635423Y-115334577D01*
X153110091Y-115651740D01*
X153528667Y-115735000D01*
X153811333Y-115735000D01*
X154229909Y-115651740D01*
X154704577Y-115334577D01*
X155021740Y-114859909D01*
X155063979Y-114647558D01*
X156673421Y-116257000D01*
X108533000Y-116257000D01*
X108533000Y-64083000D01*
X114269721Y-64083000D01*
X109442947Y-68909775D01*
X109442947Y-68909775D01*
G37*
X109442947Y-68909775D02*
X109369051Y-68959151D01*
X109173448Y-69251891D01*
X109122100Y-69510036D01*
X109122100Y-69510039D01*
X109104763Y-69597200D01*
X109122100Y-69684361D01*
X109122101Y-95569634D01*
X109104763Y-95656800D01*
X109173448Y-96002109D01*
X109319676Y-96220954D01*
X109319678Y-96220956D01*
X109369052Y-96294849D01*
X109442945Y-96344223D01*
X109917546Y-96818825D01*
X109877235Y-96826843D01*
X109667191Y-96967191D01*
X109526843Y-97177235D01*
X109477560Y-97425000D01*
X109477560Y-99425000D01*
X109526843Y-99672765D01*
X109667191Y-99882809D01*
X109877235Y-100023157D01*
X110125000Y-100072440D01*
X110384981Y-100072440D01*
X109190844Y-101266578D01*
X109116951Y-101315952D01*
X109067577Y-101389845D01*
X109067575Y-101389847D01*
X108921347Y-101608692D01*
X108852662Y-101954001D01*
X108870000Y-102041166D01*
X108869999Y-111695440D01*
X108852662Y-111782601D01*
X108869999Y-111869762D01*
X108869999Y-111869765D01*
X108921347Y-112127910D01*
X109116950Y-112420650D01*
X109190846Y-112470026D01*
X110949975Y-114229156D01*
X110999349Y-114303049D01*
X111073242Y-114352423D01*
X111073243Y-114352424D01*
X111125235Y-114387164D01*
X111292088Y-114498652D01*
X111550233Y-114550000D01*
X111550237Y-114550000D01*
X111637397Y-114567337D01*
X111724557Y-114550000D01*
X112633740Y-114550000D01*
X112897454Y-114813714D01*
X113395474Y-115020000D01*
X113934526Y-115020000D01*
X114432546Y-114813714D01*
X114813714Y-114432546D01*
X115020000Y-113934526D01*
X115020000Y-113395474D01*
X114813714Y-112897454D01*
X114432546Y-112516286D01*
X113934526Y-112310000D01*
X113395474Y-112310000D01*
X112897454Y-112516286D01*
X112633740Y-112780000D01*
X112003977Y-112780000D01*
X111622781Y-112398804D01*
X111830869Y-112312611D01*
X111895169Y-112074774D01*
X111125000Y-111304605D01*
X111110858Y-111318748D01*
X110931253Y-111139143D01*
X110945395Y-111125000D01*
X111304605Y-111125000D01*
X112074774Y-111895169D01*
X112312611Y-111830869D01*
X112492333Y-111322658D01*
X112463892Y-110784356D01*
X112312611Y-110419131D01*
X112074774Y-110354831D01*
X111304605Y-111125000D01*
X110945395Y-111125000D01*
X110931253Y-111110858D01*
X111110858Y-110931253D01*
X111125000Y-110945395D01*
X111895169Y-110175226D01*
X111830869Y-109937389D01*
X111322658Y-109757667D01*
X110784356Y-109786108D01*
X110639999Y-109845903D01*
X110639999Y-102320579D01*
X111491579Y-101469000D01*
X113704839Y-101469000D01*
X113792000Y-101486337D01*
X113879161Y-101469000D01*
X113879165Y-101469000D01*
X114137310Y-101417652D01*
X114430049Y-101222049D01*
X114479425Y-101148153D01*
X114864154Y-100763424D01*
X114938049Y-100714049D01*
X115133652Y-100421310D01*
X115185000Y-100163165D01*
X115185000Y-100163161D01*
X115202337Y-100076001D01*
X115185000Y-99988841D01*
X115185000Y-98160461D01*
X115829092Y-98160461D01*
X115853144Y-98810460D01*
X116055613Y-99299264D01*
X116322468Y-99397927D01*
X117096250Y-98624145D01*
X117103144Y-98810460D01*
X117151765Y-98927840D01*
X116502073Y-99577532D01*
X116600736Y-99844387D01*
X117210461Y-100070908D01*
X117860460Y-100046856D01*
X118113546Y-99942024D01*
X118460461Y-100070908D01*
X119110460Y-100046856D01*
X119599264Y-99844387D01*
X119697927Y-99577532D01*
X119036672Y-98916277D01*
X119120908Y-98689539D01*
X119119055Y-98639450D01*
X119877532Y-99397927D01*
X120144387Y-99299264D01*
X120370908Y-98689539D01*
X120346856Y-98039540D01*
X120144387Y-97550736D01*
X119877532Y-97452073D01*
X119103750Y-98225855D01*
X119096856Y-98039540D01*
X119048235Y-97922160D01*
X119697927Y-97272468D01*
X119599264Y-97005613D01*
X118989539Y-96779092D01*
X118339540Y-96803144D01*
X118086454Y-96907976D01*
X117739539Y-96779092D01*
X117089540Y-96803144D01*
X116600736Y-97005613D01*
X116502073Y-97272468D01*
X117163328Y-97933723D01*
X117079092Y-98160461D01*
X117080945Y-98210550D01*
X116322468Y-97452073D01*
X116055613Y-97550736D01*
X115829092Y-98160461D01*
X115185000Y-98160461D01*
X115185000Y-96861161D01*
X115202337Y-96774000D01*
X115185000Y-96686839D01*
X115185000Y-96686835D01*
X115133652Y-96428690D01*
X115101231Y-96380169D01*
X114987424Y-96209845D01*
X114987423Y-96209844D01*
X114938049Y-96135951D01*
X114864156Y-96086577D01*
X114225425Y-95447847D01*
X114176049Y-95373951D01*
X113883310Y-95178348D01*
X113625165Y-95127000D01*
X113625161Y-95127000D01*
X113538000Y-95109663D01*
X113450839Y-95127000D01*
X112126579Y-95127000D01*
X111852100Y-94852522D01*
X111852100Y-89541884D01*
X112190171Y-89662201D01*
X112740448Y-89634230D01*
X113118923Y-89477460D01*
X113186912Y-89236517D01*
X112395000Y-88444605D01*
X112380858Y-88458748D01*
X112201253Y-88279143D01*
X112215395Y-88265000D01*
X112574605Y-88265000D01*
X113366517Y-89056912D01*
X113607460Y-88988923D01*
X113666745Y-88822342D01*
X113760853Y-89049540D01*
X114150460Y-89439147D01*
X114659506Y-89650000D01*
X115210494Y-89650000D01*
X115719540Y-89439147D01*
X116088531Y-89070156D01*
X116126843Y-89262765D01*
X116267191Y-89472809D01*
X116477235Y-89613157D01*
X116725000Y-89662440D01*
X118225000Y-89662440D01*
X118472765Y-89613157D01*
X118682809Y-89472809D01*
X118823157Y-89262765D01*
X118872440Y-89015000D01*
X118872440Y-87515000D01*
X118830908Y-87306200D01*
X122641463Y-87306200D01*
X122658801Y-87393365D01*
X122658800Y-96916639D01*
X122641463Y-97003800D01*
X122658800Y-97090961D01*
X122658800Y-97090964D01*
X122710148Y-97349109D01*
X122905751Y-97641849D01*
X122979647Y-97691225D01*
X125547577Y-100259156D01*
X125596951Y-100333049D01*
X125670844Y-100382423D01*
X125670845Y-100382424D01*
X125889690Y-100528652D01*
X126147835Y-100580000D01*
X126147839Y-100580000D01*
X126213940Y-100593148D01*
X126277191Y-100687809D01*
X126487235Y-100828157D01*
X126735000Y-100877440D01*
X128535000Y-100877440D01*
X128782765Y-100828157D01*
X128992809Y-100687809D01*
X129133157Y-100477765D01*
X129182440Y-100230000D01*
X129182440Y-99160000D01*
X129133157Y-98912235D01*
X129104527Y-98869387D01*
X129192921Y-98425000D01*
X129102115Y-97968489D01*
X128982853Y-97790000D01*
X129102115Y-97611511D01*
X129192921Y-97155000D01*
X129102115Y-96698489D01*
X128982853Y-96520000D01*
X129102115Y-96341511D01*
X129192921Y-95885000D01*
X129102115Y-95428489D01*
X128843523Y-95041477D01*
X128754551Y-94982028D01*
X129189155Y-94547424D01*
X129263048Y-94498050D01*
X129317907Y-94415949D01*
X129458651Y-94205311D01*
X129458651Y-94205310D01*
X129509999Y-93947166D01*
X129509999Y-93947163D01*
X129527336Y-93860002D01*
X129509999Y-93772841D01*
X129509999Y-93622440D01*
X131075000Y-93622440D01*
X131322765Y-93573157D01*
X131532809Y-93432809D01*
X131673157Y-93222765D01*
X131722440Y-92975000D01*
X131722440Y-91175000D01*
X133707560Y-91175000D01*
X133707560Y-92975000D01*
X133756843Y-93222765D01*
X133897191Y-93432809D01*
X134107235Y-93573157D01*
X134355000Y-93622440D01*
X136155000Y-93622440D01*
X136402765Y-93573157D01*
X136612809Y-93432809D01*
X136753157Y-93222765D01*
X136802440Y-92975000D01*
X136802440Y-91175000D01*
X138787560Y-91175000D01*
X138787560Y-92975000D01*
X138836843Y-93222765D01*
X138977191Y-93432809D01*
X139187235Y-93573157D01*
X139435000Y-93622440D01*
X141235000Y-93622440D01*
X141482765Y-93573157D01*
X141692809Y-93432809D01*
X141833157Y-93222765D01*
X141882440Y-92975000D01*
X141882440Y-91175000D01*
X141833157Y-90927235D01*
X141692809Y-90717191D01*
X141482765Y-90576843D01*
X141467092Y-90573725D01*
X141636310Y-90404507D01*
X141870000Y-89840330D01*
X141870000Y-89229670D01*
X141636310Y-88665493D01*
X141204507Y-88233690D01*
X140640330Y-88000000D01*
X140029670Y-88000000D01*
X139465493Y-88233690D01*
X139033690Y-88665493D01*
X138800000Y-89229670D01*
X138800000Y-89840330D01*
X139033690Y-90404507D01*
X139202908Y-90573725D01*
X139187235Y-90576843D01*
X138977191Y-90717191D01*
X138836843Y-90927235D01*
X138787560Y-91175000D01*
X136802440Y-91175000D01*
X136753157Y-90927235D01*
X136612809Y-90717191D01*
X136402765Y-90576843D01*
X136387092Y-90573725D01*
X136556310Y-90404507D01*
X136790000Y-89840330D01*
X136790000Y-89251578D01*
X139670035Y-86371544D01*
X139775091Y-86441740D01*
X140193667Y-86525000D01*
X140476333Y-86525000D01*
X140894909Y-86441740D01*
X141369577Y-86124577D01*
X141686740Y-85649909D01*
X141798113Y-85090000D01*
X141686740Y-84530091D01*
X141369577Y-84055423D01*
X140894909Y-83738260D01*
X140476333Y-83655000D01*
X140193667Y-83655000D01*
X139775091Y-83738260D01*
X139300423Y-84055423D01*
X138983260Y-84530091D01*
X138977035Y-84561386D01*
X138594130Y-84944291D01*
X138511740Y-84530091D01*
X138194577Y-84055423D01*
X137719909Y-83738260D01*
X137301333Y-83655000D01*
X137018667Y-83655000D01*
X136600091Y-83738260D01*
X136125423Y-84055423D01*
X135808260Y-84530091D01*
X135696887Y-85090000D01*
X135808260Y-85649909D01*
X136125423Y-86124577D01*
X136600091Y-86441740D01*
X137014292Y-86524130D01*
X135538422Y-88000000D01*
X134949670Y-88000000D01*
X134385493Y-88233690D01*
X133953690Y-88665493D01*
X133720000Y-89229670D01*
X133720000Y-89840330D01*
X133953690Y-90404507D01*
X134122908Y-90573725D01*
X134107235Y-90576843D01*
X133897191Y-90717191D01*
X133756843Y-90927235D01*
X133707560Y-91175000D01*
X131722440Y-91175000D01*
X131673157Y-90927235D01*
X131532809Y-90717191D01*
X131322765Y-90576843D01*
X131307092Y-90573725D01*
X131476310Y-90404507D01*
X131710000Y-89840330D01*
X131710000Y-89229670D01*
X131476310Y-88665493D01*
X131044507Y-88233690D01*
X130480330Y-88000000D01*
X129869670Y-88000000D01*
X129509999Y-88148981D01*
X129509999Y-87641579D01*
X130633562Y-86518017D01*
X130668667Y-86525000D01*
X130951333Y-86525000D01*
X131369909Y-86441740D01*
X131844577Y-86124577D01*
X132161740Y-85649909D01*
X132273113Y-85090000D01*
X132521887Y-85090000D01*
X132633260Y-85649909D01*
X132950423Y-86124577D01*
X133425091Y-86441740D01*
X133843667Y-86525000D01*
X134126333Y-86525000D01*
X134544909Y-86441740D01*
X135019577Y-86124577D01*
X135336740Y-85649909D01*
X135448113Y-85090000D01*
X135336740Y-84530091D01*
X135019577Y-84055423D01*
X134544909Y-83738260D01*
X134126333Y-83655000D01*
X133843667Y-83655000D01*
X133425091Y-83738260D01*
X132950423Y-84055423D01*
X132633260Y-84530091D01*
X132521887Y-85090000D01*
X132273113Y-85090000D01*
X132161740Y-84530091D01*
X131844577Y-84055423D01*
X131369909Y-83738260D01*
X130951333Y-83655000D01*
X130668667Y-83655000D01*
X130250091Y-83738260D01*
X129775423Y-84055423D01*
X129458260Y-84530091D01*
X129346887Y-85090000D01*
X129381983Y-85266438D01*
X128963034Y-85685387D01*
X128986740Y-85649909D01*
X129098113Y-85090000D01*
X128986740Y-84530091D01*
X128669577Y-84055423D01*
X128194909Y-83738260D01*
X127776333Y-83655000D01*
X127493667Y-83655000D01*
X127075091Y-83738260D01*
X126600423Y-84055423D01*
X126283260Y-84530091D01*
X126171887Y-85090000D01*
X126283260Y-85649909D01*
X126600423Y-86124577D01*
X126750000Y-86224521D01*
X126750000Y-86308534D01*
X126750001Y-86308539D01*
X126750000Y-92343421D01*
X126642440Y-92450981D01*
X126642440Y-91175000D01*
X126593157Y-90927235D01*
X126452809Y-90717191D01*
X126242765Y-90576843D01*
X126227092Y-90573725D01*
X126396310Y-90404507D01*
X126630000Y-89840330D01*
X126630000Y-89229670D01*
X126396310Y-88665493D01*
X125964507Y-88233690D01*
X125400330Y-88000000D01*
X124789670Y-88000000D01*
X124428800Y-88149477D01*
X124428800Y-87672778D01*
X125024156Y-87077423D01*
X125098049Y-87028049D01*
X125147425Y-86954154D01*
X125293651Y-86735311D01*
X125293652Y-86735310D01*
X125345000Y-86477165D01*
X125345000Y-86477161D01*
X125362337Y-86390001D01*
X125345000Y-86302841D01*
X125345000Y-86224521D01*
X125494577Y-86124577D01*
X125811740Y-85649909D01*
X125923113Y-85090000D01*
X125811740Y-84530091D01*
X125494577Y-84055423D01*
X125019909Y-83738260D01*
X124601333Y-83655000D01*
X124318667Y-83655000D01*
X123900091Y-83738260D01*
X123425423Y-84055423D01*
X123108260Y-84530091D01*
X122996887Y-85090000D01*
X123108260Y-85649909D01*
X123425423Y-86124577D01*
X123454450Y-86143972D01*
X122979645Y-86618777D01*
X122905752Y-86668151D01*
X122856378Y-86742044D01*
X122856376Y-86742046D01*
X122710148Y-86960891D01*
X122641463Y-87306200D01*
X118830908Y-87306200D01*
X118823157Y-87267235D01*
X118682809Y-87057191D01*
X118472765Y-86916843D01*
X118225000Y-86867560D01*
X116725000Y-86867560D01*
X116477235Y-86916843D01*
X116267191Y-87057191D01*
X116126843Y-87267235D01*
X116088531Y-87459844D01*
X115719540Y-87090853D01*
X115210494Y-86880000D01*
X114659506Y-86880000D01*
X114150460Y-87090853D01*
X113760853Y-87480460D01*
X113671603Y-87695930D01*
X113607460Y-87541077D01*
X113366517Y-87473088D01*
X112574605Y-88265000D01*
X112215395Y-88265000D01*
X112201253Y-88250858D01*
X112380858Y-88071253D01*
X112395000Y-88085395D01*
X113186912Y-87293483D01*
X113118923Y-87052540D01*
X112599829Y-86867799D01*
X112049552Y-86895770D01*
X111852100Y-86977558D01*
X111852100Y-84804561D01*
X119850000Y-84804561D01*
X119850000Y-85375439D01*
X120068466Y-85902862D01*
X120472138Y-86306534D01*
X120999561Y-86525000D01*
X121570439Y-86525000D01*
X122097862Y-86306534D01*
X122501534Y-85902862D01*
X122720000Y-85375439D01*
X122720000Y-84804561D01*
X122501534Y-84277138D01*
X122097862Y-83873466D01*
X121570439Y-83655000D01*
X120999561Y-83655000D01*
X120472138Y-83873466D01*
X120068466Y-84277138D01*
X119850000Y-84804561D01*
X111852100Y-84804561D01*
X111852100Y-78224778D01*
X112257837Y-77819041D01*
X119893086Y-77819041D01*
X120132611Y-78325134D01*
X120547577Y-78701041D01*
X120935961Y-78861904D01*
X121158000Y-78739915D01*
X121158000Y-77597000D01*
X121412000Y-77597000D01*
X121412000Y-78739915D01*
X121634039Y-78861904D01*
X122022423Y-78701041D01*
X122437389Y-78325134D01*
X122676914Y-77819041D01*
X122555629Y-77597000D01*
X121412000Y-77597000D01*
X121158000Y-77597000D01*
X120014371Y-77597000D01*
X119893086Y-77819041D01*
X112257837Y-77819041D01*
X112955919Y-77120959D01*
X119893086Y-77120959D01*
X120014371Y-77343000D01*
X121158000Y-77343000D01*
X121158000Y-76200085D01*
X121412000Y-76200085D01*
X121412000Y-77343000D01*
X122555629Y-77343000D01*
X122676914Y-77120959D01*
X122437389Y-76614866D01*
X122022423Y-76238959D01*
X121634039Y-76078096D01*
X121412000Y-76200085D01*
X121158000Y-76200085D01*
X120935961Y-76078096D01*
X120547577Y-76238959D01*
X120132611Y-76614866D01*
X119893086Y-77120959D01*
X112955919Y-77120959D01*
X117404156Y-72672723D01*
X117478049Y-72623349D01*
X117673652Y-72330610D01*
X117725000Y-72072465D01*
X117725000Y-72072461D01*
X117742337Y-71985300D01*
X117725000Y-71898139D01*
X117725000Y-71679656D01*
X117910625Y-71555625D01*
X118110000Y-71257239D01*
X118309375Y-71555625D01*
X118800582Y-71883839D01*
X119233744Y-71970000D01*
X119526256Y-71970000D01*
X119959418Y-71883839D01*
X120450625Y-71555625D01*
X120663843Y-71236522D01*
X120724817Y-71366358D01*
X121153076Y-71756645D01*
X121563110Y-71926476D01*
X121793000Y-71805155D01*
X121793000Y-70612000D01*
X121773000Y-70612000D01*
X121773000Y-70358000D01*
X121793000Y-70358000D01*
X121793000Y-70338000D01*
X122047000Y-70338000D01*
X122047000Y-70358000D01*
X122067000Y-70358000D01*
X122067000Y-70612000D01*
X122047000Y-70612000D01*
X122047000Y-71805155D01*
X122276890Y-71926476D01*
X122686924Y-71756645D01*
X123115183Y-71366358D01*
X123176157Y-71236522D01*
X123389375Y-71555625D01*
X123880582Y-71883839D01*
X124313744Y-71970000D01*
X124606256Y-71970000D01*
X125039418Y-71883839D01*
X125530625Y-71555625D01*
X125730000Y-71257239D01*
X125929375Y-71555625D01*
X126420582Y-71883839D01*
X126853744Y-71970000D01*
X127146256Y-71970000D01*
X127579418Y-71883839D01*
X128070625Y-71555625D01*
X128270000Y-71257239D01*
X128469375Y-71555625D01*
X128960582Y-71883839D01*
X129393744Y-71970000D01*
X129686256Y-71970000D01*
X130119418Y-71883839D01*
X130610625Y-71555625D01*
X130810000Y-71257239D01*
X131009375Y-71555625D01*
X131500582Y-71883839D01*
X131933744Y-71970000D01*
X132226256Y-71970000D01*
X132659418Y-71883839D01*
X133150625Y-71555625D01*
X133350000Y-71257239D01*
X133549375Y-71555625D01*
X134040582Y-71883839D01*
X134473744Y-71970000D01*
X134766256Y-71970000D01*
X135199418Y-71883839D01*
X135690625Y-71555625D01*
X135890000Y-71257239D01*
X136089375Y-71555625D01*
X136580582Y-71883839D01*
X137013744Y-71970000D01*
X137306256Y-71970000D01*
X137739418Y-71883839D01*
X138230625Y-71555625D01*
X138430000Y-71257239D01*
X138629375Y-71555625D01*
X138778472Y-71655249D01*
X135326022Y-75107700D01*
X126024461Y-75107700D01*
X125937300Y-75090363D01*
X125850139Y-75107700D01*
X125850135Y-75107700D01*
X125591990Y-75159048D01*
X125373145Y-75305276D01*
X125373144Y-75305277D01*
X125299251Y-75354651D01*
X125249877Y-75428544D01*
X124643421Y-76035000D01*
X124174561Y-76035000D01*
X123647138Y-76253466D01*
X123243466Y-76657138D01*
X123025000Y-77184561D01*
X123025000Y-77755439D01*
X123243466Y-78282862D01*
X123647138Y-78686534D01*
X124174561Y-78905000D01*
X124745439Y-78905000D01*
X125272862Y-78686534D01*
X125676534Y-78282862D01*
X125895000Y-77755439D01*
X125895000Y-77286579D01*
X126303879Y-76877700D01*
X126327106Y-76877700D01*
X126200000Y-77184561D01*
X126200000Y-77755439D01*
X126418466Y-78282862D01*
X126822138Y-78686534D01*
X127349561Y-78905000D01*
X127818421Y-78905000D01*
X128409877Y-79496456D01*
X128459251Y-79570349D01*
X128533144Y-79619723D01*
X128533145Y-79619724D01*
X128597619Y-79662804D01*
X128751990Y-79765952D01*
X129010135Y-79817300D01*
X129010139Y-79817300D01*
X129097299Y-79834637D01*
X129184459Y-79817300D01*
X132435539Y-79817300D01*
X132522700Y-79834637D01*
X132609861Y-79817300D01*
X132609865Y-79817300D01*
X132868010Y-79765952D01*
X133160749Y-79570349D01*
X133210125Y-79496453D01*
X133801578Y-78905000D01*
X133895591Y-78905000D01*
X135380470Y-80389945D01*
X135429851Y-80463849D01*
X135582404Y-80565782D01*
X135722571Y-80659444D01*
X135722581Y-80659446D01*
X135722590Y-80659452D01*
X135922768Y-80699270D01*
X136067879Y-80728137D01*
X136155049Y-80710800D01*
X139979639Y-80710800D01*
X140066800Y-80728137D01*
X140153961Y-80710800D01*
X140153965Y-80710800D01*
X140412110Y-80659452D01*
X140704849Y-80463849D01*
X140754225Y-80389953D01*
X142349556Y-78794623D01*
X142423449Y-78745249D01*
X142474295Y-78669154D01*
X142556592Y-78545988D01*
X142697138Y-78686534D01*
X143224561Y-78905000D01*
X143795439Y-78905000D01*
X144322862Y-78686534D01*
X144726534Y-78282862D01*
X144945000Y-77755439D01*
X144945000Y-77184561D01*
X145250000Y-77184561D01*
X145250000Y-77755439D01*
X145468466Y-78282862D01*
X145872138Y-78686534D01*
X146399561Y-78905000D01*
X146970439Y-78905000D01*
X147497862Y-78686534D01*
X147901534Y-78282862D01*
X148120000Y-77755439D01*
X148120000Y-77184561D01*
X147901534Y-76657138D01*
X147497862Y-76253466D01*
X146970439Y-76035000D01*
X146399561Y-76035000D01*
X145872138Y-76253466D01*
X145468466Y-76657138D01*
X145250000Y-77184561D01*
X144945000Y-77184561D01*
X144726534Y-76657138D01*
X144322862Y-76253466D01*
X143795439Y-76035000D01*
X143530878Y-76035000D01*
X145344156Y-74221723D01*
X145418049Y-74172349D01*
X145613652Y-73879610D01*
X145665000Y-73621465D01*
X145665000Y-73621461D01*
X145682337Y-73534300D01*
X145665000Y-73447139D01*
X145665000Y-71679656D01*
X145850625Y-71555625D01*
X146050000Y-71257239D01*
X146249375Y-71555625D01*
X146740582Y-71883839D01*
X147173744Y-71970000D01*
X147466256Y-71970000D01*
X147899418Y-71883839D01*
X148390625Y-71555625D01*
X148590000Y-71257239D01*
X148789375Y-71555625D01*
X149280582Y-71883839D01*
X149713744Y-71970000D01*
X150006256Y-71970000D01*
X150439418Y-71883839D01*
X150505001Y-71840018D01*
X150505000Y-76183935D01*
X150145439Y-76035000D01*
X149574561Y-76035000D01*
X149047138Y-76253466D01*
X148643466Y-76657138D01*
X148425000Y-77184561D01*
X148425000Y-77755439D01*
X148643466Y-78282862D01*
X149047138Y-78686534D01*
X149571563Y-78903758D01*
X148235386Y-80239936D01*
X148210190Y-80244948D01*
X148210188Y-80244949D01*
X148210189Y-80244949D01*
X147991345Y-80391176D01*
X147991344Y-80391177D01*
X147917451Y-80440551D01*
X147868077Y-80514444D01*
X144670545Y-83711977D01*
X144596652Y-83761351D01*
X144547278Y-83835244D01*
X144547276Y-83835246D01*
X144444734Y-83988710D01*
X144069909Y-83738260D01*
X143651333Y-83655000D01*
X143368667Y-83655000D01*
X142950091Y-83738260D01*
X142475423Y-84055423D01*
X142158260Y-84530091D01*
X142046887Y-85090000D01*
X142158260Y-85649909D01*
X142475423Y-86124577D01*
X142950091Y-86441740D01*
X143130413Y-86477608D01*
X142310845Y-87297177D01*
X142236952Y-87346551D01*
X142187578Y-87420444D01*
X142187576Y-87420446D01*
X142041348Y-87639291D01*
X141972663Y-87984600D01*
X141990001Y-88071765D01*
X141990000Y-94378421D01*
X139329777Y-97038645D01*
X139262115Y-96698489D01*
X139142853Y-96520000D01*
X139262115Y-96341511D01*
X139352921Y-95885000D01*
X139262115Y-95428489D01*
X139003523Y-95041477D01*
X138616511Y-94782885D01*
X138275231Y-94715000D01*
X137314769Y-94715000D01*
X136973489Y-94782885D01*
X136586477Y-95041477D01*
X136327885Y-95428489D01*
X136237079Y-95885000D01*
X136327885Y-96341511D01*
X136447147Y-96520000D01*
X136327885Y-96698489D01*
X136237079Y-97155000D01*
X136327885Y-97611511D01*
X136447147Y-97790000D01*
X136327885Y-97968489D01*
X136237079Y-98425000D01*
X136325473Y-98869387D01*
X136296843Y-98912235D01*
X136247560Y-99160000D01*
X136247560Y-100230000D01*
X136296843Y-100477765D01*
X136437191Y-100687809D01*
X136647235Y-100828157D01*
X136895000Y-100877440D01*
X138695000Y-100877440D01*
X138942765Y-100828157D01*
X139152809Y-100687809D01*
X139293157Y-100477765D01*
X139342440Y-100230000D01*
X139342440Y-99298011D01*
X139540310Y-99258652D01*
X139833049Y-99063049D01*
X139882425Y-98989153D01*
X143439156Y-95432423D01*
X143513049Y-95383049D01*
X143564356Y-95306264D01*
X143708652Y-95090310D01*
X143733665Y-94964561D01*
X143760000Y-94832165D01*
X143760000Y-94832161D01*
X143777337Y-94745000D01*
X143760000Y-94657839D01*
X143760000Y-88351178D01*
X145798856Y-86312323D01*
X145800001Y-86311558D01*
X145800000Y-87898421D01*
X145698421Y-88000000D01*
X145109670Y-88000000D01*
X144545493Y-88233690D01*
X144113690Y-88665493D01*
X143880000Y-89229670D01*
X143880000Y-89840330D01*
X144113690Y-90404507D01*
X144282908Y-90573725D01*
X144267235Y-90576843D01*
X144057191Y-90717191D01*
X143916843Y-90927235D01*
X143867560Y-91175000D01*
X143867560Y-92975000D01*
X143916843Y-93222765D01*
X144057191Y-93432809D01*
X144267235Y-93573157D01*
X144515000Y-93622440D01*
X146315000Y-93622440D01*
X146562765Y-93573157D01*
X146772809Y-93432809D01*
X146913157Y-93222765D01*
X146962440Y-92975000D01*
X146962440Y-91175000D01*
X146913157Y-90927235D01*
X146772809Y-90717191D01*
X146562765Y-90576843D01*
X146547092Y-90573725D01*
X146716310Y-90404507D01*
X146950000Y-89840330D01*
X146950000Y-89251579D01*
X147249156Y-88952423D01*
X147323049Y-88903049D01*
X147383329Y-88812835D01*
X147510407Y-88622649D01*
X147518652Y-88610310D01*
X147570000Y-88352165D01*
X147570000Y-88352161D01*
X147587337Y-88265001D01*
X147570000Y-88177841D01*
X147570000Y-86224521D01*
X147719577Y-86124577D01*
X148036740Y-85649909D01*
X148148113Y-85090000D01*
X148036740Y-84530091D01*
X147719577Y-84055423D01*
X147244909Y-83738260D01*
X147163593Y-83722085D01*
X148968415Y-81917263D01*
X148993610Y-81912252D01*
X149286349Y-81716649D01*
X149335725Y-81642753D01*
X151954156Y-79024323D01*
X152028049Y-78974949D01*
X152221314Y-78685710D01*
X152222138Y-78686534D01*
X152749561Y-78905000D01*
X153320439Y-78905000D01*
X153603100Y-78787918D01*
X153603100Y-79643421D01*
X150780645Y-82465877D01*
X150706752Y-82515251D01*
X150657378Y-82589144D01*
X150657376Y-82589146D01*
X150511148Y-82807991D01*
X150442463Y-83153300D01*
X150459801Y-83240465D01*
X150459801Y-83764915D01*
X150419909Y-83738260D01*
X150001333Y-83655000D01*
X149718667Y-83655000D01*
X149300091Y-83738260D01*
X148825423Y-84055423D01*
X148508260Y-84530091D01*
X148396887Y-85090000D01*
X148508260Y-85649909D01*
X148825423Y-86124577D01*
X149300091Y-86441740D01*
X149718667Y-86525000D01*
X150001333Y-86525000D01*
X150419909Y-86441740D01*
X150459800Y-86415086D01*
X150459800Y-87122639D01*
X150442463Y-87209800D01*
X150459800Y-87296961D01*
X150459800Y-87296964D01*
X150511148Y-87555109D01*
X150706751Y-87847849D01*
X150780647Y-87897225D01*
X150942177Y-88058755D01*
X150800330Y-88000000D01*
X150189670Y-88000000D01*
X149625493Y-88233690D01*
X149193690Y-88665493D01*
X148960000Y-89229670D01*
X148960000Y-89840330D01*
X149193690Y-90404507D01*
X149362908Y-90573725D01*
X149347235Y-90576843D01*
X149137191Y-90717191D01*
X148996843Y-90927235D01*
X148947560Y-91175000D01*
X148947560Y-92975000D01*
X148996843Y-93222765D01*
X149137191Y-93432809D01*
X149347235Y-93573157D01*
X149595000Y-93622440D01*
X151395000Y-93622440D01*
X151642765Y-93573157D01*
X151852809Y-93432809D01*
X151993157Y-93222765D01*
X152042440Y-92975000D01*
X152042440Y-91175000D01*
X151993157Y-90927235D01*
X151852809Y-90717191D01*
X151642765Y-90576843D01*
X151627092Y-90573725D01*
X151796310Y-90404507D01*
X152030000Y-89840330D01*
X152030000Y-89229670D01*
X151971245Y-89087824D01*
X152150001Y-89266580D01*
X152150000Y-94883421D01*
X149493422Y-97540000D01*
X149436339Y-97540000D01*
X149512921Y-97155000D01*
X149422115Y-96698489D01*
X149302853Y-96520000D01*
X149422115Y-96341511D01*
X149512921Y-95885000D01*
X149422115Y-95428489D01*
X149163523Y-95041477D01*
X148776511Y-94782885D01*
X148435231Y-94715000D01*
X147474769Y-94715000D01*
X147133489Y-94782885D01*
X146746477Y-95041477D01*
X146487885Y-95428489D01*
X146397079Y-95885000D01*
X146487885Y-96341511D01*
X146607147Y-96520000D01*
X146487885Y-96698489D01*
X146397079Y-97155000D01*
X146487885Y-97611511D01*
X146607147Y-97790000D01*
X146487885Y-97968489D01*
X146397079Y-98425000D01*
X146485473Y-98869387D01*
X146456843Y-98912235D01*
X146407560Y-99160000D01*
X146407560Y-100230000D01*
X146456843Y-100477765D01*
X146597191Y-100687809D01*
X146807235Y-100828157D01*
X147055000Y-100877440D01*
X148855000Y-100877440D01*
X149102765Y-100828157D01*
X149312809Y-100687809D01*
X149453157Y-100477765D01*
X149502440Y-100230000D01*
X149502440Y-99310000D01*
X149772839Y-99310000D01*
X149860000Y-99327337D01*
X149947161Y-99310000D01*
X149947165Y-99310000D01*
X150205310Y-99258652D01*
X150498049Y-99063049D01*
X150547425Y-98989153D01*
X153599156Y-95937423D01*
X153673049Y-95888049D01*
X153722425Y-95814154D01*
X153828798Y-95654955D01*
X153868652Y-95595310D01*
X153920000Y-95337165D01*
X153920000Y-95337160D01*
X153937337Y-95250001D01*
X153920000Y-95162841D01*
X153920000Y-89131579D01*
X154040000Y-89251579D01*
X154040000Y-89840330D01*
X154273690Y-90404507D01*
X154442908Y-90573725D01*
X154427235Y-90576843D01*
X154217191Y-90717191D01*
X154076843Y-90927235D01*
X154027560Y-91175000D01*
X154027560Y-92975000D01*
X154076843Y-93222765D01*
X154217191Y-93432809D01*
X154427235Y-93573157D01*
X154675000Y-93622440D01*
X156475000Y-93622440D01*
X156722765Y-93573157D01*
X156932809Y-93432809D01*
X157073157Y-93222765D01*
X157122440Y-92975000D01*
X157122440Y-91175000D01*
X157073157Y-90927235D01*
X156932809Y-90717191D01*
X156722765Y-90576843D01*
X156707092Y-90573725D01*
X156876310Y-90404507D01*
X157110000Y-89840330D01*
X157110000Y-89229670D01*
X156876310Y-88665493D01*
X156444507Y-88233690D01*
X155880330Y-88000000D01*
X155291579Y-88000000D01*
X153920000Y-86628422D01*
X153920000Y-86224521D01*
X154069577Y-86124577D01*
X154386740Y-85649909D01*
X154498113Y-85090000D01*
X154746887Y-85090000D01*
X154858260Y-85649909D01*
X155175423Y-86124577D01*
X155325001Y-86224522D01*
X155325001Y-86302835D01*
X155307663Y-86390000D01*
X155376348Y-86735309D01*
X155522576Y-86954154D01*
X155522577Y-86954155D01*
X155571952Y-87028049D01*
X155645845Y-87077423D01*
X158667577Y-90099156D01*
X158716951Y-90173049D01*
X158790844Y-90222423D01*
X158790845Y-90222424D01*
X159009689Y-90368651D01*
X159009690Y-90368652D01*
X159267835Y-90420000D01*
X159267839Y-90420000D01*
X159355000Y-90437337D01*
X159381291Y-90432108D01*
X159522908Y-90573725D01*
X159507235Y-90576843D01*
X159297191Y-90717191D01*
X159156843Y-90927235D01*
X159107560Y-91175000D01*
X159107560Y-92975000D01*
X159156843Y-93222765D01*
X159297191Y-93432809D01*
X159507235Y-93573157D01*
X159755000Y-93622440D01*
X161555000Y-93622440D01*
X161802765Y-93573157D01*
X162012809Y-93432809D01*
X162153157Y-93222765D01*
X162202440Y-92975000D01*
X162202440Y-91175000D01*
X162153157Y-90927235D01*
X162012809Y-90717191D01*
X161802765Y-90576843D01*
X161787092Y-90573725D01*
X161956310Y-90404507D01*
X162190000Y-89840330D01*
X162190000Y-89229670D01*
X161956310Y-88665493D01*
X161524507Y-88233690D01*
X160960330Y-88000000D01*
X160349670Y-88000000D01*
X159785493Y-88233690D01*
X159545381Y-88473802D01*
X157215550Y-86143972D01*
X157244577Y-86124577D01*
X157561740Y-85649909D01*
X157673113Y-85090000D01*
X157561740Y-84530091D01*
X157244577Y-84055423D01*
X156769909Y-83738260D01*
X156351333Y-83655000D01*
X156068667Y-83655000D01*
X155650091Y-83738260D01*
X155175423Y-84055423D01*
X154858260Y-84530091D01*
X154746887Y-85090000D01*
X154498113Y-85090000D01*
X154386740Y-84530091D01*
X154069577Y-84055423D01*
X153594909Y-83738260D01*
X153176333Y-83655000D01*
X152893667Y-83655000D01*
X152475091Y-83738260D01*
X152229800Y-83902158D01*
X152229800Y-83519878D01*
X155052256Y-80697423D01*
X155126149Y-80648049D01*
X155216246Y-80513211D01*
X155321751Y-80355311D01*
X155321752Y-80355310D01*
X155373100Y-80097165D01*
X155373100Y-80097161D01*
X155390437Y-80010001D01*
X155373100Y-79922841D01*
X155373100Y-78662496D01*
X155397138Y-78686534D01*
X155634538Y-78784868D01*
X155645847Y-78792425D01*
X160509292Y-83655870D01*
X160095091Y-83738260D01*
X159620423Y-84055423D01*
X159303260Y-84530091D01*
X159191887Y-85090000D01*
X159303260Y-85649909D01*
X159620423Y-86124577D01*
X160095091Y-86441740D01*
X160513667Y-86525000D01*
X160796333Y-86525000D01*
X161214909Y-86441740D01*
X161689577Y-86124577D01*
X161925000Y-85772242D01*
X162160423Y-86124577D01*
X162635091Y-86441740D01*
X163053667Y-86525000D01*
X163336333Y-86525000D01*
X163754909Y-86441740D01*
X164215001Y-86134317D01*
X164215000Y-92473421D01*
X159649777Y-97038645D01*
X159582115Y-96698489D01*
X159462853Y-96520000D01*
X159582115Y-96341511D01*
X159672921Y-95885000D01*
X159582115Y-95428489D01*
X159323523Y-95041477D01*
X158936511Y-94782885D01*
X158595231Y-94715000D01*
X157634769Y-94715000D01*
X157293489Y-94782885D01*
X156906477Y-95041477D01*
X156647885Y-95428489D01*
X156557079Y-95885000D01*
X156647885Y-96341511D01*
X156767147Y-96520000D01*
X156647885Y-96698489D01*
X156557079Y-97155000D01*
X156647885Y-97611511D01*
X156767147Y-97790000D01*
X156647885Y-97968489D01*
X156557079Y-98425000D01*
X156645473Y-98869387D01*
X156616843Y-98912235D01*
X156567560Y-99160000D01*
X156567560Y-100230000D01*
X156616843Y-100477765D01*
X156757191Y-100687809D01*
X156967235Y-100828157D01*
X157215000Y-100877440D01*
X159015000Y-100877440D01*
X159262765Y-100828157D01*
X159472809Y-100687809D01*
X159613157Y-100477765D01*
X159662440Y-100230000D01*
X159662440Y-99298011D01*
X159860310Y-99258652D01*
X160153049Y-99063049D01*
X160202425Y-98989153D01*
X165664156Y-93527423D01*
X165738049Y-93478049D01*
X165828988Y-93341951D01*
X165933652Y-93185310D01*
X165959510Y-93055310D01*
X165985000Y-92927165D01*
X165985000Y-92927161D01*
X166002337Y-92840000D01*
X165985000Y-92752839D01*
X165985000Y-84300159D01*
X166002337Y-84212999D01*
X165985000Y-84125840D01*
X165985000Y-84125835D01*
X165933652Y-83867690D01*
X165794604Y-83659591D01*
X165787424Y-83648845D01*
X165787423Y-83648844D01*
X165738049Y-83574951D01*
X165664156Y-83525577D01*
X161002558Y-78863979D01*
X161214909Y-78821740D01*
X161689577Y-78504577D01*
X161770215Y-78383894D01*
X161796843Y-78517765D01*
X161937191Y-78727809D01*
X162147235Y-78868157D01*
X162395000Y-78917440D01*
X163995000Y-78917440D01*
X164242765Y-78868157D01*
X164452809Y-78727809D01*
X164593157Y-78517765D01*
X164642440Y-78270000D01*
X164642440Y-76670000D01*
X164593157Y-76422235D01*
X164452809Y-76212191D01*
X164242765Y-76071843D01*
X163995000Y-76022560D01*
X162395000Y-76022560D01*
X162147235Y-76071843D01*
X161937191Y-76212191D01*
X161796843Y-76422235D01*
X161770215Y-76556106D01*
X161689577Y-76435423D01*
X161214909Y-76118260D01*
X160796333Y-76035000D01*
X160513667Y-76035000D01*
X160095091Y-76118260D01*
X159620423Y-76435423D01*
X159303260Y-76910091D01*
X159261021Y-77122443D01*
X159044424Y-76905846D01*
X158995049Y-76831951D01*
X158918148Y-76780567D01*
X157730000Y-75592420D01*
X157730000Y-68887159D01*
X157747337Y-68799999D01*
X157730000Y-68712839D01*
X157730000Y-68712835D01*
X157678652Y-68454690D01*
X157483049Y-68161951D01*
X157409156Y-68112577D01*
X156701855Y-67405277D01*
X156769909Y-67391740D01*
X157244577Y-67074577D01*
X157480000Y-66722242D01*
X157715423Y-67074577D01*
X158190091Y-67391740D01*
X158608667Y-67475000D01*
X158891333Y-67475000D01*
X159309909Y-67391740D01*
X159784577Y-67074577D01*
X160020000Y-66722242D01*
X160255423Y-67074577D01*
X160730091Y-67391740D01*
X161148667Y-67475000D01*
X161431333Y-67475000D01*
X161849909Y-67391740D01*
X162324577Y-67074577D01*
X162560000Y-66722242D01*
X162795423Y-67074577D01*
X163270091Y-67391740D01*
X163688667Y-67475000D01*
X163971333Y-67475000D01*
X164389909Y-67391740D01*
X164864577Y-67074577D01*
X165100000Y-66722242D01*
X165335423Y-67074577D01*
X165810091Y-67391740D01*
X166228667Y-67475000D01*
X166511333Y-67475000D01*
X166929909Y-67391740D01*
X167404577Y-67074577D01*
X167640000Y-66722242D01*
X167875423Y-67074577D01*
X168350091Y-67391740D01*
X168768667Y-67475000D01*
X169051333Y-67475000D01*
X169469909Y-67391740D01*
X169944577Y-67074577D01*
X170180000Y-66722242D01*
X170415423Y-67074577D01*
X170890091Y-67391740D01*
X171308667Y-67475000D01*
X171591333Y-67475000D01*
X172009909Y-67391740D01*
X172484577Y-67074577D01*
X172801740Y-66599909D01*
X172913113Y-66040000D01*
X172801740Y-65480091D01*
X172484577Y-65005423D01*
X172009909Y-64688260D01*
X171591333Y-64605000D01*
X171308667Y-64605000D01*
X170890091Y-64688260D01*
X170415423Y-65005423D01*
X170180000Y-65357758D01*
X169944577Y-65005423D01*
X169469909Y-64688260D01*
X169051333Y-64605000D01*
X168768667Y-64605000D01*
X168350091Y-64688260D01*
X167875423Y-65005423D01*
X167640000Y-65357758D01*
X167404577Y-65005423D01*
X166929909Y-64688260D01*
X166511333Y-64605000D01*
X166228667Y-64605000D01*
X165810091Y-64688260D01*
X165335423Y-65005423D01*
X165100000Y-65357758D01*
X164864577Y-65005423D01*
X164389909Y-64688260D01*
X163971333Y-64605000D01*
X163688667Y-64605000D01*
X163270091Y-64688260D01*
X162795423Y-65005423D01*
X162560000Y-65357758D01*
X162324577Y-65005423D01*
X161849909Y-64688260D01*
X161431333Y-64605000D01*
X161148667Y-64605000D01*
X160730091Y-64688260D01*
X160255423Y-65005423D01*
X160020000Y-65357758D01*
X159784577Y-65005423D01*
X159309909Y-64688260D01*
X158891333Y-64605000D01*
X158608667Y-64605000D01*
X158190091Y-64688260D01*
X157715423Y-65005423D01*
X157480000Y-65357758D01*
X157244577Y-65005423D01*
X156769909Y-64688260D01*
X156351333Y-64605000D01*
X156068667Y-64605000D01*
X155650091Y-64688260D01*
X155175423Y-65005423D01*
X154940000Y-65357758D01*
X154704577Y-65005423D01*
X154229909Y-64688260D01*
X153811333Y-64605000D01*
X153528667Y-64605000D01*
X153110091Y-64688260D01*
X152635423Y-65005423D01*
X152318260Y-65480091D01*
X152206887Y-66040000D01*
X152218137Y-66096559D01*
X151597425Y-65475847D01*
X151548049Y-65401951D01*
X151255310Y-65206348D01*
X150997165Y-65155000D01*
X150997161Y-65155000D01*
X150910000Y-65137663D01*
X150822839Y-65155000D01*
X150744521Y-65155000D01*
X150644577Y-65005423D01*
X150169909Y-64688260D01*
X149751333Y-64605000D01*
X149468667Y-64605000D01*
X149050091Y-64688260D01*
X148575423Y-65005423D01*
X148340000Y-65357758D01*
X148104577Y-65005423D01*
X147629909Y-64688260D01*
X147211333Y-64605000D01*
X146928667Y-64605000D01*
X146510091Y-64688260D01*
X146035423Y-65005423D01*
X145800000Y-65357758D01*
X145564577Y-65005423D01*
X145089909Y-64688260D01*
X144671333Y-64605000D01*
X144388667Y-64605000D01*
X143970091Y-64688260D01*
X143495423Y-65005423D01*
X143260000Y-65357758D01*
X143024577Y-65005423D01*
X142549909Y-64688260D01*
X142131333Y-64605000D01*
X141848667Y-64605000D01*
X141430091Y-64688260D01*
X140955423Y-65005423D01*
X140720000Y-65357758D01*
X140484577Y-65005423D01*
X140009909Y-64688260D01*
X139591333Y-64605000D01*
X139308667Y-64605000D01*
X138890091Y-64688260D01*
X138415423Y-65005423D01*
X138180000Y-65357758D01*
X137944577Y-65005423D01*
X137469909Y-64688260D01*
X137051333Y-64605000D01*
X136768667Y-64605000D01*
X136733561Y-64611983D01*
X136204578Y-64083000D01*
X172171910Y-64083000D01*
X173407001Y-65318093D01*
X173407000Y-76384076D01*
X173393091Y-76454000D01*
X173407000Y-76523924D01*
X173407000Y-76523925D01*
X173448195Y-76731027D01*
X173605119Y-76965880D01*
X173664402Y-77005492D01*
X175947001Y-79288092D01*
X175947001Y-92960722D01*
X171730452Y-88744174D01*
X171849577Y-88664577D01*
X172166740Y-88189909D01*
X172208684Y-87979041D01*
X172598086Y-87979041D01*
X172837611Y-88485134D01*
X173252577Y-88861041D01*
X173640961Y-89021904D01*
X173863000Y-88899915D01*
X173863000Y-87757000D01*
X174117000Y-87757000D01*
X174117000Y-88899915D01*
X174339039Y-89021904D01*
X174727423Y-88861041D01*
X175142389Y-88485134D01*
X175381914Y-87979041D01*
X175260629Y-87757000D01*
X174117000Y-87757000D01*
X173863000Y-87757000D01*
X172719371Y-87757000D01*
X172598086Y-87979041D01*
X172208684Y-87979041D01*
X172278113Y-87630000D01*
X172208685Y-87280959D01*
X172598086Y-87280959D01*
X172719371Y-87503000D01*
X173863000Y-87503000D01*
X173863000Y-86360085D01*
X174117000Y-86360085D01*
X174117000Y-87503000D01*
X175260629Y-87503000D01*
X175381914Y-87280959D01*
X175142389Y-86774866D01*
X174727423Y-86398959D01*
X174339039Y-86238096D01*
X174117000Y-86360085D01*
X173863000Y-86360085D01*
X173640961Y-86238096D01*
X173252577Y-86398959D01*
X172837611Y-86774866D01*
X172598086Y-87280959D01*
X172208685Y-87280959D01*
X172166740Y-87070091D01*
X171849577Y-86595423D01*
X171374909Y-86278260D01*
X170956333Y-86195000D01*
X170673667Y-86195000D01*
X170255091Y-86278260D01*
X170245100Y-86284936D01*
X170245100Y-84371478D01*
X170681578Y-83935000D01*
X171090494Y-83935000D01*
X171599540Y-83724147D01*
X171802170Y-83521517D01*
X172563088Y-83521517D01*
X172631077Y-83762460D01*
X173150171Y-83947201D01*
X173700448Y-83919230D01*
X174078923Y-83762460D01*
X174146912Y-83521517D01*
X173355000Y-82729605D01*
X172563088Y-83521517D01*
X171802170Y-83521517D01*
X171989147Y-83334540D01*
X172078397Y-83119070D01*
X172142540Y-83273923D01*
X172383483Y-83341912D01*
X173175395Y-82550000D01*
X173534605Y-82550000D01*
X174326517Y-83341912D01*
X174567460Y-83273923D01*
X174752201Y-82754829D01*
X174724230Y-82204552D01*
X174567460Y-81826077D01*
X174326517Y-81758088D01*
X173534605Y-82550000D01*
X173175395Y-82550000D01*
X172383483Y-81758088D01*
X172142540Y-81826077D01*
X172083255Y-81992658D01*
X171989147Y-81765460D01*
X171802170Y-81578483D01*
X172563088Y-81578483D01*
X173355000Y-82370395D01*
X174146912Y-81578483D01*
X174078923Y-81337540D01*
X173559829Y-81152799D01*
X173009552Y-81180770D01*
X172631077Y-81337540D01*
X172563088Y-81578483D01*
X171802170Y-81578483D01*
X171599540Y-81375853D01*
X171090494Y-81165000D01*
X170539506Y-81165000D01*
X170030460Y-81375853D01*
X169661469Y-81744844D01*
X169623157Y-81552235D01*
X169482809Y-81342191D01*
X169272765Y-81201843D01*
X169160000Y-81179413D01*
X169160000Y-77557161D01*
X169177337Y-77470000D01*
X169160000Y-77382839D01*
X169160000Y-77382835D01*
X169108652Y-77124690D01*
X169106159Y-77120959D01*
X168962424Y-76905845D01*
X168962423Y-76905844D01*
X168913049Y-76831951D01*
X168839156Y-76782577D01*
X162718017Y-70661439D01*
X162753113Y-70485000D01*
X162641740Y-69925091D01*
X162324577Y-69450423D01*
X161849909Y-69133260D01*
X161431333Y-69050000D01*
X161148667Y-69050000D01*
X160730091Y-69133260D01*
X160255423Y-69450423D01*
X159938260Y-69925091D01*
X159826887Y-70485000D01*
X159938260Y-71044909D01*
X160255423Y-71519577D01*
X160730091Y-71836740D01*
X161148667Y-71920000D01*
X161431333Y-71920000D01*
X161466439Y-71913017D01*
X167390001Y-77836580D01*
X167390000Y-81179413D01*
X167277235Y-81201843D01*
X167067191Y-81342191D01*
X166926843Y-81552235D01*
X166877560Y-81800000D01*
X166877560Y-83300000D01*
X166926843Y-83547765D01*
X167067191Y-83757809D01*
X167277235Y-83898157D01*
X167525000Y-83947440D01*
X168469192Y-83947440D01*
X168457763Y-84004900D01*
X168475100Y-84092061D01*
X168475100Y-86462137D01*
X168199909Y-86278260D01*
X167781333Y-86195000D01*
X167498667Y-86195000D01*
X167080091Y-86278260D01*
X166605423Y-86595423D01*
X166288260Y-87070091D01*
X166176887Y-87630000D01*
X166288260Y-88189909D01*
X166605423Y-88664577D01*
X167080091Y-88981740D01*
X167498667Y-89065000D01*
X167781333Y-89065000D01*
X168199909Y-88981740D01*
X168475101Y-88797863D01*
X168475101Y-92658500D01*
X167366661Y-92658500D01*
X167279500Y-92641163D01*
X167192339Y-92658500D01*
X167192335Y-92658500D01*
X166934190Y-92709848D01*
X166715345Y-92856076D01*
X166715344Y-92856077D01*
X166641451Y-92905451D01*
X166592077Y-92979344D01*
X165614947Y-93956475D01*
X165541051Y-94005851D01*
X165345448Y-94298591D01*
X165294100Y-94556736D01*
X165294100Y-94556739D01*
X165276763Y-94643900D01*
X165294100Y-94731061D01*
X165294100Y-103348713D01*
X164790222Y-103140000D01*
X164139778Y-103140000D01*
X163538847Y-103388914D01*
X163078914Y-103848847D01*
X162830000Y-104449778D01*
X162830000Y-105100222D01*
X163078914Y-105701153D01*
X163538847Y-106161086D01*
X163580000Y-106178132D01*
X163580001Y-109871868D01*
X163538847Y-109888914D01*
X163078914Y-110348847D01*
X162830000Y-110949778D01*
X162830000Y-111600222D01*
X163078914Y-112201153D01*
X163538847Y-112661086D01*
X164086392Y-112887887D01*
X163971333Y-112865000D01*
X163688667Y-112865000D01*
X163270091Y-112948260D01*
X162795423Y-113265423D01*
X162560000Y-113617758D01*
X162324577Y-113265423D01*
X161849909Y-112948260D01*
X161431333Y-112865000D01*
X161148667Y-112865000D01*
X160730091Y-112948260D01*
X160255423Y-113265423D01*
X160020000Y-113617758D01*
X159784577Y-113265423D01*
X159309909Y-112948260D01*
X158891333Y-112865000D01*
X158608667Y-112865000D01*
X158190091Y-112948260D01*
X157715423Y-113265423D01*
X157635826Y-113384548D01*
X157161279Y-112910000D01*
X157170222Y-112910000D01*
X157771153Y-112661086D01*
X158004707Y-112427532D01*
X158992073Y-112427532D01*
X159090736Y-112694387D01*
X159700461Y-112920908D01*
X160350460Y-112896856D01*
X160839264Y-112694387D01*
X160937927Y-112427532D01*
X159965000Y-111454605D01*
X158992073Y-112427532D01*
X158004707Y-112427532D01*
X158231086Y-112201153D01*
X158399096Y-111795541D01*
X158545613Y-112149264D01*
X158812468Y-112247927D01*
X159785395Y-111275000D01*
X160144605Y-111275000D01*
X161117532Y-112247927D01*
X161384387Y-112149264D01*
X161610908Y-111539539D01*
X161586856Y-110889540D01*
X161384387Y-110400736D01*
X161117532Y-110302073D01*
X160144605Y-111275000D01*
X159785395Y-111275000D01*
X158812468Y-110302073D01*
X158545613Y-110400736D01*
X158407059Y-110773682D01*
X158231086Y-110348847D01*
X158004707Y-110122468D01*
X158992073Y-110122468D01*
X159965000Y-111095395D01*
X160937927Y-110122468D01*
X160839264Y-109855613D01*
X160229539Y-109629092D01*
X159579540Y-109653144D01*
X159090736Y-109855613D01*
X158992073Y-110122468D01*
X158004707Y-110122468D01*
X157771153Y-109888914D01*
X157730000Y-109871868D01*
X157730000Y-106178132D01*
X157771153Y-106161086D01*
X158004707Y-105927532D01*
X158992073Y-105927532D01*
X159090736Y-106194387D01*
X159700461Y-106420908D01*
X160350460Y-106396856D01*
X160839264Y-106194387D01*
X160937927Y-105927532D01*
X159965000Y-104954605D01*
X158992073Y-105927532D01*
X158004707Y-105927532D01*
X158231086Y-105701153D01*
X158399096Y-105295541D01*
X158545613Y-105649264D01*
X158812468Y-105747927D01*
X159785395Y-104775000D01*
X160144605Y-104775000D01*
X161117532Y-105747927D01*
X161384387Y-105649264D01*
X161610908Y-105039539D01*
X161586856Y-104389540D01*
X161384387Y-103900736D01*
X161117532Y-103802073D01*
X160144605Y-104775000D01*
X159785395Y-104775000D01*
X158812468Y-103802073D01*
X158545613Y-103900736D01*
X158407059Y-104273682D01*
X158231086Y-103848847D01*
X158004707Y-103622468D01*
X158992073Y-103622468D01*
X159965000Y-104595395D01*
X160937927Y-103622468D01*
X160839264Y-103355613D01*
X160229539Y-103129092D01*
X159579540Y-103153144D01*
X159090736Y-103355613D01*
X158992073Y-103622468D01*
X158004707Y-103622468D01*
X157771153Y-103388914D01*
X157170222Y-103140000D01*
X156519778Y-103140000D01*
X156478625Y-103157046D01*
X154791725Y-101470147D01*
X154742349Y-101396251D01*
X154449610Y-101200648D01*
X154191465Y-101149300D01*
X154191461Y-101149300D01*
X154104300Y-101131963D01*
X154017139Y-101149300D01*
X145702861Y-101149300D01*
X145615700Y-101131963D01*
X145528539Y-101149300D01*
X145528535Y-101149300D01*
X145270390Y-101200648D01*
X145051545Y-101346876D01*
X145051544Y-101346877D01*
X144977651Y-101396251D01*
X144928277Y-101470144D01*
X144328421Y-102070000D01*
X143859561Y-102070000D01*
X143332138Y-102288466D01*
X142928466Y-102692138D01*
X142710000Y-103219561D01*
X142710000Y-103790439D01*
X142928466Y-104317862D01*
X143332138Y-104721534D01*
X143859561Y-104940000D01*
X144430439Y-104940000D01*
X144957862Y-104721534D01*
X145361534Y-104317862D01*
X145580000Y-103790439D01*
X145580000Y-103321579D01*
X145982279Y-102919300D01*
X146644372Y-102919300D01*
X146520000Y-103219561D01*
X146520000Y-103790439D01*
X146738466Y-104317862D01*
X147142138Y-104721534D01*
X147669561Y-104940000D01*
X148240439Y-104940000D01*
X148767862Y-104721534D01*
X148978935Y-104510461D01*
X150699092Y-104510461D01*
X150723144Y-105160460D01*
X150925613Y-105649264D01*
X151192468Y-105747927D01*
X152165395Y-104775000D01*
X152524605Y-104775000D01*
X153497532Y-105747927D01*
X153764387Y-105649264D01*
X153990908Y-105039539D01*
X153966856Y-104389540D01*
X153764387Y-103900736D01*
X153497532Y-103802073D01*
X152524605Y-104775000D01*
X152165395Y-104775000D01*
X151192468Y-103802073D01*
X150925613Y-103900736D01*
X150699092Y-104510461D01*
X148978935Y-104510461D01*
X149171534Y-104317862D01*
X149390000Y-103790439D01*
X149390000Y-103622468D01*
X151372073Y-103622468D01*
X152345000Y-104595395D01*
X153317927Y-103622468D01*
X153219264Y-103355613D01*
X152609539Y-103129092D01*
X151959540Y-103153144D01*
X151470736Y-103355613D01*
X151372073Y-103622468D01*
X149390000Y-103622468D01*
X149390000Y-103219561D01*
X149265628Y-102919300D01*
X153737722Y-102919300D01*
X155227046Y-104408625D01*
X155210000Y-104449778D01*
X155210000Y-105100222D01*
X155458914Y-105701153D01*
X155918847Y-106161086D01*
X155960001Y-106178132D01*
X155960000Y-109871868D01*
X155918847Y-109888914D01*
X155838816Y-109968945D01*
X155716647Y-109786108D01*
X155695424Y-109754345D01*
X155695423Y-109754344D01*
X155646049Y-109680451D01*
X155572156Y-109631077D01*
X152351940Y-106410862D01*
X152730460Y-106396856D01*
X153219264Y-106194387D01*
X153317927Y-105927532D01*
X152345000Y-104954605D01*
X151372073Y-105927532D01*
X151411104Y-106033100D01*
X141268437Y-106033100D01*
X141362927Y-105777532D01*
X140390000Y-104804605D01*
X139417073Y-105777532D01*
X139511563Y-106033100D01*
X136763007Y-106033100D01*
X136816153Y-106011086D01*
X137276086Y-105551153D01*
X137525000Y-104950222D01*
X137525000Y-104360461D01*
X138744092Y-104360461D01*
X138768144Y-105010460D01*
X138970613Y-105499264D01*
X139237468Y-105597927D01*
X140210395Y-104625000D01*
X140569605Y-104625000D01*
X141542532Y-105597927D01*
X141809387Y-105499264D01*
X142035908Y-104889539D01*
X142011856Y-104239540D01*
X141809387Y-103750736D01*
X141542532Y-103652073D01*
X140569605Y-104625000D01*
X140210395Y-104625000D01*
X139237468Y-103652073D01*
X138970613Y-103750736D01*
X138744092Y-104360461D01*
X137525000Y-104360461D01*
X137525000Y-104299778D01*
X137276086Y-103698847D01*
X137049707Y-103472468D01*
X139417073Y-103472468D01*
X140390000Y-104445395D01*
X141362927Y-103472468D01*
X141264264Y-103205613D01*
X140654539Y-102979092D01*
X140004540Y-103003144D01*
X139515736Y-103205613D01*
X139417073Y-103472468D01*
X137049707Y-103472468D01*
X136816153Y-103238914D01*
X136215222Y-102990000D01*
X135564778Y-102990000D01*
X134963847Y-103238914D01*
X134503914Y-103698847D01*
X134255000Y-104299778D01*
X134255000Y-104950222D01*
X134503914Y-105551153D01*
X134963847Y-106011086D01*
X135016993Y-106033100D01*
X130184679Y-106033100D01*
X129816328Y-105664750D01*
X129909460Y-105660839D01*
X130354148Y-105476643D01*
X130440554Y-105220159D01*
X129540000Y-104319605D01*
X129525858Y-104333748D01*
X129346253Y-104154143D01*
X129360395Y-104140000D01*
X129719605Y-104140000D01*
X130620159Y-105040554D01*
X130876643Y-104954148D01*
X131086458Y-104380664D01*
X131060839Y-103770540D01*
X130876643Y-103325852D01*
X130620159Y-103239446D01*
X129719605Y-104140000D01*
X129360395Y-104140000D01*
X128459841Y-103239446D01*
X128344539Y-103278290D01*
X128341310Y-103270493D01*
X128130658Y-103059841D01*
X128639446Y-103059841D01*
X129540000Y-103960395D01*
X130440554Y-103059841D01*
X130354148Y-102803357D01*
X129780664Y-102593542D01*
X129170540Y-102619161D01*
X128725852Y-102803357D01*
X128639446Y-103059841D01*
X128130658Y-103059841D01*
X127909507Y-102838690D01*
X127345330Y-102605000D01*
X126734670Y-102605000D01*
X126170493Y-102838690D01*
X125790000Y-103219183D01*
X125409507Y-102838690D01*
X124845330Y-102605000D01*
X124234670Y-102605000D01*
X123670493Y-102838690D01*
X123238690Y-103270493D01*
X123005000Y-103834670D01*
X123005000Y-104423421D01*
X117212341Y-110216081D01*
X116972546Y-109976286D01*
X116474526Y-109770000D01*
X115935474Y-109770000D01*
X115437454Y-109976286D01*
X115056286Y-110357454D01*
X114850000Y-110855474D01*
X114850000Y-111394526D01*
X115056286Y-111892546D01*
X115437454Y-112273714D01*
X115935474Y-112480000D01*
X116474526Y-112480000D01*
X116972546Y-112273714D01*
X117236260Y-112010000D01*
X117467839Y-112010000D01*
X117555000Y-112027337D01*
X117642161Y-112010000D01*
X117642165Y-112010000D01*
X117900310Y-111958652D01*
X118193049Y-111763049D01*
X118242425Y-111689153D01*
X118815712Y-111115866D01*
X119655000Y-111115866D01*
X119655000Y-112164134D01*
X120056155Y-113132608D01*
X120797392Y-113873845D01*
X121765866Y-114275000D01*
X122814134Y-114275000D01*
X123782608Y-113873845D01*
X124523845Y-113132608D01*
X124925000Y-112164134D01*
X124925000Y-111115866D01*
X129155000Y-111115866D01*
X129155000Y-112164134D01*
X129556155Y-113132608D01*
X130297392Y-113873845D01*
X131265866Y-114275000D01*
X132314134Y-114275000D01*
X133282608Y-113873845D01*
X134023845Y-113132608D01*
X134425000Y-112164134D01*
X134425000Y-111860638D01*
X134503914Y-112051153D01*
X134963847Y-112511086D01*
X135564778Y-112760000D01*
X136215222Y-112760000D01*
X136816153Y-112511086D01*
X137049707Y-112277532D01*
X139417073Y-112277532D01*
X139515736Y-112544387D01*
X140125461Y-112770908D01*
X140775460Y-112746856D01*
X141264264Y-112544387D01*
X141362927Y-112277532D01*
X140390000Y-111304605D01*
X139417073Y-112277532D01*
X137049707Y-112277532D01*
X137276086Y-112051153D01*
X137525000Y-111450222D01*
X137525000Y-110860461D01*
X138744092Y-110860461D01*
X138768144Y-111510460D01*
X138970613Y-111999264D01*
X139237468Y-112097927D01*
X140210395Y-111125000D01*
X140569605Y-111125000D01*
X141542532Y-112097927D01*
X141809387Y-111999264D01*
X142035908Y-111389539D01*
X142011856Y-110739540D01*
X141809387Y-110250736D01*
X141542532Y-110152073D01*
X140569605Y-111125000D01*
X140210395Y-111125000D01*
X139237468Y-110152073D01*
X138970613Y-110250736D01*
X138744092Y-110860461D01*
X137525000Y-110860461D01*
X137525000Y-110799778D01*
X137276086Y-110198847D01*
X137049707Y-109972468D01*
X139417073Y-109972468D01*
X140390000Y-110945395D01*
X141362927Y-109972468D01*
X141264264Y-109705613D01*
X140654539Y-109479092D01*
X140004540Y-109503144D01*
X139515736Y-109705613D01*
X139417073Y-109972468D01*
X137049707Y-109972468D01*
X136816153Y-109738914D01*
X136215222Y-109490000D01*
X135564778Y-109490000D01*
X134963847Y-109738914D01*
X134503914Y-110198847D01*
X134274536Y-110752614D01*
X134023845Y-110147392D01*
X133282608Y-109406155D01*
X132314134Y-109005000D01*
X131265866Y-109005000D01*
X130297392Y-109406155D01*
X129556155Y-110147392D01*
X129155000Y-111115866D01*
X124925000Y-111115866D01*
X124523845Y-110147392D01*
X123782608Y-109406155D01*
X122814134Y-109005000D01*
X121765866Y-109005000D01*
X120797392Y-109406155D01*
X120056155Y-110147392D01*
X119655000Y-111115866D01*
X118815712Y-111115866D01*
X124256579Y-105675000D01*
X124823422Y-105675000D01*
X127662577Y-108514156D01*
X127711951Y-108588049D01*
X127785844Y-108637423D01*
X127785845Y-108637424D01*
X127871210Y-108694463D01*
X128004690Y-108783652D01*
X128262835Y-108835000D01*
X128262839Y-108835000D01*
X128350000Y-108852337D01*
X128437161Y-108835000D01*
X142727022Y-108835000D01*
X143651977Y-109759956D01*
X143585091Y-109773260D01*
X143110423Y-110090423D01*
X142793260Y-110565091D01*
X142681887Y-111125000D01*
X142793260Y-111684909D01*
X143110423Y-112159577D01*
X143585091Y-112476740D01*
X144003667Y-112560000D01*
X144286333Y-112560000D01*
X144704909Y-112476740D01*
X145165001Y-112169317D01*
X145165000Y-113165479D01*
X145015423Y-113265423D01*
X144780000Y-113617758D01*
X144544577Y-113265423D01*
X144069909Y-112948260D01*
X143651333Y-112865000D01*
X143368667Y-112865000D01*
X142950091Y-112948260D01*
X142475423Y-113265423D01*
X142240000Y-113617758D01*
X142004577Y-113265423D01*
X141529909Y-112948260D01*
X141111333Y-112865000D01*
X140828667Y-112865000D01*
X140410091Y-112948260D01*
X139935423Y-113265423D01*
X139700000Y-113617758D01*
X139464577Y-113265423D01*
X138989909Y-112948260D01*
X138571333Y-112865000D01*
X138288667Y-112865000D01*
X137870091Y-112948260D01*
X137395423Y-113265423D01*
X137314785Y-113386106D01*
X137288157Y-113252235D01*
X137147809Y-113042191D01*
X136937765Y-112901843D01*
X136690000Y-112852560D01*
X135090000Y-112852560D01*
X134842235Y-112901843D01*
X134632191Y-113042191D01*
X134491843Y-113252235D01*
X134442560Y-113500000D01*
X134442560Y-115100000D01*
X134491843Y-115347765D01*
X134632191Y-115557809D01*
X134842235Y-115698157D01*
X135090000Y-115747440D01*
X136690000Y-115747440D01*
X136937765Y-115698157D01*
X137147809Y-115557809D01*
X137288157Y-115347765D01*
X137314785Y-115213894D01*
X137395423Y-115334577D01*
X137870091Y-115651740D01*
X138288667Y-115735000D01*
X138571333Y-115735000D01*
X138989909Y-115651740D01*
X139464577Y-115334577D01*
X139700000Y-114982242D01*
X139935423Y-115334577D01*
X140410091Y-115651740D01*
X140828667Y-115735000D01*
X141111333Y-115735000D01*
X141529909Y-115651740D01*
X142004577Y-115334577D01*
X142240000Y-114982242D01*
X142475423Y-115334577D01*
X142950091Y-115651740D01*
X143368667Y-115735000D01*
X143651333Y-115735000D01*
X144069909Y-115651740D01*
X144544577Y-115334577D01*
X144780000Y-114982242D01*
X145015423Y-115334577D01*
X145490091Y-115651740D01*
X145908667Y-115735000D01*
X146191333Y-115735000D01*
X146609909Y-115651740D01*
X147084577Y-115334577D01*
X147340947Y-114950892D01*
X147437611Y-115155134D01*
X147852577Y-115531041D01*
X148240961Y-115691904D01*
X148463000Y-115569915D01*
X148463000Y-114427000D01*
X148717000Y-114427000D01*
X148717000Y-115569915D01*
X148939039Y-115691904D01*
X149327423Y-115531041D01*
X149742389Y-115155134D01*
X149860000Y-114906633D01*
X149977611Y-115155134D01*
X150392577Y-115531041D01*
X150780961Y-115691904D01*
X151003000Y-115569915D01*
X151003000Y-114427000D01*
X148717000Y-114427000D01*
X148463000Y-114427000D01*
X148443000Y-114427000D01*
X148443000Y-114173000D01*
X148463000Y-114173000D01*
X148463000Y-113030085D01*
X148717000Y-113030085D01*
X148717000Y-114173000D01*
X151003000Y-114173000D01*
X151003000Y-113030085D01*
X150780961Y-112908096D01*
X150392577Y-113068959D01*
X149977611Y-113444866D01*
X149860000Y-113693367D01*
X149742389Y-113444866D01*
X149327423Y-113068959D01*
X148939039Y-112908096D01*
X148717000Y-113030085D01*
X148463000Y-113030085D01*
X148240961Y-112908096D01*
X147852577Y-113068959D01*
X147437611Y-113444866D01*
X147340947Y-113649108D01*
X147084577Y-113265423D01*
X146935000Y-113165479D01*
X146935000Y-112169317D01*
X147395091Y-112476740D01*
X147813667Y-112560000D01*
X148096333Y-112560000D01*
X148514909Y-112476740D01*
X148989577Y-112159577D01*
X149089521Y-112010000D01*
X149318139Y-112010000D01*
X149405300Y-112027337D01*
X149492461Y-112010000D01*
X149492465Y-112010000D01*
X149750610Y-111958652D01*
X150043349Y-111763049D01*
X150092725Y-111689153D01*
X150701673Y-111080206D01*
X150723144Y-111660460D01*
X150925613Y-112149264D01*
X151192468Y-112247927D01*
X152165395Y-111275000D01*
X152151253Y-111260858D01*
X152330858Y-111081253D01*
X152345000Y-111095395D01*
X152359143Y-111081253D01*
X152538748Y-111260858D01*
X152524605Y-111275000D01*
X152538748Y-111289143D01*
X152359143Y-111468748D01*
X152345000Y-111454605D01*
X151372073Y-112427532D01*
X151470736Y-112694387D01*
X152080461Y-112920908D01*
X152730460Y-112896856D01*
X153185561Y-112708347D01*
X153307976Y-112891554D01*
X153307978Y-112891556D01*
X153318206Y-112906863D01*
X153110091Y-112948260D01*
X152635423Y-113265423D01*
X152379053Y-113649108D01*
X152282389Y-113444866D01*
X151867423Y-113068959D01*
X151479039Y-112908096D01*
X151257000Y-113030085D01*
X151257000Y-114173000D01*
X151277000Y-114173000D01*
X151277000Y-114427000D01*
X151257000Y-114427000D01*
X151257000Y-115569915D01*
X151479039Y-115691904D01*
X151867423Y-115531041D01*
X152282389Y-115155134D01*
X152379053Y-114950892D01*
X152635423Y-115334577D01*
X153110091Y-115651740D01*
X153528667Y-115735000D01*
X153811333Y-115735000D01*
X154229909Y-115651740D01*
X154704577Y-115334577D01*
X155021740Y-114859909D01*
X155063979Y-114647558D01*
X156673421Y-116257000D01*
X108533000Y-116257000D01*
X108533000Y-64083000D01*
X114269721Y-64083000D01*
X109442947Y-68909775D01*
G36*
X174117000Y-105918000D02*
X174137000Y-105918000D01*
X174137000Y-106172000D01*
X174117000Y-106172000D01*
X174117000Y-106192000D01*
X173863000Y-106192000D01*
X173863000Y-106172000D01*
X173843000Y-106172000D01*
X173843000Y-105918000D01*
X173863000Y-105918000D01*
X173863000Y-105898000D01*
X174117000Y-105898000D01*
X174117000Y-105918000D01*
X174117000Y-105918000D01*
G37*
X174117000Y-105918000D02*
X174137000Y-105918000D01*
X174137000Y-106172000D01*
X174117000Y-106172000D01*
X174117000Y-106192000D01*
X173863000Y-106192000D01*
X173863000Y-106172000D01*
X173843000Y-106172000D01*
X173843000Y-105918000D01*
X173863000Y-105918000D01*
X173863000Y-105898000D01*
X174117000Y-105898000D01*
X174117000Y-105918000D01*
G36*
X111887000Y-70358000D02*
X111907000Y-70358000D01*
X111907000Y-70612000D01*
X111887000Y-70612000D01*
X111887000Y-71811250D01*
X112045750Y-71970000D01*
X112736310Y-71970000D01*
X112969699Y-71873327D01*
X113148327Y-71694698D01*
X113214904Y-71533967D01*
X113229375Y-71555625D01*
X113720582Y-71883839D01*
X114153744Y-71970000D01*
X114446256Y-71970000D01*
X114879418Y-71883839D01*
X115370625Y-71555625D01*
X115570000Y-71257239D01*
X115769375Y-71555625D01*
X115918472Y-71655249D01*
X110892100Y-76681622D01*
X110892100Y-71970000D01*
X111474250Y-71970000D01*
X111633000Y-71811250D01*
X111633000Y-70612000D01*
X111613000Y-70612000D01*
X111613000Y-70358000D01*
X111633000Y-70358000D01*
X111633000Y-70338000D01*
X111887000Y-70338000D01*
X111887000Y-70358000D01*
X111887000Y-70358000D01*
G37*
X111887000Y-70358000D02*
X111907000Y-70358000D01*
X111907000Y-70612000D01*
X111887000Y-70612000D01*
X111887000Y-71811250D01*
X112045750Y-71970000D01*
X112736310Y-71970000D01*
X112969699Y-71873327D01*
X113148327Y-71694698D01*
X113214904Y-71533967D01*
X113229375Y-71555625D01*
X113720582Y-71883839D01*
X114153744Y-71970000D01*
X114446256Y-71970000D01*
X114879418Y-71883839D01*
X115370625Y-71555625D01*
X115570000Y-71257239D01*
X115769375Y-71555625D01*
X115918472Y-71655249D01*
X110892100Y-76681622D01*
X110892100Y-71970000D01*
X111474250Y-71970000D01*
X111633000Y-71811250D01*
X111633000Y-70612000D01*
X111613000Y-70612000D01*
X111613000Y-70358000D01*
X111633000Y-70358000D01*
X111633000Y-70338000D01*
X111887000Y-70338000D01*
X111887000Y-70358000D01*
G36*
X125398260Y-65480091D02*
X125286887Y-66040000D01*
X125398260Y-66599909D01*
X125715423Y-67074577D01*
X126190091Y-67391740D01*
X126608667Y-67475000D01*
X126891333Y-67475000D01*
X127309909Y-67391740D01*
X127784577Y-67074577D01*
X128020000Y-66722242D01*
X128255423Y-67074577D01*
X128730091Y-67391740D01*
X129148667Y-67475000D01*
X129431333Y-67475000D01*
X129849909Y-67391740D01*
X130324577Y-67074577D01*
X130560000Y-66722242D01*
X130795423Y-67074577D01*
X131270091Y-67391740D01*
X131688667Y-67475000D01*
X131971333Y-67475000D01*
X132389909Y-67391740D01*
X132864577Y-67074577D01*
X133120947Y-66690892D01*
X133217611Y-66895134D01*
X133632577Y-67271041D01*
X134020961Y-67431904D01*
X134243000Y-67309915D01*
X134243000Y-66167000D01*
X134223000Y-66167000D01*
X134223000Y-65913000D01*
X134243000Y-65913000D01*
X134243000Y-65893000D01*
X134497000Y-65893000D01*
X134497000Y-65913000D01*
X134517000Y-65913000D01*
X134517000Y-66167000D01*
X134497000Y-66167000D01*
X134497000Y-67309915D01*
X134719039Y-67431904D01*
X135107423Y-67271041D01*
X135522389Y-66895134D01*
X135619053Y-66690892D01*
X135875423Y-67074577D01*
X136350091Y-67391740D01*
X136768667Y-67475000D01*
X137051333Y-67475000D01*
X137469909Y-67391740D01*
X137944577Y-67074577D01*
X138180000Y-66722242D01*
X138415423Y-67074577D01*
X138890091Y-67391740D01*
X139308667Y-67475000D01*
X139591333Y-67475000D01*
X140009909Y-67391740D01*
X140484577Y-67074577D01*
X140720000Y-66722242D01*
X140955423Y-67074577D01*
X141430091Y-67391740D01*
X141848667Y-67475000D01*
X142131333Y-67475000D01*
X142549909Y-67391740D01*
X143024577Y-67074577D01*
X143260000Y-66722242D01*
X143495423Y-67074577D01*
X143970091Y-67391740D01*
X144388667Y-67475000D01*
X144671333Y-67475000D01*
X144706439Y-67468017D01*
X145338420Y-68099999D01*
X115887162Y-68099999D01*
X115800001Y-68082662D01*
X115712840Y-68099999D01*
X115712836Y-68099999D01*
X115454691Y-68151347D01*
X115235846Y-68297575D01*
X115235845Y-68297576D01*
X115161952Y-68346950D01*
X115112578Y-68420843D01*
X114518960Y-69014462D01*
X114446256Y-69000000D01*
X114153744Y-69000000D01*
X113720582Y-69086161D01*
X113229375Y-69414375D01*
X113214904Y-69436033D01*
X113148327Y-69275302D01*
X112969699Y-69096673D01*
X112736310Y-69000000D01*
X112045750Y-69000000D01*
X111887002Y-69158748D01*
X111887002Y-69000000D01*
X111855878Y-69000000D01*
X115386779Y-65469100D01*
X125405604Y-65469100D01*
X125398260Y-65480091D01*
X125398260Y-65480091D01*
G37*
X125398260Y-65480091D02*
X125286887Y-66040000D01*
X125398260Y-66599909D01*
X125715423Y-67074577D01*
X126190091Y-67391740D01*
X126608667Y-67475000D01*
X126891333Y-67475000D01*
X127309909Y-67391740D01*
X127784577Y-67074577D01*
X128020000Y-66722242D01*
X128255423Y-67074577D01*
X128730091Y-67391740D01*
X129148667Y-67475000D01*
X129431333Y-67475000D01*
X129849909Y-67391740D01*
X130324577Y-67074577D01*
X130560000Y-66722242D01*
X130795423Y-67074577D01*
X131270091Y-67391740D01*
X131688667Y-67475000D01*
X131971333Y-67475000D01*
X132389909Y-67391740D01*
X132864577Y-67074577D01*
X133120947Y-66690892D01*
X133217611Y-66895134D01*
X133632577Y-67271041D01*
X134020961Y-67431904D01*
X134243000Y-67309915D01*
X134243000Y-66167000D01*
X134223000Y-66167000D01*
X134223000Y-65913000D01*
X134243000Y-65913000D01*
X134243000Y-65893000D01*
X134497000Y-65893000D01*
X134497000Y-65913000D01*
X134517000Y-65913000D01*
X134517000Y-66167000D01*
X134497000Y-66167000D01*
X134497000Y-67309915D01*
X134719039Y-67431904D01*
X135107423Y-67271041D01*
X135522389Y-66895134D01*
X135619053Y-66690892D01*
X135875423Y-67074577D01*
X136350091Y-67391740D01*
X136768667Y-67475000D01*
X137051333Y-67475000D01*
X137469909Y-67391740D01*
X137944577Y-67074577D01*
X138180000Y-66722242D01*
X138415423Y-67074577D01*
X138890091Y-67391740D01*
X139308667Y-67475000D01*
X139591333Y-67475000D01*
X140009909Y-67391740D01*
X140484577Y-67074577D01*
X140720000Y-66722242D01*
X140955423Y-67074577D01*
X141430091Y-67391740D01*
X141848667Y-67475000D01*
X142131333Y-67475000D01*
X142549909Y-67391740D01*
X143024577Y-67074577D01*
X143260000Y-66722242D01*
X143495423Y-67074577D01*
X143970091Y-67391740D01*
X144388667Y-67475000D01*
X144671333Y-67475000D01*
X144706439Y-67468017D01*
X145338420Y-68099999D01*
X115887162Y-68099999D01*
X115800001Y-68082662D01*
X115712840Y-68099999D01*
X115712836Y-68099999D01*
X115454691Y-68151347D01*
X115235846Y-68297575D01*
X115235845Y-68297576D01*
X115161952Y-68346950D01*
X115112578Y-68420843D01*
X114518960Y-69014462D01*
X114446256Y-69000000D01*
X114153744Y-69000000D01*
X113720582Y-69086161D01*
X113229375Y-69414375D01*
X113214904Y-69436033D01*
X113148327Y-69275302D01*
X112969699Y-69096673D01*
X112736310Y-69000000D01*
X112045750Y-69000000D01*
X111887002Y-69158748D01*
X111887002Y-69000000D01*
X111855878Y-69000000D01*
X115386779Y-65469100D01*
X125405604Y-65469100D01*
X125398260Y-65480091D01*
G04 #@! TD*
M02*
