M48
;DRILL file {KiCad 5.0.2-bee76a0~70~ubuntu14.04.1} date Uto 02 Tra 2019 14:46:31
;FORMAT={-:-/ absolute / inch / decimal}
FMAT,2
INCH,TZ
T1C0.0315
T2C0.0354
T3C0.0394
T4C0.0433
%
G90
G05
T1
X4.375Y-4.375
X4.475Y-4.475
X4.575Y-4.375
X6.85Y-3.45
X6.85Y-3.75
X5.675Y-4.075
X5.675Y-4.375
X6.025Y-3.05
X6.025Y-3.35
X4.775Y-3.05
X4.775Y-3.35
X5.15Y-3.05
X5.15Y-3.35
X5.525Y-3.05
X5.525Y-3.35
X6.725Y-3.45
X6.725Y-3.75
X6.6Y-3.45
X6.6Y-3.75
X5.775Y-3.05
X5.775Y-3.35
X5.9Y-3.05
X5.9Y-3.35
X6.15Y-3.05
X6.15Y-3.35
X5.4Y-3.05
X5.4Y-3.35
X6.05Y-2.775
X6.35Y-2.775
X5.65Y-3.05
X5.65Y-3.35
X4.425Y-3.475
X4.525Y-3.475
X4.625Y-3.475
X5.825Y-4.075
X5.825Y-4.375
X6.625Y-3.25
X6.725Y-3.25
X6.825Y-3.25
X5.025Y-3.05
X5.025Y-3.35
X6.325Y-3.05
X6.325Y-3.35
X6.425Y-3.05
X6.425Y-3.35
X4.9Y-3.05
X4.9Y-3.35
X5.275Y-3.05
X5.275Y-3.35
X4.9902Y-2.6
X5.0902Y-2.6
X5.1902Y-2.6
X5.2902Y-2.6
X5.35Y-4.5
X5.3902Y-2.6
X5.45Y-4.5
X5.4902Y-2.6
X5.55Y-4.5
X5.5902Y-2.6
X5.65Y-4.5
X5.6902Y-2.6
X5.75Y-4.5
X5.7902Y-2.6
X5.85Y-4.5
X5.8902Y-2.6
X5.95Y-4.5
X6.05Y-2.6
X6.05Y-4.5
X6.15Y-2.6
X6.25Y-2.6
X6.25Y-4.5
X6.35Y-2.6
X6.35Y-4.5
X6.45Y-2.6
X6.45Y-4.5
X6.55Y-2.6
X6.55Y-4.5
X6.65Y-2.6
X6.65Y-4.5
X6.75Y-2.6
X6.75Y-4.5
T2
X5.725Y-3.525
X5.725Y-3.625
X4.925Y-3.525
X4.925Y-3.625
X6.325Y-3.525
X6.325Y-3.625
X5.525Y-3.525
X5.525Y-3.625
X5.325Y-3.525
X5.325Y-3.625
X5.025Y-3.775
X5.025Y-3.825
X5.025Y-3.875
X5.025Y-3.925
X5.925Y-3.525
X5.925Y-3.625
X6.225Y-3.775
X6.225Y-3.825
X6.225Y-3.875
X6.225Y-3.925
X6.125Y-3.525
X6.125Y-3.625
X5.825Y-3.775
X5.825Y-3.825
X5.825Y-3.875
X5.825Y-3.925
X5.425Y-3.775
X5.425Y-3.825
X5.425Y-3.875
X5.425Y-3.925
X5.125Y-3.525
X5.125Y-3.625
T3
X4.9031Y-4.1
X5.0016Y-4.1
X5.1Y-4.1
X4.4Y-2.775
X4.5Y-2.775
X4.6Y-2.775
X4.7Y-2.775
X4.8Y-2.775
X4.9Y-2.775
X5.Y-2.775
X5.1Y-2.775
X5.2Y-2.775
X5.3Y-2.775
X5.4Y-2.775
X5.5Y-2.775
X5.6Y-2.775
X5.7Y-2.775
X5.8Y-2.775
X5.9Y-2.775
X4.375Y-3.875
X4.425Y-3.875
X4.625Y-3.875
X4.6742Y-3.875
X6.85Y-3.975
X6.85Y-4.075
X6.85Y-4.175
X6.85Y-4.275
T4
X5.9978Y-4.125
X5.9978Y-4.3809
X6.175Y-4.125
X6.175Y-4.3809
X5.35Y-4.1191
X5.35Y-4.375
X5.5272Y-4.1191
X5.5272Y-4.375
X6.2978Y-4.125
X6.2978Y-4.3809
X6.475Y-4.125
X6.475Y-4.3809
T0
M30
