G04 #@! TF.GenerationSoftware,KiCad,Pcbnew,5.0.2-bee76a0~70~ubuntu14.04.1*
G04 #@! TF.CreationDate,2019-04-02T14:46:03+02:00*
G04 #@! TF.ProjectId,shield_a,73686965-6c64-45f6-912e-6b696361645f,1.1*
G04 #@! TF.SameCoordinates,Original*
G04 #@! TF.FileFunction,Legend,Top*
G04 #@! TF.FilePolarity,Positive*
%FSLAX46Y46*%
G04 Gerber Fmt 4.6, Leading zero omitted, Abs format (unit mm)*
G04 Created by KiCad (PCBNEW 5.0.2-bee76a0~70~ubuntu14.04.1) date Uto 02 Tra 2019 14:46:03*
%MOMM*%
%LPD*%
G01*
G04 APERTURE LIST*
%ADD10C,0.150000*%
%ADD11C,0.200000*%
%ADD12C,0.120000*%
%ADD13C,0.010000*%
G04 APERTURE END LIST*
D10*
X147081904Y-73445666D02*
X147558095Y-73445666D01*
X146986666Y-73731380D02*
X147320000Y-72731380D01*
X147653333Y-73731380D01*
X149598095Y-73731380D02*
X149598095Y-72731380D01*
X150169523Y-73731380D02*
X149740952Y-73159952D01*
X150169523Y-72731380D02*
X149598095Y-73302809D01*
X112045714Y-73477380D02*
X111474285Y-73477380D01*
X111760000Y-73477380D02*
X111760000Y-72477380D01*
X111664761Y-72620238D01*
X111569523Y-72715476D01*
X111474285Y-72763095D01*
X109316190Y-66365380D02*
X109316190Y-65365380D01*
X109554285Y-65365380D01*
X109697142Y-65413000D01*
X109792380Y-65508238D01*
X109840000Y-65603476D01*
X109887619Y-65793952D01*
X109887619Y-65936809D01*
X109840000Y-66127285D01*
X109792380Y-66222523D01*
X109697142Y-66317761D01*
X109554285Y-66365380D01*
X109316190Y-66365380D01*
X110697142Y-66317761D02*
X110601904Y-66365380D01*
X110411428Y-66365380D01*
X110316190Y-66317761D01*
X110268571Y-66222523D01*
X110268571Y-65841571D01*
X110316190Y-65746333D01*
X110411428Y-65698714D01*
X110601904Y-65698714D01*
X110697142Y-65746333D01*
X110744761Y-65841571D01*
X110744761Y-65936809D01*
X110268571Y-66032047D01*
X111125714Y-66317761D02*
X111220952Y-66365380D01*
X111411428Y-66365380D01*
X111506666Y-66317761D01*
X111554285Y-66222523D01*
X111554285Y-66174904D01*
X111506666Y-66079666D01*
X111411428Y-66032047D01*
X111268571Y-66032047D01*
X111173333Y-65984428D01*
X111125714Y-65889190D01*
X111125714Y-65841571D01*
X111173333Y-65746333D01*
X111268571Y-65698714D01*
X111411428Y-65698714D01*
X111506666Y-65746333D01*
X111982857Y-66365380D02*
X111982857Y-65698714D01*
X111982857Y-65365380D02*
X111935238Y-65413000D01*
X111982857Y-65460619D01*
X112030476Y-65413000D01*
X111982857Y-65365380D01*
X111982857Y-65460619D01*
X112887619Y-65698714D02*
X112887619Y-66508238D01*
X112840000Y-66603476D01*
X112792380Y-66651095D01*
X112697142Y-66698714D01*
X112554285Y-66698714D01*
X112459047Y-66651095D01*
X112887619Y-66317761D02*
X112792380Y-66365380D01*
X112601904Y-66365380D01*
X112506666Y-66317761D01*
X112459047Y-66270142D01*
X112411428Y-66174904D01*
X112411428Y-65889190D01*
X112459047Y-65793952D01*
X112506666Y-65746333D01*
X112601904Y-65698714D01*
X112792380Y-65698714D01*
X112887619Y-65746333D01*
X113363809Y-65698714D02*
X113363809Y-66365380D01*
X113363809Y-65793952D02*
X113411428Y-65746333D01*
X113506666Y-65698714D01*
X113649523Y-65698714D01*
X113744761Y-65746333D01*
X113792380Y-65841571D01*
X113792380Y-66365380D01*
X114649523Y-66317761D02*
X114554285Y-66365380D01*
X114363809Y-66365380D01*
X114268571Y-66317761D01*
X114220952Y-66222523D01*
X114220952Y-65841571D01*
X114268571Y-65746333D01*
X114363809Y-65698714D01*
X114554285Y-65698714D01*
X114649523Y-65746333D01*
X114697142Y-65841571D01*
X114697142Y-65936809D01*
X114220952Y-66032047D01*
X115554285Y-66365380D02*
X115554285Y-65365380D01*
X115554285Y-66317761D02*
X115459047Y-66365380D01*
X115268571Y-66365380D01*
X115173333Y-66317761D01*
X115125714Y-66270142D01*
X115078095Y-66174904D01*
X115078095Y-65889190D01*
X115125714Y-65793952D01*
X115173333Y-65746333D01*
X115268571Y-65698714D01*
X115459047Y-65698714D01*
X115554285Y-65746333D01*
X116697142Y-65698714D02*
X116887619Y-66365380D01*
X117078095Y-65889190D01*
X117268571Y-66365380D01*
X117459047Y-65698714D01*
X117840000Y-66365380D02*
X117840000Y-65698714D01*
X117840000Y-65365380D02*
X117792380Y-65413000D01*
X117840000Y-65460619D01*
X117887619Y-65413000D01*
X117840000Y-65365380D01*
X117840000Y-65460619D01*
X118173333Y-65698714D02*
X118554285Y-65698714D01*
X118316190Y-65365380D02*
X118316190Y-66222523D01*
X118363809Y-66317761D01*
X118459047Y-66365380D01*
X118554285Y-66365380D01*
X118887619Y-66365380D02*
X118887619Y-65365380D01*
X119316190Y-66365380D02*
X119316190Y-65841571D01*
X119268571Y-65746333D01*
X119173333Y-65698714D01*
X119030476Y-65698714D01*
X118935238Y-65746333D01*
X118887619Y-65793952D01*
X120554285Y-66365380D02*
X120554285Y-65365380D01*
X121125714Y-66365380D02*
X120697142Y-65793952D01*
X121125714Y-65365380D02*
X120554285Y-65936809D01*
X121554285Y-66365380D02*
X121554285Y-65698714D01*
X121554285Y-65365380D02*
X121506666Y-65413000D01*
X121554285Y-65460619D01*
X121601904Y-65413000D01*
X121554285Y-65365380D01*
X121554285Y-65460619D01*
X122601904Y-66270142D02*
X122554285Y-66317761D01*
X122411428Y-66365380D01*
X122316190Y-66365380D01*
X122173333Y-66317761D01*
X122078095Y-66222523D01*
X122030476Y-66127285D01*
X121982857Y-65936809D01*
X121982857Y-65793952D01*
X122030476Y-65603476D01*
X122078095Y-65508238D01*
X122173333Y-65413000D01*
X122316190Y-65365380D01*
X122411428Y-65365380D01*
X122554285Y-65413000D01*
X122601904Y-65460619D01*
X123459047Y-66365380D02*
X123459047Y-65841571D01*
X123411428Y-65746333D01*
X123316190Y-65698714D01*
X123125714Y-65698714D01*
X123030476Y-65746333D01*
X123459047Y-66317761D02*
X123363809Y-66365380D01*
X123125714Y-66365380D01*
X123030476Y-66317761D01*
X122982857Y-66222523D01*
X122982857Y-66127285D01*
X123030476Y-66032047D01*
X123125714Y-65984428D01*
X123363809Y-65984428D01*
X123459047Y-65936809D01*
X124363809Y-66365380D02*
X124363809Y-65365380D01*
X124363809Y-66317761D02*
X124268571Y-66365380D01*
X124078095Y-66365380D01*
X123982857Y-66317761D01*
X123935238Y-66270142D01*
X123887619Y-66174904D01*
X123887619Y-65889190D01*
X123935238Y-65793952D01*
X123982857Y-65746333D01*
X124078095Y-65698714D01*
X124268571Y-65698714D01*
X124363809Y-65746333D01*
D11*
X136977619Y-102687380D02*
X136644285Y-102211190D01*
X136406190Y-102687380D02*
X136406190Y-101687380D01*
X136787142Y-101687380D01*
X136882380Y-101735000D01*
X136930000Y-101782619D01*
X136977619Y-101877857D01*
X136977619Y-102020714D01*
X136930000Y-102115952D01*
X136882380Y-102163571D01*
X136787142Y-102211190D01*
X136406190Y-102211190D01*
X137406190Y-102163571D02*
X137739523Y-102163571D01*
X137882380Y-102687380D02*
X137406190Y-102687380D01*
X137406190Y-101687380D01*
X137882380Y-101687380D01*
X138263333Y-102639761D02*
X138406190Y-102687380D01*
X138644285Y-102687380D01*
X138739523Y-102639761D01*
X138787142Y-102592142D01*
X138834761Y-102496904D01*
X138834761Y-102401666D01*
X138787142Y-102306428D01*
X138739523Y-102258809D01*
X138644285Y-102211190D01*
X138453809Y-102163571D01*
X138358571Y-102115952D01*
X138310952Y-102068333D01*
X138263333Y-101973095D01*
X138263333Y-101877857D01*
X138310952Y-101782619D01*
X138358571Y-101735000D01*
X138453809Y-101687380D01*
X138691904Y-101687380D01*
X138834761Y-101735000D01*
X139263333Y-102163571D02*
X139596666Y-102163571D01*
X139739523Y-102687380D02*
X139263333Y-102687380D01*
X139263333Y-101687380D01*
X139739523Y-101687380D01*
X140025238Y-101687380D02*
X140596666Y-101687380D01*
X140310952Y-102687380D02*
X140310952Y-101687380D01*
D10*
X169113333Y-108146904D02*
X169380000Y-108946904D01*
X169646666Y-108146904D01*
X170370476Y-108870714D02*
X170332380Y-108908809D01*
X170218095Y-108946904D01*
X170141904Y-108946904D01*
X170027619Y-108908809D01*
X169951428Y-108832619D01*
X169913333Y-108756428D01*
X169875238Y-108604047D01*
X169875238Y-108489761D01*
X169913333Y-108337380D01*
X169951428Y-108261190D01*
X170027619Y-108185000D01*
X170141904Y-108146904D01*
X170218095Y-108146904D01*
X170332380Y-108185000D01*
X170370476Y-108223095D01*
X171170476Y-108870714D02*
X171132380Y-108908809D01*
X171018095Y-108946904D01*
X170941904Y-108946904D01*
X170827619Y-108908809D01*
X170751428Y-108832619D01*
X170713333Y-108756428D01*
X170675238Y-108604047D01*
X170675238Y-108489761D01*
X170713333Y-108337380D01*
X170751428Y-108261190D01*
X170827619Y-108185000D01*
X170941904Y-108146904D01*
X171018095Y-108146904D01*
X171132380Y-108185000D01*
X171170476Y-108223095D01*
X169570476Y-105645000D02*
X169494285Y-105606904D01*
X169380000Y-105606904D01*
X169265714Y-105645000D01*
X169189523Y-105721190D01*
X169151428Y-105797380D01*
X169113333Y-105949761D01*
X169113333Y-106064047D01*
X169151428Y-106216428D01*
X169189523Y-106292619D01*
X169265714Y-106368809D01*
X169380000Y-106406904D01*
X169456190Y-106406904D01*
X169570476Y-106368809D01*
X169608571Y-106330714D01*
X169608571Y-106064047D01*
X169456190Y-106064047D01*
X169951428Y-106406904D02*
X169951428Y-105606904D01*
X170408571Y-106406904D01*
X170408571Y-105606904D01*
X170789523Y-106406904D02*
X170789523Y-105606904D01*
X170980000Y-105606904D01*
X171094285Y-105645000D01*
X171170476Y-105721190D01*
X171208571Y-105797380D01*
X171246666Y-105949761D01*
X171246666Y-106064047D01*
X171208571Y-106216428D01*
X171170476Y-106292619D01*
X171094285Y-106368809D01*
X170980000Y-106406904D01*
X170789523Y-106406904D01*
X169227619Y-103828809D02*
X169341904Y-103866904D01*
X169532380Y-103866904D01*
X169608571Y-103828809D01*
X169646666Y-103790714D01*
X169684761Y-103714523D01*
X169684761Y-103638333D01*
X169646666Y-103562142D01*
X169608571Y-103524047D01*
X169532380Y-103485952D01*
X169380000Y-103447857D01*
X169303809Y-103409761D01*
X169265714Y-103371666D01*
X169227619Y-103295476D01*
X169227619Y-103219285D01*
X169265714Y-103143095D01*
X169303809Y-103105000D01*
X169380000Y-103066904D01*
X169570476Y-103066904D01*
X169684761Y-103105000D01*
X170484761Y-103790714D02*
X170446666Y-103828809D01*
X170332380Y-103866904D01*
X170256190Y-103866904D01*
X170141904Y-103828809D01*
X170065714Y-103752619D01*
X170027619Y-103676428D01*
X169989523Y-103524047D01*
X169989523Y-103409761D01*
X170027619Y-103257380D01*
X170065714Y-103181190D01*
X170141904Y-103105000D01*
X170256190Y-103066904D01*
X170332380Y-103066904D01*
X170446666Y-103105000D01*
X170484761Y-103143095D01*
X171208571Y-103866904D02*
X170827619Y-103866904D01*
X170827619Y-103066904D01*
X169208571Y-101288809D02*
X169322857Y-101326904D01*
X169513333Y-101326904D01*
X169589523Y-101288809D01*
X169627619Y-101250714D01*
X169665714Y-101174523D01*
X169665714Y-101098333D01*
X169627619Y-101022142D01*
X169589523Y-100984047D01*
X169513333Y-100945952D01*
X169360952Y-100907857D01*
X169284761Y-100869761D01*
X169246666Y-100831666D01*
X169208571Y-100755476D01*
X169208571Y-100679285D01*
X169246666Y-100603095D01*
X169284761Y-100565000D01*
X169360952Y-100526904D01*
X169551428Y-100526904D01*
X169665714Y-100565000D01*
X170008571Y-101326904D02*
X170008571Y-100526904D01*
X170199047Y-100526904D01*
X170313333Y-100565000D01*
X170389523Y-100641190D01*
X170427619Y-100717380D01*
X170465714Y-100869761D01*
X170465714Y-100984047D01*
X170427619Y-101136428D01*
X170389523Y-101212619D01*
X170313333Y-101288809D01*
X170199047Y-101326904D01*
X170008571Y-101326904D01*
X170770476Y-101098333D02*
X171151428Y-101098333D01*
X170694285Y-101326904D02*
X170960952Y-100526904D01*
X171227619Y-101326904D01*
X162828928Y-68859761D02*
X162971785Y-68907380D01*
X163209880Y-68907380D01*
X163305119Y-68859761D01*
X163352738Y-68812142D01*
X163400357Y-68716904D01*
X163400357Y-68621666D01*
X163352738Y-68526428D01*
X163305119Y-68478809D01*
X163209880Y-68431190D01*
X163019404Y-68383571D01*
X162924166Y-68335952D01*
X162876547Y-68288333D01*
X162828928Y-68193095D01*
X162828928Y-68097857D01*
X162876547Y-68002619D01*
X162924166Y-67955000D01*
X163019404Y-67907380D01*
X163257500Y-67907380D01*
X163400357Y-67955000D01*
X163828928Y-68907380D02*
X163828928Y-67907380D01*
X164257500Y-68907380D02*
X164257500Y-68383571D01*
X164209880Y-68288333D01*
X164114642Y-68240714D01*
X163971785Y-68240714D01*
X163876547Y-68288333D01*
X163828928Y-68335952D01*
X164733690Y-68907380D02*
X164733690Y-68240714D01*
X164733690Y-67907380D02*
X164686071Y-67955000D01*
X164733690Y-68002619D01*
X164781309Y-67955000D01*
X164733690Y-67907380D01*
X164733690Y-68002619D01*
X165590833Y-68859761D02*
X165495595Y-68907380D01*
X165305119Y-68907380D01*
X165209880Y-68859761D01*
X165162261Y-68764523D01*
X165162261Y-68383571D01*
X165209880Y-68288333D01*
X165305119Y-68240714D01*
X165495595Y-68240714D01*
X165590833Y-68288333D01*
X165638452Y-68383571D01*
X165638452Y-68478809D01*
X165162261Y-68574047D01*
X166209880Y-68907380D02*
X166114642Y-68859761D01*
X166067023Y-68764523D01*
X166067023Y-67907380D01*
X167019404Y-68907380D02*
X167019404Y-67907380D01*
X167019404Y-68859761D02*
X166924166Y-68907380D01*
X166733690Y-68907380D01*
X166638452Y-68859761D01*
X166590833Y-68812142D01*
X166543214Y-68716904D01*
X166543214Y-68431190D01*
X166590833Y-68335952D01*
X166638452Y-68288333D01*
X166733690Y-68240714D01*
X166924166Y-68240714D01*
X167019404Y-68288333D01*
X167495595Y-68526428D02*
X168257500Y-68526428D01*
X168686071Y-68621666D02*
X169162261Y-68621666D01*
X168590833Y-68907380D02*
X168924166Y-67907380D01*
X169257500Y-68907380D01*
X170257500Y-68240714D02*
X170495595Y-68907380D01*
X170733690Y-68240714D01*
X171638452Y-68907380D02*
X171067023Y-68907380D01*
X171352738Y-68907380D02*
X171352738Y-67907380D01*
X171257500Y-68050238D01*
X171162261Y-68145476D01*
X171067023Y-68193095D01*
X172067023Y-68812142D02*
X172114642Y-68859761D01*
X172067023Y-68907380D01*
X172019404Y-68859761D01*
X172067023Y-68812142D01*
X172067023Y-68907380D01*
X173067023Y-68907380D02*
X172495595Y-68907380D01*
X172781309Y-68907380D02*
X172781309Y-67907380D01*
X172686071Y-68050238D01*
X172590833Y-68145476D01*
X172495595Y-68193095D01*
X164352738Y-70557380D02*
X164352738Y-69557380D01*
X164590833Y-69557380D01*
X164733690Y-69605000D01*
X164828928Y-69700238D01*
X164876547Y-69795476D01*
X164924166Y-69985952D01*
X164924166Y-70128809D01*
X164876547Y-70319285D01*
X164828928Y-70414523D01*
X164733690Y-70509761D01*
X164590833Y-70557380D01*
X164352738Y-70557380D01*
X165733690Y-70509761D02*
X165638452Y-70557380D01*
X165447976Y-70557380D01*
X165352738Y-70509761D01*
X165305119Y-70414523D01*
X165305119Y-70033571D01*
X165352738Y-69938333D01*
X165447976Y-69890714D01*
X165638452Y-69890714D01*
X165733690Y-69938333D01*
X165781309Y-70033571D01*
X165781309Y-70128809D01*
X165305119Y-70224047D01*
X166162261Y-70509761D02*
X166257500Y-70557380D01*
X166447976Y-70557380D01*
X166543214Y-70509761D01*
X166590833Y-70414523D01*
X166590833Y-70366904D01*
X166543214Y-70271666D01*
X166447976Y-70224047D01*
X166305119Y-70224047D01*
X166209880Y-70176428D01*
X166162261Y-70081190D01*
X166162261Y-70033571D01*
X166209880Y-69938333D01*
X166305119Y-69890714D01*
X166447976Y-69890714D01*
X166543214Y-69938333D01*
X167019404Y-70557380D02*
X167019404Y-69890714D01*
X167019404Y-69557380D02*
X166971785Y-69605000D01*
X167019404Y-69652619D01*
X167067023Y-69605000D01*
X167019404Y-69557380D01*
X167019404Y-69652619D01*
X167924166Y-69890714D02*
X167924166Y-70700238D01*
X167876547Y-70795476D01*
X167828928Y-70843095D01*
X167733690Y-70890714D01*
X167590833Y-70890714D01*
X167495595Y-70843095D01*
X167924166Y-70509761D02*
X167828928Y-70557380D01*
X167638452Y-70557380D01*
X167543214Y-70509761D01*
X167495595Y-70462142D01*
X167447976Y-70366904D01*
X167447976Y-70081190D01*
X167495595Y-69985952D01*
X167543214Y-69938333D01*
X167638452Y-69890714D01*
X167828928Y-69890714D01*
X167924166Y-69938333D01*
X168400357Y-69890714D02*
X168400357Y-70557380D01*
X168400357Y-69985952D02*
X168447976Y-69938333D01*
X168543214Y-69890714D01*
X168686071Y-69890714D01*
X168781309Y-69938333D01*
X168828928Y-70033571D01*
X168828928Y-70557380D01*
X169686071Y-70509761D02*
X169590833Y-70557380D01*
X169400357Y-70557380D01*
X169305119Y-70509761D01*
X169257500Y-70414523D01*
X169257500Y-70033571D01*
X169305119Y-69938333D01*
X169400357Y-69890714D01*
X169590833Y-69890714D01*
X169686071Y-69938333D01*
X169733690Y-70033571D01*
X169733690Y-70128809D01*
X169257500Y-70224047D01*
X170590833Y-70557380D02*
X170590833Y-69557380D01*
X170590833Y-70509761D02*
X170495595Y-70557380D01*
X170305119Y-70557380D01*
X170209880Y-70509761D01*
X170162261Y-70462142D01*
X170114642Y-70366904D01*
X170114642Y-70081190D01*
X170162261Y-69985952D01*
X170209880Y-69938333D01*
X170305119Y-69890714D01*
X170495595Y-69890714D01*
X170590833Y-69938333D01*
X171828928Y-70557380D02*
X171828928Y-69557380D01*
X171828928Y-69938333D02*
X171924166Y-69890714D01*
X172114642Y-69890714D01*
X172209880Y-69938333D01*
X172257500Y-69985952D01*
X172305119Y-70081190D01*
X172305119Y-70366904D01*
X172257500Y-70462142D01*
X172209880Y-70509761D01*
X172114642Y-70557380D01*
X171924166Y-70557380D01*
X171828928Y-70509761D01*
X172638452Y-69890714D02*
X172876547Y-70557380D01*
X173114642Y-69890714D02*
X172876547Y-70557380D01*
X172781309Y-70795476D01*
X172733690Y-70843095D01*
X172638452Y-70890714D01*
X164019404Y-72207380D02*
X163686071Y-71731190D01*
X163447976Y-72207380D02*
X163447976Y-71207380D01*
X163828928Y-71207380D01*
X163924166Y-71255000D01*
X163971785Y-71302619D01*
X164019404Y-71397857D01*
X164019404Y-71540714D01*
X163971785Y-71635952D01*
X163924166Y-71683571D01*
X163828928Y-71731190D01*
X163447976Y-71731190D01*
X164590833Y-72207380D02*
X164495595Y-72159761D01*
X164447976Y-72112142D01*
X164400357Y-72016904D01*
X164400357Y-71731190D01*
X164447976Y-71635952D01*
X164495595Y-71588333D01*
X164590833Y-71540714D01*
X164733690Y-71540714D01*
X164828928Y-71588333D01*
X164876547Y-71635952D01*
X164924166Y-71731190D01*
X164924166Y-72016904D01*
X164876547Y-72112142D01*
X164828928Y-72159761D01*
X164733690Y-72207380D01*
X164590833Y-72207380D01*
X165352738Y-72207380D02*
X165352738Y-71207380D01*
X165352738Y-71588333D02*
X165447976Y-71540714D01*
X165638452Y-71540714D01*
X165733690Y-71588333D01*
X165781309Y-71635952D01*
X165828928Y-71731190D01*
X165828928Y-72016904D01*
X165781309Y-72112142D01*
X165733690Y-72159761D01*
X165638452Y-72207380D01*
X165447976Y-72207380D01*
X165352738Y-72159761D01*
X166638452Y-72159761D02*
X166543214Y-72207380D01*
X166352738Y-72207380D01*
X166257500Y-72159761D01*
X166209880Y-72064523D01*
X166209880Y-71683571D01*
X166257500Y-71588333D01*
X166352738Y-71540714D01*
X166543214Y-71540714D01*
X166638452Y-71588333D01*
X166686071Y-71683571D01*
X166686071Y-71778809D01*
X166209880Y-71874047D01*
X167114642Y-72207380D02*
X167114642Y-71540714D01*
X167114642Y-71731190D02*
X167162261Y-71635952D01*
X167209880Y-71588333D01*
X167305119Y-71540714D01*
X167400357Y-71540714D01*
X167590833Y-71540714D02*
X167971785Y-71540714D01*
X167733690Y-71207380D02*
X167733690Y-72064523D01*
X167781309Y-72159761D01*
X167876547Y-72207380D01*
X167971785Y-72207380D01*
X169019404Y-72159761D02*
X169162261Y-72207380D01*
X169400357Y-72207380D01*
X169495595Y-72159761D01*
X169543214Y-72112142D01*
X169590833Y-72016904D01*
X169590833Y-71921666D01*
X169543214Y-71826428D01*
X169495595Y-71778809D01*
X169400357Y-71731190D01*
X169209880Y-71683571D01*
X169114642Y-71635952D01*
X169067023Y-71588333D01*
X169019404Y-71493095D01*
X169019404Y-71397857D01*
X169067023Y-71302619D01*
X169114642Y-71255000D01*
X169209880Y-71207380D01*
X169447976Y-71207380D01*
X169590833Y-71255000D01*
X170400357Y-72159761D02*
X170305119Y-72207380D01*
X170114642Y-72207380D01*
X170019404Y-72159761D01*
X169971785Y-72064523D01*
X169971785Y-71683571D01*
X170019404Y-71588333D01*
X170114642Y-71540714D01*
X170305119Y-71540714D01*
X170400357Y-71588333D01*
X170447976Y-71683571D01*
X170447976Y-71778809D01*
X169971785Y-71874047D01*
X171305119Y-72207380D02*
X171305119Y-71207380D01*
X171305119Y-72159761D02*
X171209880Y-72207380D01*
X171019404Y-72207380D01*
X170924166Y-72159761D01*
X170876547Y-72112142D01*
X170828928Y-72016904D01*
X170828928Y-71731190D01*
X170876547Y-71635952D01*
X170924166Y-71588333D01*
X171019404Y-71540714D01*
X171209880Y-71540714D01*
X171305119Y-71588333D01*
X172209880Y-72207380D02*
X172209880Y-71683571D01*
X172162261Y-71588333D01*
X172067023Y-71540714D01*
X171876547Y-71540714D01*
X171781309Y-71588333D01*
X172209880Y-72159761D02*
X172114642Y-72207380D01*
X171876547Y-72207380D01*
X171781309Y-72159761D01*
X171733690Y-72064523D01*
X171733690Y-71969285D01*
X171781309Y-71874047D01*
X171876547Y-71826428D01*
X172114642Y-71826428D01*
X172209880Y-71778809D01*
X172686071Y-72207380D02*
X172686071Y-71207380D01*
X172781309Y-71826428D02*
X173067023Y-72207380D01*
X173067023Y-71540714D02*
X172686071Y-71921666D01*
X160686071Y-72857380D02*
X161019404Y-73857380D01*
X161352738Y-72857380D01*
X161828928Y-73857380D02*
X161733690Y-73809761D01*
X161686071Y-73714523D01*
X161686071Y-72857380D01*
X162638452Y-73857380D02*
X162638452Y-73333571D01*
X162590833Y-73238333D01*
X162495595Y-73190714D01*
X162305119Y-73190714D01*
X162209880Y-73238333D01*
X162638452Y-73809761D02*
X162543214Y-73857380D01*
X162305119Y-73857380D01*
X162209880Y-73809761D01*
X162162261Y-73714523D01*
X162162261Y-73619285D01*
X162209880Y-73524047D01*
X162305119Y-73476428D01*
X162543214Y-73476428D01*
X162638452Y-73428809D01*
X163543214Y-73857380D02*
X163543214Y-72857380D01*
X163543214Y-73809761D02*
X163447976Y-73857380D01*
X163257500Y-73857380D01*
X163162261Y-73809761D01*
X163114642Y-73762142D01*
X163067023Y-73666904D01*
X163067023Y-73381190D01*
X163114642Y-73285952D01*
X163162261Y-73238333D01*
X163257500Y-73190714D01*
X163447976Y-73190714D01*
X163543214Y-73238333D01*
X164019404Y-73857380D02*
X164019404Y-73190714D01*
X164019404Y-72857380D02*
X163971785Y-72905000D01*
X164019404Y-72952619D01*
X164067023Y-72905000D01*
X164019404Y-72857380D01*
X164019404Y-72952619D01*
X164495595Y-73857380D02*
X164495595Y-73190714D01*
X164495595Y-73285952D02*
X164543214Y-73238333D01*
X164638452Y-73190714D01*
X164781309Y-73190714D01*
X164876547Y-73238333D01*
X164924166Y-73333571D01*
X164924166Y-73857380D01*
X164924166Y-73333571D02*
X164971785Y-73238333D01*
X165067023Y-73190714D01*
X165209880Y-73190714D01*
X165305119Y-73238333D01*
X165352738Y-73333571D01*
X165352738Y-73857380D01*
X165828928Y-73857380D02*
X165828928Y-73190714D01*
X165828928Y-72857380D02*
X165781309Y-72905000D01*
X165828928Y-72952619D01*
X165876547Y-72905000D01*
X165828928Y-72857380D01*
X165828928Y-72952619D01*
X166305119Y-73857380D02*
X166305119Y-73190714D01*
X166305119Y-73381190D02*
X166352738Y-73285952D01*
X166400357Y-73238333D01*
X166495595Y-73190714D01*
X166590833Y-73190714D01*
X167686071Y-73857380D02*
X167686071Y-72857380D01*
X168019404Y-73571666D01*
X168352738Y-72857380D01*
X168352738Y-73857380D01*
X168828928Y-73857380D02*
X168828928Y-73190714D01*
X168828928Y-72857380D02*
X168781309Y-72905000D01*
X168828928Y-72952619D01*
X168876547Y-72905000D01*
X168828928Y-72857380D01*
X168828928Y-72952619D01*
X169162261Y-73190714D02*
X169543214Y-73190714D01*
X169305119Y-72857380D02*
X169305119Y-73714523D01*
X169352738Y-73809761D01*
X169447976Y-73857380D01*
X169543214Y-73857380D01*
X169876547Y-73857380D02*
X169876547Y-73190714D01*
X169876547Y-73381190D02*
X169924166Y-73285952D01*
X169971785Y-73238333D01*
X170067023Y-73190714D01*
X170162261Y-73190714D01*
X170638452Y-73857380D02*
X170543214Y-73809761D01*
X170495595Y-73762142D01*
X170447976Y-73666904D01*
X170447976Y-73381190D01*
X170495595Y-73285952D01*
X170543214Y-73238333D01*
X170638452Y-73190714D01*
X170781309Y-73190714D01*
X170876547Y-73238333D01*
X170924166Y-73285952D01*
X170971785Y-73381190D01*
X170971785Y-73666904D01*
X170924166Y-73762142D01*
X170876547Y-73809761D01*
X170781309Y-73857380D01*
X170638452Y-73857380D01*
X171305119Y-73190714D02*
X171543214Y-73857380D01*
X171781309Y-73190714D01*
X172162261Y-73857380D02*
X172162261Y-73190714D01*
X172162261Y-72857380D02*
X172114642Y-72905000D01*
X172162261Y-72952619D01*
X172209880Y-72905000D01*
X172162261Y-72857380D01*
X172162261Y-72952619D01*
X173067023Y-73809761D02*
X172971785Y-73857380D01*
X172781309Y-73857380D01*
X172686071Y-73809761D01*
X172638452Y-73762142D01*
X172590833Y-73666904D01*
X172590833Y-73381190D01*
X172638452Y-73285952D01*
X172686071Y-73238333D01*
X172781309Y-73190714D01*
X172971785Y-73190714D01*
X173067023Y-73238333D01*
X172971785Y-72809761D02*
X172828928Y-72952619D01*
X162686071Y-75507380D02*
X162686071Y-74507380D01*
X163067023Y-74507380D01*
X163162261Y-74555000D01*
X163209880Y-74602619D01*
X163257500Y-74697857D01*
X163257500Y-74840714D01*
X163209880Y-74935952D01*
X163162261Y-74983571D01*
X163067023Y-75031190D01*
X162686071Y-75031190D01*
X164067023Y-75459761D02*
X163971785Y-75507380D01*
X163781309Y-75507380D01*
X163686071Y-75459761D01*
X163638452Y-75364523D01*
X163638452Y-74983571D01*
X163686071Y-74888333D01*
X163781309Y-74840714D01*
X163971785Y-74840714D01*
X164067023Y-74888333D01*
X164114642Y-74983571D01*
X164114642Y-75078809D01*
X163638452Y-75174047D01*
X164400357Y-74840714D02*
X164781309Y-74840714D01*
X164543214Y-74507380D02*
X164543214Y-75364523D01*
X164590833Y-75459761D01*
X164686071Y-75507380D01*
X164781309Y-75507380D01*
X165543214Y-75507380D02*
X165543214Y-74983571D01*
X165495595Y-74888333D01*
X165400357Y-74840714D01*
X165209880Y-74840714D01*
X165114642Y-74888333D01*
X165543214Y-75459761D02*
X165447976Y-75507380D01*
X165209880Y-75507380D01*
X165114642Y-75459761D01*
X165067023Y-75364523D01*
X165067023Y-75269285D01*
X165114642Y-75174047D01*
X165209880Y-75126428D01*
X165447976Y-75126428D01*
X165543214Y-75078809D01*
X166019404Y-75507380D02*
X166019404Y-74840714D01*
X166019404Y-75031190D02*
X166067023Y-74935952D01*
X166114642Y-74888333D01*
X166209880Y-74840714D01*
X166305119Y-74840714D01*
X167686071Y-74507380D02*
X167686071Y-75221666D01*
X167638452Y-75364523D01*
X167543214Y-75459761D01*
X167400357Y-75507380D01*
X167305119Y-75507380D01*
X168590833Y-74840714D02*
X168590833Y-75507380D01*
X168162261Y-74840714D02*
X168162261Y-75364523D01*
X168209880Y-75459761D01*
X168305119Y-75507380D01*
X168447976Y-75507380D01*
X168543214Y-75459761D01*
X168590833Y-75412142D01*
X169067023Y-75507380D02*
X169067023Y-74840714D01*
X169067023Y-75031190D02*
X169114642Y-74935952D01*
X169162261Y-74888333D01*
X169257500Y-74840714D01*
X169352738Y-74840714D01*
X169686071Y-75507380D02*
X169686071Y-74507380D01*
X169781309Y-75126428D02*
X170067023Y-75507380D01*
X170067023Y-74840714D02*
X169686071Y-75221666D01*
X170638452Y-75507380D02*
X170543214Y-75459761D01*
X170495595Y-75412142D01*
X170447976Y-75316904D01*
X170447976Y-75031190D01*
X170495595Y-74935952D01*
X170543214Y-74888333D01*
X170638452Y-74840714D01*
X170781309Y-74840714D01*
X170876547Y-74888333D01*
X170924166Y-74935952D01*
X170971785Y-75031190D01*
X170971785Y-75316904D01*
X170924166Y-75412142D01*
X170876547Y-75459761D01*
X170781309Y-75507380D01*
X170638452Y-75507380D01*
X171305119Y-74840714D02*
X171543214Y-75507380D01*
X171781309Y-74840714D01*
X172162261Y-75507380D02*
X172162261Y-74840714D01*
X172162261Y-74507380D02*
X172114642Y-74555000D01*
X172162261Y-74602619D01*
X172209880Y-74555000D01*
X172162261Y-74507380D01*
X172162261Y-74602619D01*
X173067023Y-75459761D02*
X172971785Y-75507380D01*
X172781309Y-75507380D01*
X172686071Y-75459761D01*
X172638452Y-75412142D01*
X172590833Y-75316904D01*
X172590833Y-75031190D01*
X172638452Y-74935952D01*
X172686071Y-74888333D01*
X172781309Y-74840714D01*
X172971785Y-74840714D01*
X173067023Y-74888333D01*
X172971785Y-74459761D02*
X172828928Y-74602619D01*
D12*
G04 #@! TO.C,DS1*
X113030000Y-71815000D02*
X113030000Y-69155000D01*
X113030000Y-71815000D02*
X151190000Y-71815000D01*
X151190000Y-71815000D02*
X151190000Y-69155000D01*
X113030000Y-69155000D02*
X151190000Y-69155000D01*
X110430000Y-69155000D02*
X111760000Y-69155000D01*
X110430000Y-70485000D02*
X110430000Y-69155000D01*
G04 #@! TO.C,BZ1*
X121025000Y-98425000D02*
G75*
G03X121025000Y-98425000I-6100000J0D01*
G01*
G04 #@! TO.C,SW1*
X151345000Y-105775000D02*
X151345000Y-110275000D01*
X155345000Y-104525000D02*
X153845000Y-104525000D01*
X157845000Y-110275000D02*
X157845000Y-105775000D01*
X153845000Y-111525000D02*
X155345000Y-111525000D01*
G04 #@! TO.C,RV2*
X118550000Y-106225000D02*
X118550000Y-115995000D01*
X108780000Y-106225000D02*
X108780000Y-115995000D01*
X118550000Y-106225000D02*
X108780000Y-106225000D01*
X118550000Y-115995000D02*
X108780000Y-115995000D01*
G04 #@! TO.C,R4*
X145315000Y-84550000D02*
X145645000Y-84550000D01*
X145315000Y-78010000D02*
X145315000Y-84550000D01*
X145645000Y-78010000D02*
X145315000Y-78010000D01*
X148055000Y-84550000D02*
X147725000Y-84550000D01*
X148055000Y-78010000D02*
X148055000Y-84550000D01*
X147725000Y-78010000D02*
X148055000Y-78010000D01*
G04 #@! TO.C,R13*
X126265000Y-84550000D02*
X126595000Y-84550000D01*
X126265000Y-78010000D02*
X126265000Y-84550000D01*
X126595000Y-78010000D02*
X126265000Y-78010000D01*
X129005000Y-84550000D02*
X128675000Y-84550000D01*
X129005000Y-78010000D02*
X129005000Y-84550000D01*
X128675000Y-78010000D02*
X129005000Y-78010000D01*
G04 #@! TO.C,D1*
X154496392Y-89132665D02*
G75*
G03X154339484Y-92365000I1078608J-1672335D01*
G01*
X156653608Y-89132665D02*
G75*
G02X156810516Y-92365000I-1078608J-1672335D01*
G01*
X154495163Y-89763870D02*
G75*
G03X154495000Y-91845961I1079837J-1041130D01*
G01*
X156654837Y-89763870D02*
G75*
G02X156655000Y-91845961I-1079837J-1041130D01*
G01*
X154339000Y-92365000D02*
X154495000Y-92365000D01*
X156655000Y-92365000D02*
X156811000Y-92365000D01*
G04 #@! TO.C,R10*
X146585000Y-110585000D02*
X146915000Y-110585000D01*
X146585000Y-104045000D02*
X146585000Y-110585000D01*
X146915000Y-104045000D02*
X146585000Y-104045000D01*
X149325000Y-110585000D02*
X148995000Y-110585000D01*
X149325000Y-104045000D02*
X149325000Y-110585000D01*
X148995000Y-104045000D02*
X149325000Y-104045000D01*
G04 #@! TO.C,R12*
X131850000Y-78010000D02*
X132180000Y-78010000D01*
X132180000Y-78010000D02*
X132180000Y-84550000D01*
X132180000Y-84550000D02*
X131850000Y-84550000D01*
X129770000Y-78010000D02*
X129440000Y-78010000D01*
X129440000Y-78010000D02*
X129440000Y-84550000D01*
X129440000Y-84550000D02*
X129770000Y-84550000D01*
G04 #@! TO.C,Q1*
X116735000Y-86415000D02*
X113135000Y-86415000D01*
X117259184Y-87142205D02*
G75*
G03X116735000Y-86415000I-2324184J-1122795D01*
G01*
X117291400Y-89363807D02*
G75*
G02X114935000Y-90865000I-2356400J1098807D01*
G01*
X112578600Y-89363807D02*
G75*
G03X114935000Y-90865000I2356400J1098807D01*
G01*
X112610816Y-87142205D02*
G75*
G02X113135000Y-86415000I2324184J-1122795D01*
G01*
G04 #@! TO.C,R1*
X157250000Y-78010000D02*
X157580000Y-78010000D01*
X157580000Y-78010000D02*
X157580000Y-84550000D01*
X157580000Y-84550000D02*
X157250000Y-84550000D01*
X155170000Y-78010000D02*
X154840000Y-78010000D01*
X154840000Y-78010000D02*
X154840000Y-84550000D01*
X154840000Y-84550000D02*
X155170000Y-84550000D01*
G04 #@! TO.C,D4*
X141415000Y-92365000D02*
X141571000Y-92365000D01*
X139099000Y-92365000D02*
X139255000Y-92365000D01*
X141414837Y-89763870D02*
G75*
G02X141415000Y-91845961I-1079837J-1041130D01*
G01*
X139255163Y-89763870D02*
G75*
G03X139255000Y-91845961I1079837J-1041130D01*
G01*
X141413608Y-89132665D02*
G75*
G02X141570516Y-92365000I-1078608J-1672335D01*
G01*
X139256392Y-89132665D02*
G75*
G03X139099484Y-92365000I1078608J-1672335D01*
G01*
G04 #@! TO.C,D0*
X161735000Y-92365000D02*
X161891000Y-92365000D01*
X159419000Y-92365000D02*
X159575000Y-92365000D01*
X161734837Y-89763870D02*
G75*
G02X161735000Y-91845961I-1079837J-1041130D01*
G01*
X159575163Y-89763870D02*
G75*
G03X159575000Y-91845961I1079837J-1041130D01*
G01*
X161733608Y-89132665D02*
G75*
G02X161890516Y-92365000I-1078608J-1672335D01*
G01*
X159576392Y-89132665D02*
G75*
G03X159419484Y-92365000I1078608J-1672335D01*
G01*
G04 #@! TO.C,R3*
X150900000Y-78010000D02*
X151230000Y-78010000D01*
X151230000Y-78010000D02*
X151230000Y-84550000D01*
X151230000Y-84550000D02*
X150900000Y-84550000D01*
X148820000Y-78010000D02*
X148490000Y-78010000D01*
X148490000Y-78010000D02*
X148490000Y-84550000D01*
X148490000Y-84550000D02*
X148820000Y-84550000D01*
G04 #@! TO.C,D5*
X134176392Y-89132665D02*
G75*
G03X134019484Y-92365000I1078608J-1672335D01*
G01*
X136333608Y-89132665D02*
G75*
G02X136490516Y-92365000I-1078608J-1672335D01*
G01*
X134175163Y-89763870D02*
G75*
G03X134175000Y-91845961I1079837J-1041130D01*
G01*
X136334837Y-89763870D02*
G75*
G02X136335000Y-91845961I-1079837J-1041130D01*
G01*
X134019000Y-92365000D02*
X134175000Y-92365000D01*
X136335000Y-92365000D02*
X136491000Y-92365000D01*
G04 #@! TO.C,D3*
X144336392Y-89132665D02*
G75*
G03X144179484Y-92365000I1078608J-1672335D01*
G01*
X146493608Y-89132665D02*
G75*
G02X146650516Y-92365000I-1078608J-1672335D01*
G01*
X144335163Y-89763870D02*
G75*
G03X144335000Y-91845961I1079837J-1041130D01*
G01*
X146494837Y-89763870D02*
G75*
G02X146495000Y-91845961I-1079837J-1041130D01*
G01*
X144179000Y-92365000D02*
X144335000Y-92365000D01*
X146495000Y-92365000D02*
X146651000Y-92365000D01*
G04 #@! TO.C,D7*
X124016392Y-89132665D02*
G75*
G03X123859484Y-92365000I1078608J-1672335D01*
G01*
X126173608Y-89132665D02*
G75*
G02X126330516Y-92365000I-1078608J-1672335D01*
G01*
X124015163Y-89763870D02*
G75*
G03X124015000Y-91845961I1079837J-1041130D01*
G01*
X126174837Y-89763870D02*
G75*
G02X126175000Y-91845961I-1079837J-1041130D01*
G01*
X123859000Y-92365000D02*
X124015000Y-92365000D01*
X126175000Y-92365000D02*
X126331000Y-92365000D01*
G04 #@! TO.C,D6*
X131255000Y-92365000D02*
X131411000Y-92365000D01*
X128939000Y-92365000D02*
X129095000Y-92365000D01*
X131254837Y-89763870D02*
G75*
G02X131255000Y-91845961I-1079837J-1041130D01*
G01*
X129095163Y-89763870D02*
G75*
G03X129095000Y-91845961I1079837J-1041130D01*
G01*
X131253608Y-89132665D02*
G75*
G02X131410516Y-92365000I-1078608J-1672335D01*
G01*
X129096392Y-89132665D02*
G75*
G03X128939484Y-92365000I1078608J-1672335D01*
G01*
G04 #@! TO.C,R2*
X151665000Y-84550000D02*
X151995000Y-84550000D01*
X151665000Y-78010000D02*
X151665000Y-84550000D01*
X151995000Y-78010000D02*
X151665000Y-78010000D01*
X154405000Y-84550000D02*
X154075000Y-84550000D01*
X154405000Y-78010000D02*
X154405000Y-84550000D01*
X154075000Y-78010000D02*
X154405000Y-78010000D01*
G04 #@! TO.C,D2*
X151575000Y-92365000D02*
X151731000Y-92365000D01*
X149259000Y-92365000D02*
X149415000Y-92365000D01*
X151574837Y-89763870D02*
G75*
G02X151575000Y-91845961I-1079837J-1041130D01*
G01*
X149415163Y-89763870D02*
G75*
G03X149415000Y-91845961I1079837J-1041130D01*
G01*
X151573608Y-89132665D02*
G75*
G02X151730516Y-92365000I-1078608J-1672335D01*
G01*
X149416392Y-89132665D02*
G75*
G03X149259484Y-92365000I1078608J-1672335D01*
G01*
G04 #@! TO.C,R7*
X138200000Y-78010000D02*
X138530000Y-78010000D01*
X138530000Y-78010000D02*
X138530000Y-84550000D01*
X138530000Y-84550000D02*
X138200000Y-84550000D01*
X136120000Y-78010000D02*
X135790000Y-78010000D01*
X135790000Y-78010000D02*
X135790000Y-84550000D01*
X135790000Y-84550000D02*
X136120000Y-84550000D01*
G04 #@! TO.C,R6*
X138965000Y-84550000D02*
X139295000Y-84550000D01*
X138965000Y-78010000D02*
X138965000Y-84550000D01*
X139295000Y-78010000D02*
X138965000Y-78010000D01*
X141705000Y-84550000D02*
X141375000Y-84550000D01*
X141705000Y-78010000D02*
X141705000Y-84550000D01*
X141375000Y-78010000D02*
X141705000Y-78010000D01*
G04 #@! TO.C,J1*
X175320000Y-107315000D02*
X172660000Y-107315000D01*
X175320000Y-107315000D02*
X175320000Y-99635000D01*
X175320000Y-99635000D02*
X172660000Y-99635000D01*
X172660000Y-107315000D02*
X172660000Y-99635000D01*
X172660000Y-109915000D02*
X172660000Y-108585000D01*
X173990000Y-109915000D02*
X172660000Y-109915000D01*
G04 #@! TO.C,Q2*
X169015000Y-84400000D02*
X172615000Y-84400000D01*
X168490816Y-83672795D02*
G75*
G03X169015000Y-84400000I2324184J1122795D01*
G01*
X168458600Y-81451193D02*
G75*
G02X170815000Y-79950000I2356400J-1098807D01*
G01*
X173171400Y-81451193D02*
G75*
G03X170815000Y-79950000I-2356400J-1098807D01*
G01*
X173139184Y-83672795D02*
G75*
G02X172615000Y-84400000I-2324184J1122795D01*
G01*
G04 #@! TO.C,SW3*
X141390000Y-110125000D02*
X141390000Y-105625000D01*
X137390000Y-111375000D02*
X138890000Y-111375000D01*
X134890000Y-105625000D02*
X134890000Y-110125000D01*
X138890000Y-104375000D02*
X137390000Y-104375000D01*
G04 #@! TO.C,R15*
X175360000Y-88170000D02*
X175030000Y-88170000D01*
X175360000Y-94710000D02*
X175360000Y-88170000D01*
X175030000Y-94710000D02*
X175360000Y-94710000D01*
X172620000Y-88170000D02*
X172950000Y-88170000D01*
X172620000Y-94710000D02*
X172620000Y-88170000D01*
X172950000Y-94710000D02*
X172620000Y-94710000D01*
G04 #@! TO.C,R18*
X169775000Y-94710000D02*
X169445000Y-94710000D01*
X169445000Y-94710000D02*
X169445000Y-88170000D01*
X169445000Y-88170000D02*
X169775000Y-88170000D01*
X171855000Y-94710000D02*
X172185000Y-94710000D01*
X172185000Y-94710000D02*
X172185000Y-88170000D01*
X172185000Y-88170000D02*
X171855000Y-88170000D01*
G04 #@! TO.C,R8*
X132615000Y-84550000D02*
X132945000Y-84550000D01*
X132615000Y-78010000D02*
X132615000Y-84550000D01*
X132945000Y-78010000D02*
X132615000Y-78010000D01*
X135355000Y-84550000D02*
X135025000Y-84550000D01*
X135355000Y-78010000D02*
X135355000Y-84550000D01*
X135025000Y-78010000D02*
X135355000Y-78010000D01*
G04 #@! TO.C,R17*
X169010000Y-88170000D02*
X168680000Y-88170000D01*
X169010000Y-94710000D02*
X169010000Y-88170000D01*
X168680000Y-94710000D02*
X169010000Y-94710000D01*
X166270000Y-88170000D02*
X166600000Y-88170000D01*
X166270000Y-94710000D02*
X166270000Y-88170000D01*
X166600000Y-94710000D02*
X166270000Y-94710000D01*
G04 #@! TO.C,R9*
X145185000Y-104045000D02*
X145515000Y-104045000D01*
X145515000Y-104045000D02*
X145515000Y-110585000D01*
X145515000Y-110585000D02*
X145185000Y-110585000D01*
X143105000Y-104045000D02*
X142775000Y-104045000D01*
X142775000Y-104045000D02*
X142775000Y-110585000D01*
X142775000Y-110585000D02*
X143105000Y-110585000D01*
G04 #@! TO.C,D9*
X146874173Y-95002185D02*
G75*
G03X146410170Y-100350000I1080827J-2787815D01*
G01*
X149035827Y-95002185D02*
G75*
G02X149499830Y-100350000I-1080827J-2787815D01*
G01*
X146874571Y-95535521D02*
G75*
G03X146875000Y-100044684I1080429J-2254479D01*
G01*
X149035429Y-95535521D02*
G75*
G02X149035000Y-100044684I-1080429J-2254479D01*
G01*
X146410000Y-100350000D02*
X146875000Y-100350000D01*
X149035000Y-100350000D02*
X149500000Y-100350000D01*
G04 #@! TO.C,R16*
X154210000Y-69445000D02*
X154210000Y-69115000D01*
X154210000Y-69115000D02*
X160750000Y-69115000D01*
X160750000Y-69115000D02*
X160750000Y-69445000D01*
X154210000Y-71525000D02*
X154210000Y-71855000D01*
X154210000Y-71855000D02*
X160750000Y-71855000D01*
X160750000Y-71855000D02*
X160750000Y-71525000D01*
G04 #@! TO.C,D10*
X138875000Y-100350000D02*
X139340000Y-100350000D01*
X136250000Y-100350000D02*
X136715000Y-100350000D01*
X138875429Y-95535521D02*
G75*
G02X138875000Y-100044684I-1080429J-2254479D01*
G01*
X136714571Y-95535521D02*
G75*
G03X136715000Y-100044684I1080429J-2254479D01*
G01*
X138875827Y-95002185D02*
G75*
G02X139339830Y-100350000I-1080827J-2787815D01*
G01*
X136714173Y-95002185D02*
G75*
G03X136250170Y-100350000I1080827J-2787815D01*
G01*
G04 #@! TO.C,R11*
X125500000Y-78010000D02*
X125830000Y-78010000D01*
X125830000Y-78010000D02*
X125830000Y-84550000D01*
X125830000Y-84550000D02*
X125500000Y-84550000D01*
X123420000Y-78010000D02*
X123090000Y-78010000D01*
X123090000Y-78010000D02*
X123090000Y-84550000D01*
X123090000Y-84550000D02*
X123420000Y-84550000D01*
G04 #@! TO.C,R5*
X144550000Y-78010000D02*
X144880000Y-78010000D01*
X144880000Y-78010000D02*
X144880000Y-84550000D01*
X144880000Y-84550000D02*
X144550000Y-84550000D01*
X142470000Y-78010000D02*
X142140000Y-78010000D01*
X142140000Y-78010000D02*
X142140000Y-84550000D01*
X142140000Y-84550000D02*
X142470000Y-84550000D01*
G04 #@! TO.C,R14*
X120245000Y-84550000D02*
X119915000Y-84550000D01*
X119915000Y-84550000D02*
X119915000Y-78010000D01*
X119915000Y-78010000D02*
X120245000Y-78010000D01*
X122325000Y-84550000D02*
X122655000Y-84550000D01*
X122655000Y-84550000D02*
X122655000Y-78010000D01*
X122655000Y-78010000D02*
X122325000Y-78010000D01*
G04 #@! TO.C,SW4*
X165305000Y-77870000D02*
X165305000Y-84691000D01*
X158545000Y-77870000D02*
X158545000Y-84691000D01*
X165305000Y-77870000D02*
X164235000Y-77870000D01*
X162155000Y-77870000D02*
X161644000Y-77870000D01*
X159665000Y-77870000D02*
X158545000Y-77870000D01*
X159665000Y-84691000D02*
X158545000Y-84691000D01*
X165305000Y-84691000D02*
X164185000Y-84691000D01*
X162205000Y-84691000D02*
X161644000Y-84691000D01*
X165545000Y-77630000D02*
X165545000Y-79013000D01*
X165545000Y-77630000D02*
X164235000Y-77630000D01*
X163830000Y-79470000D02*
X162560000Y-79470000D01*
X162560000Y-79470000D02*
X162560000Y-83090000D01*
X162560000Y-83090000D02*
X163830000Y-83090000D01*
X163830000Y-83090000D02*
X163830000Y-79470000D01*
X163710000Y-79470000D02*
X163710000Y-80676667D01*
X163590000Y-79470000D02*
X163590000Y-80676667D01*
X163470000Y-79470000D02*
X163470000Y-80676667D01*
X163350000Y-79470000D02*
X163350000Y-80676667D01*
X163230000Y-79470000D02*
X163230000Y-80676667D01*
X163110000Y-79470000D02*
X163110000Y-80676667D01*
X162990000Y-79470000D02*
X162990000Y-80676667D01*
X162870000Y-79470000D02*
X162870000Y-80676667D01*
X162750000Y-79470000D02*
X162750000Y-80676667D01*
X162630000Y-79470000D02*
X162630000Y-80676667D01*
X163830000Y-80676667D02*
X162560000Y-80676667D01*
X161290000Y-79470000D02*
X160020000Y-79470000D01*
X160020000Y-79470000D02*
X160020000Y-83090000D01*
X160020000Y-83090000D02*
X161290000Y-83090000D01*
X161290000Y-83090000D02*
X161290000Y-79470000D01*
X161170000Y-79470000D02*
X161170000Y-80676667D01*
X161050000Y-79470000D02*
X161050000Y-80676667D01*
X160930000Y-79470000D02*
X160930000Y-80676667D01*
X160810000Y-79470000D02*
X160810000Y-80676667D01*
X160690000Y-79470000D02*
X160690000Y-80676667D01*
X160570000Y-79470000D02*
X160570000Y-80676667D01*
X160450000Y-79470000D02*
X160450000Y-80676667D01*
X160330000Y-79470000D02*
X160330000Y-80676667D01*
X160210000Y-79470000D02*
X160210000Y-80676667D01*
X160090000Y-79470000D02*
X160090000Y-80676667D01*
X161290000Y-80676667D02*
X160020000Y-80676667D01*
G04 #@! TO.C,D8*
X159195000Y-100350000D02*
X159660000Y-100350000D01*
X156570000Y-100350000D02*
X157035000Y-100350000D01*
X159195429Y-95535521D02*
G75*
G02X159195000Y-100044684I-1080429J-2254479D01*
G01*
X157034571Y-95535521D02*
G75*
G03X157035000Y-100044684I1080429J-2254479D01*
G01*
X159195827Y-95002185D02*
G75*
G02X159659830Y-100350000I-1080827J-2787815D01*
G01*
X157034173Y-95002185D02*
G75*
G03X156570170Y-100350000I1080827J-2787815D01*
G01*
G04 #@! TO.C,D11*
X126554173Y-95002185D02*
G75*
G03X126090170Y-100350000I1080827J-2787815D01*
G01*
X128715827Y-95002185D02*
G75*
G02X129179830Y-100350000I-1080827J-2787815D01*
G01*
X126554571Y-95535521D02*
G75*
G03X126555000Y-100044684I1080429J-2254479D01*
G01*
X128715429Y-95535521D02*
G75*
G02X128715000Y-100044684I-1080429J-2254479D01*
G01*
X126090000Y-100350000D02*
X126555000Y-100350000D01*
X128715000Y-100350000D02*
X129180000Y-100350000D01*
G04 #@! TO.C,SW2*
X161465000Y-111525000D02*
X162965000Y-111525000D01*
X165465000Y-110275000D02*
X165465000Y-105775000D01*
X162965000Y-104525000D02*
X161465000Y-104525000D01*
X158965000Y-105775000D02*
X158965000Y-110275000D01*
D13*
G04 #@! TO.C,REF\002A\002A*
G36*
X114185878Y-75027776D02*
X114291612Y-75028355D01*
X114368132Y-75029922D01*
X114420372Y-75032972D01*
X114453263Y-75037996D01*
X114471737Y-75045489D01*
X114480727Y-75055944D01*
X114485163Y-75069853D01*
X114485594Y-75071654D01*
X114492333Y-75104145D01*
X114504808Y-75168252D01*
X114521719Y-75257151D01*
X114541771Y-75364019D01*
X114563664Y-75482033D01*
X114564429Y-75486178D01*
X114586359Y-75601831D01*
X114606877Y-75704014D01*
X114624659Y-75786598D01*
X114638381Y-75843456D01*
X114646718Y-75868458D01*
X114647116Y-75868901D01*
X114671677Y-75881110D01*
X114722315Y-75901456D01*
X114788095Y-75925545D01*
X114788461Y-75925674D01*
X114871317Y-75956818D01*
X114969000Y-75996491D01*
X115061077Y-76036381D01*
X115065434Y-76038353D01*
X115215407Y-76106420D01*
X115547498Y-75879639D01*
X115649374Y-75810504D01*
X115741657Y-75748697D01*
X115819003Y-75697733D01*
X115876064Y-75661127D01*
X115907495Y-75642394D01*
X115910479Y-75641004D01*
X115933321Y-75647190D01*
X115975982Y-75677035D01*
X116040128Y-75731947D01*
X116127421Y-75813334D01*
X116216535Y-75899922D01*
X116302441Y-75985247D01*
X116379327Y-76063108D01*
X116442564Y-76128697D01*
X116487523Y-76177205D01*
X116509576Y-76203825D01*
X116510396Y-76205195D01*
X116512834Y-76223463D01*
X116503650Y-76253295D01*
X116480574Y-76298721D01*
X116441337Y-76363770D01*
X116383670Y-76452470D01*
X116306795Y-76566657D01*
X116238570Y-76667162D01*
X116177582Y-76757303D01*
X116127356Y-76831849D01*
X116091416Y-76885565D01*
X116073287Y-76913218D01*
X116072146Y-76915095D01*
X116074359Y-76941590D01*
X116091138Y-76993086D01*
X116119142Y-77059851D01*
X116129122Y-77081172D01*
X116172672Y-77176159D01*
X116219134Y-77283937D01*
X116256877Y-77377192D01*
X116284073Y-77446406D01*
X116305675Y-77499006D01*
X116318158Y-77526497D01*
X116319709Y-77528616D01*
X116342668Y-77532124D01*
X116396786Y-77541738D01*
X116474868Y-77556089D01*
X116569719Y-77573807D01*
X116674143Y-77593525D01*
X116780944Y-77613874D01*
X116882926Y-77633486D01*
X116972894Y-77650991D01*
X117043653Y-77665022D01*
X117088006Y-77674209D01*
X117098885Y-77676807D01*
X117110122Y-77683218D01*
X117118605Y-77697697D01*
X117124714Y-77725133D01*
X117128832Y-77770411D01*
X117131341Y-77838420D01*
X117132621Y-77934047D01*
X117133054Y-78062180D01*
X117133077Y-78114701D01*
X117133077Y-78541845D01*
X117030500Y-78562091D01*
X116973431Y-78573070D01*
X116888269Y-78589095D01*
X116785372Y-78608233D01*
X116675096Y-78628551D01*
X116644615Y-78634132D01*
X116542855Y-78653917D01*
X116454205Y-78673373D01*
X116386108Y-78690697D01*
X116346004Y-78704088D01*
X116339323Y-78708079D01*
X116322919Y-78736342D01*
X116299399Y-78791109D01*
X116273316Y-78861588D01*
X116268142Y-78876769D01*
X116233956Y-78970896D01*
X116191523Y-79077101D01*
X116149997Y-79172473D01*
X116149792Y-79172916D01*
X116080640Y-79322525D01*
X116535512Y-79991617D01*
X116243500Y-80284116D01*
X116155180Y-80371170D01*
X116074625Y-80447909D01*
X116006360Y-80510237D01*
X115954908Y-80554056D01*
X115924794Y-80575270D01*
X115920474Y-80576616D01*
X115895111Y-80566016D01*
X115843358Y-80536547D01*
X115770868Y-80491705D01*
X115683294Y-80434984D01*
X115588612Y-80371462D01*
X115492516Y-80306668D01*
X115406837Y-80250287D01*
X115337016Y-80205788D01*
X115288494Y-80176639D01*
X115266782Y-80166308D01*
X115240293Y-80175050D01*
X115190062Y-80198087D01*
X115126451Y-80230631D01*
X115119708Y-80234249D01*
X115034046Y-80277210D01*
X114975306Y-80298279D01*
X114938772Y-80298503D01*
X114919731Y-80278928D01*
X114919620Y-80278654D01*
X114910102Y-80255472D01*
X114887403Y-80200441D01*
X114853282Y-80117822D01*
X114809500Y-80011872D01*
X114757816Y-79886852D01*
X114699992Y-79747020D01*
X114643991Y-79611637D01*
X114582447Y-79462234D01*
X114525939Y-79323832D01*
X114476161Y-79200673D01*
X114434806Y-79097002D01*
X114403568Y-79017059D01*
X114384141Y-78965088D01*
X114378154Y-78945692D01*
X114393168Y-78923443D01*
X114432439Y-78887982D01*
X114484807Y-78848887D01*
X114633941Y-78725245D01*
X114750511Y-78583522D01*
X114833118Y-78426704D01*
X114880366Y-78257775D01*
X114890857Y-78079722D01*
X114883231Y-77997539D01*
X114841682Y-77827031D01*
X114770123Y-77676459D01*
X114672995Y-77547309D01*
X114554734Y-77441064D01*
X114419780Y-77359210D01*
X114272571Y-77303232D01*
X114117544Y-77274615D01*
X113959139Y-77274844D01*
X113801794Y-77305405D01*
X113649946Y-77367782D01*
X113508035Y-77463460D01*
X113448803Y-77517572D01*
X113335203Y-77656520D01*
X113256106Y-77808361D01*
X113210986Y-77968667D01*
X113199316Y-78133012D01*
X113220569Y-78296971D01*
X113274220Y-78456118D01*
X113359740Y-78606025D01*
X113476605Y-78742267D01*
X113607193Y-78848887D01*
X113661588Y-78889642D01*
X113700014Y-78924718D01*
X113713846Y-78945726D01*
X113706603Y-78968635D01*
X113686005Y-79023365D01*
X113653746Y-79105672D01*
X113611521Y-79211315D01*
X113561023Y-79336050D01*
X113503948Y-79475636D01*
X113447854Y-79611670D01*
X113385967Y-79761201D01*
X113328644Y-79899767D01*
X113277644Y-80023107D01*
X113234727Y-80126964D01*
X113201653Y-80207080D01*
X113180181Y-80259195D01*
X113172225Y-80278654D01*
X113153429Y-80298423D01*
X113117074Y-80298365D01*
X113058479Y-80277441D01*
X112972968Y-80234613D01*
X112972292Y-80234249D01*
X112907907Y-80201012D01*
X112855861Y-80176802D01*
X112826512Y-80166404D01*
X112825217Y-80166308D01*
X112803124Y-80176855D01*
X112754348Y-80206184D01*
X112684331Y-80250827D01*
X112598514Y-80307314D01*
X112503388Y-80371462D01*
X112406540Y-80436411D01*
X112319253Y-80492896D01*
X112247181Y-80537421D01*
X112195977Y-80566490D01*
X112171526Y-80576616D01*
X112149010Y-80563307D01*
X112103742Y-80526112D01*
X112040244Y-80469128D01*
X111963039Y-80396449D01*
X111876651Y-80312171D01*
X111848399Y-80284016D01*
X111556287Y-79991416D01*
X111778631Y-79665104D01*
X111846202Y-79564897D01*
X111905507Y-79474963D01*
X111953217Y-79400510D01*
X111986007Y-79346751D01*
X112000548Y-79318894D01*
X112000974Y-79316912D01*
X111993308Y-79290655D01*
X111972689Y-79237837D01*
X111942685Y-79167310D01*
X111921625Y-79120093D01*
X111882248Y-79029694D01*
X111845165Y-78938366D01*
X111816415Y-78861200D01*
X111808605Y-78837692D01*
X111786417Y-78774916D01*
X111764727Y-78726411D01*
X111752813Y-78708079D01*
X111726523Y-78696859D01*
X111669142Y-78680954D01*
X111588118Y-78662167D01*
X111490895Y-78642299D01*
X111447385Y-78634132D01*
X111336896Y-78613829D01*
X111230916Y-78594170D01*
X111139801Y-78577088D01*
X111073908Y-78564518D01*
X111061500Y-78562091D01*
X110958923Y-78541845D01*
X110958923Y-78114701D01*
X110959153Y-77974246D01*
X110960099Y-77867979D01*
X110962141Y-77791013D01*
X110965662Y-77738460D01*
X110971043Y-77705433D01*
X110978666Y-77687045D01*
X110988912Y-77678408D01*
X110993115Y-77676807D01*
X111018470Y-77671127D01*
X111074484Y-77659795D01*
X111153964Y-77644179D01*
X111249712Y-77625647D01*
X111354533Y-77605569D01*
X111461232Y-77585312D01*
X111562613Y-77566246D01*
X111651479Y-77549739D01*
X111720637Y-77537159D01*
X111762889Y-77529875D01*
X111772290Y-77528616D01*
X111780807Y-77511763D01*
X111799660Y-77466870D01*
X111825324Y-77402430D01*
X111835123Y-77377192D01*
X111874648Y-77279686D01*
X111921192Y-77171959D01*
X111962877Y-77081172D01*
X111993550Y-77011753D01*
X112013956Y-76954710D01*
X112020768Y-76919777D01*
X112019682Y-76915095D01*
X112005285Y-76892991D01*
X111972412Y-76843831D01*
X111924590Y-76772848D01*
X111865348Y-76685278D01*
X111798215Y-76586357D01*
X111784941Y-76566830D01*
X111707046Y-76451140D01*
X111649787Y-76363044D01*
X111610881Y-76298486D01*
X111588044Y-76253411D01*
X111578994Y-76223763D01*
X111581448Y-76205485D01*
X111581511Y-76205369D01*
X111600827Y-76181361D01*
X111643551Y-76134947D01*
X111705051Y-76070937D01*
X111780698Y-75994145D01*
X111865861Y-75909382D01*
X111875465Y-75899922D01*
X111982790Y-75795989D01*
X112065615Y-75719675D01*
X112125605Y-75669571D01*
X112164423Y-75644270D01*
X112181520Y-75641004D01*
X112206473Y-75655250D01*
X112258255Y-75688156D01*
X112331520Y-75736208D01*
X112420920Y-75795890D01*
X112521111Y-75863688D01*
X112544501Y-75879639D01*
X112876593Y-76106420D01*
X113026565Y-76038353D01*
X113117770Y-75998685D01*
X113215669Y-75958791D01*
X113299831Y-75926983D01*
X113303538Y-75925674D01*
X113369369Y-75901576D01*
X113420116Y-75881200D01*
X113444842Y-75868936D01*
X113444884Y-75868901D01*
X113452729Y-75846734D01*
X113466066Y-75792217D01*
X113483570Y-75711480D01*
X113503917Y-75610650D01*
X113525782Y-75495856D01*
X113527571Y-75486178D01*
X113549504Y-75367904D01*
X113569640Y-75260542D01*
X113586680Y-75170917D01*
X113599328Y-75105851D01*
X113606284Y-75072168D01*
X113606406Y-75071654D01*
X113610639Y-75057325D01*
X113618871Y-75046507D01*
X113636033Y-75038706D01*
X113667058Y-75033429D01*
X113716878Y-75030182D01*
X113790424Y-75028472D01*
X113892629Y-75027807D01*
X114028425Y-75027693D01*
X114046000Y-75027692D01*
X114185878Y-75027776D01*
X114185878Y-75027776D01*
G37*
X114185878Y-75027776D02*
X114291612Y-75028355D01*
X114368132Y-75029922D01*
X114420372Y-75032972D01*
X114453263Y-75037996D01*
X114471737Y-75045489D01*
X114480727Y-75055944D01*
X114485163Y-75069853D01*
X114485594Y-75071654D01*
X114492333Y-75104145D01*
X114504808Y-75168252D01*
X114521719Y-75257151D01*
X114541771Y-75364019D01*
X114563664Y-75482033D01*
X114564429Y-75486178D01*
X114586359Y-75601831D01*
X114606877Y-75704014D01*
X114624659Y-75786598D01*
X114638381Y-75843456D01*
X114646718Y-75868458D01*
X114647116Y-75868901D01*
X114671677Y-75881110D01*
X114722315Y-75901456D01*
X114788095Y-75925545D01*
X114788461Y-75925674D01*
X114871317Y-75956818D01*
X114969000Y-75996491D01*
X115061077Y-76036381D01*
X115065434Y-76038353D01*
X115215407Y-76106420D01*
X115547498Y-75879639D01*
X115649374Y-75810504D01*
X115741657Y-75748697D01*
X115819003Y-75697733D01*
X115876064Y-75661127D01*
X115907495Y-75642394D01*
X115910479Y-75641004D01*
X115933321Y-75647190D01*
X115975982Y-75677035D01*
X116040128Y-75731947D01*
X116127421Y-75813334D01*
X116216535Y-75899922D01*
X116302441Y-75985247D01*
X116379327Y-76063108D01*
X116442564Y-76128697D01*
X116487523Y-76177205D01*
X116509576Y-76203825D01*
X116510396Y-76205195D01*
X116512834Y-76223463D01*
X116503650Y-76253295D01*
X116480574Y-76298721D01*
X116441337Y-76363770D01*
X116383670Y-76452470D01*
X116306795Y-76566657D01*
X116238570Y-76667162D01*
X116177582Y-76757303D01*
X116127356Y-76831849D01*
X116091416Y-76885565D01*
X116073287Y-76913218D01*
X116072146Y-76915095D01*
X116074359Y-76941590D01*
X116091138Y-76993086D01*
X116119142Y-77059851D01*
X116129122Y-77081172D01*
X116172672Y-77176159D01*
X116219134Y-77283937D01*
X116256877Y-77377192D01*
X116284073Y-77446406D01*
X116305675Y-77499006D01*
X116318158Y-77526497D01*
X116319709Y-77528616D01*
X116342668Y-77532124D01*
X116396786Y-77541738D01*
X116474868Y-77556089D01*
X116569719Y-77573807D01*
X116674143Y-77593525D01*
X116780944Y-77613874D01*
X116882926Y-77633486D01*
X116972894Y-77650991D01*
X117043653Y-77665022D01*
X117088006Y-77674209D01*
X117098885Y-77676807D01*
X117110122Y-77683218D01*
X117118605Y-77697697D01*
X117124714Y-77725133D01*
X117128832Y-77770411D01*
X117131341Y-77838420D01*
X117132621Y-77934047D01*
X117133054Y-78062180D01*
X117133077Y-78114701D01*
X117133077Y-78541845D01*
X117030500Y-78562091D01*
X116973431Y-78573070D01*
X116888269Y-78589095D01*
X116785372Y-78608233D01*
X116675096Y-78628551D01*
X116644615Y-78634132D01*
X116542855Y-78653917D01*
X116454205Y-78673373D01*
X116386108Y-78690697D01*
X116346004Y-78704088D01*
X116339323Y-78708079D01*
X116322919Y-78736342D01*
X116299399Y-78791109D01*
X116273316Y-78861588D01*
X116268142Y-78876769D01*
X116233956Y-78970896D01*
X116191523Y-79077101D01*
X116149997Y-79172473D01*
X116149792Y-79172916D01*
X116080640Y-79322525D01*
X116535512Y-79991617D01*
X116243500Y-80284116D01*
X116155180Y-80371170D01*
X116074625Y-80447909D01*
X116006360Y-80510237D01*
X115954908Y-80554056D01*
X115924794Y-80575270D01*
X115920474Y-80576616D01*
X115895111Y-80566016D01*
X115843358Y-80536547D01*
X115770868Y-80491705D01*
X115683294Y-80434984D01*
X115588612Y-80371462D01*
X115492516Y-80306668D01*
X115406837Y-80250287D01*
X115337016Y-80205788D01*
X115288494Y-80176639D01*
X115266782Y-80166308D01*
X115240293Y-80175050D01*
X115190062Y-80198087D01*
X115126451Y-80230631D01*
X115119708Y-80234249D01*
X115034046Y-80277210D01*
X114975306Y-80298279D01*
X114938772Y-80298503D01*
X114919731Y-80278928D01*
X114919620Y-80278654D01*
X114910102Y-80255472D01*
X114887403Y-80200441D01*
X114853282Y-80117822D01*
X114809500Y-80011872D01*
X114757816Y-79886852D01*
X114699992Y-79747020D01*
X114643991Y-79611637D01*
X114582447Y-79462234D01*
X114525939Y-79323832D01*
X114476161Y-79200673D01*
X114434806Y-79097002D01*
X114403568Y-79017059D01*
X114384141Y-78965088D01*
X114378154Y-78945692D01*
X114393168Y-78923443D01*
X114432439Y-78887982D01*
X114484807Y-78848887D01*
X114633941Y-78725245D01*
X114750511Y-78583522D01*
X114833118Y-78426704D01*
X114880366Y-78257775D01*
X114890857Y-78079722D01*
X114883231Y-77997539D01*
X114841682Y-77827031D01*
X114770123Y-77676459D01*
X114672995Y-77547309D01*
X114554734Y-77441064D01*
X114419780Y-77359210D01*
X114272571Y-77303232D01*
X114117544Y-77274615D01*
X113959139Y-77274844D01*
X113801794Y-77305405D01*
X113649946Y-77367782D01*
X113508035Y-77463460D01*
X113448803Y-77517572D01*
X113335203Y-77656520D01*
X113256106Y-77808361D01*
X113210986Y-77968667D01*
X113199316Y-78133012D01*
X113220569Y-78296971D01*
X113274220Y-78456118D01*
X113359740Y-78606025D01*
X113476605Y-78742267D01*
X113607193Y-78848887D01*
X113661588Y-78889642D01*
X113700014Y-78924718D01*
X113713846Y-78945726D01*
X113706603Y-78968635D01*
X113686005Y-79023365D01*
X113653746Y-79105672D01*
X113611521Y-79211315D01*
X113561023Y-79336050D01*
X113503948Y-79475636D01*
X113447854Y-79611670D01*
X113385967Y-79761201D01*
X113328644Y-79899767D01*
X113277644Y-80023107D01*
X113234727Y-80126964D01*
X113201653Y-80207080D01*
X113180181Y-80259195D01*
X113172225Y-80278654D01*
X113153429Y-80298423D01*
X113117074Y-80298365D01*
X113058479Y-80277441D01*
X112972968Y-80234613D01*
X112972292Y-80234249D01*
X112907907Y-80201012D01*
X112855861Y-80176802D01*
X112826512Y-80166404D01*
X112825217Y-80166308D01*
X112803124Y-80176855D01*
X112754348Y-80206184D01*
X112684331Y-80250827D01*
X112598514Y-80307314D01*
X112503388Y-80371462D01*
X112406540Y-80436411D01*
X112319253Y-80492896D01*
X112247181Y-80537421D01*
X112195977Y-80566490D01*
X112171526Y-80576616D01*
X112149010Y-80563307D01*
X112103742Y-80526112D01*
X112040244Y-80469128D01*
X111963039Y-80396449D01*
X111876651Y-80312171D01*
X111848399Y-80284016D01*
X111556287Y-79991416D01*
X111778631Y-79665104D01*
X111846202Y-79564897D01*
X111905507Y-79474963D01*
X111953217Y-79400510D01*
X111986007Y-79346751D01*
X112000548Y-79318894D01*
X112000974Y-79316912D01*
X111993308Y-79290655D01*
X111972689Y-79237837D01*
X111942685Y-79167310D01*
X111921625Y-79120093D01*
X111882248Y-79029694D01*
X111845165Y-78938366D01*
X111816415Y-78861200D01*
X111808605Y-78837692D01*
X111786417Y-78774916D01*
X111764727Y-78726411D01*
X111752813Y-78708079D01*
X111726523Y-78696859D01*
X111669142Y-78680954D01*
X111588118Y-78662167D01*
X111490895Y-78642299D01*
X111447385Y-78634132D01*
X111336896Y-78613829D01*
X111230916Y-78594170D01*
X111139801Y-78577088D01*
X111073908Y-78564518D01*
X111061500Y-78562091D01*
X110958923Y-78541845D01*
X110958923Y-78114701D01*
X110959153Y-77974246D01*
X110960099Y-77867979D01*
X110962141Y-77791013D01*
X110965662Y-77738460D01*
X110971043Y-77705433D01*
X110978666Y-77687045D01*
X110988912Y-77678408D01*
X110993115Y-77676807D01*
X111018470Y-77671127D01*
X111074484Y-77659795D01*
X111153964Y-77644179D01*
X111249712Y-77625647D01*
X111354533Y-77605569D01*
X111461232Y-77585312D01*
X111562613Y-77566246D01*
X111651479Y-77549739D01*
X111720637Y-77537159D01*
X111762889Y-77529875D01*
X111772290Y-77528616D01*
X111780807Y-77511763D01*
X111799660Y-77466870D01*
X111825324Y-77402430D01*
X111835123Y-77377192D01*
X111874648Y-77279686D01*
X111921192Y-77171959D01*
X111962877Y-77081172D01*
X111993550Y-77011753D01*
X112013956Y-76954710D01*
X112020768Y-76919777D01*
X112019682Y-76915095D01*
X112005285Y-76892991D01*
X111972412Y-76843831D01*
X111924590Y-76772848D01*
X111865348Y-76685278D01*
X111798215Y-76586357D01*
X111784941Y-76566830D01*
X111707046Y-76451140D01*
X111649787Y-76363044D01*
X111610881Y-76298486D01*
X111588044Y-76253411D01*
X111578994Y-76223763D01*
X111581448Y-76205485D01*
X111581511Y-76205369D01*
X111600827Y-76181361D01*
X111643551Y-76134947D01*
X111705051Y-76070937D01*
X111780698Y-75994145D01*
X111865861Y-75909382D01*
X111875465Y-75899922D01*
X111982790Y-75795989D01*
X112065615Y-75719675D01*
X112125605Y-75669571D01*
X112164423Y-75644270D01*
X112181520Y-75641004D01*
X112206473Y-75655250D01*
X112258255Y-75688156D01*
X112331520Y-75736208D01*
X112420920Y-75795890D01*
X112521111Y-75863688D01*
X112544501Y-75879639D01*
X112876593Y-76106420D01*
X113026565Y-76038353D01*
X113117770Y-75998685D01*
X113215669Y-75958791D01*
X113299831Y-75926983D01*
X113303538Y-75925674D01*
X113369369Y-75901576D01*
X113420116Y-75881200D01*
X113444842Y-75868936D01*
X113444884Y-75868901D01*
X113452729Y-75846734D01*
X113466066Y-75792217D01*
X113483570Y-75711480D01*
X113503917Y-75610650D01*
X113525782Y-75495856D01*
X113527571Y-75486178D01*
X113549504Y-75367904D01*
X113569640Y-75260542D01*
X113586680Y-75170917D01*
X113599328Y-75105851D01*
X113606284Y-75072168D01*
X113606406Y-75071654D01*
X113610639Y-75057325D01*
X113618871Y-75046507D01*
X113636033Y-75038706D01*
X113667058Y-75033429D01*
X113716878Y-75030182D01*
X113790424Y-75028472D01*
X113892629Y-75027807D01*
X114028425Y-75027693D01*
X114046000Y-75027692D01*
X114185878Y-75027776D01*
G36*
X118291224Y-81387838D02*
X118368528Y-81438361D01*
X118405814Y-81483590D01*
X118435353Y-81565663D01*
X118437699Y-81630607D01*
X118432385Y-81717445D01*
X118232115Y-81805103D01*
X118134739Y-81849887D01*
X118071113Y-81885913D01*
X118038029Y-81917117D01*
X118032280Y-81947436D01*
X118050658Y-81980805D01*
X118070923Y-82002923D01*
X118129889Y-82038393D01*
X118194024Y-82040879D01*
X118252926Y-82013235D01*
X118296197Y-81958320D01*
X118303936Y-81938928D01*
X118341006Y-81878364D01*
X118383654Y-81852552D01*
X118442154Y-81830471D01*
X118442154Y-81914184D01*
X118436982Y-81971150D01*
X118416723Y-82019189D01*
X118374262Y-82074346D01*
X118367951Y-82081514D01*
X118320720Y-82130585D01*
X118280121Y-82156920D01*
X118229328Y-82169035D01*
X118187220Y-82173003D01*
X118111902Y-82173991D01*
X118058286Y-82161466D01*
X118024838Y-82142869D01*
X117972268Y-82101975D01*
X117935879Y-82057748D01*
X117912850Y-82002126D01*
X117900359Y-81927047D01*
X117895587Y-81824449D01*
X117895206Y-81772376D01*
X117896501Y-81709948D01*
X118014471Y-81709948D01*
X118015839Y-81743438D01*
X118019249Y-81748923D01*
X118041753Y-81741472D01*
X118090182Y-81721753D01*
X118154908Y-81693718D01*
X118168443Y-81687692D01*
X118250244Y-81646096D01*
X118295312Y-81609538D01*
X118305217Y-81575296D01*
X118281526Y-81540648D01*
X118261960Y-81525339D01*
X118191360Y-81494721D01*
X118125280Y-81499780D01*
X118069959Y-81537151D01*
X118031636Y-81603473D01*
X118019349Y-81656116D01*
X118014471Y-81709948D01*
X117896501Y-81709948D01*
X117897730Y-81650720D01*
X117907032Y-81560710D01*
X117925460Y-81495167D01*
X117955360Y-81446912D01*
X117999080Y-81408767D01*
X118018141Y-81396440D01*
X118104726Y-81364336D01*
X118199522Y-81362316D01*
X118291224Y-81387838D01*
X118291224Y-81387838D01*
G37*
X118291224Y-81387838D02*
X118368528Y-81438361D01*
X118405814Y-81483590D01*
X118435353Y-81565663D01*
X118437699Y-81630607D01*
X118432385Y-81717445D01*
X118232115Y-81805103D01*
X118134739Y-81849887D01*
X118071113Y-81885913D01*
X118038029Y-81917117D01*
X118032280Y-81947436D01*
X118050658Y-81980805D01*
X118070923Y-82002923D01*
X118129889Y-82038393D01*
X118194024Y-82040879D01*
X118252926Y-82013235D01*
X118296197Y-81958320D01*
X118303936Y-81938928D01*
X118341006Y-81878364D01*
X118383654Y-81852552D01*
X118442154Y-81830471D01*
X118442154Y-81914184D01*
X118436982Y-81971150D01*
X118416723Y-82019189D01*
X118374262Y-82074346D01*
X118367951Y-82081514D01*
X118320720Y-82130585D01*
X118280121Y-82156920D01*
X118229328Y-82169035D01*
X118187220Y-82173003D01*
X118111902Y-82173991D01*
X118058286Y-82161466D01*
X118024838Y-82142869D01*
X117972268Y-82101975D01*
X117935879Y-82057748D01*
X117912850Y-82002126D01*
X117900359Y-81927047D01*
X117895587Y-81824449D01*
X117895206Y-81772376D01*
X117896501Y-81709948D01*
X118014471Y-81709948D01*
X118015839Y-81743438D01*
X118019249Y-81748923D01*
X118041753Y-81741472D01*
X118090182Y-81721753D01*
X118154908Y-81693718D01*
X118168443Y-81687692D01*
X118250244Y-81646096D01*
X118295312Y-81609538D01*
X118305217Y-81575296D01*
X118281526Y-81540648D01*
X118261960Y-81525339D01*
X118191360Y-81494721D01*
X118125280Y-81499780D01*
X118069959Y-81537151D01*
X118031636Y-81603473D01*
X118019349Y-81656116D01*
X118014471Y-81709948D01*
X117896501Y-81709948D01*
X117897730Y-81650720D01*
X117907032Y-81560710D01*
X117925460Y-81495167D01*
X117955360Y-81446912D01*
X117999080Y-81408767D01*
X118018141Y-81396440D01*
X118104726Y-81364336D01*
X118199522Y-81362316D01*
X118291224Y-81387838D01*
G36*
X117616807Y-81376782D02*
X117640161Y-81386988D01*
X117695902Y-81431134D01*
X117743569Y-81494967D01*
X117773048Y-81563087D01*
X117777846Y-81596670D01*
X117761760Y-81643556D01*
X117726475Y-81668365D01*
X117688644Y-81683387D01*
X117671321Y-81686155D01*
X117662886Y-81666066D01*
X117646230Y-81622351D01*
X117638923Y-81602598D01*
X117597948Y-81534271D01*
X117538622Y-81500191D01*
X117462552Y-81501239D01*
X117456918Y-81502581D01*
X117416305Y-81521836D01*
X117386448Y-81559375D01*
X117366055Y-81619809D01*
X117353836Y-81707751D01*
X117348500Y-81827813D01*
X117348000Y-81891698D01*
X117347752Y-81992403D01*
X117346126Y-82061054D01*
X117341801Y-82104673D01*
X117333454Y-82130282D01*
X117319765Y-82144903D01*
X117299411Y-82155558D01*
X117298234Y-82156095D01*
X117259038Y-82172667D01*
X117239619Y-82178769D01*
X117236635Y-82160319D01*
X117234081Y-82109323D01*
X117232140Y-82032308D01*
X117230997Y-81935805D01*
X117230769Y-81865184D01*
X117231932Y-81728525D01*
X117236479Y-81624851D01*
X117245999Y-81548108D01*
X117262081Y-81492246D01*
X117286313Y-81451212D01*
X117320286Y-81418954D01*
X117353833Y-81396440D01*
X117434499Y-81366476D01*
X117528381Y-81359718D01*
X117616807Y-81376782D01*
X117616807Y-81376782D01*
G37*
X117616807Y-81376782D02*
X117640161Y-81386988D01*
X117695902Y-81431134D01*
X117743569Y-81494967D01*
X117773048Y-81563087D01*
X117777846Y-81596670D01*
X117761760Y-81643556D01*
X117726475Y-81668365D01*
X117688644Y-81683387D01*
X117671321Y-81686155D01*
X117662886Y-81666066D01*
X117646230Y-81622351D01*
X117638923Y-81602598D01*
X117597948Y-81534271D01*
X117538622Y-81500191D01*
X117462552Y-81501239D01*
X117456918Y-81502581D01*
X117416305Y-81521836D01*
X117386448Y-81559375D01*
X117366055Y-81619809D01*
X117353836Y-81707751D01*
X117348500Y-81827813D01*
X117348000Y-81891698D01*
X117347752Y-81992403D01*
X117346126Y-82061054D01*
X117341801Y-82104673D01*
X117333454Y-82130282D01*
X117319765Y-82144903D01*
X117299411Y-82155558D01*
X117298234Y-82156095D01*
X117259038Y-82172667D01*
X117239619Y-82178769D01*
X117236635Y-82160319D01*
X117234081Y-82109323D01*
X117232140Y-82032308D01*
X117230997Y-81935805D01*
X117230769Y-81865184D01*
X117231932Y-81728525D01*
X117236479Y-81624851D01*
X117245999Y-81548108D01*
X117262081Y-81492246D01*
X117286313Y-81451212D01*
X117320286Y-81418954D01*
X117353833Y-81396440D01*
X117434499Y-81366476D01*
X117528381Y-81359718D01*
X117616807Y-81376782D01*
G36*
X116933333Y-81373528D02*
X116989590Y-81399117D01*
X117033747Y-81430124D01*
X117066101Y-81464795D01*
X117088438Y-81509520D01*
X117102546Y-81570692D01*
X117110211Y-81654701D01*
X117113220Y-81767940D01*
X117113538Y-81842509D01*
X117113538Y-82133420D01*
X117063773Y-82156095D01*
X117024576Y-82172667D01*
X117005157Y-82178769D01*
X117001442Y-82160610D01*
X116998495Y-82111648D01*
X116996691Y-82040153D01*
X116996308Y-81983385D01*
X116994661Y-81901371D01*
X116990222Y-81836309D01*
X116983740Y-81796467D01*
X116978590Y-81788000D01*
X116943977Y-81796646D01*
X116889640Y-81818823D01*
X116826722Y-81848886D01*
X116766368Y-81881192D01*
X116719721Y-81910098D01*
X116697926Y-81929961D01*
X116697839Y-81930175D01*
X116699714Y-81966935D01*
X116716525Y-82002026D01*
X116746039Y-82030528D01*
X116789116Y-82040061D01*
X116825932Y-82038950D01*
X116878074Y-82038133D01*
X116905444Y-82050349D01*
X116921882Y-82082624D01*
X116923955Y-82088710D01*
X116931081Y-82134739D01*
X116912024Y-82162687D01*
X116862353Y-82176007D01*
X116808697Y-82178470D01*
X116712142Y-82160210D01*
X116662159Y-82134131D01*
X116600429Y-82072868D01*
X116567690Y-81997670D01*
X116564753Y-81918211D01*
X116592424Y-81844167D01*
X116634047Y-81797769D01*
X116675604Y-81771793D01*
X116740922Y-81738907D01*
X116817038Y-81705557D01*
X116829726Y-81700461D01*
X116913333Y-81663565D01*
X116961530Y-81631046D01*
X116977030Y-81598718D01*
X116962550Y-81562394D01*
X116937692Y-81534000D01*
X116878939Y-81499039D01*
X116814293Y-81496417D01*
X116755008Y-81523358D01*
X116712339Y-81577088D01*
X116706739Y-81590950D01*
X116674133Y-81641936D01*
X116626530Y-81679787D01*
X116566461Y-81710850D01*
X116566461Y-81622768D01*
X116569997Y-81568951D01*
X116585156Y-81526534D01*
X116618768Y-81481279D01*
X116651035Y-81446420D01*
X116701209Y-81397062D01*
X116740193Y-81370547D01*
X116782064Y-81359911D01*
X116829460Y-81358154D01*
X116933333Y-81373528D01*
X116933333Y-81373528D01*
G37*
X116933333Y-81373528D02*
X116989590Y-81399117D01*
X117033747Y-81430124D01*
X117066101Y-81464795D01*
X117088438Y-81509520D01*
X117102546Y-81570692D01*
X117110211Y-81654701D01*
X117113220Y-81767940D01*
X117113538Y-81842509D01*
X117113538Y-82133420D01*
X117063773Y-82156095D01*
X117024576Y-82172667D01*
X117005157Y-82178769D01*
X117001442Y-82160610D01*
X116998495Y-82111648D01*
X116996691Y-82040153D01*
X116996308Y-81983385D01*
X116994661Y-81901371D01*
X116990222Y-81836309D01*
X116983740Y-81796467D01*
X116978590Y-81788000D01*
X116943977Y-81796646D01*
X116889640Y-81818823D01*
X116826722Y-81848886D01*
X116766368Y-81881192D01*
X116719721Y-81910098D01*
X116697926Y-81929961D01*
X116697839Y-81930175D01*
X116699714Y-81966935D01*
X116716525Y-82002026D01*
X116746039Y-82030528D01*
X116789116Y-82040061D01*
X116825932Y-82038950D01*
X116878074Y-82038133D01*
X116905444Y-82050349D01*
X116921882Y-82082624D01*
X116923955Y-82088710D01*
X116931081Y-82134739D01*
X116912024Y-82162687D01*
X116862353Y-82176007D01*
X116808697Y-82178470D01*
X116712142Y-82160210D01*
X116662159Y-82134131D01*
X116600429Y-82072868D01*
X116567690Y-81997670D01*
X116564753Y-81918211D01*
X116592424Y-81844167D01*
X116634047Y-81797769D01*
X116675604Y-81771793D01*
X116740922Y-81738907D01*
X116817038Y-81705557D01*
X116829726Y-81700461D01*
X116913333Y-81663565D01*
X116961530Y-81631046D01*
X116977030Y-81598718D01*
X116962550Y-81562394D01*
X116937692Y-81534000D01*
X116878939Y-81499039D01*
X116814293Y-81496417D01*
X116755008Y-81523358D01*
X116712339Y-81577088D01*
X116706739Y-81590950D01*
X116674133Y-81641936D01*
X116626530Y-81679787D01*
X116566461Y-81710850D01*
X116566461Y-81622768D01*
X116569997Y-81568951D01*
X116585156Y-81526534D01*
X116618768Y-81481279D01*
X116651035Y-81446420D01*
X116701209Y-81397062D01*
X116740193Y-81370547D01*
X116782064Y-81359911D01*
X116829460Y-81358154D01*
X116933333Y-81373528D01*
G36*
X116441929Y-81376662D02*
X116444911Y-81428068D01*
X116447247Y-81506192D01*
X116448749Y-81604857D01*
X116449231Y-81708343D01*
X116449231Y-82058533D01*
X116387401Y-82120363D01*
X116344793Y-82158462D01*
X116307390Y-82173895D01*
X116256270Y-82172918D01*
X116235978Y-82170433D01*
X116172554Y-82163200D01*
X116120095Y-82159055D01*
X116107308Y-82158672D01*
X116064199Y-82161176D01*
X116002544Y-82167462D01*
X115978638Y-82170433D01*
X115919922Y-82175028D01*
X115880464Y-82165046D01*
X115841338Y-82134228D01*
X115827215Y-82120363D01*
X115765385Y-82058533D01*
X115765385Y-81403503D01*
X115815150Y-81380829D01*
X115858002Y-81364034D01*
X115883073Y-81358154D01*
X115889501Y-81376736D01*
X115895509Y-81428655D01*
X115900697Y-81508172D01*
X115904664Y-81609546D01*
X115906577Y-81695192D01*
X115911923Y-82032231D01*
X115958560Y-82038825D01*
X116000976Y-82034214D01*
X116021760Y-82019287D01*
X116027570Y-81991377D01*
X116032530Y-81931925D01*
X116036246Y-81848466D01*
X116038324Y-81748532D01*
X116038624Y-81697104D01*
X116038923Y-81401054D01*
X116100454Y-81379604D01*
X116144004Y-81365020D01*
X116167694Y-81358219D01*
X116168377Y-81358154D01*
X116170754Y-81376642D01*
X116173366Y-81427906D01*
X116175995Y-81505649D01*
X116178421Y-81603574D01*
X116180115Y-81695192D01*
X116185461Y-82032231D01*
X116302692Y-82032231D01*
X116308072Y-81724746D01*
X116313451Y-81417261D01*
X116370601Y-81387707D01*
X116412797Y-81367413D01*
X116437770Y-81358204D01*
X116438491Y-81358154D01*
X116441929Y-81376662D01*
X116441929Y-81376662D01*
G37*
X116441929Y-81376662D02*
X116444911Y-81428068D01*
X116447247Y-81506192D01*
X116448749Y-81604857D01*
X116449231Y-81708343D01*
X116449231Y-82058533D01*
X116387401Y-82120363D01*
X116344793Y-82158462D01*
X116307390Y-82173895D01*
X116256270Y-82172918D01*
X116235978Y-82170433D01*
X116172554Y-82163200D01*
X116120095Y-82159055D01*
X116107308Y-82158672D01*
X116064199Y-82161176D01*
X116002544Y-82167462D01*
X115978638Y-82170433D01*
X115919922Y-82175028D01*
X115880464Y-82165046D01*
X115841338Y-82134228D01*
X115827215Y-82120363D01*
X115765385Y-82058533D01*
X115765385Y-81403503D01*
X115815150Y-81380829D01*
X115858002Y-81364034D01*
X115883073Y-81358154D01*
X115889501Y-81376736D01*
X115895509Y-81428655D01*
X115900697Y-81508172D01*
X115904664Y-81609546D01*
X115906577Y-81695192D01*
X115911923Y-82032231D01*
X115958560Y-82038825D01*
X116000976Y-82034214D01*
X116021760Y-82019287D01*
X116027570Y-81991377D01*
X116032530Y-81931925D01*
X116036246Y-81848466D01*
X116038324Y-81748532D01*
X116038624Y-81697104D01*
X116038923Y-81401054D01*
X116100454Y-81379604D01*
X116144004Y-81365020D01*
X116167694Y-81358219D01*
X116168377Y-81358154D01*
X116170754Y-81376642D01*
X116173366Y-81427906D01*
X116175995Y-81505649D01*
X116178421Y-81603574D01*
X116180115Y-81695192D01*
X116185461Y-82032231D01*
X116302692Y-82032231D01*
X116308072Y-81724746D01*
X116313451Y-81417261D01*
X116370601Y-81387707D01*
X116412797Y-81367413D01*
X116437770Y-81358204D01*
X116438491Y-81358154D01*
X116441929Y-81376662D01*
G36*
X115648081Y-81520289D02*
X115647833Y-81666320D01*
X115646872Y-81778655D01*
X115644794Y-81862678D01*
X115641193Y-81923769D01*
X115635665Y-81967309D01*
X115627804Y-81998679D01*
X115617207Y-82023262D01*
X115609182Y-82037294D01*
X115542728Y-82113388D01*
X115458470Y-82161084D01*
X115365249Y-82178199D01*
X115271900Y-82162546D01*
X115216312Y-82134418D01*
X115157957Y-82085760D01*
X115118186Y-82026333D01*
X115094190Y-81948507D01*
X115083161Y-81844652D01*
X115081599Y-81768462D01*
X115081809Y-81762986D01*
X115218308Y-81762986D01*
X115219141Y-81850355D01*
X115222961Y-81908192D01*
X115231746Y-81946029D01*
X115247474Y-81973398D01*
X115266266Y-81994042D01*
X115329375Y-82033890D01*
X115397137Y-82037295D01*
X115461179Y-82004025D01*
X115466164Y-81999517D01*
X115487439Y-81976067D01*
X115500779Y-81948166D01*
X115508001Y-81906641D01*
X115510923Y-81842316D01*
X115511385Y-81771200D01*
X115510383Y-81681858D01*
X115506238Y-81622258D01*
X115497236Y-81583089D01*
X115481667Y-81555040D01*
X115468902Y-81540144D01*
X115409600Y-81502575D01*
X115341301Y-81498057D01*
X115276110Y-81526753D01*
X115263528Y-81537406D01*
X115242111Y-81561063D01*
X115228744Y-81589251D01*
X115221566Y-81631245D01*
X115218719Y-81696319D01*
X115218308Y-81762986D01*
X115081809Y-81762986D01*
X115086322Y-81645765D01*
X115102362Y-81553577D01*
X115132528Y-81484269D01*
X115179629Y-81430211D01*
X115216312Y-81402505D01*
X115282990Y-81372572D01*
X115360272Y-81358678D01*
X115432110Y-81362397D01*
X115472308Y-81377400D01*
X115488082Y-81381670D01*
X115498550Y-81365750D01*
X115505856Y-81323089D01*
X115511385Y-81258106D01*
X115517437Y-81185732D01*
X115525844Y-81142187D01*
X115541141Y-81117287D01*
X115567864Y-81100845D01*
X115584654Y-81093564D01*
X115648154Y-81066963D01*
X115648081Y-81520289D01*
X115648081Y-81520289D01*
G37*
X115648081Y-81520289D02*
X115647833Y-81666320D01*
X115646872Y-81778655D01*
X115644794Y-81862678D01*
X115641193Y-81923769D01*
X115635665Y-81967309D01*
X115627804Y-81998679D01*
X115617207Y-82023262D01*
X115609182Y-82037294D01*
X115542728Y-82113388D01*
X115458470Y-82161084D01*
X115365249Y-82178199D01*
X115271900Y-82162546D01*
X115216312Y-82134418D01*
X115157957Y-82085760D01*
X115118186Y-82026333D01*
X115094190Y-81948507D01*
X115083161Y-81844652D01*
X115081599Y-81768462D01*
X115081809Y-81762986D01*
X115218308Y-81762986D01*
X115219141Y-81850355D01*
X115222961Y-81908192D01*
X115231746Y-81946029D01*
X115247474Y-81973398D01*
X115266266Y-81994042D01*
X115329375Y-82033890D01*
X115397137Y-82037295D01*
X115461179Y-82004025D01*
X115466164Y-81999517D01*
X115487439Y-81976067D01*
X115500779Y-81948166D01*
X115508001Y-81906641D01*
X115510923Y-81842316D01*
X115511385Y-81771200D01*
X115510383Y-81681858D01*
X115506238Y-81622258D01*
X115497236Y-81583089D01*
X115481667Y-81555040D01*
X115468902Y-81540144D01*
X115409600Y-81502575D01*
X115341301Y-81498057D01*
X115276110Y-81526753D01*
X115263528Y-81537406D01*
X115242111Y-81561063D01*
X115228744Y-81589251D01*
X115221566Y-81631245D01*
X115218719Y-81696319D01*
X115218308Y-81762986D01*
X115081809Y-81762986D01*
X115086322Y-81645765D01*
X115102362Y-81553577D01*
X115132528Y-81484269D01*
X115179629Y-81430211D01*
X115216312Y-81402505D01*
X115282990Y-81372572D01*
X115360272Y-81358678D01*
X115432110Y-81362397D01*
X115472308Y-81377400D01*
X115488082Y-81381670D01*
X115498550Y-81365750D01*
X115505856Y-81323089D01*
X115511385Y-81258106D01*
X115517437Y-81185732D01*
X115525844Y-81142187D01*
X115541141Y-81117287D01*
X115567864Y-81100845D01*
X115584654Y-81093564D01*
X115648154Y-81066963D01*
X115648081Y-81520289D01*
G36*
X114759362Y-81364670D02*
X114848117Y-81397421D01*
X114920022Y-81455350D01*
X114948144Y-81496128D01*
X114978802Y-81570954D01*
X114978165Y-81625058D01*
X114945987Y-81661446D01*
X114934081Y-81667633D01*
X114882675Y-81686925D01*
X114856422Y-81681982D01*
X114847530Y-81649587D01*
X114847077Y-81631692D01*
X114830797Y-81565859D01*
X114788365Y-81519807D01*
X114729388Y-81497564D01*
X114663475Y-81503161D01*
X114609895Y-81532229D01*
X114591798Y-81548810D01*
X114578971Y-81568925D01*
X114570306Y-81599332D01*
X114564696Y-81646788D01*
X114561035Y-81718050D01*
X114558215Y-81819875D01*
X114557484Y-81852115D01*
X114554820Y-81962410D01*
X114551792Y-82040036D01*
X114547250Y-82091396D01*
X114540046Y-82122890D01*
X114529033Y-82140920D01*
X114513060Y-82151888D01*
X114502834Y-82156733D01*
X114459406Y-82173301D01*
X114433842Y-82178769D01*
X114425395Y-82160507D01*
X114420239Y-82105296D01*
X114418346Y-82012499D01*
X114419689Y-81881478D01*
X114420107Y-81861269D01*
X114423058Y-81741733D01*
X114426548Y-81654449D01*
X114431514Y-81592591D01*
X114438893Y-81549336D01*
X114449624Y-81517860D01*
X114464645Y-81491339D01*
X114472502Y-81479975D01*
X114517553Y-81429692D01*
X114567940Y-81390581D01*
X114574108Y-81387167D01*
X114664458Y-81360212D01*
X114759362Y-81364670D01*
X114759362Y-81364670D01*
G37*
X114759362Y-81364670D02*
X114848117Y-81397421D01*
X114920022Y-81455350D01*
X114948144Y-81496128D01*
X114978802Y-81570954D01*
X114978165Y-81625058D01*
X114945987Y-81661446D01*
X114934081Y-81667633D01*
X114882675Y-81686925D01*
X114856422Y-81681982D01*
X114847530Y-81649587D01*
X114847077Y-81631692D01*
X114830797Y-81565859D01*
X114788365Y-81519807D01*
X114729388Y-81497564D01*
X114663475Y-81503161D01*
X114609895Y-81532229D01*
X114591798Y-81548810D01*
X114578971Y-81568925D01*
X114570306Y-81599332D01*
X114564696Y-81646788D01*
X114561035Y-81718050D01*
X114558215Y-81819875D01*
X114557484Y-81852115D01*
X114554820Y-81962410D01*
X114551792Y-82040036D01*
X114547250Y-82091396D01*
X114540046Y-82122890D01*
X114529033Y-82140920D01*
X114513060Y-82151888D01*
X114502834Y-82156733D01*
X114459406Y-82173301D01*
X114433842Y-82178769D01*
X114425395Y-82160507D01*
X114420239Y-82105296D01*
X114418346Y-82012499D01*
X114419689Y-81881478D01*
X114420107Y-81861269D01*
X114423058Y-81741733D01*
X114426548Y-81654449D01*
X114431514Y-81592591D01*
X114438893Y-81549336D01*
X114449624Y-81517860D01*
X114464645Y-81491339D01*
X114472502Y-81479975D01*
X114517553Y-81429692D01*
X114567940Y-81390581D01*
X114574108Y-81387167D01*
X114664458Y-81360212D01*
X114759362Y-81364670D01*
G36*
X114099501Y-81366303D02*
X114176060Y-81394733D01*
X114176936Y-81395279D01*
X114224285Y-81430127D01*
X114259241Y-81470852D01*
X114283825Y-81523925D01*
X114300062Y-81595814D01*
X114309975Y-81692992D01*
X114315586Y-81821928D01*
X114316077Y-81840298D01*
X114323141Y-82117287D01*
X114263695Y-82148028D01*
X114220681Y-82168802D01*
X114194710Y-82178646D01*
X114193509Y-82178769D01*
X114189014Y-82160606D01*
X114185444Y-82111612D01*
X114183248Y-82040031D01*
X114182769Y-81982068D01*
X114182758Y-81888170D01*
X114178466Y-81829203D01*
X114163503Y-81801079D01*
X114131482Y-81799706D01*
X114076014Y-81820998D01*
X113992269Y-81860136D01*
X113930689Y-81892643D01*
X113899017Y-81920845D01*
X113889706Y-81951582D01*
X113889692Y-81953104D01*
X113905057Y-82006054D01*
X113950547Y-82034660D01*
X114020166Y-82038803D01*
X114070313Y-82038084D01*
X114096754Y-82052527D01*
X114113243Y-82087218D01*
X114122733Y-82131416D01*
X114109057Y-82156493D01*
X114103907Y-82160082D01*
X114055425Y-82174496D01*
X113987531Y-82176537D01*
X113917612Y-82166983D01*
X113868068Y-82149522D01*
X113799570Y-82091364D01*
X113760634Y-82010408D01*
X113752923Y-81947160D01*
X113758807Y-81890111D01*
X113780101Y-81843542D01*
X113822265Y-81802181D01*
X113890759Y-81760755D01*
X113991044Y-81713993D01*
X113997154Y-81711350D01*
X114087490Y-81669617D01*
X114143235Y-81635391D01*
X114167129Y-81604635D01*
X114161913Y-81573311D01*
X114130328Y-81537383D01*
X114120883Y-81529116D01*
X114057617Y-81497058D01*
X113992064Y-81498407D01*
X113934972Y-81529838D01*
X113897093Y-81588024D01*
X113893574Y-81599446D01*
X113859300Y-81654837D01*
X113815809Y-81681518D01*
X113752923Y-81707960D01*
X113752923Y-81639548D01*
X113772052Y-81540110D01*
X113828831Y-81448902D01*
X113858378Y-81418389D01*
X113925542Y-81379228D01*
X114010956Y-81361500D01*
X114099501Y-81366303D01*
X114099501Y-81366303D01*
G37*
X114099501Y-81366303D02*
X114176060Y-81394733D01*
X114176936Y-81395279D01*
X114224285Y-81430127D01*
X114259241Y-81470852D01*
X114283825Y-81523925D01*
X114300062Y-81595814D01*
X114309975Y-81692992D01*
X114315586Y-81821928D01*
X114316077Y-81840298D01*
X114323141Y-82117287D01*
X114263695Y-82148028D01*
X114220681Y-82168802D01*
X114194710Y-82178646D01*
X114193509Y-82178769D01*
X114189014Y-82160606D01*
X114185444Y-82111612D01*
X114183248Y-82040031D01*
X114182769Y-81982068D01*
X114182758Y-81888170D01*
X114178466Y-81829203D01*
X114163503Y-81801079D01*
X114131482Y-81799706D01*
X114076014Y-81820998D01*
X113992269Y-81860136D01*
X113930689Y-81892643D01*
X113899017Y-81920845D01*
X113889706Y-81951582D01*
X113889692Y-81953104D01*
X113905057Y-82006054D01*
X113950547Y-82034660D01*
X114020166Y-82038803D01*
X114070313Y-82038084D01*
X114096754Y-82052527D01*
X114113243Y-82087218D01*
X114122733Y-82131416D01*
X114109057Y-82156493D01*
X114103907Y-82160082D01*
X114055425Y-82174496D01*
X113987531Y-82176537D01*
X113917612Y-82166983D01*
X113868068Y-82149522D01*
X113799570Y-82091364D01*
X113760634Y-82010408D01*
X113752923Y-81947160D01*
X113758807Y-81890111D01*
X113780101Y-81843542D01*
X113822265Y-81802181D01*
X113890759Y-81760755D01*
X113991044Y-81713993D01*
X113997154Y-81711350D01*
X114087490Y-81669617D01*
X114143235Y-81635391D01*
X114167129Y-81604635D01*
X114161913Y-81573311D01*
X114130328Y-81537383D01*
X114120883Y-81529116D01*
X114057617Y-81497058D01*
X113992064Y-81498407D01*
X113934972Y-81529838D01*
X113897093Y-81588024D01*
X113893574Y-81599446D01*
X113859300Y-81654837D01*
X113815809Y-81681518D01*
X113752923Y-81707960D01*
X113752923Y-81639548D01*
X113772052Y-81540110D01*
X113828831Y-81448902D01*
X113858378Y-81418389D01*
X113925542Y-81379228D01*
X114010956Y-81361500D01*
X114099501Y-81366303D01*
G36*
X113205846Y-81232120D02*
X113211572Y-81311980D01*
X113218149Y-81359039D01*
X113227262Y-81379566D01*
X113240598Y-81379829D01*
X113244923Y-81377378D01*
X113302444Y-81359636D01*
X113377268Y-81360672D01*
X113453339Y-81378910D01*
X113500918Y-81402505D01*
X113549702Y-81440198D01*
X113585364Y-81482855D01*
X113609845Y-81537057D01*
X113625087Y-81609384D01*
X113633030Y-81706419D01*
X113635616Y-81834742D01*
X113635662Y-81859358D01*
X113635692Y-82135870D01*
X113574161Y-82157320D01*
X113530459Y-82171912D01*
X113506482Y-82178706D01*
X113505777Y-82178769D01*
X113503415Y-82160345D01*
X113501406Y-82109526D01*
X113499901Y-82032993D01*
X113499053Y-81937430D01*
X113498923Y-81879329D01*
X113498651Y-81764771D01*
X113497252Y-81682667D01*
X113493849Y-81626393D01*
X113487567Y-81589326D01*
X113477529Y-81564844D01*
X113462861Y-81546325D01*
X113453702Y-81537406D01*
X113390789Y-81501466D01*
X113322136Y-81498775D01*
X113259848Y-81529170D01*
X113248329Y-81540144D01*
X113231433Y-81560779D01*
X113219714Y-81585256D01*
X113212233Y-81620647D01*
X113208054Y-81674026D01*
X113206237Y-81752466D01*
X113205846Y-81860617D01*
X113205846Y-82135870D01*
X113144315Y-82157320D01*
X113100613Y-82171912D01*
X113076636Y-82178706D01*
X113075930Y-82178769D01*
X113074126Y-82160069D01*
X113072500Y-82107322D01*
X113071117Y-82025557D01*
X113070042Y-81919805D01*
X113069340Y-81795094D01*
X113069077Y-81656455D01*
X113069077Y-81121806D01*
X113196077Y-81068236D01*
X113205846Y-81232120D01*
X113205846Y-81232120D01*
G37*
X113205846Y-81232120D02*
X113211572Y-81311980D01*
X113218149Y-81359039D01*
X113227262Y-81379566D01*
X113240598Y-81379829D01*
X113244923Y-81377378D01*
X113302444Y-81359636D01*
X113377268Y-81360672D01*
X113453339Y-81378910D01*
X113500918Y-81402505D01*
X113549702Y-81440198D01*
X113585364Y-81482855D01*
X113609845Y-81537057D01*
X113625087Y-81609384D01*
X113633030Y-81706419D01*
X113635616Y-81834742D01*
X113635662Y-81859358D01*
X113635692Y-82135870D01*
X113574161Y-82157320D01*
X113530459Y-82171912D01*
X113506482Y-82178706D01*
X113505777Y-82178769D01*
X113503415Y-82160345D01*
X113501406Y-82109526D01*
X113499901Y-82032993D01*
X113499053Y-81937430D01*
X113498923Y-81879329D01*
X113498651Y-81764771D01*
X113497252Y-81682667D01*
X113493849Y-81626393D01*
X113487567Y-81589326D01*
X113477529Y-81564844D01*
X113462861Y-81546325D01*
X113453702Y-81537406D01*
X113390789Y-81501466D01*
X113322136Y-81498775D01*
X113259848Y-81529170D01*
X113248329Y-81540144D01*
X113231433Y-81560779D01*
X113219714Y-81585256D01*
X113212233Y-81620647D01*
X113208054Y-81674026D01*
X113206237Y-81752466D01*
X113205846Y-81860617D01*
X113205846Y-82135870D01*
X113144315Y-82157320D01*
X113100613Y-82171912D01*
X113076636Y-82178706D01*
X113075930Y-82178769D01*
X113074126Y-82160069D01*
X113072500Y-82107322D01*
X113071117Y-82025557D01*
X113070042Y-81919805D01*
X113069340Y-81795094D01*
X113069077Y-81656455D01*
X113069077Y-81121806D01*
X113196077Y-81068236D01*
X113205846Y-81232120D01*
G36*
X111580254Y-81339745D02*
X111657286Y-81391567D01*
X111716816Y-81466412D01*
X111752378Y-81561654D01*
X111759571Y-81631756D01*
X111758754Y-81661009D01*
X111751914Y-81683407D01*
X111733112Y-81703474D01*
X111696408Y-81725733D01*
X111635862Y-81754709D01*
X111545534Y-81794927D01*
X111545077Y-81795129D01*
X111461933Y-81833210D01*
X111393753Y-81867025D01*
X111347505Y-81892933D01*
X111330158Y-81907295D01*
X111330154Y-81907411D01*
X111345443Y-81938685D01*
X111381196Y-81973157D01*
X111422242Y-81997990D01*
X111443037Y-82002923D01*
X111499770Y-81985862D01*
X111548627Y-81943133D01*
X111572465Y-81896155D01*
X111595397Y-81861522D01*
X111640318Y-81822081D01*
X111693123Y-81788009D01*
X111739710Y-81769480D01*
X111749452Y-81768462D01*
X111760418Y-81785215D01*
X111761079Y-81828039D01*
X111753020Y-81885781D01*
X111737827Y-81947289D01*
X111717086Y-82001409D01*
X111716038Y-82003510D01*
X111653621Y-82090660D01*
X111572726Y-82149939D01*
X111480856Y-82179034D01*
X111385513Y-82175634D01*
X111294198Y-82137428D01*
X111290138Y-82134741D01*
X111218306Y-82069642D01*
X111171073Y-81984705D01*
X111144934Y-81873021D01*
X111141426Y-81841643D01*
X111135213Y-81693536D01*
X111142661Y-81624468D01*
X111330154Y-81624468D01*
X111332590Y-81667552D01*
X111345914Y-81680126D01*
X111379132Y-81670719D01*
X111431494Y-81648483D01*
X111490024Y-81620610D01*
X111491479Y-81619872D01*
X111541089Y-81593777D01*
X111561000Y-81576363D01*
X111556090Y-81558107D01*
X111535416Y-81534120D01*
X111482819Y-81499406D01*
X111426177Y-81496856D01*
X111375369Y-81522119D01*
X111340276Y-81570847D01*
X111330154Y-81624468D01*
X111142661Y-81624468D01*
X111147992Y-81575036D01*
X111180778Y-81481055D01*
X111226421Y-81415215D01*
X111308802Y-81348681D01*
X111399546Y-81315676D01*
X111492185Y-81313573D01*
X111580254Y-81339745D01*
X111580254Y-81339745D01*
G37*
X111580254Y-81339745D02*
X111657286Y-81391567D01*
X111716816Y-81466412D01*
X111752378Y-81561654D01*
X111759571Y-81631756D01*
X111758754Y-81661009D01*
X111751914Y-81683407D01*
X111733112Y-81703474D01*
X111696408Y-81725733D01*
X111635862Y-81754709D01*
X111545534Y-81794927D01*
X111545077Y-81795129D01*
X111461933Y-81833210D01*
X111393753Y-81867025D01*
X111347505Y-81892933D01*
X111330158Y-81907295D01*
X111330154Y-81907411D01*
X111345443Y-81938685D01*
X111381196Y-81973157D01*
X111422242Y-81997990D01*
X111443037Y-82002923D01*
X111499770Y-81985862D01*
X111548627Y-81943133D01*
X111572465Y-81896155D01*
X111595397Y-81861522D01*
X111640318Y-81822081D01*
X111693123Y-81788009D01*
X111739710Y-81769480D01*
X111749452Y-81768462D01*
X111760418Y-81785215D01*
X111761079Y-81828039D01*
X111753020Y-81885781D01*
X111737827Y-81947289D01*
X111717086Y-82001409D01*
X111716038Y-82003510D01*
X111653621Y-82090660D01*
X111572726Y-82149939D01*
X111480856Y-82179034D01*
X111385513Y-82175634D01*
X111294198Y-82137428D01*
X111290138Y-82134741D01*
X111218306Y-82069642D01*
X111171073Y-81984705D01*
X111144934Y-81873021D01*
X111141426Y-81841643D01*
X111135213Y-81693536D01*
X111142661Y-81624468D01*
X111330154Y-81624468D01*
X111332590Y-81667552D01*
X111345914Y-81680126D01*
X111379132Y-81670719D01*
X111431494Y-81648483D01*
X111490024Y-81620610D01*
X111491479Y-81619872D01*
X111541089Y-81593777D01*
X111561000Y-81576363D01*
X111556090Y-81558107D01*
X111535416Y-81534120D01*
X111482819Y-81499406D01*
X111426177Y-81496856D01*
X111375369Y-81522119D01*
X111340276Y-81570847D01*
X111330154Y-81624468D01*
X111142661Y-81624468D01*
X111147992Y-81575036D01*
X111180778Y-81481055D01*
X111226421Y-81415215D01*
X111308802Y-81348681D01*
X111399546Y-81315676D01*
X111492185Y-81313573D01*
X111580254Y-81339745D01*
G36*
X110062886Y-81327256D02*
X110154464Y-81375409D01*
X110222049Y-81452905D01*
X110246057Y-81502727D01*
X110264738Y-81577533D01*
X110274301Y-81672052D01*
X110275208Y-81775210D01*
X110267921Y-81875935D01*
X110252903Y-81963153D01*
X110230615Y-82025791D01*
X110223765Y-82036579D01*
X110142632Y-82117105D01*
X110046266Y-82165336D01*
X109941701Y-82179450D01*
X109835968Y-82157629D01*
X109806543Y-82144547D01*
X109749241Y-82104231D01*
X109698950Y-82050775D01*
X109694197Y-82043995D01*
X109674878Y-82011321D01*
X109662108Y-81976394D01*
X109654564Y-81930414D01*
X109650924Y-81864584D01*
X109649865Y-81770105D01*
X109649846Y-81748923D01*
X109649894Y-81742182D01*
X109845231Y-81742182D01*
X109846368Y-81831349D01*
X109850841Y-81890520D01*
X109860246Y-81928741D01*
X109876176Y-81955053D01*
X109884308Y-81963846D01*
X109931058Y-81997261D01*
X109976447Y-81995737D01*
X110022340Y-81966752D01*
X110049712Y-81935809D01*
X110065923Y-81890643D01*
X110075026Y-81819420D01*
X110075651Y-81811114D01*
X110077204Y-81682037D01*
X110060965Y-81586172D01*
X110027152Y-81524107D01*
X109975984Y-81496432D01*
X109957720Y-81494923D01*
X109909760Y-81502513D01*
X109876953Y-81528808D01*
X109856895Y-81579095D01*
X109847178Y-81658664D01*
X109845231Y-81742182D01*
X109649894Y-81742182D01*
X109650574Y-81648249D01*
X109653629Y-81577906D01*
X109660322Y-81529163D01*
X109671960Y-81493288D01*
X109689853Y-81461548D01*
X109693808Y-81455648D01*
X109760267Y-81376104D01*
X109832685Y-81329929D01*
X109920849Y-81311599D01*
X109950787Y-81310703D01*
X110062886Y-81327256D01*
X110062886Y-81327256D01*
G37*
X110062886Y-81327256D02*
X110154464Y-81375409D01*
X110222049Y-81452905D01*
X110246057Y-81502727D01*
X110264738Y-81577533D01*
X110274301Y-81672052D01*
X110275208Y-81775210D01*
X110267921Y-81875935D01*
X110252903Y-81963153D01*
X110230615Y-82025791D01*
X110223765Y-82036579D01*
X110142632Y-82117105D01*
X110046266Y-82165336D01*
X109941701Y-82179450D01*
X109835968Y-82157629D01*
X109806543Y-82144547D01*
X109749241Y-82104231D01*
X109698950Y-82050775D01*
X109694197Y-82043995D01*
X109674878Y-82011321D01*
X109662108Y-81976394D01*
X109654564Y-81930414D01*
X109650924Y-81864584D01*
X109649865Y-81770105D01*
X109649846Y-81748923D01*
X109649894Y-81742182D01*
X109845231Y-81742182D01*
X109846368Y-81831349D01*
X109850841Y-81890520D01*
X109860246Y-81928741D01*
X109876176Y-81955053D01*
X109884308Y-81963846D01*
X109931058Y-81997261D01*
X109976447Y-81995737D01*
X110022340Y-81966752D01*
X110049712Y-81935809D01*
X110065923Y-81890643D01*
X110075026Y-81819420D01*
X110075651Y-81811114D01*
X110077204Y-81682037D01*
X110060965Y-81586172D01*
X110027152Y-81524107D01*
X109975984Y-81496432D01*
X109957720Y-81494923D01*
X109909760Y-81502513D01*
X109876953Y-81528808D01*
X109856895Y-81579095D01*
X109847178Y-81658664D01*
X109845231Y-81742182D01*
X109649894Y-81742182D01*
X109650574Y-81648249D01*
X109653629Y-81577906D01*
X109660322Y-81529163D01*
X109671960Y-81493288D01*
X109689853Y-81461548D01*
X109693808Y-81455648D01*
X109760267Y-81376104D01*
X109832685Y-81329929D01*
X109920849Y-81311599D01*
X109950787Y-81310703D01*
X110062886Y-81327256D01*
G36*
X112317664Y-81335089D02*
X112380367Y-81371358D01*
X112423961Y-81407358D01*
X112455845Y-81445075D01*
X112477810Y-81491199D01*
X112491649Y-81552421D01*
X112499153Y-81635431D01*
X112502117Y-81746919D01*
X112502461Y-81827062D01*
X112502461Y-82122065D01*
X112336385Y-82196515D01*
X112326615Y-81873402D01*
X112322579Y-81752729D01*
X112318344Y-81665141D01*
X112313097Y-81604650D01*
X112306025Y-81565268D01*
X112296311Y-81541007D01*
X112283144Y-81525880D01*
X112278919Y-81522606D01*
X112214909Y-81497034D01*
X112150208Y-81507153D01*
X112111692Y-81534000D01*
X112096025Y-81553024D01*
X112085180Y-81577988D01*
X112078288Y-81615834D01*
X112074479Y-81673502D01*
X112072883Y-81757935D01*
X112072615Y-81845928D01*
X112072563Y-81956323D01*
X112070672Y-82034463D01*
X112064345Y-82087165D01*
X112050983Y-82121242D01*
X112027985Y-82143511D01*
X111992754Y-82160787D01*
X111945697Y-82178738D01*
X111894303Y-82198278D01*
X111900421Y-81851485D01*
X111902884Y-81726468D01*
X111905767Y-81634082D01*
X111909898Y-81567881D01*
X111916107Y-81521420D01*
X111925226Y-81488256D01*
X111938083Y-81461944D01*
X111953584Y-81438729D01*
X112028371Y-81364569D01*
X112119628Y-81321684D01*
X112218883Y-81311412D01*
X112317664Y-81335089D01*
X112317664Y-81335089D01*
G37*
X112317664Y-81335089D02*
X112380367Y-81371358D01*
X112423961Y-81407358D01*
X112455845Y-81445075D01*
X112477810Y-81491199D01*
X112491649Y-81552421D01*
X112499153Y-81635431D01*
X112502117Y-81746919D01*
X112502461Y-81827062D01*
X112502461Y-82122065D01*
X112336385Y-82196515D01*
X112326615Y-81873402D01*
X112322579Y-81752729D01*
X112318344Y-81665141D01*
X112313097Y-81604650D01*
X112306025Y-81565268D01*
X112296311Y-81541007D01*
X112283144Y-81525880D01*
X112278919Y-81522606D01*
X112214909Y-81497034D01*
X112150208Y-81507153D01*
X112111692Y-81534000D01*
X112096025Y-81553024D01*
X112085180Y-81577988D01*
X112078288Y-81615834D01*
X112074479Y-81673502D01*
X112072883Y-81757935D01*
X112072615Y-81845928D01*
X112072563Y-81956323D01*
X112070672Y-82034463D01*
X112064345Y-82087165D01*
X112050983Y-82121242D01*
X112027985Y-82143511D01*
X111992754Y-82160787D01*
X111945697Y-82178738D01*
X111894303Y-82198278D01*
X111900421Y-81851485D01*
X111902884Y-81726468D01*
X111905767Y-81634082D01*
X111909898Y-81567881D01*
X111916107Y-81521420D01*
X111925226Y-81488256D01*
X111938083Y-81461944D01*
X111953584Y-81438729D01*
X112028371Y-81364569D01*
X112119628Y-81321684D01*
X112218883Y-81311412D01*
X112317664Y-81335089D01*
G36*
X110814886Y-81324505D02*
X110889539Y-81361727D01*
X110955431Y-81430261D01*
X110973577Y-81455648D01*
X110993345Y-81488866D01*
X111006172Y-81524945D01*
X111013510Y-81573098D01*
X111016813Y-81642536D01*
X111017538Y-81734206D01*
X111014263Y-81859830D01*
X111002877Y-81954154D01*
X110981041Y-82024523D01*
X110946419Y-82078286D01*
X110896670Y-82122788D01*
X110893014Y-82125423D01*
X110843985Y-82152377D01*
X110784945Y-82165712D01*
X110709859Y-82169000D01*
X110587795Y-82169000D01*
X110587744Y-82287497D01*
X110586608Y-82353492D01*
X110579686Y-82392202D01*
X110561598Y-82415419D01*
X110526962Y-82434933D01*
X110518645Y-82438920D01*
X110479720Y-82457603D01*
X110449583Y-82469403D01*
X110427174Y-82470422D01*
X110411433Y-82456761D01*
X110401302Y-82424522D01*
X110395723Y-82369804D01*
X110393635Y-82288711D01*
X110393981Y-82177344D01*
X110395700Y-82031802D01*
X110396237Y-81988269D01*
X110398172Y-81838205D01*
X110399904Y-81740042D01*
X110587692Y-81740042D01*
X110588748Y-81823364D01*
X110593438Y-81877880D01*
X110604051Y-81913837D01*
X110622872Y-81941482D01*
X110635650Y-81954965D01*
X110687890Y-81994417D01*
X110734142Y-81997628D01*
X110781867Y-81965049D01*
X110783077Y-81963846D01*
X110802494Y-81938668D01*
X110814307Y-81904447D01*
X110820265Y-81851748D01*
X110822120Y-81771131D01*
X110822154Y-81753271D01*
X110817670Y-81642175D01*
X110803074Y-81565161D01*
X110776650Y-81518147D01*
X110736683Y-81497050D01*
X110713584Y-81494923D01*
X110658762Y-81504900D01*
X110621158Y-81537752D01*
X110598523Y-81597857D01*
X110588606Y-81689598D01*
X110587692Y-81740042D01*
X110399904Y-81740042D01*
X110400222Y-81722060D01*
X110402873Y-81634679D01*
X110406606Y-81570905D01*
X110411907Y-81525582D01*
X110419258Y-81493555D01*
X110429143Y-81469668D01*
X110442046Y-81448764D01*
X110447579Y-81440898D01*
X110520969Y-81366595D01*
X110613760Y-81324467D01*
X110721096Y-81312722D01*
X110814886Y-81324505D01*
X110814886Y-81324505D01*
G37*
X110814886Y-81324505D02*
X110889539Y-81361727D01*
X110955431Y-81430261D01*
X110973577Y-81455648D01*
X110993345Y-81488866D01*
X111006172Y-81524945D01*
X111013510Y-81573098D01*
X111016813Y-81642536D01*
X111017538Y-81734206D01*
X111014263Y-81859830D01*
X111002877Y-81954154D01*
X110981041Y-82024523D01*
X110946419Y-82078286D01*
X110896670Y-82122788D01*
X110893014Y-82125423D01*
X110843985Y-82152377D01*
X110784945Y-82165712D01*
X110709859Y-82169000D01*
X110587795Y-82169000D01*
X110587744Y-82287497D01*
X110586608Y-82353492D01*
X110579686Y-82392202D01*
X110561598Y-82415419D01*
X110526962Y-82434933D01*
X110518645Y-82438920D01*
X110479720Y-82457603D01*
X110449583Y-82469403D01*
X110427174Y-82470422D01*
X110411433Y-82456761D01*
X110401302Y-82424522D01*
X110395723Y-82369804D01*
X110393635Y-82288711D01*
X110393981Y-82177344D01*
X110395700Y-82031802D01*
X110396237Y-81988269D01*
X110398172Y-81838205D01*
X110399904Y-81740042D01*
X110587692Y-81740042D01*
X110588748Y-81823364D01*
X110593438Y-81877880D01*
X110604051Y-81913837D01*
X110622872Y-81941482D01*
X110635650Y-81954965D01*
X110687890Y-81994417D01*
X110734142Y-81997628D01*
X110781867Y-81965049D01*
X110783077Y-81963846D01*
X110802494Y-81938668D01*
X110814307Y-81904447D01*
X110820265Y-81851748D01*
X110822120Y-81771131D01*
X110822154Y-81753271D01*
X110817670Y-81642175D01*
X110803074Y-81565161D01*
X110776650Y-81518147D01*
X110736683Y-81497050D01*
X110713584Y-81494923D01*
X110658762Y-81504900D01*
X110621158Y-81537752D01*
X110598523Y-81597857D01*
X110588606Y-81689598D01*
X110587692Y-81740042D01*
X110399904Y-81740042D01*
X110400222Y-81722060D01*
X110402873Y-81634679D01*
X110406606Y-81570905D01*
X110411907Y-81525582D01*
X110419258Y-81493555D01*
X110429143Y-81469668D01*
X110442046Y-81448764D01*
X110447579Y-81440898D01*
X110520969Y-81366595D01*
X110613760Y-81324467D01*
X110721096Y-81312722D01*
X110814886Y-81324505D01*
G04 #@! TO.C,DS1*
D10*
X109442380Y-71699285D02*
X108442380Y-71699285D01*
X108442380Y-71461190D01*
X108490000Y-71318333D01*
X108585238Y-71223095D01*
X108680476Y-71175476D01*
X108870952Y-71127857D01*
X109013809Y-71127857D01*
X109204285Y-71175476D01*
X109299523Y-71223095D01*
X109394761Y-71318333D01*
X109442380Y-71461190D01*
X109442380Y-71699285D01*
X109394761Y-70746904D02*
X109442380Y-70604047D01*
X109442380Y-70365952D01*
X109394761Y-70270714D01*
X109347142Y-70223095D01*
X109251904Y-70175476D01*
X109156666Y-70175476D01*
X109061428Y-70223095D01*
X109013809Y-70270714D01*
X108966190Y-70365952D01*
X108918571Y-70556428D01*
X108870952Y-70651666D01*
X108823333Y-70699285D01*
X108728095Y-70746904D01*
X108632857Y-70746904D01*
X108537619Y-70699285D01*
X108490000Y-70651666D01*
X108442380Y-70556428D01*
X108442380Y-70318333D01*
X108490000Y-70175476D01*
X109442380Y-69223095D02*
X109442380Y-69794523D01*
X109442380Y-69508809D02*
X108442380Y-69508809D01*
X108585238Y-69604047D01*
X108680476Y-69699285D01*
X108728095Y-69794523D01*
G04 #@! TO.C,BZ1*
X114054047Y-98353571D02*
X114196904Y-98401190D01*
X114244523Y-98448809D01*
X114292142Y-98544047D01*
X114292142Y-98686904D01*
X114244523Y-98782142D01*
X114196904Y-98829761D01*
X114101666Y-98877380D01*
X113720714Y-98877380D01*
X113720714Y-97877380D01*
X114054047Y-97877380D01*
X114149285Y-97925000D01*
X114196904Y-97972619D01*
X114244523Y-98067857D01*
X114244523Y-98163095D01*
X114196904Y-98258333D01*
X114149285Y-98305952D01*
X114054047Y-98353571D01*
X113720714Y-98353571D01*
X114625476Y-97877380D02*
X115292142Y-97877380D01*
X114625476Y-98877380D01*
X115292142Y-98877380D01*
X116196904Y-98877380D02*
X115625476Y-98877380D01*
X115911190Y-98877380D02*
X115911190Y-97877380D01*
X115815952Y-98020238D01*
X115720714Y-98115476D01*
X115625476Y-98163095D01*
X110734047Y-95956428D02*
X111495952Y-95956428D01*
X111115000Y-96337380D02*
X111115000Y-95575476D01*
G04 #@! TO.C,SW1*
X152971666Y-102639761D02*
X153114523Y-102687380D01*
X153352619Y-102687380D01*
X153447857Y-102639761D01*
X153495476Y-102592142D01*
X153543095Y-102496904D01*
X153543095Y-102401666D01*
X153495476Y-102306428D01*
X153447857Y-102258809D01*
X153352619Y-102211190D01*
X153162142Y-102163571D01*
X153066904Y-102115952D01*
X153019285Y-102068333D01*
X152971666Y-101973095D01*
X152971666Y-101877857D01*
X153019285Y-101782619D01*
X153066904Y-101735000D01*
X153162142Y-101687380D01*
X153400238Y-101687380D01*
X153543095Y-101735000D01*
X153876428Y-101687380D02*
X154114523Y-102687380D01*
X154305000Y-101973095D01*
X154495476Y-102687380D01*
X154733571Y-101687380D01*
X155638333Y-102687380D02*
X155066904Y-102687380D01*
X155352619Y-102687380D02*
X155352619Y-101687380D01*
X155257380Y-101830238D01*
X155162142Y-101925476D01*
X155066904Y-101973095D01*
G04 #@! TO.C,RV2*
X110529761Y-105227380D02*
X110196428Y-104751190D01*
X109958333Y-105227380D02*
X109958333Y-104227380D01*
X110339285Y-104227380D01*
X110434523Y-104275000D01*
X110482142Y-104322619D01*
X110529761Y-104417857D01*
X110529761Y-104560714D01*
X110482142Y-104655952D01*
X110434523Y-104703571D01*
X110339285Y-104751190D01*
X109958333Y-104751190D01*
X110815476Y-104227380D02*
X111148809Y-105227380D01*
X111482142Y-104227380D01*
X111767857Y-104322619D02*
X111815476Y-104275000D01*
X111910714Y-104227380D01*
X112148809Y-104227380D01*
X112244047Y-104275000D01*
X112291666Y-104322619D01*
X112339285Y-104417857D01*
X112339285Y-104513095D01*
X112291666Y-104655952D01*
X111720238Y-105227380D01*
X112339285Y-105227380D01*
G04 #@! TO.C,RV1*
X121959761Y-102687380D02*
X121626428Y-102211190D01*
X121388333Y-102687380D02*
X121388333Y-101687380D01*
X121769285Y-101687380D01*
X121864523Y-101735000D01*
X121912142Y-101782619D01*
X121959761Y-101877857D01*
X121959761Y-102020714D01*
X121912142Y-102115952D01*
X121864523Y-102163571D01*
X121769285Y-102211190D01*
X121388333Y-102211190D01*
X122245476Y-101687380D02*
X122578809Y-102687380D01*
X122912142Y-101687380D01*
X123769285Y-102687380D02*
X123197857Y-102687380D01*
X123483571Y-102687380D02*
X123483571Y-101687380D01*
X123388333Y-101830238D01*
X123293095Y-101925476D01*
X123197857Y-101973095D01*
G04 #@! TO.C,R4*
X147137380Y-81446666D02*
X146661190Y-81780000D01*
X147137380Y-82018095D02*
X146137380Y-82018095D01*
X146137380Y-81637142D01*
X146185000Y-81541904D01*
X146232619Y-81494285D01*
X146327857Y-81446666D01*
X146470714Y-81446666D01*
X146565952Y-81494285D01*
X146613571Y-81541904D01*
X146661190Y-81637142D01*
X146661190Y-82018095D01*
X146470714Y-80589523D02*
X147137380Y-80589523D01*
X146089761Y-80827619D02*
X146804047Y-81065714D01*
X146804047Y-80446666D01*
G04 #@! TO.C,R13*
X128087380Y-81922857D02*
X127611190Y-82256190D01*
X128087380Y-82494285D02*
X127087380Y-82494285D01*
X127087380Y-82113333D01*
X127135000Y-82018095D01*
X127182619Y-81970476D01*
X127277857Y-81922857D01*
X127420714Y-81922857D01*
X127515952Y-81970476D01*
X127563571Y-82018095D01*
X127611190Y-82113333D01*
X127611190Y-82494285D01*
X128087380Y-80970476D02*
X128087380Y-81541904D01*
X128087380Y-81256190D02*
X127087380Y-81256190D01*
X127230238Y-81351428D01*
X127325476Y-81446666D01*
X127373095Y-81541904D01*
X127087380Y-80637142D02*
X127087380Y-80018095D01*
X127468333Y-80351428D01*
X127468333Y-80208571D01*
X127515952Y-80113333D01*
X127563571Y-80065714D01*
X127658809Y-80018095D01*
X127896904Y-80018095D01*
X127992142Y-80065714D01*
X128039761Y-80113333D01*
X128087380Y-80208571D01*
X128087380Y-80494285D01*
X128039761Y-80589523D01*
X127992142Y-80637142D01*
G04 #@! TO.C,D1*
X152296904Y-88717380D02*
X152296904Y-87717380D01*
X152535000Y-87717380D01*
X152677857Y-87765000D01*
X152773095Y-87860238D01*
X152820714Y-87955476D01*
X152868333Y-88145952D01*
X152868333Y-88288809D01*
X152820714Y-88479285D01*
X152773095Y-88574523D01*
X152677857Y-88669761D01*
X152535000Y-88717380D01*
X152296904Y-88717380D01*
X153820714Y-88717380D02*
X153249285Y-88717380D01*
X153535000Y-88717380D02*
X153535000Y-87717380D01*
X153439761Y-87860238D01*
X153344523Y-87955476D01*
X153249285Y-88003095D01*
G04 #@! TO.C,R10*
X148407380Y-107957857D02*
X147931190Y-108291190D01*
X148407380Y-108529285D02*
X147407380Y-108529285D01*
X147407380Y-108148333D01*
X147455000Y-108053095D01*
X147502619Y-108005476D01*
X147597857Y-107957857D01*
X147740714Y-107957857D01*
X147835952Y-108005476D01*
X147883571Y-108053095D01*
X147931190Y-108148333D01*
X147931190Y-108529285D01*
X148407380Y-107005476D02*
X148407380Y-107576904D01*
X148407380Y-107291190D02*
X147407380Y-107291190D01*
X147550238Y-107386428D01*
X147645476Y-107481666D01*
X147693095Y-107576904D01*
X147407380Y-106386428D02*
X147407380Y-106291190D01*
X147455000Y-106195952D01*
X147502619Y-106148333D01*
X147597857Y-106100714D01*
X147788333Y-106053095D01*
X148026428Y-106053095D01*
X148216904Y-106100714D01*
X148312142Y-106148333D01*
X148359761Y-106195952D01*
X148407380Y-106291190D01*
X148407380Y-106386428D01*
X148359761Y-106481666D01*
X148312142Y-106529285D01*
X148216904Y-106576904D01*
X148026428Y-106624523D01*
X147788333Y-106624523D01*
X147597857Y-106576904D01*
X147502619Y-106529285D01*
X147455000Y-106481666D01*
X147407380Y-106386428D01*
G04 #@! TO.C,R12*
X131262380Y-81922857D02*
X130786190Y-82256190D01*
X131262380Y-82494285D02*
X130262380Y-82494285D01*
X130262380Y-82113333D01*
X130310000Y-82018095D01*
X130357619Y-81970476D01*
X130452857Y-81922857D01*
X130595714Y-81922857D01*
X130690952Y-81970476D01*
X130738571Y-82018095D01*
X130786190Y-82113333D01*
X130786190Y-82494285D01*
X131262380Y-80970476D02*
X131262380Y-81541904D01*
X131262380Y-81256190D02*
X130262380Y-81256190D01*
X130405238Y-81351428D01*
X130500476Y-81446666D01*
X130548095Y-81541904D01*
X130357619Y-80589523D02*
X130310000Y-80541904D01*
X130262380Y-80446666D01*
X130262380Y-80208571D01*
X130310000Y-80113333D01*
X130357619Y-80065714D01*
X130452857Y-80018095D01*
X130548095Y-80018095D01*
X130690952Y-80065714D01*
X131262380Y-80637142D01*
X131262380Y-80018095D01*
G04 #@! TO.C,Q1*
X114839761Y-85637619D02*
X114744523Y-85590000D01*
X114649285Y-85494761D01*
X114506428Y-85351904D01*
X114411190Y-85304285D01*
X114315952Y-85304285D01*
X114363571Y-85542380D02*
X114268333Y-85494761D01*
X114173095Y-85399523D01*
X114125476Y-85209047D01*
X114125476Y-84875714D01*
X114173095Y-84685238D01*
X114268333Y-84590000D01*
X114363571Y-84542380D01*
X114554047Y-84542380D01*
X114649285Y-84590000D01*
X114744523Y-84685238D01*
X114792142Y-84875714D01*
X114792142Y-85209047D01*
X114744523Y-85399523D01*
X114649285Y-85494761D01*
X114554047Y-85542380D01*
X114363571Y-85542380D01*
X115744523Y-85542380D02*
X115173095Y-85542380D01*
X115458809Y-85542380D02*
X115458809Y-84542380D01*
X115363571Y-84685238D01*
X115268333Y-84780476D01*
X115173095Y-84828095D01*
G04 #@! TO.C,R1*
X156662380Y-81446666D02*
X156186190Y-81780000D01*
X156662380Y-82018095D02*
X155662380Y-82018095D01*
X155662380Y-81637142D01*
X155710000Y-81541904D01*
X155757619Y-81494285D01*
X155852857Y-81446666D01*
X155995714Y-81446666D01*
X156090952Y-81494285D01*
X156138571Y-81541904D01*
X156186190Y-81637142D01*
X156186190Y-82018095D01*
X156662380Y-80494285D02*
X156662380Y-81065714D01*
X156662380Y-80780000D02*
X155662380Y-80780000D01*
X155805238Y-80875238D01*
X155900476Y-80970476D01*
X155948095Y-81065714D01*
G04 #@! TO.C,D4*
X137056904Y-88717380D02*
X137056904Y-87717380D01*
X137295000Y-87717380D01*
X137437857Y-87765000D01*
X137533095Y-87860238D01*
X137580714Y-87955476D01*
X137628333Y-88145952D01*
X137628333Y-88288809D01*
X137580714Y-88479285D01*
X137533095Y-88574523D01*
X137437857Y-88669761D01*
X137295000Y-88717380D01*
X137056904Y-88717380D01*
X138485476Y-88050714D02*
X138485476Y-88717380D01*
X138247380Y-87669761D02*
X138009285Y-88384047D01*
X138628333Y-88384047D01*
G04 #@! TO.C,D0*
X157376904Y-88717380D02*
X157376904Y-87717380D01*
X157615000Y-87717380D01*
X157757857Y-87765000D01*
X157853095Y-87860238D01*
X157900714Y-87955476D01*
X157948333Y-88145952D01*
X157948333Y-88288809D01*
X157900714Y-88479285D01*
X157853095Y-88574523D01*
X157757857Y-88669761D01*
X157615000Y-88717380D01*
X157376904Y-88717380D01*
X158567380Y-87717380D02*
X158662619Y-87717380D01*
X158757857Y-87765000D01*
X158805476Y-87812619D01*
X158853095Y-87907857D01*
X158900714Y-88098333D01*
X158900714Y-88336428D01*
X158853095Y-88526904D01*
X158805476Y-88622142D01*
X158757857Y-88669761D01*
X158662619Y-88717380D01*
X158567380Y-88717380D01*
X158472142Y-88669761D01*
X158424523Y-88622142D01*
X158376904Y-88526904D01*
X158329285Y-88336428D01*
X158329285Y-88098333D01*
X158376904Y-87907857D01*
X158424523Y-87812619D01*
X158472142Y-87765000D01*
X158567380Y-87717380D01*
G04 #@! TO.C,R3*
X150312380Y-81446666D02*
X149836190Y-81780000D01*
X150312380Y-82018095D02*
X149312380Y-82018095D01*
X149312380Y-81637142D01*
X149360000Y-81541904D01*
X149407619Y-81494285D01*
X149502857Y-81446666D01*
X149645714Y-81446666D01*
X149740952Y-81494285D01*
X149788571Y-81541904D01*
X149836190Y-81637142D01*
X149836190Y-82018095D01*
X149312380Y-81113333D02*
X149312380Y-80494285D01*
X149693333Y-80827619D01*
X149693333Y-80684761D01*
X149740952Y-80589523D01*
X149788571Y-80541904D01*
X149883809Y-80494285D01*
X150121904Y-80494285D01*
X150217142Y-80541904D01*
X150264761Y-80589523D01*
X150312380Y-80684761D01*
X150312380Y-80970476D01*
X150264761Y-81065714D01*
X150217142Y-81113333D01*
G04 #@! TO.C,D5*
X131976904Y-88717380D02*
X131976904Y-87717380D01*
X132215000Y-87717380D01*
X132357857Y-87765000D01*
X132453095Y-87860238D01*
X132500714Y-87955476D01*
X132548333Y-88145952D01*
X132548333Y-88288809D01*
X132500714Y-88479285D01*
X132453095Y-88574523D01*
X132357857Y-88669761D01*
X132215000Y-88717380D01*
X131976904Y-88717380D01*
X133453095Y-87717380D02*
X132976904Y-87717380D01*
X132929285Y-88193571D01*
X132976904Y-88145952D01*
X133072142Y-88098333D01*
X133310238Y-88098333D01*
X133405476Y-88145952D01*
X133453095Y-88193571D01*
X133500714Y-88288809D01*
X133500714Y-88526904D01*
X133453095Y-88622142D01*
X133405476Y-88669761D01*
X133310238Y-88717380D01*
X133072142Y-88717380D01*
X132976904Y-88669761D01*
X132929285Y-88622142D01*
G04 #@! TO.C,D3*
X142136904Y-88717380D02*
X142136904Y-87717380D01*
X142375000Y-87717380D01*
X142517857Y-87765000D01*
X142613095Y-87860238D01*
X142660714Y-87955476D01*
X142708333Y-88145952D01*
X142708333Y-88288809D01*
X142660714Y-88479285D01*
X142613095Y-88574523D01*
X142517857Y-88669761D01*
X142375000Y-88717380D01*
X142136904Y-88717380D01*
X143041666Y-87717380D02*
X143660714Y-87717380D01*
X143327380Y-88098333D01*
X143470238Y-88098333D01*
X143565476Y-88145952D01*
X143613095Y-88193571D01*
X143660714Y-88288809D01*
X143660714Y-88526904D01*
X143613095Y-88622142D01*
X143565476Y-88669761D01*
X143470238Y-88717380D01*
X143184523Y-88717380D01*
X143089285Y-88669761D01*
X143041666Y-88622142D01*
G04 #@! TO.C,D7*
X121689904Y-88717380D02*
X121689904Y-87717380D01*
X121928000Y-87717380D01*
X122070857Y-87765000D01*
X122166095Y-87860238D01*
X122213714Y-87955476D01*
X122261333Y-88145952D01*
X122261333Y-88288809D01*
X122213714Y-88479285D01*
X122166095Y-88574523D01*
X122070857Y-88669761D01*
X121928000Y-88717380D01*
X121689904Y-88717380D01*
X122594666Y-87717380D02*
X123261333Y-87717380D01*
X122832761Y-88717380D01*
G04 #@! TO.C,D6*
X126896904Y-88717380D02*
X126896904Y-87717380D01*
X127135000Y-87717380D01*
X127277857Y-87765000D01*
X127373095Y-87860238D01*
X127420714Y-87955476D01*
X127468333Y-88145952D01*
X127468333Y-88288809D01*
X127420714Y-88479285D01*
X127373095Y-88574523D01*
X127277857Y-88669761D01*
X127135000Y-88717380D01*
X126896904Y-88717380D01*
X128325476Y-87717380D02*
X128135000Y-87717380D01*
X128039761Y-87765000D01*
X127992142Y-87812619D01*
X127896904Y-87955476D01*
X127849285Y-88145952D01*
X127849285Y-88526904D01*
X127896904Y-88622142D01*
X127944523Y-88669761D01*
X128039761Y-88717380D01*
X128230238Y-88717380D01*
X128325476Y-88669761D01*
X128373095Y-88622142D01*
X128420714Y-88526904D01*
X128420714Y-88288809D01*
X128373095Y-88193571D01*
X128325476Y-88145952D01*
X128230238Y-88098333D01*
X128039761Y-88098333D01*
X127944523Y-88145952D01*
X127896904Y-88193571D01*
X127849285Y-88288809D01*
G04 #@! TO.C,R2*
X153487380Y-81446666D02*
X153011190Y-81780000D01*
X153487380Y-82018095D02*
X152487380Y-82018095D01*
X152487380Y-81637142D01*
X152535000Y-81541904D01*
X152582619Y-81494285D01*
X152677857Y-81446666D01*
X152820714Y-81446666D01*
X152915952Y-81494285D01*
X152963571Y-81541904D01*
X153011190Y-81637142D01*
X153011190Y-82018095D01*
X152582619Y-81065714D02*
X152535000Y-81018095D01*
X152487380Y-80922857D01*
X152487380Y-80684761D01*
X152535000Y-80589523D01*
X152582619Y-80541904D01*
X152677857Y-80494285D01*
X152773095Y-80494285D01*
X152915952Y-80541904D01*
X153487380Y-81113333D01*
X153487380Y-80494285D01*
G04 #@! TO.C,D2*
X147216904Y-88717380D02*
X147216904Y-87717380D01*
X147455000Y-87717380D01*
X147597857Y-87765000D01*
X147693095Y-87860238D01*
X147740714Y-87955476D01*
X147788333Y-88145952D01*
X147788333Y-88288809D01*
X147740714Y-88479285D01*
X147693095Y-88574523D01*
X147597857Y-88669761D01*
X147455000Y-88717380D01*
X147216904Y-88717380D01*
X148169285Y-87812619D02*
X148216904Y-87765000D01*
X148312142Y-87717380D01*
X148550238Y-87717380D01*
X148645476Y-87765000D01*
X148693095Y-87812619D01*
X148740714Y-87907857D01*
X148740714Y-88003095D01*
X148693095Y-88145952D01*
X148121666Y-88717380D01*
X148740714Y-88717380D01*
G04 #@! TO.C,R7*
X137612380Y-81446666D02*
X137136190Y-81780000D01*
X137612380Y-82018095D02*
X136612380Y-82018095D01*
X136612380Y-81637142D01*
X136660000Y-81541904D01*
X136707619Y-81494285D01*
X136802857Y-81446666D01*
X136945714Y-81446666D01*
X137040952Y-81494285D01*
X137088571Y-81541904D01*
X137136190Y-81637142D01*
X137136190Y-82018095D01*
X136612380Y-81113333D02*
X136612380Y-80446666D01*
X137612380Y-80875238D01*
G04 #@! TO.C,R6*
X140787380Y-81446666D02*
X140311190Y-81780000D01*
X140787380Y-82018095D02*
X139787380Y-82018095D01*
X139787380Y-81637142D01*
X139835000Y-81541904D01*
X139882619Y-81494285D01*
X139977857Y-81446666D01*
X140120714Y-81446666D01*
X140215952Y-81494285D01*
X140263571Y-81541904D01*
X140311190Y-81637142D01*
X140311190Y-82018095D01*
X139787380Y-80589523D02*
X139787380Y-80780000D01*
X139835000Y-80875238D01*
X139882619Y-80922857D01*
X140025476Y-81018095D01*
X140215952Y-81065714D01*
X140596904Y-81065714D01*
X140692142Y-81018095D01*
X140739761Y-80970476D01*
X140787380Y-80875238D01*
X140787380Y-80684761D01*
X140739761Y-80589523D01*
X140692142Y-80541904D01*
X140596904Y-80494285D01*
X140358809Y-80494285D01*
X140263571Y-80541904D01*
X140215952Y-80589523D01*
X140168333Y-80684761D01*
X140168333Y-80875238D01*
X140215952Y-80970476D01*
X140263571Y-81018095D01*
X140358809Y-81065714D01*
G04 #@! TO.C,J1*
X173656666Y-110807380D02*
X173656666Y-111521666D01*
X173609047Y-111664523D01*
X173513809Y-111759761D01*
X173370952Y-111807380D01*
X173275714Y-111807380D01*
X174656666Y-111807380D02*
X174085238Y-111807380D01*
X174370952Y-111807380D02*
X174370952Y-110807380D01*
X174275714Y-110950238D01*
X174180476Y-111045476D01*
X174085238Y-111093095D01*
G04 #@! TO.C,Q2*
X170719761Y-86272619D02*
X170624523Y-86225000D01*
X170529285Y-86129761D01*
X170386428Y-85986904D01*
X170291190Y-85939285D01*
X170195952Y-85939285D01*
X170243571Y-86177380D02*
X170148333Y-86129761D01*
X170053095Y-86034523D01*
X170005476Y-85844047D01*
X170005476Y-85510714D01*
X170053095Y-85320238D01*
X170148333Y-85225000D01*
X170243571Y-85177380D01*
X170434047Y-85177380D01*
X170529285Y-85225000D01*
X170624523Y-85320238D01*
X170672142Y-85510714D01*
X170672142Y-85844047D01*
X170624523Y-86034523D01*
X170529285Y-86129761D01*
X170434047Y-86177380D01*
X170243571Y-86177380D01*
X171053095Y-85272619D02*
X171100714Y-85225000D01*
X171195952Y-85177380D01*
X171434047Y-85177380D01*
X171529285Y-85225000D01*
X171576904Y-85272619D01*
X171624523Y-85367857D01*
X171624523Y-85463095D01*
X171576904Y-85605952D01*
X171005476Y-86177380D01*
X171624523Y-86177380D01*
G04 #@! TO.C,SW3*
X136461666Y-108204761D02*
X136604523Y-108252380D01*
X136842619Y-108252380D01*
X136937857Y-108204761D01*
X136985476Y-108157142D01*
X137033095Y-108061904D01*
X137033095Y-107966666D01*
X136985476Y-107871428D01*
X136937857Y-107823809D01*
X136842619Y-107776190D01*
X136652142Y-107728571D01*
X136556904Y-107680952D01*
X136509285Y-107633333D01*
X136461666Y-107538095D01*
X136461666Y-107442857D01*
X136509285Y-107347619D01*
X136556904Y-107300000D01*
X136652142Y-107252380D01*
X136890238Y-107252380D01*
X137033095Y-107300000D01*
X137366428Y-107252380D02*
X137604523Y-108252380D01*
X137795000Y-107538095D01*
X137985476Y-108252380D01*
X138223571Y-107252380D01*
X138509285Y-107252380D02*
X139128333Y-107252380D01*
X138795000Y-107633333D01*
X138937857Y-107633333D01*
X139033095Y-107680952D01*
X139080714Y-107728571D01*
X139128333Y-107823809D01*
X139128333Y-108061904D01*
X139080714Y-108157142D01*
X139033095Y-108204761D01*
X138937857Y-108252380D01*
X138652142Y-108252380D01*
X138556904Y-108204761D01*
X138509285Y-108157142D01*
G04 #@! TO.C,R15*
X174442380Y-92082857D02*
X173966190Y-92416190D01*
X174442380Y-92654285D02*
X173442380Y-92654285D01*
X173442380Y-92273333D01*
X173490000Y-92178095D01*
X173537619Y-92130476D01*
X173632857Y-92082857D01*
X173775714Y-92082857D01*
X173870952Y-92130476D01*
X173918571Y-92178095D01*
X173966190Y-92273333D01*
X173966190Y-92654285D01*
X174442380Y-91130476D02*
X174442380Y-91701904D01*
X174442380Y-91416190D02*
X173442380Y-91416190D01*
X173585238Y-91511428D01*
X173680476Y-91606666D01*
X173728095Y-91701904D01*
X173442380Y-90225714D02*
X173442380Y-90701904D01*
X173918571Y-90749523D01*
X173870952Y-90701904D01*
X173823333Y-90606666D01*
X173823333Y-90368571D01*
X173870952Y-90273333D01*
X173918571Y-90225714D01*
X174013809Y-90178095D01*
X174251904Y-90178095D01*
X174347142Y-90225714D01*
X174394761Y-90273333D01*
X174442380Y-90368571D01*
X174442380Y-90606666D01*
X174394761Y-90701904D01*
X174347142Y-90749523D01*
G04 #@! TO.C,R18*
X171267380Y-92082857D02*
X170791190Y-92416190D01*
X171267380Y-92654285D02*
X170267380Y-92654285D01*
X170267380Y-92273333D01*
X170315000Y-92178095D01*
X170362619Y-92130476D01*
X170457857Y-92082857D01*
X170600714Y-92082857D01*
X170695952Y-92130476D01*
X170743571Y-92178095D01*
X170791190Y-92273333D01*
X170791190Y-92654285D01*
X171267380Y-91130476D02*
X171267380Y-91701904D01*
X171267380Y-91416190D02*
X170267380Y-91416190D01*
X170410238Y-91511428D01*
X170505476Y-91606666D01*
X170553095Y-91701904D01*
X170695952Y-90559047D02*
X170648333Y-90654285D01*
X170600714Y-90701904D01*
X170505476Y-90749523D01*
X170457857Y-90749523D01*
X170362619Y-90701904D01*
X170315000Y-90654285D01*
X170267380Y-90559047D01*
X170267380Y-90368571D01*
X170315000Y-90273333D01*
X170362619Y-90225714D01*
X170457857Y-90178095D01*
X170505476Y-90178095D01*
X170600714Y-90225714D01*
X170648333Y-90273333D01*
X170695952Y-90368571D01*
X170695952Y-90559047D01*
X170743571Y-90654285D01*
X170791190Y-90701904D01*
X170886428Y-90749523D01*
X171076904Y-90749523D01*
X171172142Y-90701904D01*
X171219761Y-90654285D01*
X171267380Y-90559047D01*
X171267380Y-90368571D01*
X171219761Y-90273333D01*
X171172142Y-90225714D01*
X171076904Y-90178095D01*
X170886428Y-90178095D01*
X170791190Y-90225714D01*
X170743571Y-90273333D01*
X170695952Y-90368571D01*
G04 #@! TO.C,R8*
X134437380Y-81446666D02*
X133961190Y-81780000D01*
X134437380Y-82018095D02*
X133437380Y-82018095D01*
X133437380Y-81637142D01*
X133485000Y-81541904D01*
X133532619Y-81494285D01*
X133627857Y-81446666D01*
X133770714Y-81446666D01*
X133865952Y-81494285D01*
X133913571Y-81541904D01*
X133961190Y-81637142D01*
X133961190Y-82018095D01*
X133865952Y-80875238D02*
X133818333Y-80970476D01*
X133770714Y-81018095D01*
X133675476Y-81065714D01*
X133627857Y-81065714D01*
X133532619Y-81018095D01*
X133485000Y-80970476D01*
X133437380Y-80875238D01*
X133437380Y-80684761D01*
X133485000Y-80589523D01*
X133532619Y-80541904D01*
X133627857Y-80494285D01*
X133675476Y-80494285D01*
X133770714Y-80541904D01*
X133818333Y-80589523D01*
X133865952Y-80684761D01*
X133865952Y-80875238D01*
X133913571Y-80970476D01*
X133961190Y-81018095D01*
X134056428Y-81065714D01*
X134246904Y-81065714D01*
X134342142Y-81018095D01*
X134389761Y-80970476D01*
X134437380Y-80875238D01*
X134437380Y-80684761D01*
X134389761Y-80589523D01*
X134342142Y-80541904D01*
X134246904Y-80494285D01*
X134056428Y-80494285D01*
X133961190Y-80541904D01*
X133913571Y-80589523D01*
X133865952Y-80684761D01*
G04 #@! TO.C,R17*
X168092380Y-92082857D02*
X167616190Y-92416190D01*
X168092380Y-92654285D02*
X167092380Y-92654285D01*
X167092380Y-92273333D01*
X167140000Y-92178095D01*
X167187619Y-92130476D01*
X167282857Y-92082857D01*
X167425714Y-92082857D01*
X167520952Y-92130476D01*
X167568571Y-92178095D01*
X167616190Y-92273333D01*
X167616190Y-92654285D01*
X168092380Y-91130476D02*
X168092380Y-91701904D01*
X168092380Y-91416190D02*
X167092380Y-91416190D01*
X167235238Y-91511428D01*
X167330476Y-91606666D01*
X167378095Y-91701904D01*
X167092380Y-90797142D02*
X167092380Y-90130476D01*
X168092380Y-90559047D01*
G04 #@! TO.C,R9*
X144597380Y-107481666D02*
X144121190Y-107815000D01*
X144597380Y-108053095D02*
X143597380Y-108053095D01*
X143597380Y-107672142D01*
X143645000Y-107576904D01*
X143692619Y-107529285D01*
X143787857Y-107481666D01*
X143930714Y-107481666D01*
X144025952Y-107529285D01*
X144073571Y-107576904D01*
X144121190Y-107672142D01*
X144121190Y-108053095D01*
X144597380Y-107005476D02*
X144597380Y-106815000D01*
X144549761Y-106719761D01*
X144502142Y-106672142D01*
X144359285Y-106576904D01*
X144168809Y-106529285D01*
X143787857Y-106529285D01*
X143692619Y-106576904D01*
X143645000Y-106624523D01*
X143597380Y-106719761D01*
X143597380Y-106910238D01*
X143645000Y-107005476D01*
X143692619Y-107053095D01*
X143787857Y-107100714D01*
X144025952Y-107100714D01*
X144121190Y-107053095D01*
X144168809Y-107005476D01*
X144216428Y-106910238D01*
X144216428Y-106719761D01*
X144168809Y-106624523D01*
X144121190Y-106576904D01*
X144025952Y-106529285D01*
G04 #@! TO.C,D9*
X144041904Y-95067380D02*
X144041904Y-94067380D01*
X144280000Y-94067380D01*
X144422857Y-94115000D01*
X144518095Y-94210238D01*
X144565714Y-94305476D01*
X144613333Y-94495952D01*
X144613333Y-94638809D01*
X144565714Y-94829285D01*
X144518095Y-94924523D01*
X144422857Y-95019761D01*
X144280000Y-95067380D01*
X144041904Y-95067380D01*
X145089523Y-95067380D02*
X145280000Y-95067380D01*
X145375238Y-95019761D01*
X145422857Y-94972142D01*
X145518095Y-94829285D01*
X145565714Y-94638809D01*
X145565714Y-94257857D01*
X145518095Y-94162619D01*
X145470476Y-94115000D01*
X145375238Y-94067380D01*
X145184761Y-94067380D01*
X145089523Y-94115000D01*
X145041904Y-94162619D01*
X144994285Y-94257857D01*
X144994285Y-94495952D01*
X145041904Y-94591190D01*
X145089523Y-94638809D01*
X145184761Y-94686428D01*
X145375238Y-94686428D01*
X145470476Y-94638809D01*
X145518095Y-94591190D01*
X145565714Y-94495952D01*
G04 #@! TO.C,R16*
X156837142Y-70937380D02*
X156503809Y-70461190D01*
X156265714Y-70937380D02*
X156265714Y-69937380D01*
X156646666Y-69937380D01*
X156741904Y-69985000D01*
X156789523Y-70032619D01*
X156837142Y-70127857D01*
X156837142Y-70270714D01*
X156789523Y-70365952D01*
X156741904Y-70413571D01*
X156646666Y-70461190D01*
X156265714Y-70461190D01*
X157789523Y-70937380D02*
X157218095Y-70937380D01*
X157503809Y-70937380D02*
X157503809Y-69937380D01*
X157408571Y-70080238D01*
X157313333Y-70175476D01*
X157218095Y-70223095D01*
X158646666Y-69937380D02*
X158456190Y-69937380D01*
X158360952Y-69985000D01*
X158313333Y-70032619D01*
X158218095Y-70175476D01*
X158170476Y-70365952D01*
X158170476Y-70746904D01*
X158218095Y-70842142D01*
X158265714Y-70889761D01*
X158360952Y-70937380D01*
X158551428Y-70937380D01*
X158646666Y-70889761D01*
X158694285Y-70842142D01*
X158741904Y-70746904D01*
X158741904Y-70508809D01*
X158694285Y-70413571D01*
X158646666Y-70365952D01*
X158551428Y-70318333D01*
X158360952Y-70318333D01*
X158265714Y-70365952D01*
X158218095Y-70413571D01*
X158170476Y-70508809D01*
G04 #@! TO.C,D10*
X133405714Y-95067380D02*
X133405714Y-94067380D01*
X133643809Y-94067380D01*
X133786666Y-94115000D01*
X133881904Y-94210238D01*
X133929523Y-94305476D01*
X133977142Y-94495952D01*
X133977142Y-94638809D01*
X133929523Y-94829285D01*
X133881904Y-94924523D01*
X133786666Y-95019761D01*
X133643809Y-95067380D01*
X133405714Y-95067380D01*
X134929523Y-95067380D02*
X134358095Y-95067380D01*
X134643809Y-95067380D02*
X134643809Y-94067380D01*
X134548571Y-94210238D01*
X134453333Y-94305476D01*
X134358095Y-94353095D01*
X135548571Y-94067380D02*
X135643809Y-94067380D01*
X135739047Y-94115000D01*
X135786666Y-94162619D01*
X135834285Y-94257857D01*
X135881904Y-94448333D01*
X135881904Y-94686428D01*
X135834285Y-94876904D01*
X135786666Y-94972142D01*
X135739047Y-95019761D01*
X135643809Y-95067380D01*
X135548571Y-95067380D01*
X135453333Y-95019761D01*
X135405714Y-94972142D01*
X135358095Y-94876904D01*
X135310476Y-94686428D01*
X135310476Y-94448333D01*
X135358095Y-94257857D01*
X135405714Y-94162619D01*
X135453333Y-94115000D01*
X135548571Y-94067380D01*
G04 #@! TO.C,R11*
X124912380Y-81922857D02*
X124436190Y-82256190D01*
X124912380Y-82494285D02*
X123912380Y-82494285D01*
X123912380Y-82113333D01*
X123960000Y-82018095D01*
X124007619Y-81970476D01*
X124102857Y-81922857D01*
X124245714Y-81922857D01*
X124340952Y-81970476D01*
X124388571Y-82018095D01*
X124436190Y-82113333D01*
X124436190Y-82494285D01*
X124912380Y-80970476D02*
X124912380Y-81541904D01*
X124912380Y-81256190D02*
X123912380Y-81256190D01*
X124055238Y-81351428D01*
X124150476Y-81446666D01*
X124198095Y-81541904D01*
X124912380Y-80018095D02*
X124912380Y-80589523D01*
X124912380Y-80303809D02*
X123912380Y-80303809D01*
X124055238Y-80399047D01*
X124150476Y-80494285D01*
X124198095Y-80589523D01*
G04 #@! TO.C,R5*
X143962380Y-81446666D02*
X143486190Y-81780000D01*
X143962380Y-82018095D02*
X142962380Y-82018095D01*
X142962380Y-81637142D01*
X143010000Y-81541904D01*
X143057619Y-81494285D01*
X143152857Y-81446666D01*
X143295714Y-81446666D01*
X143390952Y-81494285D01*
X143438571Y-81541904D01*
X143486190Y-81637142D01*
X143486190Y-82018095D01*
X142962380Y-80541904D02*
X142962380Y-81018095D01*
X143438571Y-81065714D01*
X143390952Y-81018095D01*
X143343333Y-80922857D01*
X143343333Y-80684761D01*
X143390952Y-80589523D01*
X143438571Y-80541904D01*
X143533809Y-80494285D01*
X143771904Y-80494285D01*
X143867142Y-80541904D01*
X143914761Y-80589523D01*
X143962380Y-80684761D01*
X143962380Y-80922857D01*
X143914761Y-81018095D01*
X143867142Y-81065714D01*
G04 #@! TO.C,R14*
X121737380Y-81922857D02*
X121261190Y-82256190D01*
X121737380Y-82494285D02*
X120737380Y-82494285D01*
X120737380Y-82113333D01*
X120785000Y-82018095D01*
X120832619Y-81970476D01*
X120927857Y-81922857D01*
X121070714Y-81922857D01*
X121165952Y-81970476D01*
X121213571Y-82018095D01*
X121261190Y-82113333D01*
X121261190Y-82494285D01*
X121737380Y-80970476D02*
X121737380Y-81541904D01*
X121737380Y-81256190D02*
X120737380Y-81256190D01*
X120880238Y-81351428D01*
X120975476Y-81446666D01*
X121023095Y-81541904D01*
X121070714Y-80113333D02*
X121737380Y-80113333D01*
X120689761Y-80351428D02*
X121404047Y-80589523D01*
X121404047Y-79970476D01*
G04 #@! TO.C,SW4*
X166306666Y-79144761D02*
X166449523Y-79192380D01*
X166687619Y-79192380D01*
X166782857Y-79144761D01*
X166830476Y-79097142D01*
X166878095Y-79001904D01*
X166878095Y-78906666D01*
X166830476Y-78811428D01*
X166782857Y-78763809D01*
X166687619Y-78716190D01*
X166497142Y-78668571D01*
X166401904Y-78620952D01*
X166354285Y-78573333D01*
X166306666Y-78478095D01*
X166306666Y-78382857D01*
X166354285Y-78287619D01*
X166401904Y-78240000D01*
X166497142Y-78192380D01*
X166735238Y-78192380D01*
X166878095Y-78240000D01*
X167211428Y-78192380D02*
X167449523Y-79192380D01*
X167640000Y-78478095D01*
X167830476Y-79192380D01*
X168068571Y-78192380D01*
X168878095Y-78525714D02*
X168878095Y-79192380D01*
X168640000Y-78144761D02*
X168401904Y-78859047D01*
X169020952Y-78859047D01*
G04 #@! TO.C,D8*
X154201904Y-95067380D02*
X154201904Y-94067380D01*
X154440000Y-94067380D01*
X154582857Y-94115000D01*
X154678095Y-94210238D01*
X154725714Y-94305476D01*
X154773333Y-94495952D01*
X154773333Y-94638809D01*
X154725714Y-94829285D01*
X154678095Y-94924523D01*
X154582857Y-95019761D01*
X154440000Y-95067380D01*
X154201904Y-95067380D01*
X155344761Y-94495952D02*
X155249523Y-94448333D01*
X155201904Y-94400714D01*
X155154285Y-94305476D01*
X155154285Y-94257857D01*
X155201904Y-94162619D01*
X155249523Y-94115000D01*
X155344761Y-94067380D01*
X155535238Y-94067380D01*
X155630476Y-94115000D01*
X155678095Y-94162619D01*
X155725714Y-94257857D01*
X155725714Y-94305476D01*
X155678095Y-94400714D01*
X155630476Y-94448333D01*
X155535238Y-94495952D01*
X155344761Y-94495952D01*
X155249523Y-94543571D01*
X155201904Y-94591190D01*
X155154285Y-94686428D01*
X155154285Y-94876904D01*
X155201904Y-94972142D01*
X155249523Y-95019761D01*
X155344761Y-95067380D01*
X155535238Y-95067380D01*
X155630476Y-95019761D01*
X155678095Y-94972142D01*
X155725714Y-94876904D01*
X155725714Y-94686428D01*
X155678095Y-94591190D01*
X155630476Y-94543571D01*
X155535238Y-94495952D01*
G04 #@! TO.C,D11*
X123245714Y-95067380D02*
X123245714Y-94067380D01*
X123483809Y-94067380D01*
X123626666Y-94115000D01*
X123721904Y-94210238D01*
X123769523Y-94305476D01*
X123817142Y-94495952D01*
X123817142Y-94638809D01*
X123769523Y-94829285D01*
X123721904Y-94924523D01*
X123626666Y-95019761D01*
X123483809Y-95067380D01*
X123245714Y-95067380D01*
X124769523Y-95067380D02*
X124198095Y-95067380D01*
X124483809Y-95067380D02*
X124483809Y-94067380D01*
X124388571Y-94210238D01*
X124293333Y-94305476D01*
X124198095Y-94353095D01*
X125721904Y-95067380D02*
X125150476Y-95067380D01*
X125436190Y-95067380D02*
X125436190Y-94067380D01*
X125340952Y-94210238D01*
X125245714Y-94305476D01*
X125150476Y-94353095D01*
G04 #@! TO.C,SW2*
X160591666Y-102639761D02*
X160734523Y-102687380D01*
X160972619Y-102687380D01*
X161067857Y-102639761D01*
X161115476Y-102592142D01*
X161163095Y-102496904D01*
X161163095Y-102401666D01*
X161115476Y-102306428D01*
X161067857Y-102258809D01*
X160972619Y-102211190D01*
X160782142Y-102163571D01*
X160686904Y-102115952D01*
X160639285Y-102068333D01*
X160591666Y-101973095D01*
X160591666Y-101877857D01*
X160639285Y-101782619D01*
X160686904Y-101735000D01*
X160782142Y-101687380D01*
X161020238Y-101687380D01*
X161163095Y-101735000D01*
X161496428Y-101687380D02*
X161734523Y-102687380D01*
X161925000Y-101973095D01*
X162115476Y-102687380D01*
X162353571Y-101687380D01*
X162686904Y-101782619D02*
X162734523Y-101735000D01*
X162829761Y-101687380D01*
X163067857Y-101687380D01*
X163163095Y-101735000D01*
X163210714Y-101782619D01*
X163258333Y-101877857D01*
X163258333Y-101973095D01*
X163210714Y-102115952D01*
X162639285Y-102687380D01*
X163258333Y-102687380D01*
G04 #@! TD*
M02*
