G04 #@! TF.GenerationSoftware,KiCad,Pcbnew,5.0.2-bee76a0~70~ubuntu14.04.1*
G04 #@! TF.CreationDate,2019-04-02T14:46:03+02:00*
G04 #@! TF.ProjectId,shield_a,73686965-6c64-45f6-912e-6b696361645f,1.1*
G04 #@! TF.SameCoordinates,Original*
G04 #@! TF.FileFunction,Copper,L1,Top*
G04 #@! TF.FilePolarity,Positive*
%FSLAX46Y46*%
G04 Gerber Fmt 4.6, Leading zero omitted, Abs format (unit mm)*
G04 Created by KiCad (PCBNEW 5.0.2-bee76a0~70~ubuntu14.04.1) date Uto 02 Tra 2019 14:46:03*
%MOMM*%
%LPD*%
G01*
G04 APERTURE LIST*
G04 #@! TA.AperFunction,ComponentPad*
%ADD10R,1.700000X1.700000*%
G04 #@! TD*
G04 #@! TA.AperFunction,ComponentPad*
%ADD11O,1.700000X1.700000*%
G04 #@! TD*
G04 #@! TA.AperFunction,ComponentPad*
%ADD12R,2.000000X2.000000*%
G04 #@! TD*
G04 #@! TA.AperFunction,ComponentPad*
%ADD13C,2.000000*%
G04 #@! TD*
G04 #@! TA.AperFunction,ComponentPad*
%ADD14O,1.600000X1.600000*%
G04 #@! TD*
G04 #@! TA.AperFunction,ComponentPad*
%ADD15R,1.600000X1.600000*%
G04 #@! TD*
G04 #@! TA.AperFunction,ComponentPad*
%ADD16C,1.440000*%
G04 #@! TD*
G04 #@! TA.AperFunction,ComponentPad*
%ADD17C,1.800000*%
G04 #@! TD*
G04 #@! TA.AperFunction,WasherPad*
%ADD18C,4.000000*%
G04 #@! TD*
G04 #@! TA.AperFunction,ComponentPad*
%ADD19C,1.600000*%
G04 #@! TD*
G04 #@! TA.AperFunction,ComponentPad*
%ADD20R,1.800000X1.800000*%
G04 #@! TD*
G04 #@! TA.AperFunction,ComponentPad*
%ADD21C,1.500000*%
G04 #@! TD*
G04 #@! TA.AperFunction,ComponentPad*
%ADD22R,1.500000X1.500000*%
G04 #@! TD*
G04 #@! TA.AperFunction,ComponentPad*
%ADD23R,1.800000X1.070000*%
G04 #@! TD*
G04 #@! TA.AperFunction,ComponentPad*
%ADD24O,1.800000X1.070000*%
G04 #@! TD*
G04 #@! TA.AperFunction,Conductor*
%ADD25C,0.500000*%
G04 #@! TD*
G04 #@! TA.AperFunction,Conductor*
%ADD26C,0.254000*%
G04 #@! TD*
G04 APERTURE END LIST*
D10*
G04 #@! TO.P,DS1,1*
G04 #@! TO.N,GND*
X111760000Y-70485000D03*
D11*
G04 #@! TO.P,DS1,2*
G04 #@! TO.N,+5V*
X114300000Y-70485000D03*
G04 #@! TO.P,DS1,3*
G04 #@! TO.N,Net-(DS1-Pad3)*
X116840000Y-70485000D03*
G04 #@! TO.P,DS1,4*
G04 #@! TO.N,D2*
X119380000Y-70485000D03*
G04 #@! TO.P,DS1,5*
G04 #@! TO.N,GND*
X121920000Y-70485000D03*
G04 #@! TO.P,DS1,6*
G04 #@! TO.N,D3*
X124460000Y-70485000D03*
G04 #@! TO.P,DS1,7*
G04 #@! TO.N,Net-(DS1-Pad7)*
X127000000Y-70485000D03*
G04 #@! TO.P,DS1,8*
G04 #@! TO.N,Net-(DS1-Pad8)*
X129540000Y-70485000D03*
G04 #@! TO.P,DS1,9*
G04 #@! TO.N,Net-(DS1-Pad9)*
X132080000Y-70485000D03*
G04 #@! TO.P,DS1,10*
G04 #@! TO.N,Net-(DS1-Pad10)*
X134620000Y-70485000D03*
G04 #@! TO.P,DS1,11*
G04 #@! TO.N,D4*
X137160000Y-70485000D03*
G04 #@! TO.P,DS1,12*
G04 #@! TO.N,D5*
X139700000Y-70485000D03*
G04 #@! TO.P,DS1,13*
G04 #@! TO.N,D6*
X142240000Y-70485000D03*
G04 #@! TO.P,DS1,14*
G04 #@! TO.N,D7*
X144780000Y-70485000D03*
G04 #@! TO.P,DS1,15*
G04 #@! TO.N,+5V*
X147320000Y-70485000D03*
G04 #@! TO.P,DS1,16*
G04 #@! TO.N,Net-(DS1-Pad16)*
X149860000Y-70485000D03*
G04 #@! TD*
D12*
G04 #@! TO.P,BZ1,1*
G04 #@! TO.N,Net-(A1-Pad28)*
X111125000Y-98425000D03*
D13*
G04 #@! TO.P,BZ1,2*
G04 #@! TO.N,GND*
X118725000Y-98425000D03*
D12*
G04 #@! TO.P,BZ1,1*
G04 #@! TO.N,Net-(A1-Pad28)*
X112395000Y-98425000D03*
D13*
G04 #@! TO.P,BZ1,2*
G04 #@! TO.N,GND*
X117475000Y-98425000D03*
G04 #@! TD*
D14*
G04 #@! TO.P,A1,32*
G04 #@! TO.N,Net-(A1-Pad32)*
X126750000Y-66040000D03*
G04 #@! TO.P,A1,31*
G04 #@! TO.N,Net-(A1-Pad31)*
X129290000Y-66040000D03*
D15*
G04 #@! TO.P,A1,1*
G04 #@! TO.N,Net-(A1-Pad1)*
X135890000Y-114300000D03*
D14*
G04 #@! TO.P,A1,17*
G04 #@! TO.N,D2*
X166370000Y-66040000D03*
G04 #@! TO.P,A1,2*
G04 #@! TO.N,Net-(A1-Pad2)*
X138430000Y-114300000D03*
G04 #@! TO.P,A1,18*
G04 #@! TO.N,D3*
X163830000Y-66040000D03*
G04 #@! TO.P,A1,3*
G04 #@! TO.N,Net-(A1-Pad3)*
X140970000Y-114300000D03*
G04 #@! TO.P,A1,19*
G04 #@! TO.N,D4*
X161290000Y-66040000D03*
G04 #@! TO.P,A1,4*
G04 #@! TO.N,Net-(A1-Pad4)*
X143510000Y-114300000D03*
G04 #@! TO.P,A1,20*
G04 #@! TO.N,D5*
X158750000Y-66040000D03*
G04 #@! TO.P,A1,5*
G04 #@! TO.N,+5V*
X146050000Y-114300000D03*
G04 #@! TO.P,A1,21*
G04 #@! TO.N,D6*
X156210000Y-66040000D03*
G04 #@! TO.P,A1,6*
G04 #@! TO.N,GND*
X148590000Y-114300000D03*
G04 #@! TO.P,A1,22*
G04 #@! TO.N,D7*
X153670000Y-66040000D03*
G04 #@! TO.P,A1,7*
G04 #@! TO.N,GND*
X151130000Y-114300000D03*
G04 #@! TO.P,A1,23*
G04 #@! TO.N,D8*
X149610000Y-66040000D03*
G04 #@! TO.P,A1,8*
G04 #@! TO.N,Net-(A1-Pad8)*
X153670000Y-114300000D03*
G04 #@! TO.P,A1,24*
G04 #@! TO.N,D9*
X147070000Y-66040000D03*
G04 #@! TO.P,A1,9*
G04 #@! TO.N,Net-(A1-Pad9)*
X158750000Y-114300000D03*
G04 #@! TO.P,A1,25*
G04 #@! TO.N,D10*
X144530000Y-66040000D03*
G04 #@! TO.P,A1,10*
G04 #@! TO.N,Net-(A1-Pad10)*
X161290000Y-114300000D03*
G04 #@! TO.P,A1,26*
G04 #@! TO.N,D11*
X141990000Y-66040000D03*
G04 #@! TO.P,A1,11*
G04 #@! TO.N,Net-(A1-Pad11)*
X163830000Y-114300000D03*
G04 #@! TO.P,A1,27*
G04 #@! TO.N,Net-(A1-Pad27)*
X139450000Y-66040000D03*
G04 #@! TO.P,A1,12*
G04 #@! TO.N,Net-(A1-Pad12)*
X166370000Y-114300000D03*
G04 #@! TO.P,A1,28*
G04 #@! TO.N,Net-(A1-Pad28)*
X136910000Y-66040000D03*
G04 #@! TO.P,A1,13*
G04 #@! TO.N,SDA*
X168910000Y-114300000D03*
G04 #@! TO.P,A1,29*
G04 #@! TO.N,GND*
X134370000Y-66040000D03*
G04 #@! TO.P,A1,14*
G04 #@! TO.N,SCL*
X171450000Y-114300000D03*
G04 #@! TO.P,A1,30*
G04 #@! TO.N,Net-(A1-Pad30)*
X131830000Y-66040000D03*
G04 #@! TO.P,A1,15*
G04 #@! TO.N,Net-(A1-Pad15)*
X171450000Y-66040000D03*
G04 #@! TO.P,A1,16*
G04 #@! TO.N,Net-(A1-Pad16)*
X168910000Y-66040000D03*
G04 #@! TD*
D13*
G04 #@! TO.P,SW1,2*
G04 #@! TO.N,GND*
X152345000Y-104775000D03*
G04 #@! TO.P,SW1,1*
G04 #@! TO.N,A1*
X156845000Y-104775000D03*
G04 #@! TO.P,SW1,2*
G04 #@! TO.N,GND*
X152345000Y-111275000D03*
G04 #@! TO.P,SW1,1*
G04 #@! TO.N,A1*
X156845000Y-111275000D03*
G04 #@! TD*
D16*
G04 #@! TO.P,RV2,3*
G04 #@! TO.N,+5V*
X116205000Y-111125000D03*
G04 #@! TO.P,RV2,2*
G04 #@! TO.N,Net-(DS1-Pad3)*
X113665000Y-113665000D03*
G04 #@! TO.P,RV2,1*
G04 #@! TO.N,GND*
X111125000Y-111125000D03*
G04 #@! TD*
D17*
G04 #@! TO.P,RV1,3*
G04 #@! TO.N,+5V*
X124540000Y-104140000D03*
G04 #@! TO.P,RV1,2*
G04 #@! TO.N,Net-(A1-Pad9)*
X127040000Y-104140000D03*
G04 #@! TO.P,RV1,1*
G04 #@! TO.N,GND*
X129540000Y-104140000D03*
D18*
G04 #@! TO.P,RV1,*
G04 #@! TO.N,*
X122290000Y-111640000D03*
X131790000Y-111640000D03*
G04 #@! TD*
D14*
G04 #@! TO.P,R4,2*
G04 #@! TO.N,Net-(D3-Pad2)*
X146685000Y-85090000D03*
D19*
G04 #@! TO.P,R4,1*
G04 #@! TO.N,D3*
X146685000Y-77470000D03*
G04 #@! TD*
D14*
G04 #@! TO.P,R13,2*
G04 #@! TO.N,Net-(D10-Pad3)*
X127635000Y-85090000D03*
D19*
G04 #@! TO.P,R13,1*
G04 #@! TO.N,D7*
X127635000Y-77470000D03*
G04 #@! TD*
D20*
G04 #@! TO.P,D1,1*
G04 #@! TO.N,Net-(D0-Pad1)*
X155575000Y-92075000D03*
D17*
G04 #@! TO.P,D1,2*
G04 #@! TO.N,Net-(D1-Pad2)*
X155575000Y-89535000D03*
G04 #@! TD*
D14*
G04 #@! TO.P,R10,2*
G04 #@! TO.N,Net-(A1-Pad11)*
X147955000Y-111125000D03*
D19*
G04 #@! TO.P,R10,1*
G04 #@! TO.N,A2*
X147955000Y-103505000D03*
G04 #@! TD*
G04 #@! TO.P,R12,1*
G04 #@! TO.N,D6*
X130810000Y-77470000D03*
D14*
G04 #@! TO.P,R12,2*
G04 #@! TO.N,Net-(D10-Pad4)*
X130810000Y-85090000D03*
G04 #@! TD*
D21*
G04 #@! TO.P,Q1,2*
G04 #@! TO.N,Net-(A1-Pad27)*
X114935000Y-88265000D03*
G04 #@! TO.P,Q1,3*
G04 #@! TO.N,GND*
X112395000Y-88265000D03*
D22*
G04 #@! TO.P,Q1,1*
G04 #@! TO.N,Net-(D0-Pad1)*
X117475000Y-88265000D03*
G04 #@! TD*
D19*
G04 #@! TO.P,R1,1*
G04 #@! TO.N,Net-(R1-Pad1)*
X156210000Y-77470000D03*
D14*
G04 #@! TO.P,R1,2*
G04 #@! TO.N,Net-(D0-Pad2)*
X156210000Y-85090000D03*
G04 #@! TD*
D17*
G04 #@! TO.P,D4,2*
G04 #@! TO.N,Net-(D4-Pad2)*
X140335000Y-89535000D03*
D20*
G04 #@! TO.P,D4,1*
G04 #@! TO.N,Net-(D0-Pad1)*
X140335000Y-92075000D03*
G04 #@! TD*
D17*
G04 #@! TO.P,D0,2*
G04 #@! TO.N,Net-(D0-Pad2)*
X160655000Y-89535000D03*
D20*
G04 #@! TO.P,D0,1*
G04 #@! TO.N,Net-(D0-Pad1)*
X160655000Y-92075000D03*
G04 #@! TD*
D19*
G04 #@! TO.P,R3,1*
G04 #@! TO.N,D2*
X149860000Y-77470000D03*
D14*
G04 #@! TO.P,R3,2*
G04 #@! TO.N,Net-(D2-Pad2)*
X149860000Y-85090000D03*
G04 #@! TD*
D20*
G04 #@! TO.P,D5,1*
G04 #@! TO.N,Net-(D0-Pad1)*
X135255000Y-92075000D03*
D17*
G04 #@! TO.P,D5,2*
G04 #@! TO.N,Net-(D5-Pad2)*
X135255000Y-89535000D03*
G04 #@! TD*
D20*
G04 #@! TO.P,D3,1*
G04 #@! TO.N,Net-(D0-Pad1)*
X145415000Y-92075000D03*
D17*
G04 #@! TO.P,D3,2*
G04 #@! TO.N,Net-(D3-Pad2)*
X145415000Y-89535000D03*
G04 #@! TD*
D20*
G04 #@! TO.P,D7,1*
G04 #@! TO.N,Net-(D0-Pad1)*
X125095000Y-92075000D03*
D17*
G04 #@! TO.P,D7,2*
G04 #@! TO.N,Net-(D7-Pad2)*
X125095000Y-89535000D03*
G04 #@! TD*
G04 #@! TO.P,D6,2*
G04 #@! TO.N,Net-(D6-Pad2)*
X130175000Y-89535000D03*
D20*
G04 #@! TO.P,D6,1*
G04 #@! TO.N,Net-(D0-Pad1)*
X130175000Y-92075000D03*
G04 #@! TD*
D14*
G04 #@! TO.P,R2,2*
G04 #@! TO.N,Net-(D1-Pad2)*
X153035000Y-85090000D03*
D19*
G04 #@! TO.P,R2,1*
G04 #@! TO.N,Net-(R2-Pad1)*
X153035000Y-77470000D03*
G04 #@! TD*
D17*
G04 #@! TO.P,D2,2*
G04 #@! TO.N,Net-(D2-Pad2)*
X150495000Y-89535000D03*
D20*
G04 #@! TO.P,D2,1*
G04 #@! TO.N,Net-(D0-Pad1)*
X150495000Y-92075000D03*
G04 #@! TD*
D19*
G04 #@! TO.P,R7,1*
G04 #@! TO.N,D6*
X137160000Y-77470000D03*
D14*
G04 #@! TO.P,R7,2*
G04 #@! TO.N,Net-(D6-Pad2)*
X137160000Y-85090000D03*
G04 #@! TD*
G04 #@! TO.P,R6,2*
G04 #@! TO.N,Net-(D5-Pad2)*
X140335000Y-85090000D03*
D19*
G04 #@! TO.P,R6,1*
G04 #@! TO.N,D5*
X140335000Y-77470000D03*
G04 #@! TD*
D10*
G04 #@! TO.P,J1,1*
G04 #@! TO.N,+5V*
X173990000Y-108585000D03*
D11*
G04 #@! TO.P,J1,2*
G04 #@! TO.N,GND*
X173990000Y-106045000D03*
G04 #@! TO.P,J1,3*
G04 #@! TO.N,SCL*
X173990000Y-103505000D03*
G04 #@! TO.P,J1,4*
G04 #@! TO.N,SDA*
X173990000Y-100965000D03*
G04 #@! TD*
D21*
G04 #@! TO.P,Q2,2*
G04 #@! TO.N,Net-(A1-Pad12)*
X170815000Y-82550000D03*
G04 #@! TO.P,Q2,3*
G04 #@! TO.N,GND*
X173355000Y-82550000D03*
D22*
G04 #@! TO.P,Q2,1*
G04 #@! TO.N,Net-(Q2-Pad1)*
X168275000Y-82550000D03*
G04 #@! TD*
D13*
G04 #@! TO.P,SW3,2*
G04 #@! TO.N,GND*
X140390000Y-111125000D03*
G04 #@! TO.P,SW3,1*
G04 #@! TO.N,Net-(A1-Pad3)*
X135890000Y-111125000D03*
G04 #@! TO.P,SW3,2*
G04 #@! TO.N,GND*
X140390000Y-104625000D03*
G04 #@! TO.P,SW3,1*
G04 #@! TO.N,Net-(A1-Pad3)*
X135890000Y-104625000D03*
G04 #@! TD*
D14*
G04 #@! TO.P,R15,2*
G04 #@! TO.N,GND*
X173990000Y-87630000D03*
D19*
G04 #@! TO.P,R15,1*
G04 #@! TO.N,Net-(A1-Pad12)*
X173990000Y-95250000D03*
G04 #@! TD*
G04 #@! TO.P,R18,1*
G04 #@! TO.N,SCL*
X170815000Y-95250000D03*
D14*
G04 #@! TO.P,R18,2*
G04 #@! TO.N,+5V*
X170815000Y-87630000D03*
G04 #@! TD*
G04 #@! TO.P,R8,2*
G04 #@! TO.N,Net-(D7-Pad2)*
X133985000Y-85090000D03*
D19*
G04 #@! TO.P,R8,1*
G04 #@! TO.N,D7*
X133985000Y-77470000D03*
G04 #@! TD*
D14*
G04 #@! TO.P,R17,2*
G04 #@! TO.N,+5V*
X167640000Y-87630000D03*
D19*
G04 #@! TO.P,R17,1*
G04 #@! TO.N,SDA*
X167640000Y-95250000D03*
G04 #@! TD*
G04 #@! TO.P,R9,1*
G04 #@! TO.N,A1*
X144145000Y-103505000D03*
D14*
G04 #@! TO.P,R9,2*
G04 #@! TO.N,Net-(A1-Pad10)*
X144145000Y-111125000D03*
G04 #@! TD*
D23*
G04 #@! TO.P,D9,1*
G04 #@! TO.N,Net-(D10-Pad1)*
X147955000Y-99695000D03*
D24*
G04 #@! TO.P,D9,2*
G04 #@! TO.N,D9*
X147955000Y-98425000D03*
G04 #@! TO.P,D9,3*
G04 #@! TO.N,Net-(D10-Pad3)*
X147955000Y-97155000D03*
G04 #@! TO.P,D9,4*
G04 #@! TO.N,Net-(D10-Pad4)*
X147955000Y-95885000D03*
G04 #@! TD*
D19*
G04 #@! TO.P,R16,1*
G04 #@! TO.N,Net-(DS1-Pad16)*
X153670000Y-70485000D03*
D14*
G04 #@! TO.P,R16,2*
G04 #@! TO.N,Net-(Q2-Pad1)*
X161290000Y-70485000D03*
G04 #@! TD*
D24*
G04 #@! TO.P,D10,4*
G04 #@! TO.N,Net-(D10-Pad4)*
X137795000Y-95885000D03*
G04 #@! TO.P,D10,3*
G04 #@! TO.N,Net-(D10-Pad3)*
X137795000Y-97155000D03*
G04 #@! TO.P,D10,2*
G04 #@! TO.N,D10*
X137795000Y-98425000D03*
D23*
G04 #@! TO.P,D10,1*
G04 #@! TO.N,Net-(D10-Pad1)*
X137795000Y-99695000D03*
G04 #@! TD*
D19*
G04 #@! TO.P,R11,1*
G04 #@! TO.N,D5*
X124460000Y-77470000D03*
D14*
G04 #@! TO.P,R11,2*
G04 #@! TO.N,Net-(D10-Pad1)*
X124460000Y-85090000D03*
G04 #@! TD*
D19*
G04 #@! TO.P,R5,1*
G04 #@! TO.N,D4*
X143510000Y-77470000D03*
D14*
G04 #@! TO.P,R5,2*
G04 #@! TO.N,Net-(D4-Pad2)*
X143510000Y-85090000D03*
G04 #@! TD*
D19*
G04 #@! TO.P,R14,1*
G04 #@! TO.N,Net-(A1-Pad27)*
X121285000Y-85090000D03*
D14*
G04 #@! TO.P,R14,2*
G04 #@! TO.N,GND*
X121285000Y-77470000D03*
G04 #@! TD*
D15*
G04 #@! TO.P,SW4,1*
G04 #@! TO.N,Net-(A1-Pad15)*
X163195000Y-77470000D03*
D14*
G04 #@! TO.P,SW4,3*
G04 #@! TO.N,Net-(R2-Pad1)*
X160655000Y-85090000D03*
G04 #@! TO.P,SW4,2*
G04 #@! TO.N,Net-(A1-Pad16)*
X160655000Y-77470000D03*
G04 #@! TO.P,SW4,4*
G04 #@! TO.N,Net-(R1-Pad1)*
X163195000Y-85090000D03*
G04 #@! TD*
D24*
G04 #@! TO.P,D8,4*
G04 #@! TO.N,Net-(D10-Pad4)*
X158115000Y-95885000D03*
G04 #@! TO.P,D8,3*
G04 #@! TO.N,Net-(D10-Pad3)*
X158115000Y-97155000D03*
G04 #@! TO.P,D8,2*
G04 #@! TO.N,D8*
X158115000Y-98425000D03*
D23*
G04 #@! TO.P,D8,1*
G04 #@! TO.N,Net-(D10-Pad1)*
X158115000Y-99695000D03*
G04 #@! TD*
G04 #@! TO.P,D11,1*
G04 #@! TO.N,Net-(D10-Pad1)*
X127635000Y-99695000D03*
D24*
G04 #@! TO.P,D11,2*
G04 #@! TO.N,D11*
X127635000Y-98425000D03*
G04 #@! TO.P,D11,3*
G04 #@! TO.N,Net-(D10-Pad3)*
X127635000Y-97155000D03*
G04 #@! TO.P,D11,4*
G04 #@! TO.N,Net-(D10-Pad4)*
X127635000Y-95885000D03*
G04 #@! TD*
D13*
G04 #@! TO.P,SW2,1*
G04 #@! TO.N,A2*
X164465000Y-111275000D03*
G04 #@! TO.P,SW2,2*
G04 #@! TO.N,GND*
X159965000Y-111275000D03*
G04 #@! TO.P,SW2,1*
G04 #@! TO.N,A2*
X164465000Y-104775000D03*
G04 #@! TO.P,SW2,2*
G04 #@! TO.N,GND*
X159965000Y-104775000D03*
G04 #@! TD*
D25*
G04 #@! TO.N,GND*
X173990000Y-87630000D02*
X173990000Y-89080300D01*
X173465000Y-106045000D02*
X173571900Y-106045000D01*
X173571900Y-106045000D02*
X175509000Y-104107900D01*
X175509000Y-104107900D02*
X175509000Y-90599300D01*
X175509000Y-90599300D02*
X173990000Y-89080300D01*
X173465000Y-106045000D02*
X172489700Y-106045000D01*
X173990000Y-106045000D02*
X173465000Y-106045000D01*
X159965000Y-104775000D02*
X161624800Y-106434800D01*
X161624800Y-106434800D02*
X172099900Y-106434800D01*
X172099900Y-106434800D02*
X172489700Y-106045000D01*
X152345000Y-104775000D02*
X154025000Y-103095000D01*
X154025000Y-103095000D02*
X158285000Y-103095000D01*
X158285000Y-103095000D02*
X159965000Y-104775000D01*
X148590000Y-114300000D02*
X150040300Y-114300000D01*
X151130000Y-113799900D02*
X150540400Y-113799900D01*
X150540400Y-113799900D02*
X150040300Y-114300000D01*
X151130000Y-113799900D02*
X151130000Y-112849700D01*
X151130000Y-114300000D02*
X151130000Y-113799900D01*
X152345000Y-111634700D02*
X151130000Y-112849700D01*
X152345000Y-111275000D02*
X152345000Y-111634700D01*
X159965000Y-111275000D02*
X159723800Y-111275000D01*
X159723800Y-111275000D02*
X158068300Y-112930500D01*
X158068300Y-112930500D02*
X155275500Y-112930500D01*
X155275500Y-112930500D02*
X153979700Y-111634700D01*
X153979700Y-111634700D02*
X152345000Y-111634700D01*
X140390000Y-104625000D02*
X140390000Y-111125000D01*
X117475000Y-98425000D02*
X118725000Y-98425000D01*
X140390000Y-111125000D02*
X141840400Y-112575400D01*
X141840400Y-112575400D02*
X146865400Y-112575400D01*
X146865400Y-112575400D02*
X148590000Y-114300000D01*
X133570001Y-66839999D02*
X134370000Y-66040000D01*
X131425001Y-68984999D02*
X133570001Y-66839999D01*
X123420001Y-68984999D02*
X131425001Y-68984999D01*
X121920000Y-70485000D02*
X123420001Y-68984999D01*
G04 #@! TO.N,Net-(D7-Pad2)*
X131990010Y-87084990D02*
X133185001Y-85889999D01*
X133185001Y-85889999D02*
X133985000Y-85090000D01*
X127545010Y-87084990D02*
X131990010Y-87084990D01*
X125095000Y-89535000D02*
X127545010Y-87084990D01*
G04 #@! TO.N,Net-(D6-Pad2)*
X136360001Y-85889999D02*
X137160000Y-85090000D01*
X134265001Y-87984999D02*
X136360001Y-85889999D01*
X131725001Y-87984999D02*
X134265001Y-87984999D01*
X130175000Y-89535000D02*
X131725001Y-87984999D01*
G04 #@! TO.N,Net-(D4-Pad2)*
X143510000Y-86360000D02*
X143510000Y-85090000D01*
X140335000Y-89535000D02*
X143510000Y-86360000D01*
G04 #@! TO.N,Net-(D2-Pad2)*
X149860000Y-88900000D02*
X150495000Y-89535000D01*
X149860000Y-85090000D02*
X149860000Y-88900000D01*
G04 #@! TO.N,Net-(R2-Pad1)*
X160655000Y-85090000D02*
X153035000Y-77470000D01*
G04 #@! TO.N,+5V*
X166189700Y-87630000D02*
X156619800Y-87630000D01*
X156619800Y-87630000D02*
X154622500Y-85632700D01*
X154622500Y-85632700D02*
X154622500Y-84584200D01*
X154622500Y-84584200D02*
X150838900Y-80800600D01*
X150838900Y-80800600D02*
X148447200Y-80800600D01*
X167640000Y-87630000D02*
X166189700Y-87630000D01*
X170815000Y-87630000D02*
X167640000Y-87630000D01*
X147511800Y-115761800D02*
X146050000Y-114300000D01*
X172098100Y-115761800D02*
X147511800Y-115761800D01*
X172924900Y-114935000D02*
X172098100Y-115761800D01*
X172924900Y-111000100D02*
X172924900Y-114935000D01*
X173990000Y-109935000D02*
X172924900Y-111000100D01*
X173990000Y-108585000D02*
X173990000Y-109935000D01*
X118265600Y-80800600D02*
X114300000Y-76835000D01*
X114300000Y-76835000D02*
X114300000Y-70485000D01*
X148447200Y-80800600D02*
X118265600Y-80800600D01*
G04 #@! TO.N,Net-(A1-Pad3)*
X135890000Y-111125000D02*
X137795000Y-111125000D01*
X137795000Y-111125000D02*
X140970000Y-114300000D01*
X135890000Y-104625000D02*
X135890000Y-111125000D01*
G04 #@! TO.N,Net-(A1-Pad28)*
X112395000Y-98425000D02*
X111125000Y-98425000D01*
G04 #@! TO.N,SDA*
X173990000Y-100965000D02*
X172489700Y-100965000D01*
X172489700Y-100965000D02*
X172489700Y-100099700D01*
X172489700Y-100099700D02*
X167640000Y-95250000D01*
G04 #@! TO.N,Net-(D10-Pad4)*
X147955000Y-95885000D02*
X146555000Y-95885000D01*
X137795000Y-95885000D02*
X139195000Y-95885000D01*
X139195000Y-95885000D02*
X146555000Y-95885000D01*
X158115000Y-95885000D02*
X147955000Y-95885000D01*
X127635000Y-95885000D02*
X137795000Y-95885000D01*
G04 #@! TO.N,Net-(D10-Pad3)*
X158115000Y-97155000D02*
X147955000Y-97155000D01*
X137795000Y-97155000D02*
X147955000Y-97155000D01*
X127635000Y-97155000D02*
X137795000Y-97155000D01*
G04 #@! TO.N,D2*
X158452300Y-76019600D02*
X151310400Y-76019600D01*
X151310400Y-76019600D02*
X149860000Y-77470000D01*
X120780700Y-79879300D02*
X119380000Y-78478600D01*
X146826200Y-79879300D02*
X120780700Y-79879300D01*
X119380000Y-78478600D02*
X119380000Y-70485000D01*
X149235500Y-77470000D02*
X146826200Y-79879300D01*
X149860000Y-77470000D02*
X149235500Y-77470000D01*
X158452300Y-76019600D02*
X160020000Y-76019600D01*
X166370000Y-69850000D02*
X166370000Y-66040000D01*
X160200400Y-76019600D02*
X166370000Y-69850000D01*
X158452300Y-76019600D02*
X160200400Y-76019600D01*
G04 #@! TO.N,D11*
X126284990Y-98049992D02*
X126659998Y-98425000D01*
X126659998Y-98425000D02*
X127635000Y-98425000D01*
X126284990Y-94949010D02*
X126284990Y-98049992D01*
X126746000Y-94488000D02*
X126284990Y-94949010D01*
X161290000Y-94488000D02*
X126746000Y-94488000D01*
X172539999Y-88051003D02*
X170929002Y-89662000D01*
X143440001Y-64589999D02*
X172146001Y-64589999D01*
X172146001Y-64589999D02*
X172900001Y-65343999D01*
X141990000Y-66040000D02*
X143440001Y-64589999D01*
X172900001Y-65343999D02*
X172900001Y-70939999D01*
X165608000Y-84582000D02*
X166370000Y-85344000D01*
X172900001Y-70939999D02*
X165608000Y-78232000D01*
X165608000Y-78232000D02*
X165608000Y-84582000D01*
X171523999Y-85344000D02*
X172539999Y-86360000D01*
X166370000Y-85344000D02*
X171523999Y-85344000D01*
X172539999Y-86360000D02*
X172539999Y-88051003D01*
X161290000Y-94488000D02*
X166116000Y-89662000D01*
X170929002Y-89662000D02*
X166116000Y-89662000D01*
G04 #@! TO.N,Net-(D10-Pad1)*
X147955000Y-99695000D02*
X137795000Y-99695000D01*
X158115000Y-99695000D02*
X147955000Y-99695000D01*
X127635000Y-99695000D02*
X137795000Y-99695000D01*
G04 #@! TO.N,D7*
X144780000Y-70485000D02*
X146289700Y-68975300D01*
X146289700Y-68975300D02*
X150734700Y-68975300D01*
X150734700Y-68975300D02*
X153670000Y-66040000D01*
G04 #@! TO.N,D6*
X156210000Y-66040000D02*
X156210000Y-67490300D01*
X142240000Y-70485000D02*
X143755700Y-72000700D01*
X143755700Y-72000700D02*
X154858700Y-72000700D01*
X154858700Y-72000700D02*
X156210000Y-70649400D01*
X156210000Y-70649400D02*
X156210000Y-67490300D01*
X137160000Y-77470000D02*
X135685400Y-78944600D01*
X135685400Y-78944600D02*
X132284600Y-78944600D01*
X132284600Y-78944600D02*
X130810000Y-77470000D01*
G04 #@! TO.N,D5*
X158750000Y-67171370D02*
X158750000Y-66040000D01*
X158750000Y-69382206D02*
X158750000Y-67171370D01*
X155231497Y-72900709D02*
X158750000Y-69382206D01*
X142115710Y-72900710D02*
X155231497Y-72900709D01*
X139700000Y-70485000D02*
X142115710Y-72900710D01*
G04 #@! TO.N,D4*
X137160000Y-71120000D02*
X137160000Y-70485000D01*
X143510000Y-77470000D02*
X137160000Y-71120000D01*
X159650009Y-67679991D02*
X161290000Y-66040000D01*
X159650009Y-70473991D02*
X159650009Y-67679991D01*
X147066000Y-73914000D02*
X156210000Y-73914000D01*
X156210000Y-73914000D02*
X159650009Y-70473991D01*
X143510000Y-77470000D02*
X147066000Y-73914000D01*
G04 #@! TO.N,Net-(A1-Pad15)*
X171450000Y-67171370D02*
X171450000Y-66040000D01*
X171450000Y-70515000D02*
X171450000Y-67171370D01*
X164495000Y-77470000D02*
X171450000Y-70515000D01*
X163195000Y-77470000D02*
X164495000Y-77470000D01*
G04 #@! TO.N,Net-(A1-Pad16)*
X168910000Y-69215000D02*
X168910000Y-66040000D01*
X160655000Y-77470000D02*
X168910000Y-69215000D01*
G04 #@! TO.N,A2*
X164465000Y-104775000D02*
X161884600Y-102194600D01*
X161884600Y-102194600D02*
X149265400Y-102194600D01*
X149265400Y-102194600D02*
X147955000Y-103505000D01*
G04 #@! TO.N,Net-(A1-Pad27)*
X118173700Y-85026300D02*
X121221300Y-85026300D01*
X121221300Y-85026300D02*
X121285000Y-85090000D01*
X114935000Y-88265000D02*
X118173700Y-85026300D01*
X137999999Y-64589999D02*
X138650001Y-65240001D01*
X138650001Y-65240001D02*
X139450000Y-66040000D01*
X113765201Y-64589999D02*
X137999999Y-64589999D01*
X110259600Y-68095600D02*
X113765201Y-64589999D01*
X110259600Y-77112200D02*
X110259600Y-68095600D01*
X118173700Y-85026300D02*
X110259600Y-77112200D01*
G04 #@! TO.N,D3*
X124460000Y-70485000D02*
X126508700Y-72533700D01*
X126508700Y-72533700D02*
X134318100Y-72533700D01*
X134318100Y-72533700D02*
X138747500Y-76963100D01*
X138747500Y-76963100D02*
X138747500Y-77948000D01*
X138747500Y-77948000D02*
X139721000Y-78921500D01*
X139721000Y-78921500D02*
X145233500Y-78921500D01*
X145233500Y-78921500D02*
X146685000Y-77470000D01*
X163830000Y-71117194D02*
X163830000Y-66040000D01*
X149340990Y-74814010D02*
X160133184Y-74814010D01*
X160133184Y-74814010D02*
X163830000Y-71117194D01*
X146685000Y-77470000D02*
X149340990Y-74814010D01*
G04 #@! TO.N,Net-(A1-Pad10)*
X161290000Y-114300000D02*
X161290000Y-112849700D01*
X144145000Y-111125000D02*
X145595300Y-111125000D01*
X145595300Y-111125000D02*
X147109000Y-109611300D01*
X147109000Y-109611300D02*
X160713000Y-109611300D01*
X160713000Y-109611300D02*
X161636900Y-110535200D01*
X161636900Y-110535200D02*
X161636900Y-112502800D01*
X161636900Y-112502800D02*
X161290000Y-112849700D01*
G04 #@! TO.N,Net-(DS1-Pad16)*
X149860000Y-70485000D02*
X153670000Y-70485000D01*
G04 #@! TO.N,Net-(D0-Pad1)*
X145415000Y-92075000D02*
X140335000Y-92075000D01*
X150495000Y-92075000D02*
X145415000Y-92075000D01*
X150495000Y-92075000D02*
X155575000Y-92075000D01*
X140335000Y-92075000D02*
X135255000Y-92075000D01*
X130175000Y-92075000D02*
X135255000Y-92075000D01*
X125095000Y-92075000D02*
X130175000Y-92075000D01*
X117475000Y-88265000D02*
X118725000Y-88265000D01*
X118725000Y-88265000D02*
X122535000Y-92075000D01*
X122535000Y-92075000D02*
X125095000Y-92075000D01*
X160655000Y-92075000D02*
X155575000Y-92075000D01*
G04 #@! TD*
D26*
G04 #@! TO.N,GND*
G36*
X109695445Y-67408177D02*
X109621552Y-67457551D01*
X109572178Y-67531444D01*
X109572176Y-67531446D01*
X109425948Y-67750291D01*
X109357263Y-68095600D01*
X109374601Y-68182765D01*
X109374600Y-77025039D01*
X109357263Y-77112200D01*
X109374600Y-77199361D01*
X109374600Y-77199364D01*
X109425948Y-77457509D01*
X109621551Y-77750249D01*
X109695447Y-77799625D01*
X116922121Y-85026300D01*
X115068422Y-86880000D01*
X114659506Y-86880000D01*
X114150460Y-87090853D01*
X113760853Y-87480460D01*
X113671603Y-87695930D01*
X113607460Y-87541077D01*
X113366517Y-87473088D01*
X112574605Y-88265000D01*
X113366517Y-89056912D01*
X113607460Y-88988923D01*
X113666745Y-88822342D01*
X113760853Y-89049540D01*
X114150460Y-89439147D01*
X114659506Y-89650000D01*
X115210494Y-89650000D01*
X115719540Y-89439147D01*
X116088531Y-89070156D01*
X116126843Y-89262765D01*
X116267191Y-89472809D01*
X116477235Y-89613157D01*
X116725000Y-89662440D01*
X118225000Y-89662440D01*
X118472765Y-89613157D01*
X118681863Y-89473441D01*
X121847577Y-92639156D01*
X121896951Y-92713049D01*
X121970844Y-92762423D01*
X121970845Y-92762424D01*
X122189690Y-92908652D01*
X122447835Y-92960000D01*
X122447839Y-92960000D01*
X122535000Y-92977337D01*
X122622161Y-92960000D01*
X123547560Y-92960000D01*
X123547560Y-92975000D01*
X123596843Y-93222765D01*
X123737191Y-93432809D01*
X123947235Y-93573157D01*
X124195000Y-93622440D01*
X125995000Y-93622440D01*
X126242765Y-93573157D01*
X126452809Y-93432809D01*
X126593157Y-93222765D01*
X126642440Y-92975000D01*
X126642440Y-92960000D01*
X128627560Y-92960000D01*
X128627560Y-92975000D01*
X128676843Y-93222765D01*
X128817191Y-93432809D01*
X129027235Y-93573157D01*
X129177267Y-93603000D01*
X126833161Y-93603000D01*
X126746000Y-93585663D01*
X126658839Y-93603000D01*
X126658835Y-93603000D01*
X126400690Y-93654348D01*
X126107951Y-93849951D01*
X126058576Y-93923846D01*
X125720837Y-94261585D01*
X125646941Y-94310961D01*
X125451338Y-94603701D01*
X125399990Y-94861846D01*
X125399990Y-94861849D01*
X125382653Y-94949010D01*
X125399990Y-95036171D01*
X125399991Y-97962827D01*
X125382653Y-98049992D01*
X125451338Y-98395301D01*
X125597566Y-98614146D01*
X125597568Y-98614148D01*
X125646942Y-98688041D01*
X125720835Y-98737415D01*
X125972573Y-98989153D01*
X126021949Y-99063049D01*
X126096885Y-99113120D01*
X126087560Y-99160000D01*
X126087560Y-100230000D01*
X126136843Y-100477765D01*
X126277191Y-100687809D01*
X126487235Y-100828157D01*
X126735000Y-100877440D01*
X128535000Y-100877440D01*
X128782765Y-100828157D01*
X128992809Y-100687809D01*
X129064845Y-100580000D01*
X136365155Y-100580000D01*
X136437191Y-100687809D01*
X136647235Y-100828157D01*
X136895000Y-100877440D01*
X138695000Y-100877440D01*
X138942765Y-100828157D01*
X139152809Y-100687809D01*
X139224845Y-100580000D01*
X146525155Y-100580000D01*
X146597191Y-100687809D01*
X146807235Y-100828157D01*
X147055000Y-100877440D01*
X148855000Y-100877440D01*
X149102765Y-100828157D01*
X149312809Y-100687809D01*
X149384845Y-100580000D01*
X156685155Y-100580000D01*
X156757191Y-100687809D01*
X156967235Y-100828157D01*
X157215000Y-100877440D01*
X159015000Y-100877440D01*
X159262765Y-100828157D01*
X159472809Y-100687809D01*
X159613157Y-100477765D01*
X159662440Y-100230000D01*
X159662440Y-99160000D01*
X159613157Y-98912235D01*
X159584527Y-98869387D01*
X159672921Y-98425000D01*
X159582115Y-97968489D01*
X159462853Y-97790000D01*
X159582115Y-97611511D01*
X159672921Y-97155000D01*
X159582115Y-96698489D01*
X159462853Y-96520000D01*
X159582115Y-96341511D01*
X159672921Y-95885000D01*
X159582115Y-95428489D01*
X159545039Y-95373000D01*
X161202839Y-95373000D01*
X161290000Y-95390337D01*
X161377161Y-95373000D01*
X161377165Y-95373000D01*
X161635310Y-95321652D01*
X161928049Y-95126049D01*
X161977425Y-95052153D01*
X162065017Y-94964561D01*
X166205000Y-94964561D01*
X166205000Y-95535439D01*
X166423466Y-96062862D01*
X166827138Y-96466534D01*
X167354561Y-96685000D01*
X167823422Y-96685000D01*
X171604701Y-100466279D01*
X171604700Y-100877835D01*
X171587362Y-100965000D01*
X171656048Y-101310310D01*
X171812475Y-101544418D01*
X171851651Y-101603049D01*
X172144390Y-101798652D01*
X172489700Y-101867338D01*
X172576864Y-101850000D01*
X172795344Y-101850000D01*
X172919375Y-102035625D01*
X173217761Y-102235000D01*
X172919375Y-102434375D01*
X172591161Y-102925582D01*
X172475908Y-103505000D01*
X172591161Y-104084418D01*
X172919375Y-104575625D01*
X173238478Y-104788843D01*
X173108642Y-104849817D01*
X172718355Y-105278076D01*
X172548524Y-105688110D01*
X172669845Y-105918000D01*
X173863000Y-105918000D01*
X173863000Y-105898000D01*
X174117000Y-105898000D01*
X174117000Y-105918000D01*
X175310155Y-105918000D01*
X175431476Y-105688110D01*
X175261645Y-105278076D01*
X174871358Y-104849817D01*
X174741522Y-104788843D01*
X175060625Y-104575625D01*
X175388839Y-104084418D01*
X175504092Y-103505000D01*
X175388839Y-102925582D01*
X175060625Y-102434375D01*
X174762239Y-102235000D01*
X175060625Y-102035625D01*
X175388839Y-101544418D01*
X175504092Y-100965000D01*
X175388839Y-100385582D01*
X175060625Y-99894375D01*
X174569418Y-99566161D01*
X174136256Y-99480000D01*
X173843744Y-99480000D01*
X173410582Y-99566161D01*
X173263326Y-99664555D01*
X173177124Y-99535545D01*
X173177123Y-99535544D01*
X173127749Y-99461651D01*
X173053856Y-99412277D01*
X170183048Y-96541469D01*
X170529561Y-96685000D01*
X171100439Y-96685000D01*
X171627862Y-96466534D01*
X172031534Y-96062862D01*
X172250000Y-95535439D01*
X172250000Y-94964561D01*
X172555000Y-94964561D01*
X172555000Y-95535439D01*
X172773466Y-96062862D01*
X173177138Y-96466534D01*
X173704561Y-96685000D01*
X174275439Y-96685000D01*
X174802862Y-96466534D01*
X175206534Y-96062862D01*
X175425000Y-95535439D01*
X175425000Y-94964561D01*
X175206534Y-94437138D01*
X174802862Y-94033466D01*
X174275439Y-93815000D01*
X173704561Y-93815000D01*
X173177138Y-94033466D01*
X172773466Y-94437138D01*
X172555000Y-94964561D01*
X172250000Y-94964561D01*
X172031534Y-94437138D01*
X171627862Y-94033466D01*
X171100439Y-93815000D01*
X170529561Y-93815000D01*
X170002138Y-94033466D01*
X169598466Y-94437138D01*
X169380000Y-94964561D01*
X169380000Y-95535439D01*
X169523531Y-95881952D01*
X169075000Y-95433422D01*
X169075000Y-94964561D01*
X168856534Y-94437138D01*
X168452862Y-94033466D01*
X167925439Y-93815000D01*
X167354561Y-93815000D01*
X166827138Y-94033466D01*
X166423466Y-94437138D01*
X166205000Y-94964561D01*
X162065017Y-94964561D01*
X166482579Y-90547000D01*
X170841841Y-90547000D01*
X170929002Y-90564337D01*
X171016163Y-90547000D01*
X171016167Y-90547000D01*
X171274312Y-90495652D01*
X171567051Y-90300049D01*
X171616427Y-90226153D01*
X173104155Y-88738426D01*
X173111675Y-88733401D01*
X173252577Y-88861041D01*
X173640961Y-89021904D01*
X173863000Y-88899915D01*
X173863000Y-87757000D01*
X174117000Y-87757000D01*
X174117000Y-88899915D01*
X174339039Y-89021904D01*
X174727423Y-88861041D01*
X175142389Y-88485134D01*
X175381914Y-87979041D01*
X175260629Y-87757000D01*
X174117000Y-87757000D01*
X173863000Y-87757000D01*
X173843000Y-87757000D01*
X173843000Y-87503000D01*
X173863000Y-87503000D01*
X173863000Y-86360085D01*
X174117000Y-86360085D01*
X174117000Y-87503000D01*
X175260629Y-87503000D01*
X175381914Y-87280959D01*
X175142389Y-86774866D01*
X174727423Y-86398959D01*
X174339039Y-86238096D01*
X174117000Y-86360085D01*
X173863000Y-86360085D01*
X173640961Y-86238096D01*
X173435052Y-86323380D01*
X173424999Y-86272839D01*
X173424999Y-86272835D01*
X173373651Y-86014690D01*
X173298930Y-85902862D01*
X173227423Y-85795845D01*
X173227422Y-85795844D01*
X173178048Y-85721951D01*
X173104155Y-85672577D01*
X172211424Y-84779847D01*
X172162048Y-84705951D01*
X171869309Y-84510348D01*
X171611164Y-84459000D01*
X171611160Y-84459000D01*
X171523999Y-84441663D01*
X171436838Y-84459000D01*
X166736579Y-84459000D01*
X166493000Y-84215422D01*
X166493000Y-81800000D01*
X166877560Y-81800000D01*
X166877560Y-83300000D01*
X166926843Y-83547765D01*
X167067191Y-83757809D01*
X167277235Y-83898157D01*
X167525000Y-83947440D01*
X169025000Y-83947440D01*
X169272765Y-83898157D01*
X169482809Y-83757809D01*
X169623157Y-83547765D01*
X169661469Y-83355156D01*
X170030460Y-83724147D01*
X170539506Y-83935000D01*
X171090494Y-83935000D01*
X171599540Y-83724147D01*
X171802170Y-83521517D01*
X172563088Y-83521517D01*
X172631077Y-83762460D01*
X173150171Y-83947201D01*
X173700448Y-83919230D01*
X174078923Y-83762460D01*
X174146912Y-83521517D01*
X173355000Y-82729605D01*
X172563088Y-83521517D01*
X171802170Y-83521517D01*
X171989147Y-83334540D01*
X172078397Y-83119070D01*
X172142540Y-83273923D01*
X172383483Y-83341912D01*
X173175395Y-82550000D01*
X173534605Y-82550000D01*
X174326517Y-83341912D01*
X174567460Y-83273923D01*
X174752201Y-82754829D01*
X174724230Y-82204552D01*
X174567460Y-81826077D01*
X174326517Y-81758088D01*
X173534605Y-82550000D01*
X173175395Y-82550000D01*
X172383483Y-81758088D01*
X172142540Y-81826077D01*
X172083255Y-81992658D01*
X171989147Y-81765460D01*
X171802170Y-81578483D01*
X172563088Y-81578483D01*
X173355000Y-82370395D01*
X174146912Y-81578483D01*
X174078923Y-81337540D01*
X173559829Y-81152799D01*
X173009552Y-81180770D01*
X172631077Y-81337540D01*
X172563088Y-81578483D01*
X171802170Y-81578483D01*
X171599540Y-81375853D01*
X171090494Y-81165000D01*
X170539506Y-81165000D01*
X170030460Y-81375853D01*
X169661469Y-81744844D01*
X169623157Y-81552235D01*
X169482809Y-81342191D01*
X169272765Y-81201843D01*
X169025000Y-81152560D01*
X167525000Y-81152560D01*
X167277235Y-81201843D01*
X167067191Y-81342191D01*
X166926843Y-81552235D01*
X166877560Y-81800000D01*
X166493000Y-81800000D01*
X166493000Y-78598578D01*
X173407000Y-71684579D01*
X173407000Y-76384076D01*
X173393091Y-76454000D01*
X173407000Y-76523924D01*
X173407000Y-76523925D01*
X173448195Y-76731027D01*
X173605119Y-76965880D01*
X173664402Y-77005492D01*
X175947001Y-79288092D01*
X175947000Y-111592909D01*
X173809900Y-113730010D01*
X173809900Y-111366678D01*
X174554156Y-110622423D01*
X174628049Y-110573049D01*
X174679332Y-110496300D01*
X174823652Y-110280310D01*
X174831670Y-110240000D01*
X174863959Y-110077674D01*
X175087765Y-110033157D01*
X175297809Y-109892809D01*
X175438157Y-109682765D01*
X175487440Y-109435000D01*
X175487440Y-107735000D01*
X175438157Y-107487235D01*
X175297809Y-107277191D01*
X175087765Y-107136843D01*
X174984292Y-107116261D01*
X175261645Y-106811924D01*
X175431476Y-106401890D01*
X175310155Y-106172000D01*
X174117000Y-106172000D01*
X174117000Y-106192000D01*
X173863000Y-106192000D01*
X173863000Y-106172000D01*
X172669845Y-106172000D01*
X172548524Y-106401890D01*
X172718355Y-106811924D01*
X172995708Y-107116261D01*
X172892235Y-107136843D01*
X172682191Y-107277191D01*
X172541843Y-107487235D01*
X172492560Y-107735000D01*
X172492560Y-109435000D01*
X172541843Y-109682765D01*
X172682191Y-109892809D01*
X172741190Y-109932231D01*
X172360747Y-110312675D01*
X172286851Y-110362051D01*
X172091248Y-110654791D01*
X172039900Y-110912936D01*
X172039900Y-110912939D01*
X172022563Y-111000100D01*
X172039900Y-111087261D01*
X172039901Y-112968300D01*
X172009909Y-112948260D01*
X171591333Y-112865000D01*
X171308667Y-112865000D01*
X170890091Y-112948260D01*
X170415423Y-113265423D01*
X170180000Y-113617758D01*
X169944577Y-113265423D01*
X169469909Y-112948260D01*
X169051333Y-112865000D01*
X168768667Y-112865000D01*
X168350091Y-112948260D01*
X167875423Y-113265423D01*
X167640000Y-113617758D01*
X167404577Y-113265423D01*
X166929909Y-112948260D01*
X166511333Y-112865000D01*
X166228667Y-112865000D01*
X165810091Y-112948260D01*
X165335423Y-113265423D01*
X165100000Y-113617758D01*
X164864577Y-113265423D01*
X164389909Y-112948260D01*
X164197563Y-112910000D01*
X164790222Y-112910000D01*
X165391153Y-112661086D01*
X165851086Y-112201153D01*
X166100000Y-111600222D01*
X166100000Y-110949778D01*
X165851086Y-110348847D01*
X165391153Y-109888914D01*
X164790222Y-109640000D01*
X164139778Y-109640000D01*
X163538847Y-109888914D01*
X163078914Y-110348847D01*
X162830000Y-110949778D01*
X162830000Y-111600222D01*
X163078914Y-112201153D01*
X163538847Y-112661086D01*
X164086392Y-112887887D01*
X163971333Y-112865000D01*
X163688667Y-112865000D01*
X163270091Y-112948260D01*
X162795423Y-113265423D01*
X162560000Y-113617758D01*
X162324577Y-113265423D01*
X162206544Y-113186556D01*
X162274949Y-113140849D01*
X162470552Y-112848110D01*
X162521900Y-112589965D01*
X162521900Y-112589961D01*
X162539237Y-112502800D01*
X162521900Y-112415639D01*
X162521900Y-110622361D01*
X162539237Y-110535200D01*
X162521900Y-110448039D01*
X162521900Y-110448035D01*
X162470552Y-110189890D01*
X162460754Y-110175226D01*
X162324324Y-109971045D01*
X162324323Y-109971044D01*
X162274949Y-109897151D01*
X162201056Y-109847777D01*
X161400425Y-109047147D01*
X161351049Y-108973251D01*
X161058310Y-108777648D01*
X160800165Y-108726300D01*
X160800161Y-108726300D01*
X160713000Y-108708963D01*
X160625839Y-108726300D01*
X147196159Y-108726300D01*
X147108999Y-108708963D01*
X147021840Y-108726300D01*
X147021835Y-108726300D01*
X146763690Y-108777648D01*
X146600586Y-108886631D01*
X146544845Y-108923876D01*
X146544844Y-108923877D01*
X146470951Y-108973251D01*
X146421577Y-109047144D01*
X145259174Y-110209548D01*
X145179577Y-110090423D01*
X144704909Y-109773260D01*
X144286333Y-109690000D01*
X144003667Y-109690000D01*
X143585091Y-109773260D01*
X143110423Y-110090423D01*
X142793260Y-110565091D01*
X142681887Y-111125000D01*
X142793260Y-111684909D01*
X143110423Y-112159577D01*
X143585091Y-112476740D01*
X144003667Y-112560000D01*
X144286333Y-112560000D01*
X144704909Y-112476740D01*
X145179577Y-112159577D01*
X145279521Y-112010000D01*
X145508139Y-112010000D01*
X145595300Y-112027337D01*
X145682461Y-112010000D01*
X145682465Y-112010000D01*
X145940610Y-111958652D01*
X146233349Y-111763049D01*
X146282725Y-111689153D01*
X146550784Y-111421094D01*
X146603260Y-111684909D01*
X146920423Y-112159577D01*
X147395091Y-112476740D01*
X147813667Y-112560000D01*
X148096333Y-112560000D01*
X148514909Y-112476740D01*
X148588553Y-112427532D01*
X151372073Y-112427532D01*
X151470736Y-112694387D01*
X152080461Y-112920908D01*
X152730460Y-112896856D01*
X153219264Y-112694387D01*
X153317927Y-112427532D01*
X152345000Y-111454605D01*
X151372073Y-112427532D01*
X148588553Y-112427532D01*
X148989577Y-112159577D01*
X149306740Y-111684909D01*
X149418113Y-111125000D01*
X149306740Y-110565091D01*
X149260775Y-110496300D01*
X150890110Y-110496300D01*
X150699092Y-111010461D01*
X150723144Y-111660460D01*
X150925613Y-112149264D01*
X151192468Y-112247927D01*
X152165395Y-111275000D01*
X152151253Y-111260858D01*
X152330858Y-111081253D01*
X152345000Y-111095395D01*
X152359143Y-111081253D01*
X152538748Y-111260858D01*
X152524605Y-111275000D01*
X153497532Y-112247927D01*
X153764387Y-112149264D01*
X153990908Y-111539539D01*
X153966856Y-110889540D01*
X153803971Y-110496300D01*
X155397837Y-110496300D01*
X155210000Y-110949778D01*
X155210000Y-111600222D01*
X155458914Y-112201153D01*
X155918847Y-112661086D01*
X156519778Y-112910000D01*
X157170222Y-112910000D01*
X157771153Y-112661086D01*
X158231086Y-112201153D01*
X158399096Y-111795541D01*
X158545613Y-112149264D01*
X158812468Y-112247927D01*
X159785395Y-111275000D01*
X159771253Y-111260858D01*
X159950858Y-111081253D01*
X159965000Y-111095395D01*
X159979143Y-111081253D01*
X160158748Y-111260858D01*
X160144605Y-111275000D01*
X160158748Y-111289143D01*
X159979143Y-111468748D01*
X159965000Y-111454605D01*
X158992073Y-112427532D01*
X159090736Y-112694387D01*
X159700461Y-112920908D01*
X160350460Y-112896856D01*
X160393497Y-112879030D01*
X160405001Y-112936865D01*
X160405001Y-113165478D01*
X160255423Y-113265423D01*
X160020000Y-113617758D01*
X159784577Y-113265423D01*
X159309909Y-112948260D01*
X158891333Y-112865000D01*
X158608667Y-112865000D01*
X158190091Y-112948260D01*
X157715423Y-113265423D01*
X157398260Y-113740091D01*
X157286887Y-114300000D01*
X157398260Y-114859909D01*
X157409546Y-114876800D01*
X155010454Y-114876800D01*
X155021740Y-114859909D01*
X155133113Y-114300000D01*
X155021740Y-113740091D01*
X154704577Y-113265423D01*
X154229909Y-112948260D01*
X153811333Y-112865000D01*
X153528667Y-112865000D01*
X153110091Y-112948260D01*
X152635423Y-113265423D01*
X152379053Y-113649108D01*
X152282389Y-113444866D01*
X151867423Y-113068959D01*
X151479039Y-112908096D01*
X151257000Y-113030085D01*
X151257000Y-114173000D01*
X151277000Y-114173000D01*
X151277000Y-114427000D01*
X151257000Y-114427000D01*
X151257000Y-114447000D01*
X151003000Y-114447000D01*
X151003000Y-114427000D01*
X148717000Y-114427000D01*
X148717000Y-114447000D01*
X148463000Y-114447000D01*
X148463000Y-114427000D01*
X148443000Y-114427000D01*
X148443000Y-114173000D01*
X148463000Y-114173000D01*
X148463000Y-113030085D01*
X148717000Y-113030085D01*
X148717000Y-114173000D01*
X151003000Y-114173000D01*
X151003000Y-113030085D01*
X150780961Y-112908096D01*
X150392577Y-113068959D01*
X149977611Y-113444866D01*
X149860000Y-113693367D01*
X149742389Y-113444866D01*
X149327423Y-113068959D01*
X148939039Y-112908096D01*
X148717000Y-113030085D01*
X148463000Y-113030085D01*
X148240961Y-112908096D01*
X147852577Y-113068959D01*
X147437611Y-113444866D01*
X147340947Y-113649108D01*
X147084577Y-113265423D01*
X146609909Y-112948260D01*
X146191333Y-112865000D01*
X145908667Y-112865000D01*
X145490091Y-112948260D01*
X145015423Y-113265423D01*
X144780000Y-113617758D01*
X144544577Y-113265423D01*
X144069909Y-112948260D01*
X143651333Y-112865000D01*
X143368667Y-112865000D01*
X142950091Y-112948260D01*
X142475423Y-113265423D01*
X142240000Y-113617758D01*
X142004577Y-113265423D01*
X141529909Y-112948260D01*
X141111333Y-112865000D01*
X140828667Y-112865000D01*
X140793562Y-112871983D01*
X140672254Y-112750675D01*
X140775460Y-112746856D01*
X141264264Y-112544387D01*
X141362927Y-112277532D01*
X140390000Y-111304605D01*
X140375858Y-111318748D01*
X140196253Y-111139143D01*
X140210395Y-111125000D01*
X140569605Y-111125000D01*
X141542532Y-112097927D01*
X141809387Y-111999264D01*
X142035908Y-111389539D01*
X142011856Y-110739540D01*
X141809387Y-110250736D01*
X141542532Y-110152073D01*
X140569605Y-111125000D01*
X140210395Y-111125000D01*
X139237468Y-110152073D01*
X138970613Y-110250736D01*
X138754371Y-110832793D01*
X138482424Y-110560846D01*
X138433049Y-110486951D01*
X138140310Y-110291348D01*
X137882165Y-110240000D01*
X137882161Y-110240000D01*
X137795000Y-110222663D01*
X137707839Y-110240000D01*
X137293132Y-110240000D01*
X137276086Y-110198847D01*
X137049707Y-109972468D01*
X139417073Y-109972468D01*
X140390000Y-110945395D01*
X141362927Y-109972468D01*
X141264264Y-109705613D01*
X140654539Y-109479092D01*
X140004540Y-109503144D01*
X139515736Y-109705613D01*
X139417073Y-109972468D01*
X137049707Y-109972468D01*
X136816153Y-109738914D01*
X136775000Y-109721868D01*
X136775000Y-106028132D01*
X136816153Y-106011086D01*
X137049707Y-105777532D01*
X139417073Y-105777532D01*
X139515736Y-106044387D01*
X140125461Y-106270908D01*
X140775460Y-106246856D01*
X141264264Y-106044387D01*
X141307468Y-105927532D01*
X151372073Y-105927532D01*
X151470736Y-106194387D01*
X152080461Y-106420908D01*
X152730460Y-106396856D01*
X153219264Y-106194387D01*
X153317927Y-105927532D01*
X152345000Y-104954605D01*
X151372073Y-105927532D01*
X141307468Y-105927532D01*
X141362927Y-105777532D01*
X140390000Y-104804605D01*
X139417073Y-105777532D01*
X137049707Y-105777532D01*
X137276086Y-105551153D01*
X137525000Y-104950222D01*
X137525000Y-104360461D01*
X138744092Y-104360461D01*
X138768144Y-105010460D01*
X138970613Y-105499264D01*
X139237468Y-105597927D01*
X140210395Y-104625000D01*
X140569605Y-104625000D01*
X141542532Y-105597927D01*
X141809387Y-105499264D01*
X142035908Y-104889539D01*
X142011856Y-104239540D01*
X141809387Y-103750736D01*
X141542532Y-103652073D01*
X140569605Y-104625000D01*
X140210395Y-104625000D01*
X139237468Y-103652073D01*
X138970613Y-103750736D01*
X138744092Y-104360461D01*
X137525000Y-104360461D01*
X137525000Y-104299778D01*
X137276086Y-103698847D01*
X137049707Y-103472468D01*
X139417073Y-103472468D01*
X140390000Y-104445395D01*
X141362927Y-103472468D01*
X141269421Y-103219561D01*
X142710000Y-103219561D01*
X142710000Y-103790439D01*
X142928466Y-104317862D01*
X143332138Y-104721534D01*
X143859561Y-104940000D01*
X144430439Y-104940000D01*
X144957862Y-104721534D01*
X145361534Y-104317862D01*
X145580000Y-103790439D01*
X145580000Y-103219561D01*
X146520000Y-103219561D01*
X146520000Y-103790439D01*
X146738466Y-104317862D01*
X147142138Y-104721534D01*
X147669561Y-104940000D01*
X148240439Y-104940000D01*
X148767862Y-104721534D01*
X148978935Y-104510461D01*
X150699092Y-104510461D01*
X150723144Y-105160460D01*
X150925613Y-105649264D01*
X151192468Y-105747927D01*
X152165395Y-104775000D01*
X152524605Y-104775000D01*
X153497532Y-105747927D01*
X153764387Y-105649264D01*
X153990908Y-105039539D01*
X153969085Y-104449778D01*
X155210000Y-104449778D01*
X155210000Y-105100222D01*
X155458914Y-105701153D01*
X155918847Y-106161086D01*
X156519778Y-106410000D01*
X157170222Y-106410000D01*
X157771153Y-106161086D01*
X158004707Y-105927532D01*
X158992073Y-105927532D01*
X159090736Y-106194387D01*
X159700461Y-106420908D01*
X160350460Y-106396856D01*
X160839264Y-106194387D01*
X160937927Y-105927532D01*
X159965000Y-104954605D01*
X158992073Y-105927532D01*
X158004707Y-105927532D01*
X158231086Y-105701153D01*
X158399096Y-105295541D01*
X158545613Y-105649264D01*
X158812468Y-105747927D01*
X159785395Y-104775000D01*
X160144605Y-104775000D01*
X161117532Y-105747927D01*
X161384387Y-105649264D01*
X161610908Y-105039539D01*
X161586856Y-104389540D01*
X161384387Y-103900736D01*
X161117532Y-103802073D01*
X160144605Y-104775000D01*
X159785395Y-104775000D01*
X158812468Y-103802073D01*
X158545613Y-103900736D01*
X158407059Y-104273682D01*
X158231086Y-103848847D01*
X158004707Y-103622468D01*
X158992073Y-103622468D01*
X159965000Y-104595395D01*
X160937927Y-103622468D01*
X160839264Y-103355613D01*
X160229539Y-103129092D01*
X159579540Y-103153144D01*
X159090736Y-103355613D01*
X158992073Y-103622468D01*
X158004707Y-103622468D01*
X157771153Y-103388914D01*
X157170222Y-103140000D01*
X156519778Y-103140000D01*
X155918847Y-103388914D01*
X155458914Y-103848847D01*
X155210000Y-104449778D01*
X153969085Y-104449778D01*
X153966856Y-104389540D01*
X153764387Y-103900736D01*
X153497532Y-103802073D01*
X152524605Y-104775000D01*
X152165395Y-104775000D01*
X151192468Y-103802073D01*
X150925613Y-103900736D01*
X150699092Y-104510461D01*
X148978935Y-104510461D01*
X149171534Y-104317862D01*
X149390000Y-103790439D01*
X149390000Y-103622468D01*
X151372073Y-103622468D01*
X152345000Y-104595395D01*
X153317927Y-103622468D01*
X153219264Y-103355613D01*
X152609539Y-103129092D01*
X151959540Y-103153144D01*
X151470736Y-103355613D01*
X151372073Y-103622468D01*
X149390000Y-103622468D01*
X149390000Y-103321579D01*
X149631979Y-103079600D01*
X161518022Y-103079600D01*
X162847046Y-104408625D01*
X162830000Y-104449778D01*
X162830000Y-105100222D01*
X163078914Y-105701153D01*
X163538847Y-106161086D01*
X164139778Y-106410000D01*
X164790222Y-106410000D01*
X165391153Y-106161086D01*
X165851086Y-105701153D01*
X166100000Y-105100222D01*
X166100000Y-104449778D01*
X165851086Y-103848847D01*
X165391153Y-103388914D01*
X164790222Y-103140000D01*
X164139778Y-103140000D01*
X164098625Y-103157046D01*
X162572025Y-101630447D01*
X162522649Y-101556551D01*
X162229910Y-101360948D01*
X161971765Y-101309600D01*
X161971761Y-101309600D01*
X161884600Y-101292263D01*
X161797439Y-101309600D01*
X149352559Y-101309600D01*
X149265399Y-101292263D01*
X149178239Y-101309600D01*
X149178235Y-101309600D01*
X148920090Y-101360948D01*
X148920088Y-101360949D01*
X148920089Y-101360949D01*
X148701245Y-101507176D01*
X148701244Y-101507177D01*
X148627351Y-101556551D01*
X148577977Y-101630444D01*
X148138421Y-102070000D01*
X147669561Y-102070000D01*
X147142138Y-102288466D01*
X146738466Y-102692138D01*
X146520000Y-103219561D01*
X145580000Y-103219561D01*
X145361534Y-102692138D01*
X144957862Y-102288466D01*
X144430439Y-102070000D01*
X143859561Y-102070000D01*
X143332138Y-102288466D01*
X142928466Y-102692138D01*
X142710000Y-103219561D01*
X141269421Y-103219561D01*
X141264264Y-103205613D01*
X140654539Y-102979092D01*
X140004540Y-103003144D01*
X139515736Y-103205613D01*
X139417073Y-103472468D01*
X137049707Y-103472468D01*
X136816153Y-103238914D01*
X136215222Y-102990000D01*
X135564778Y-102990000D01*
X134963847Y-103238914D01*
X134503914Y-103698847D01*
X134255000Y-104299778D01*
X134255000Y-104950222D01*
X134503914Y-105551153D01*
X134963847Y-106011086D01*
X135005000Y-106028132D01*
X135005001Y-109721868D01*
X134963847Y-109738914D01*
X134503914Y-110198847D01*
X134274536Y-110752614D01*
X134023845Y-110147392D01*
X133282608Y-109406155D01*
X132314134Y-109005000D01*
X131265866Y-109005000D01*
X130297392Y-109406155D01*
X129556155Y-110147392D01*
X129155000Y-111115866D01*
X129155000Y-112164134D01*
X129556155Y-113132608D01*
X130297392Y-113873845D01*
X131265866Y-114275000D01*
X132314134Y-114275000D01*
X133282608Y-113873845D01*
X134023845Y-113132608D01*
X134425000Y-112164134D01*
X134425000Y-111860638D01*
X134503914Y-112051153D01*
X134963847Y-112511086D01*
X135564778Y-112760000D01*
X136215222Y-112760000D01*
X136816153Y-112511086D01*
X137276086Y-112051153D01*
X137293132Y-112010000D01*
X137428422Y-112010000D01*
X138284292Y-112865870D01*
X137870091Y-112948260D01*
X137395423Y-113265423D01*
X137314785Y-113386106D01*
X137288157Y-113252235D01*
X137147809Y-113042191D01*
X136937765Y-112901843D01*
X136690000Y-112852560D01*
X135090000Y-112852560D01*
X134842235Y-112901843D01*
X134632191Y-113042191D01*
X134491843Y-113252235D01*
X134442560Y-113500000D01*
X134442560Y-115100000D01*
X134491843Y-115347765D01*
X134632191Y-115557809D01*
X134842235Y-115698157D01*
X135090000Y-115747440D01*
X136690000Y-115747440D01*
X136937765Y-115698157D01*
X137147809Y-115557809D01*
X137288157Y-115347765D01*
X137314785Y-115213894D01*
X137395423Y-115334577D01*
X137870091Y-115651740D01*
X138288667Y-115735000D01*
X138571333Y-115735000D01*
X138989909Y-115651740D01*
X139464577Y-115334577D01*
X139700000Y-114982242D01*
X139935423Y-115334577D01*
X140410091Y-115651740D01*
X140828667Y-115735000D01*
X141111333Y-115735000D01*
X141529909Y-115651740D01*
X142004577Y-115334577D01*
X142240000Y-114982242D01*
X142475423Y-115334577D01*
X142950091Y-115651740D01*
X143368667Y-115735000D01*
X143651333Y-115735000D01*
X144069909Y-115651740D01*
X144544577Y-115334577D01*
X144780000Y-114982242D01*
X145015423Y-115334577D01*
X145490091Y-115651740D01*
X145908667Y-115735000D01*
X146191333Y-115735000D01*
X146226439Y-115728017D01*
X146755421Y-116257000D01*
X108533000Y-116257000D01*
X108533000Y-113395474D01*
X112310000Y-113395474D01*
X112310000Y-113934526D01*
X112516286Y-114432546D01*
X112897454Y-114813714D01*
X113395474Y-115020000D01*
X113934526Y-115020000D01*
X114432546Y-114813714D01*
X114813714Y-114432546D01*
X115020000Y-113934526D01*
X115020000Y-113395474D01*
X114813714Y-112897454D01*
X114432546Y-112516286D01*
X113934526Y-112310000D01*
X113395474Y-112310000D01*
X112897454Y-112516286D01*
X112516286Y-112897454D01*
X112310000Y-113395474D01*
X108533000Y-113395474D01*
X108533000Y-112074774D01*
X110354831Y-112074774D01*
X110419131Y-112312611D01*
X110927342Y-112492333D01*
X111465644Y-112463892D01*
X111830869Y-112312611D01*
X111895169Y-112074774D01*
X111125000Y-111304605D01*
X110354831Y-112074774D01*
X108533000Y-112074774D01*
X108533000Y-110927342D01*
X109757667Y-110927342D01*
X109786108Y-111465644D01*
X109937389Y-111830869D01*
X110175226Y-111895169D01*
X110945395Y-111125000D01*
X111304605Y-111125000D01*
X112074774Y-111895169D01*
X112312611Y-111830869D01*
X112492333Y-111322658D01*
X112467650Y-110855474D01*
X114850000Y-110855474D01*
X114850000Y-111394526D01*
X115056286Y-111892546D01*
X115437454Y-112273714D01*
X115935474Y-112480000D01*
X116474526Y-112480000D01*
X116972546Y-112273714D01*
X117353714Y-111892546D01*
X117560000Y-111394526D01*
X117560000Y-111115866D01*
X119655000Y-111115866D01*
X119655000Y-112164134D01*
X120056155Y-113132608D01*
X120797392Y-113873845D01*
X121765866Y-114275000D01*
X122814134Y-114275000D01*
X123782608Y-113873845D01*
X124523845Y-113132608D01*
X124925000Y-112164134D01*
X124925000Y-111115866D01*
X124523845Y-110147392D01*
X123782608Y-109406155D01*
X122814134Y-109005000D01*
X121765866Y-109005000D01*
X120797392Y-109406155D01*
X120056155Y-110147392D01*
X119655000Y-111115866D01*
X117560000Y-111115866D01*
X117560000Y-110855474D01*
X117353714Y-110357454D01*
X116972546Y-109976286D01*
X116474526Y-109770000D01*
X115935474Y-109770000D01*
X115437454Y-109976286D01*
X115056286Y-110357454D01*
X114850000Y-110855474D01*
X112467650Y-110855474D01*
X112463892Y-110784356D01*
X112312611Y-110419131D01*
X112074774Y-110354831D01*
X111304605Y-111125000D01*
X110945395Y-111125000D01*
X110175226Y-110354831D01*
X109937389Y-110419131D01*
X109757667Y-110927342D01*
X108533000Y-110927342D01*
X108533000Y-110175226D01*
X110354831Y-110175226D01*
X111125000Y-110945395D01*
X111895169Y-110175226D01*
X111830869Y-109937389D01*
X111322658Y-109757667D01*
X110784356Y-109786108D01*
X110419131Y-109937389D01*
X110354831Y-110175226D01*
X108533000Y-110175226D01*
X108533000Y-103834670D01*
X123005000Y-103834670D01*
X123005000Y-104445330D01*
X123238690Y-105009507D01*
X123670493Y-105441310D01*
X124234670Y-105675000D01*
X124845330Y-105675000D01*
X125409507Y-105441310D01*
X125790000Y-105060817D01*
X126170493Y-105441310D01*
X126734670Y-105675000D01*
X127345330Y-105675000D01*
X127909507Y-105441310D01*
X128130658Y-105220159D01*
X128639446Y-105220159D01*
X128725852Y-105476643D01*
X129299336Y-105686458D01*
X129909460Y-105660839D01*
X130354148Y-105476643D01*
X130440554Y-105220159D01*
X129540000Y-104319605D01*
X128639446Y-105220159D01*
X128130658Y-105220159D01*
X128341310Y-105009507D01*
X128344539Y-105001710D01*
X128459841Y-105040554D01*
X129360395Y-104140000D01*
X129719605Y-104140000D01*
X130620159Y-105040554D01*
X130876643Y-104954148D01*
X131086458Y-104380664D01*
X131060839Y-103770540D01*
X130876643Y-103325852D01*
X130620159Y-103239446D01*
X129719605Y-104140000D01*
X129360395Y-104140000D01*
X128459841Y-103239446D01*
X128344539Y-103278290D01*
X128341310Y-103270493D01*
X128130658Y-103059841D01*
X128639446Y-103059841D01*
X129540000Y-103960395D01*
X130440554Y-103059841D01*
X130354148Y-102803357D01*
X129780664Y-102593542D01*
X129170540Y-102619161D01*
X128725852Y-102803357D01*
X128639446Y-103059841D01*
X128130658Y-103059841D01*
X127909507Y-102838690D01*
X127345330Y-102605000D01*
X126734670Y-102605000D01*
X126170493Y-102838690D01*
X125790000Y-103219183D01*
X125409507Y-102838690D01*
X124845330Y-102605000D01*
X124234670Y-102605000D01*
X123670493Y-102838690D01*
X123238690Y-103270493D01*
X123005000Y-103834670D01*
X108533000Y-103834670D01*
X108533000Y-97425000D01*
X109477560Y-97425000D01*
X109477560Y-99425000D01*
X109526843Y-99672765D01*
X109667191Y-99882809D01*
X109877235Y-100023157D01*
X110125000Y-100072440D01*
X113395000Y-100072440D01*
X113642765Y-100023157D01*
X113852809Y-99882809D01*
X113993157Y-99672765D01*
X114042440Y-99425000D01*
X114042440Y-98160461D01*
X115829092Y-98160461D01*
X115853144Y-98810460D01*
X116055613Y-99299264D01*
X116322468Y-99397927D01*
X117096250Y-98624145D01*
X117103144Y-98810460D01*
X117151765Y-98927840D01*
X116502073Y-99577532D01*
X116600736Y-99844387D01*
X117210461Y-100070908D01*
X117860460Y-100046856D01*
X118113546Y-99942024D01*
X118460461Y-100070908D01*
X119110460Y-100046856D01*
X119599264Y-99844387D01*
X119697927Y-99577532D01*
X119036672Y-98916277D01*
X119120908Y-98689539D01*
X119119055Y-98639450D01*
X119877532Y-99397927D01*
X120144387Y-99299264D01*
X120370908Y-98689539D01*
X120346856Y-98039540D01*
X120144387Y-97550736D01*
X119877532Y-97452073D01*
X119103750Y-98225855D01*
X119096856Y-98039540D01*
X119048235Y-97922160D01*
X119697927Y-97272468D01*
X119599264Y-97005613D01*
X118989539Y-96779092D01*
X118339540Y-96803144D01*
X118086454Y-96907976D01*
X117739539Y-96779092D01*
X117089540Y-96803144D01*
X116600736Y-97005613D01*
X116502073Y-97272468D01*
X117163328Y-97933723D01*
X117079092Y-98160461D01*
X117080945Y-98210550D01*
X116322468Y-97452073D01*
X116055613Y-97550736D01*
X115829092Y-98160461D01*
X114042440Y-98160461D01*
X114042440Y-97425000D01*
X113993157Y-97177235D01*
X113852809Y-96967191D01*
X113642765Y-96826843D01*
X113395000Y-96777560D01*
X110125000Y-96777560D01*
X109877235Y-96826843D01*
X109667191Y-96967191D01*
X109526843Y-97177235D01*
X109477560Y-97425000D01*
X108533000Y-97425000D01*
X108533000Y-89236517D01*
X111603088Y-89236517D01*
X111671077Y-89477460D01*
X112190171Y-89662201D01*
X112740448Y-89634230D01*
X113118923Y-89477460D01*
X113186912Y-89236517D01*
X112395000Y-88444605D01*
X111603088Y-89236517D01*
X108533000Y-89236517D01*
X108533000Y-88060171D01*
X110997799Y-88060171D01*
X111025770Y-88610448D01*
X111182540Y-88988923D01*
X111423483Y-89056912D01*
X112215395Y-88265000D01*
X111423483Y-87473088D01*
X111182540Y-87541077D01*
X110997799Y-88060171D01*
X108533000Y-88060171D01*
X108533000Y-87293483D01*
X111603088Y-87293483D01*
X112395000Y-88085395D01*
X113186912Y-87293483D01*
X113118923Y-87052540D01*
X112599829Y-86867799D01*
X112049552Y-86895770D01*
X111671077Y-87052540D01*
X111603088Y-87293483D01*
X108533000Y-87293483D01*
X108533000Y-64083000D01*
X113020621Y-64083000D01*
X109695445Y-67408177D01*
X109695445Y-67408177D01*
G37*
X109695445Y-67408177D02*
X109621552Y-67457551D01*
X109572178Y-67531444D01*
X109572176Y-67531446D01*
X109425948Y-67750291D01*
X109357263Y-68095600D01*
X109374601Y-68182765D01*
X109374600Y-77025039D01*
X109357263Y-77112200D01*
X109374600Y-77199361D01*
X109374600Y-77199364D01*
X109425948Y-77457509D01*
X109621551Y-77750249D01*
X109695447Y-77799625D01*
X116922121Y-85026300D01*
X115068422Y-86880000D01*
X114659506Y-86880000D01*
X114150460Y-87090853D01*
X113760853Y-87480460D01*
X113671603Y-87695930D01*
X113607460Y-87541077D01*
X113366517Y-87473088D01*
X112574605Y-88265000D01*
X113366517Y-89056912D01*
X113607460Y-88988923D01*
X113666745Y-88822342D01*
X113760853Y-89049540D01*
X114150460Y-89439147D01*
X114659506Y-89650000D01*
X115210494Y-89650000D01*
X115719540Y-89439147D01*
X116088531Y-89070156D01*
X116126843Y-89262765D01*
X116267191Y-89472809D01*
X116477235Y-89613157D01*
X116725000Y-89662440D01*
X118225000Y-89662440D01*
X118472765Y-89613157D01*
X118681863Y-89473441D01*
X121847577Y-92639156D01*
X121896951Y-92713049D01*
X121970844Y-92762423D01*
X121970845Y-92762424D01*
X122189690Y-92908652D01*
X122447835Y-92960000D01*
X122447839Y-92960000D01*
X122535000Y-92977337D01*
X122622161Y-92960000D01*
X123547560Y-92960000D01*
X123547560Y-92975000D01*
X123596843Y-93222765D01*
X123737191Y-93432809D01*
X123947235Y-93573157D01*
X124195000Y-93622440D01*
X125995000Y-93622440D01*
X126242765Y-93573157D01*
X126452809Y-93432809D01*
X126593157Y-93222765D01*
X126642440Y-92975000D01*
X126642440Y-92960000D01*
X128627560Y-92960000D01*
X128627560Y-92975000D01*
X128676843Y-93222765D01*
X128817191Y-93432809D01*
X129027235Y-93573157D01*
X129177267Y-93603000D01*
X126833161Y-93603000D01*
X126746000Y-93585663D01*
X126658839Y-93603000D01*
X126658835Y-93603000D01*
X126400690Y-93654348D01*
X126107951Y-93849951D01*
X126058576Y-93923846D01*
X125720837Y-94261585D01*
X125646941Y-94310961D01*
X125451338Y-94603701D01*
X125399990Y-94861846D01*
X125399990Y-94861849D01*
X125382653Y-94949010D01*
X125399990Y-95036171D01*
X125399991Y-97962827D01*
X125382653Y-98049992D01*
X125451338Y-98395301D01*
X125597566Y-98614146D01*
X125597568Y-98614148D01*
X125646942Y-98688041D01*
X125720835Y-98737415D01*
X125972573Y-98989153D01*
X126021949Y-99063049D01*
X126096885Y-99113120D01*
X126087560Y-99160000D01*
X126087560Y-100230000D01*
X126136843Y-100477765D01*
X126277191Y-100687809D01*
X126487235Y-100828157D01*
X126735000Y-100877440D01*
X128535000Y-100877440D01*
X128782765Y-100828157D01*
X128992809Y-100687809D01*
X129064845Y-100580000D01*
X136365155Y-100580000D01*
X136437191Y-100687809D01*
X136647235Y-100828157D01*
X136895000Y-100877440D01*
X138695000Y-100877440D01*
X138942765Y-100828157D01*
X139152809Y-100687809D01*
X139224845Y-100580000D01*
X146525155Y-100580000D01*
X146597191Y-100687809D01*
X146807235Y-100828157D01*
X147055000Y-100877440D01*
X148855000Y-100877440D01*
X149102765Y-100828157D01*
X149312809Y-100687809D01*
X149384845Y-100580000D01*
X156685155Y-100580000D01*
X156757191Y-100687809D01*
X156967235Y-100828157D01*
X157215000Y-100877440D01*
X159015000Y-100877440D01*
X159262765Y-100828157D01*
X159472809Y-100687809D01*
X159613157Y-100477765D01*
X159662440Y-100230000D01*
X159662440Y-99160000D01*
X159613157Y-98912235D01*
X159584527Y-98869387D01*
X159672921Y-98425000D01*
X159582115Y-97968489D01*
X159462853Y-97790000D01*
X159582115Y-97611511D01*
X159672921Y-97155000D01*
X159582115Y-96698489D01*
X159462853Y-96520000D01*
X159582115Y-96341511D01*
X159672921Y-95885000D01*
X159582115Y-95428489D01*
X159545039Y-95373000D01*
X161202839Y-95373000D01*
X161290000Y-95390337D01*
X161377161Y-95373000D01*
X161377165Y-95373000D01*
X161635310Y-95321652D01*
X161928049Y-95126049D01*
X161977425Y-95052153D01*
X162065017Y-94964561D01*
X166205000Y-94964561D01*
X166205000Y-95535439D01*
X166423466Y-96062862D01*
X166827138Y-96466534D01*
X167354561Y-96685000D01*
X167823422Y-96685000D01*
X171604701Y-100466279D01*
X171604700Y-100877835D01*
X171587362Y-100965000D01*
X171656048Y-101310310D01*
X171812475Y-101544418D01*
X171851651Y-101603049D01*
X172144390Y-101798652D01*
X172489700Y-101867338D01*
X172576864Y-101850000D01*
X172795344Y-101850000D01*
X172919375Y-102035625D01*
X173217761Y-102235000D01*
X172919375Y-102434375D01*
X172591161Y-102925582D01*
X172475908Y-103505000D01*
X172591161Y-104084418D01*
X172919375Y-104575625D01*
X173238478Y-104788843D01*
X173108642Y-104849817D01*
X172718355Y-105278076D01*
X172548524Y-105688110D01*
X172669845Y-105918000D01*
X173863000Y-105918000D01*
X173863000Y-105898000D01*
X174117000Y-105898000D01*
X174117000Y-105918000D01*
X175310155Y-105918000D01*
X175431476Y-105688110D01*
X175261645Y-105278076D01*
X174871358Y-104849817D01*
X174741522Y-104788843D01*
X175060625Y-104575625D01*
X175388839Y-104084418D01*
X175504092Y-103505000D01*
X175388839Y-102925582D01*
X175060625Y-102434375D01*
X174762239Y-102235000D01*
X175060625Y-102035625D01*
X175388839Y-101544418D01*
X175504092Y-100965000D01*
X175388839Y-100385582D01*
X175060625Y-99894375D01*
X174569418Y-99566161D01*
X174136256Y-99480000D01*
X173843744Y-99480000D01*
X173410582Y-99566161D01*
X173263326Y-99664555D01*
X173177124Y-99535545D01*
X173177123Y-99535544D01*
X173127749Y-99461651D01*
X173053856Y-99412277D01*
X170183048Y-96541469D01*
X170529561Y-96685000D01*
X171100439Y-96685000D01*
X171627862Y-96466534D01*
X172031534Y-96062862D01*
X172250000Y-95535439D01*
X172250000Y-94964561D01*
X172555000Y-94964561D01*
X172555000Y-95535439D01*
X172773466Y-96062862D01*
X173177138Y-96466534D01*
X173704561Y-96685000D01*
X174275439Y-96685000D01*
X174802862Y-96466534D01*
X175206534Y-96062862D01*
X175425000Y-95535439D01*
X175425000Y-94964561D01*
X175206534Y-94437138D01*
X174802862Y-94033466D01*
X174275439Y-93815000D01*
X173704561Y-93815000D01*
X173177138Y-94033466D01*
X172773466Y-94437138D01*
X172555000Y-94964561D01*
X172250000Y-94964561D01*
X172031534Y-94437138D01*
X171627862Y-94033466D01*
X171100439Y-93815000D01*
X170529561Y-93815000D01*
X170002138Y-94033466D01*
X169598466Y-94437138D01*
X169380000Y-94964561D01*
X169380000Y-95535439D01*
X169523531Y-95881952D01*
X169075000Y-95433422D01*
X169075000Y-94964561D01*
X168856534Y-94437138D01*
X168452862Y-94033466D01*
X167925439Y-93815000D01*
X167354561Y-93815000D01*
X166827138Y-94033466D01*
X166423466Y-94437138D01*
X166205000Y-94964561D01*
X162065017Y-94964561D01*
X166482579Y-90547000D01*
X170841841Y-90547000D01*
X170929002Y-90564337D01*
X171016163Y-90547000D01*
X171016167Y-90547000D01*
X171274312Y-90495652D01*
X171567051Y-90300049D01*
X171616427Y-90226153D01*
X173104155Y-88738426D01*
X173111675Y-88733401D01*
X173252577Y-88861041D01*
X173640961Y-89021904D01*
X173863000Y-88899915D01*
X173863000Y-87757000D01*
X174117000Y-87757000D01*
X174117000Y-88899915D01*
X174339039Y-89021904D01*
X174727423Y-88861041D01*
X175142389Y-88485134D01*
X175381914Y-87979041D01*
X175260629Y-87757000D01*
X174117000Y-87757000D01*
X173863000Y-87757000D01*
X173843000Y-87757000D01*
X173843000Y-87503000D01*
X173863000Y-87503000D01*
X173863000Y-86360085D01*
X174117000Y-86360085D01*
X174117000Y-87503000D01*
X175260629Y-87503000D01*
X175381914Y-87280959D01*
X175142389Y-86774866D01*
X174727423Y-86398959D01*
X174339039Y-86238096D01*
X174117000Y-86360085D01*
X173863000Y-86360085D01*
X173640961Y-86238096D01*
X173435052Y-86323380D01*
X173424999Y-86272839D01*
X173424999Y-86272835D01*
X173373651Y-86014690D01*
X173298930Y-85902862D01*
X173227423Y-85795845D01*
X173227422Y-85795844D01*
X173178048Y-85721951D01*
X173104155Y-85672577D01*
X172211424Y-84779847D01*
X172162048Y-84705951D01*
X171869309Y-84510348D01*
X171611164Y-84459000D01*
X171611160Y-84459000D01*
X171523999Y-84441663D01*
X171436838Y-84459000D01*
X166736579Y-84459000D01*
X166493000Y-84215422D01*
X166493000Y-81800000D01*
X166877560Y-81800000D01*
X166877560Y-83300000D01*
X166926843Y-83547765D01*
X167067191Y-83757809D01*
X167277235Y-83898157D01*
X167525000Y-83947440D01*
X169025000Y-83947440D01*
X169272765Y-83898157D01*
X169482809Y-83757809D01*
X169623157Y-83547765D01*
X169661469Y-83355156D01*
X170030460Y-83724147D01*
X170539506Y-83935000D01*
X171090494Y-83935000D01*
X171599540Y-83724147D01*
X171802170Y-83521517D01*
X172563088Y-83521517D01*
X172631077Y-83762460D01*
X173150171Y-83947201D01*
X173700448Y-83919230D01*
X174078923Y-83762460D01*
X174146912Y-83521517D01*
X173355000Y-82729605D01*
X172563088Y-83521517D01*
X171802170Y-83521517D01*
X171989147Y-83334540D01*
X172078397Y-83119070D01*
X172142540Y-83273923D01*
X172383483Y-83341912D01*
X173175395Y-82550000D01*
X173534605Y-82550000D01*
X174326517Y-83341912D01*
X174567460Y-83273923D01*
X174752201Y-82754829D01*
X174724230Y-82204552D01*
X174567460Y-81826077D01*
X174326517Y-81758088D01*
X173534605Y-82550000D01*
X173175395Y-82550000D01*
X172383483Y-81758088D01*
X172142540Y-81826077D01*
X172083255Y-81992658D01*
X171989147Y-81765460D01*
X171802170Y-81578483D01*
X172563088Y-81578483D01*
X173355000Y-82370395D01*
X174146912Y-81578483D01*
X174078923Y-81337540D01*
X173559829Y-81152799D01*
X173009552Y-81180770D01*
X172631077Y-81337540D01*
X172563088Y-81578483D01*
X171802170Y-81578483D01*
X171599540Y-81375853D01*
X171090494Y-81165000D01*
X170539506Y-81165000D01*
X170030460Y-81375853D01*
X169661469Y-81744844D01*
X169623157Y-81552235D01*
X169482809Y-81342191D01*
X169272765Y-81201843D01*
X169025000Y-81152560D01*
X167525000Y-81152560D01*
X167277235Y-81201843D01*
X167067191Y-81342191D01*
X166926843Y-81552235D01*
X166877560Y-81800000D01*
X166493000Y-81800000D01*
X166493000Y-78598578D01*
X173407000Y-71684579D01*
X173407000Y-76384076D01*
X173393091Y-76454000D01*
X173407000Y-76523924D01*
X173407000Y-76523925D01*
X173448195Y-76731027D01*
X173605119Y-76965880D01*
X173664402Y-77005492D01*
X175947001Y-79288092D01*
X175947000Y-111592909D01*
X173809900Y-113730010D01*
X173809900Y-111366678D01*
X174554156Y-110622423D01*
X174628049Y-110573049D01*
X174679332Y-110496300D01*
X174823652Y-110280310D01*
X174831670Y-110240000D01*
X174863959Y-110077674D01*
X175087765Y-110033157D01*
X175297809Y-109892809D01*
X175438157Y-109682765D01*
X175487440Y-109435000D01*
X175487440Y-107735000D01*
X175438157Y-107487235D01*
X175297809Y-107277191D01*
X175087765Y-107136843D01*
X174984292Y-107116261D01*
X175261645Y-106811924D01*
X175431476Y-106401890D01*
X175310155Y-106172000D01*
X174117000Y-106172000D01*
X174117000Y-106192000D01*
X173863000Y-106192000D01*
X173863000Y-106172000D01*
X172669845Y-106172000D01*
X172548524Y-106401890D01*
X172718355Y-106811924D01*
X172995708Y-107116261D01*
X172892235Y-107136843D01*
X172682191Y-107277191D01*
X172541843Y-107487235D01*
X172492560Y-107735000D01*
X172492560Y-109435000D01*
X172541843Y-109682765D01*
X172682191Y-109892809D01*
X172741190Y-109932231D01*
X172360747Y-110312675D01*
X172286851Y-110362051D01*
X172091248Y-110654791D01*
X172039900Y-110912936D01*
X172039900Y-110912939D01*
X172022563Y-111000100D01*
X172039900Y-111087261D01*
X172039901Y-112968300D01*
X172009909Y-112948260D01*
X171591333Y-112865000D01*
X171308667Y-112865000D01*
X170890091Y-112948260D01*
X170415423Y-113265423D01*
X170180000Y-113617758D01*
X169944577Y-113265423D01*
X169469909Y-112948260D01*
X169051333Y-112865000D01*
X168768667Y-112865000D01*
X168350091Y-112948260D01*
X167875423Y-113265423D01*
X167640000Y-113617758D01*
X167404577Y-113265423D01*
X166929909Y-112948260D01*
X166511333Y-112865000D01*
X166228667Y-112865000D01*
X165810091Y-112948260D01*
X165335423Y-113265423D01*
X165100000Y-113617758D01*
X164864577Y-113265423D01*
X164389909Y-112948260D01*
X164197563Y-112910000D01*
X164790222Y-112910000D01*
X165391153Y-112661086D01*
X165851086Y-112201153D01*
X166100000Y-111600222D01*
X166100000Y-110949778D01*
X165851086Y-110348847D01*
X165391153Y-109888914D01*
X164790222Y-109640000D01*
X164139778Y-109640000D01*
X163538847Y-109888914D01*
X163078914Y-110348847D01*
X162830000Y-110949778D01*
X162830000Y-111600222D01*
X163078914Y-112201153D01*
X163538847Y-112661086D01*
X164086392Y-112887887D01*
X163971333Y-112865000D01*
X163688667Y-112865000D01*
X163270091Y-112948260D01*
X162795423Y-113265423D01*
X162560000Y-113617758D01*
X162324577Y-113265423D01*
X162206544Y-113186556D01*
X162274949Y-113140849D01*
X162470552Y-112848110D01*
X162521900Y-112589965D01*
X162521900Y-112589961D01*
X162539237Y-112502800D01*
X162521900Y-112415639D01*
X162521900Y-110622361D01*
X162539237Y-110535200D01*
X162521900Y-110448039D01*
X162521900Y-110448035D01*
X162470552Y-110189890D01*
X162460754Y-110175226D01*
X162324324Y-109971045D01*
X162324323Y-109971044D01*
X162274949Y-109897151D01*
X162201056Y-109847777D01*
X161400425Y-109047147D01*
X161351049Y-108973251D01*
X161058310Y-108777648D01*
X160800165Y-108726300D01*
X160800161Y-108726300D01*
X160713000Y-108708963D01*
X160625839Y-108726300D01*
X147196159Y-108726300D01*
X147108999Y-108708963D01*
X147021840Y-108726300D01*
X147021835Y-108726300D01*
X146763690Y-108777648D01*
X146600586Y-108886631D01*
X146544845Y-108923876D01*
X146544844Y-108923877D01*
X146470951Y-108973251D01*
X146421577Y-109047144D01*
X145259174Y-110209548D01*
X145179577Y-110090423D01*
X144704909Y-109773260D01*
X144286333Y-109690000D01*
X144003667Y-109690000D01*
X143585091Y-109773260D01*
X143110423Y-110090423D01*
X142793260Y-110565091D01*
X142681887Y-111125000D01*
X142793260Y-111684909D01*
X143110423Y-112159577D01*
X143585091Y-112476740D01*
X144003667Y-112560000D01*
X144286333Y-112560000D01*
X144704909Y-112476740D01*
X145179577Y-112159577D01*
X145279521Y-112010000D01*
X145508139Y-112010000D01*
X145595300Y-112027337D01*
X145682461Y-112010000D01*
X145682465Y-112010000D01*
X145940610Y-111958652D01*
X146233349Y-111763049D01*
X146282725Y-111689153D01*
X146550784Y-111421094D01*
X146603260Y-111684909D01*
X146920423Y-112159577D01*
X147395091Y-112476740D01*
X147813667Y-112560000D01*
X148096333Y-112560000D01*
X148514909Y-112476740D01*
X148588553Y-112427532D01*
X151372073Y-112427532D01*
X151470736Y-112694387D01*
X152080461Y-112920908D01*
X152730460Y-112896856D01*
X153219264Y-112694387D01*
X153317927Y-112427532D01*
X152345000Y-111454605D01*
X151372073Y-112427532D01*
X148588553Y-112427532D01*
X148989577Y-112159577D01*
X149306740Y-111684909D01*
X149418113Y-111125000D01*
X149306740Y-110565091D01*
X149260775Y-110496300D01*
X150890110Y-110496300D01*
X150699092Y-111010461D01*
X150723144Y-111660460D01*
X150925613Y-112149264D01*
X151192468Y-112247927D01*
X152165395Y-111275000D01*
X152151253Y-111260858D01*
X152330858Y-111081253D01*
X152345000Y-111095395D01*
X152359143Y-111081253D01*
X152538748Y-111260858D01*
X152524605Y-111275000D01*
X153497532Y-112247927D01*
X153764387Y-112149264D01*
X153990908Y-111539539D01*
X153966856Y-110889540D01*
X153803971Y-110496300D01*
X155397837Y-110496300D01*
X155210000Y-110949778D01*
X155210000Y-111600222D01*
X155458914Y-112201153D01*
X155918847Y-112661086D01*
X156519778Y-112910000D01*
X157170222Y-112910000D01*
X157771153Y-112661086D01*
X158231086Y-112201153D01*
X158399096Y-111795541D01*
X158545613Y-112149264D01*
X158812468Y-112247927D01*
X159785395Y-111275000D01*
X159771253Y-111260858D01*
X159950858Y-111081253D01*
X159965000Y-111095395D01*
X159979143Y-111081253D01*
X160158748Y-111260858D01*
X160144605Y-111275000D01*
X160158748Y-111289143D01*
X159979143Y-111468748D01*
X159965000Y-111454605D01*
X158992073Y-112427532D01*
X159090736Y-112694387D01*
X159700461Y-112920908D01*
X160350460Y-112896856D01*
X160393497Y-112879030D01*
X160405001Y-112936865D01*
X160405001Y-113165478D01*
X160255423Y-113265423D01*
X160020000Y-113617758D01*
X159784577Y-113265423D01*
X159309909Y-112948260D01*
X158891333Y-112865000D01*
X158608667Y-112865000D01*
X158190091Y-112948260D01*
X157715423Y-113265423D01*
X157398260Y-113740091D01*
X157286887Y-114300000D01*
X157398260Y-114859909D01*
X157409546Y-114876800D01*
X155010454Y-114876800D01*
X155021740Y-114859909D01*
X155133113Y-114300000D01*
X155021740Y-113740091D01*
X154704577Y-113265423D01*
X154229909Y-112948260D01*
X153811333Y-112865000D01*
X153528667Y-112865000D01*
X153110091Y-112948260D01*
X152635423Y-113265423D01*
X152379053Y-113649108D01*
X152282389Y-113444866D01*
X151867423Y-113068959D01*
X151479039Y-112908096D01*
X151257000Y-113030085D01*
X151257000Y-114173000D01*
X151277000Y-114173000D01*
X151277000Y-114427000D01*
X151257000Y-114427000D01*
X151257000Y-114447000D01*
X151003000Y-114447000D01*
X151003000Y-114427000D01*
X148717000Y-114427000D01*
X148717000Y-114447000D01*
X148463000Y-114447000D01*
X148463000Y-114427000D01*
X148443000Y-114427000D01*
X148443000Y-114173000D01*
X148463000Y-114173000D01*
X148463000Y-113030085D01*
X148717000Y-113030085D01*
X148717000Y-114173000D01*
X151003000Y-114173000D01*
X151003000Y-113030085D01*
X150780961Y-112908096D01*
X150392577Y-113068959D01*
X149977611Y-113444866D01*
X149860000Y-113693367D01*
X149742389Y-113444866D01*
X149327423Y-113068959D01*
X148939039Y-112908096D01*
X148717000Y-113030085D01*
X148463000Y-113030085D01*
X148240961Y-112908096D01*
X147852577Y-113068959D01*
X147437611Y-113444866D01*
X147340947Y-113649108D01*
X147084577Y-113265423D01*
X146609909Y-112948260D01*
X146191333Y-112865000D01*
X145908667Y-112865000D01*
X145490091Y-112948260D01*
X145015423Y-113265423D01*
X144780000Y-113617758D01*
X144544577Y-113265423D01*
X144069909Y-112948260D01*
X143651333Y-112865000D01*
X143368667Y-112865000D01*
X142950091Y-112948260D01*
X142475423Y-113265423D01*
X142240000Y-113617758D01*
X142004577Y-113265423D01*
X141529909Y-112948260D01*
X141111333Y-112865000D01*
X140828667Y-112865000D01*
X140793562Y-112871983D01*
X140672254Y-112750675D01*
X140775460Y-112746856D01*
X141264264Y-112544387D01*
X141362927Y-112277532D01*
X140390000Y-111304605D01*
X140375858Y-111318748D01*
X140196253Y-111139143D01*
X140210395Y-111125000D01*
X140569605Y-111125000D01*
X141542532Y-112097927D01*
X141809387Y-111999264D01*
X142035908Y-111389539D01*
X142011856Y-110739540D01*
X141809387Y-110250736D01*
X141542532Y-110152073D01*
X140569605Y-111125000D01*
X140210395Y-111125000D01*
X139237468Y-110152073D01*
X138970613Y-110250736D01*
X138754371Y-110832793D01*
X138482424Y-110560846D01*
X138433049Y-110486951D01*
X138140310Y-110291348D01*
X137882165Y-110240000D01*
X137882161Y-110240000D01*
X137795000Y-110222663D01*
X137707839Y-110240000D01*
X137293132Y-110240000D01*
X137276086Y-110198847D01*
X137049707Y-109972468D01*
X139417073Y-109972468D01*
X140390000Y-110945395D01*
X141362927Y-109972468D01*
X141264264Y-109705613D01*
X140654539Y-109479092D01*
X140004540Y-109503144D01*
X139515736Y-109705613D01*
X139417073Y-109972468D01*
X137049707Y-109972468D01*
X136816153Y-109738914D01*
X136775000Y-109721868D01*
X136775000Y-106028132D01*
X136816153Y-106011086D01*
X137049707Y-105777532D01*
X139417073Y-105777532D01*
X139515736Y-106044387D01*
X140125461Y-106270908D01*
X140775460Y-106246856D01*
X141264264Y-106044387D01*
X141307468Y-105927532D01*
X151372073Y-105927532D01*
X151470736Y-106194387D01*
X152080461Y-106420908D01*
X152730460Y-106396856D01*
X153219264Y-106194387D01*
X153317927Y-105927532D01*
X152345000Y-104954605D01*
X151372073Y-105927532D01*
X141307468Y-105927532D01*
X141362927Y-105777532D01*
X140390000Y-104804605D01*
X139417073Y-105777532D01*
X137049707Y-105777532D01*
X137276086Y-105551153D01*
X137525000Y-104950222D01*
X137525000Y-104360461D01*
X138744092Y-104360461D01*
X138768144Y-105010460D01*
X138970613Y-105499264D01*
X139237468Y-105597927D01*
X140210395Y-104625000D01*
X140569605Y-104625000D01*
X141542532Y-105597927D01*
X141809387Y-105499264D01*
X142035908Y-104889539D01*
X142011856Y-104239540D01*
X141809387Y-103750736D01*
X141542532Y-103652073D01*
X140569605Y-104625000D01*
X140210395Y-104625000D01*
X139237468Y-103652073D01*
X138970613Y-103750736D01*
X138744092Y-104360461D01*
X137525000Y-104360461D01*
X137525000Y-104299778D01*
X137276086Y-103698847D01*
X137049707Y-103472468D01*
X139417073Y-103472468D01*
X140390000Y-104445395D01*
X141362927Y-103472468D01*
X141269421Y-103219561D01*
X142710000Y-103219561D01*
X142710000Y-103790439D01*
X142928466Y-104317862D01*
X143332138Y-104721534D01*
X143859561Y-104940000D01*
X144430439Y-104940000D01*
X144957862Y-104721534D01*
X145361534Y-104317862D01*
X145580000Y-103790439D01*
X145580000Y-103219561D01*
X146520000Y-103219561D01*
X146520000Y-103790439D01*
X146738466Y-104317862D01*
X147142138Y-104721534D01*
X147669561Y-104940000D01*
X148240439Y-104940000D01*
X148767862Y-104721534D01*
X148978935Y-104510461D01*
X150699092Y-104510461D01*
X150723144Y-105160460D01*
X150925613Y-105649264D01*
X151192468Y-105747927D01*
X152165395Y-104775000D01*
X152524605Y-104775000D01*
X153497532Y-105747927D01*
X153764387Y-105649264D01*
X153990908Y-105039539D01*
X153969085Y-104449778D01*
X155210000Y-104449778D01*
X155210000Y-105100222D01*
X155458914Y-105701153D01*
X155918847Y-106161086D01*
X156519778Y-106410000D01*
X157170222Y-106410000D01*
X157771153Y-106161086D01*
X158004707Y-105927532D01*
X158992073Y-105927532D01*
X159090736Y-106194387D01*
X159700461Y-106420908D01*
X160350460Y-106396856D01*
X160839264Y-106194387D01*
X160937927Y-105927532D01*
X159965000Y-104954605D01*
X158992073Y-105927532D01*
X158004707Y-105927532D01*
X158231086Y-105701153D01*
X158399096Y-105295541D01*
X158545613Y-105649264D01*
X158812468Y-105747927D01*
X159785395Y-104775000D01*
X160144605Y-104775000D01*
X161117532Y-105747927D01*
X161384387Y-105649264D01*
X161610908Y-105039539D01*
X161586856Y-104389540D01*
X161384387Y-103900736D01*
X161117532Y-103802073D01*
X160144605Y-104775000D01*
X159785395Y-104775000D01*
X158812468Y-103802073D01*
X158545613Y-103900736D01*
X158407059Y-104273682D01*
X158231086Y-103848847D01*
X158004707Y-103622468D01*
X158992073Y-103622468D01*
X159965000Y-104595395D01*
X160937927Y-103622468D01*
X160839264Y-103355613D01*
X160229539Y-103129092D01*
X159579540Y-103153144D01*
X159090736Y-103355613D01*
X158992073Y-103622468D01*
X158004707Y-103622468D01*
X157771153Y-103388914D01*
X157170222Y-103140000D01*
X156519778Y-103140000D01*
X155918847Y-103388914D01*
X155458914Y-103848847D01*
X155210000Y-104449778D01*
X153969085Y-104449778D01*
X153966856Y-104389540D01*
X153764387Y-103900736D01*
X153497532Y-103802073D01*
X152524605Y-104775000D01*
X152165395Y-104775000D01*
X151192468Y-103802073D01*
X150925613Y-103900736D01*
X150699092Y-104510461D01*
X148978935Y-104510461D01*
X149171534Y-104317862D01*
X149390000Y-103790439D01*
X149390000Y-103622468D01*
X151372073Y-103622468D01*
X152345000Y-104595395D01*
X153317927Y-103622468D01*
X153219264Y-103355613D01*
X152609539Y-103129092D01*
X151959540Y-103153144D01*
X151470736Y-103355613D01*
X151372073Y-103622468D01*
X149390000Y-103622468D01*
X149390000Y-103321579D01*
X149631979Y-103079600D01*
X161518022Y-103079600D01*
X162847046Y-104408625D01*
X162830000Y-104449778D01*
X162830000Y-105100222D01*
X163078914Y-105701153D01*
X163538847Y-106161086D01*
X164139778Y-106410000D01*
X164790222Y-106410000D01*
X165391153Y-106161086D01*
X165851086Y-105701153D01*
X166100000Y-105100222D01*
X166100000Y-104449778D01*
X165851086Y-103848847D01*
X165391153Y-103388914D01*
X164790222Y-103140000D01*
X164139778Y-103140000D01*
X164098625Y-103157046D01*
X162572025Y-101630447D01*
X162522649Y-101556551D01*
X162229910Y-101360948D01*
X161971765Y-101309600D01*
X161971761Y-101309600D01*
X161884600Y-101292263D01*
X161797439Y-101309600D01*
X149352559Y-101309600D01*
X149265399Y-101292263D01*
X149178239Y-101309600D01*
X149178235Y-101309600D01*
X148920090Y-101360948D01*
X148920088Y-101360949D01*
X148920089Y-101360949D01*
X148701245Y-101507176D01*
X148701244Y-101507177D01*
X148627351Y-101556551D01*
X148577977Y-101630444D01*
X148138421Y-102070000D01*
X147669561Y-102070000D01*
X147142138Y-102288466D01*
X146738466Y-102692138D01*
X146520000Y-103219561D01*
X145580000Y-103219561D01*
X145361534Y-102692138D01*
X144957862Y-102288466D01*
X144430439Y-102070000D01*
X143859561Y-102070000D01*
X143332138Y-102288466D01*
X142928466Y-102692138D01*
X142710000Y-103219561D01*
X141269421Y-103219561D01*
X141264264Y-103205613D01*
X140654539Y-102979092D01*
X140004540Y-103003144D01*
X139515736Y-103205613D01*
X139417073Y-103472468D01*
X137049707Y-103472468D01*
X136816153Y-103238914D01*
X136215222Y-102990000D01*
X135564778Y-102990000D01*
X134963847Y-103238914D01*
X134503914Y-103698847D01*
X134255000Y-104299778D01*
X134255000Y-104950222D01*
X134503914Y-105551153D01*
X134963847Y-106011086D01*
X135005000Y-106028132D01*
X135005001Y-109721868D01*
X134963847Y-109738914D01*
X134503914Y-110198847D01*
X134274536Y-110752614D01*
X134023845Y-110147392D01*
X133282608Y-109406155D01*
X132314134Y-109005000D01*
X131265866Y-109005000D01*
X130297392Y-109406155D01*
X129556155Y-110147392D01*
X129155000Y-111115866D01*
X129155000Y-112164134D01*
X129556155Y-113132608D01*
X130297392Y-113873845D01*
X131265866Y-114275000D01*
X132314134Y-114275000D01*
X133282608Y-113873845D01*
X134023845Y-113132608D01*
X134425000Y-112164134D01*
X134425000Y-111860638D01*
X134503914Y-112051153D01*
X134963847Y-112511086D01*
X135564778Y-112760000D01*
X136215222Y-112760000D01*
X136816153Y-112511086D01*
X137276086Y-112051153D01*
X137293132Y-112010000D01*
X137428422Y-112010000D01*
X138284292Y-112865870D01*
X137870091Y-112948260D01*
X137395423Y-113265423D01*
X137314785Y-113386106D01*
X137288157Y-113252235D01*
X137147809Y-113042191D01*
X136937765Y-112901843D01*
X136690000Y-112852560D01*
X135090000Y-112852560D01*
X134842235Y-112901843D01*
X134632191Y-113042191D01*
X134491843Y-113252235D01*
X134442560Y-113500000D01*
X134442560Y-115100000D01*
X134491843Y-115347765D01*
X134632191Y-115557809D01*
X134842235Y-115698157D01*
X135090000Y-115747440D01*
X136690000Y-115747440D01*
X136937765Y-115698157D01*
X137147809Y-115557809D01*
X137288157Y-115347765D01*
X137314785Y-115213894D01*
X137395423Y-115334577D01*
X137870091Y-115651740D01*
X138288667Y-115735000D01*
X138571333Y-115735000D01*
X138989909Y-115651740D01*
X139464577Y-115334577D01*
X139700000Y-114982242D01*
X139935423Y-115334577D01*
X140410091Y-115651740D01*
X140828667Y-115735000D01*
X141111333Y-115735000D01*
X141529909Y-115651740D01*
X142004577Y-115334577D01*
X142240000Y-114982242D01*
X142475423Y-115334577D01*
X142950091Y-115651740D01*
X143368667Y-115735000D01*
X143651333Y-115735000D01*
X144069909Y-115651740D01*
X144544577Y-115334577D01*
X144780000Y-114982242D01*
X145015423Y-115334577D01*
X145490091Y-115651740D01*
X145908667Y-115735000D01*
X146191333Y-115735000D01*
X146226439Y-115728017D01*
X146755421Y-116257000D01*
X108533000Y-116257000D01*
X108533000Y-113395474D01*
X112310000Y-113395474D01*
X112310000Y-113934526D01*
X112516286Y-114432546D01*
X112897454Y-114813714D01*
X113395474Y-115020000D01*
X113934526Y-115020000D01*
X114432546Y-114813714D01*
X114813714Y-114432546D01*
X115020000Y-113934526D01*
X115020000Y-113395474D01*
X114813714Y-112897454D01*
X114432546Y-112516286D01*
X113934526Y-112310000D01*
X113395474Y-112310000D01*
X112897454Y-112516286D01*
X112516286Y-112897454D01*
X112310000Y-113395474D01*
X108533000Y-113395474D01*
X108533000Y-112074774D01*
X110354831Y-112074774D01*
X110419131Y-112312611D01*
X110927342Y-112492333D01*
X111465644Y-112463892D01*
X111830869Y-112312611D01*
X111895169Y-112074774D01*
X111125000Y-111304605D01*
X110354831Y-112074774D01*
X108533000Y-112074774D01*
X108533000Y-110927342D01*
X109757667Y-110927342D01*
X109786108Y-111465644D01*
X109937389Y-111830869D01*
X110175226Y-111895169D01*
X110945395Y-111125000D01*
X111304605Y-111125000D01*
X112074774Y-111895169D01*
X112312611Y-111830869D01*
X112492333Y-111322658D01*
X112467650Y-110855474D01*
X114850000Y-110855474D01*
X114850000Y-111394526D01*
X115056286Y-111892546D01*
X115437454Y-112273714D01*
X115935474Y-112480000D01*
X116474526Y-112480000D01*
X116972546Y-112273714D01*
X117353714Y-111892546D01*
X117560000Y-111394526D01*
X117560000Y-111115866D01*
X119655000Y-111115866D01*
X119655000Y-112164134D01*
X120056155Y-113132608D01*
X120797392Y-113873845D01*
X121765866Y-114275000D01*
X122814134Y-114275000D01*
X123782608Y-113873845D01*
X124523845Y-113132608D01*
X124925000Y-112164134D01*
X124925000Y-111115866D01*
X124523845Y-110147392D01*
X123782608Y-109406155D01*
X122814134Y-109005000D01*
X121765866Y-109005000D01*
X120797392Y-109406155D01*
X120056155Y-110147392D01*
X119655000Y-111115866D01*
X117560000Y-111115866D01*
X117560000Y-110855474D01*
X117353714Y-110357454D01*
X116972546Y-109976286D01*
X116474526Y-109770000D01*
X115935474Y-109770000D01*
X115437454Y-109976286D01*
X115056286Y-110357454D01*
X114850000Y-110855474D01*
X112467650Y-110855474D01*
X112463892Y-110784356D01*
X112312611Y-110419131D01*
X112074774Y-110354831D01*
X111304605Y-111125000D01*
X110945395Y-111125000D01*
X110175226Y-110354831D01*
X109937389Y-110419131D01*
X109757667Y-110927342D01*
X108533000Y-110927342D01*
X108533000Y-110175226D01*
X110354831Y-110175226D01*
X111125000Y-110945395D01*
X111895169Y-110175226D01*
X111830869Y-109937389D01*
X111322658Y-109757667D01*
X110784356Y-109786108D01*
X110419131Y-109937389D01*
X110354831Y-110175226D01*
X108533000Y-110175226D01*
X108533000Y-103834670D01*
X123005000Y-103834670D01*
X123005000Y-104445330D01*
X123238690Y-105009507D01*
X123670493Y-105441310D01*
X124234670Y-105675000D01*
X124845330Y-105675000D01*
X125409507Y-105441310D01*
X125790000Y-105060817D01*
X126170493Y-105441310D01*
X126734670Y-105675000D01*
X127345330Y-105675000D01*
X127909507Y-105441310D01*
X128130658Y-105220159D01*
X128639446Y-105220159D01*
X128725852Y-105476643D01*
X129299336Y-105686458D01*
X129909460Y-105660839D01*
X130354148Y-105476643D01*
X130440554Y-105220159D01*
X129540000Y-104319605D01*
X128639446Y-105220159D01*
X128130658Y-105220159D01*
X128341310Y-105009507D01*
X128344539Y-105001710D01*
X128459841Y-105040554D01*
X129360395Y-104140000D01*
X129719605Y-104140000D01*
X130620159Y-105040554D01*
X130876643Y-104954148D01*
X131086458Y-104380664D01*
X131060839Y-103770540D01*
X130876643Y-103325852D01*
X130620159Y-103239446D01*
X129719605Y-104140000D01*
X129360395Y-104140000D01*
X128459841Y-103239446D01*
X128344539Y-103278290D01*
X128341310Y-103270493D01*
X128130658Y-103059841D01*
X128639446Y-103059841D01*
X129540000Y-103960395D01*
X130440554Y-103059841D01*
X130354148Y-102803357D01*
X129780664Y-102593542D01*
X129170540Y-102619161D01*
X128725852Y-102803357D01*
X128639446Y-103059841D01*
X128130658Y-103059841D01*
X127909507Y-102838690D01*
X127345330Y-102605000D01*
X126734670Y-102605000D01*
X126170493Y-102838690D01*
X125790000Y-103219183D01*
X125409507Y-102838690D01*
X124845330Y-102605000D01*
X124234670Y-102605000D01*
X123670493Y-102838690D01*
X123238690Y-103270493D01*
X123005000Y-103834670D01*
X108533000Y-103834670D01*
X108533000Y-97425000D01*
X109477560Y-97425000D01*
X109477560Y-99425000D01*
X109526843Y-99672765D01*
X109667191Y-99882809D01*
X109877235Y-100023157D01*
X110125000Y-100072440D01*
X113395000Y-100072440D01*
X113642765Y-100023157D01*
X113852809Y-99882809D01*
X113993157Y-99672765D01*
X114042440Y-99425000D01*
X114042440Y-98160461D01*
X115829092Y-98160461D01*
X115853144Y-98810460D01*
X116055613Y-99299264D01*
X116322468Y-99397927D01*
X117096250Y-98624145D01*
X117103144Y-98810460D01*
X117151765Y-98927840D01*
X116502073Y-99577532D01*
X116600736Y-99844387D01*
X117210461Y-100070908D01*
X117860460Y-100046856D01*
X118113546Y-99942024D01*
X118460461Y-100070908D01*
X119110460Y-100046856D01*
X119599264Y-99844387D01*
X119697927Y-99577532D01*
X119036672Y-98916277D01*
X119120908Y-98689539D01*
X119119055Y-98639450D01*
X119877532Y-99397927D01*
X120144387Y-99299264D01*
X120370908Y-98689539D01*
X120346856Y-98039540D01*
X120144387Y-97550736D01*
X119877532Y-97452073D01*
X119103750Y-98225855D01*
X119096856Y-98039540D01*
X119048235Y-97922160D01*
X119697927Y-97272468D01*
X119599264Y-97005613D01*
X118989539Y-96779092D01*
X118339540Y-96803144D01*
X118086454Y-96907976D01*
X117739539Y-96779092D01*
X117089540Y-96803144D01*
X116600736Y-97005613D01*
X116502073Y-97272468D01*
X117163328Y-97933723D01*
X117079092Y-98160461D01*
X117080945Y-98210550D01*
X116322468Y-97452073D01*
X116055613Y-97550736D01*
X115829092Y-98160461D01*
X114042440Y-98160461D01*
X114042440Y-97425000D01*
X113993157Y-97177235D01*
X113852809Y-96967191D01*
X113642765Y-96826843D01*
X113395000Y-96777560D01*
X110125000Y-96777560D01*
X109877235Y-96826843D01*
X109667191Y-96967191D01*
X109526843Y-97177235D01*
X109477560Y-97425000D01*
X108533000Y-97425000D01*
X108533000Y-89236517D01*
X111603088Y-89236517D01*
X111671077Y-89477460D01*
X112190171Y-89662201D01*
X112740448Y-89634230D01*
X113118923Y-89477460D01*
X113186912Y-89236517D01*
X112395000Y-88444605D01*
X111603088Y-89236517D01*
X108533000Y-89236517D01*
X108533000Y-88060171D01*
X110997799Y-88060171D01*
X111025770Y-88610448D01*
X111182540Y-88988923D01*
X111423483Y-89056912D01*
X112215395Y-88265000D01*
X111423483Y-87473088D01*
X111182540Y-87541077D01*
X110997799Y-88060171D01*
X108533000Y-88060171D01*
X108533000Y-87293483D01*
X111603088Y-87293483D01*
X112395000Y-88085395D01*
X113186912Y-87293483D01*
X113118923Y-87052540D01*
X112599829Y-86867799D01*
X112049552Y-86895770D01*
X111671077Y-87052540D01*
X111603088Y-87293483D01*
X108533000Y-87293483D01*
X108533000Y-64083000D01*
X113020621Y-64083000D01*
X109695445Y-67408177D01*
G36*
X125398260Y-65480091D02*
X125286887Y-66040000D01*
X125398260Y-66599909D01*
X125715423Y-67074577D01*
X126190091Y-67391740D01*
X126608667Y-67475000D01*
X126891333Y-67475000D01*
X127309909Y-67391740D01*
X127784577Y-67074577D01*
X128020000Y-66722242D01*
X128255423Y-67074577D01*
X128730091Y-67391740D01*
X129148667Y-67475000D01*
X129431333Y-67475000D01*
X129849909Y-67391740D01*
X130324577Y-67074577D01*
X130560000Y-66722242D01*
X130795423Y-67074577D01*
X131270091Y-67391740D01*
X131688667Y-67475000D01*
X131971333Y-67475000D01*
X132389909Y-67391740D01*
X132864577Y-67074577D01*
X133120947Y-66690892D01*
X133217611Y-66895134D01*
X133632577Y-67271041D01*
X134020961Y-67431904D01*
X134243000Y-67309915D01*
X134243000Y-66167000D01*
X134223000Y-66167000D01*
X134223000Y-65913000D01*
X134243000Y-65913000D01*
X134243000Y-65893000D01*
X134497000Y-65893000D01*
X134497000Y-65913000D01*
X134517000Y-65913000D01*
X134517000Y-66167000D01*
X134497000Y-66167000D01*
X134497000Y-67309915D01*
X134719039Y-67431904D01*
X135107423Y-67271041D01*
X135522389Y-66895134D01*
X135619053Y-66690892D01*
X135875423Y-67074577D01*
X136350091Y-67391740D01*
X136768667Y-67475000D01*
X137051333Y-67475000D01*
X137469909Y-67391740D01*
X137944577Y-67074577D01*
X138180000Y-66722242D01*
X138415423Y-67074577D01*
X138890091Y-67391740D01*
X139308667Y-67475000D01*
X139591333Y-67475000D01*
X140009909Y-67391740D01*
X140484577Y-67074577D01*
X140720000Y-66722242D01*
X140955423Y-67074577D01*
X141430091Y-67391740D01*
X141848667Y-67475000D01*
X142131333Y-67475000D01*
X142549909Y-67391740D01*
X143024577Y-67074577D01*
X143260000Y-66722242D01*
X143495423Y-67074577D01*
X143970091Y-67391740D01*
X144388667Y-67475000D01*
X144671333Y-67475000D01*
X145089909Y-67391740D01*
X145564577Y-67074577D01*
X145800000Y-66722242D01*
X146035423Y-67074577D01*
X146510091Y-67391740D01*
X146928667Y-67475000D01*
X147211333Y-67475000D01*
X147629909Y-67391740D01*
X148104577Y-67074577D01*
X148340000Y-66722242D01*
X148575423Y-67074577D01*
X149050091Y-67391740D01*
X149468667Y-67475000D01*
X149751333Y-67475000D01*
X150169909Y-67391740D01*
X150644577Y-67074577D01*
X150961740Y-66599909D01*
X151073113Y-66040000D01*
X150961740Y-65480091D01*
X150958338Y-65474999D01*
X152321662Y-65474999D01*
X152318260Y-65480091D01*
X152206887Y-66040000D01*
X152241983Y-66216438D01*
X150368122Y-68090300D01*
X146376859Y-68090300D01*
X146289699Y-68072963D01*
X146202539Y-68090300D01*
X146202535Y-68090300D01*
X145944390Y-68141648D01*
X145944388Y-68141649D01*
X145944389Y-68141649D01*
X145725545Y-68287876D01*
X145725544Y-68287877D01*
X145651651Y-68337251D01*
X145602277Y-68411144D01*
X144998960Y-69014462D01*
X144926256Y-69000000D01*
X144633744Y-69000000D01*
X144200582Y-69086161D01*
X143709375Y-69414375D01*
X143510000Y-69712761D01*
X143310625Y-69414375D01*
X142819418Y-69086161D01*
X142386256Y-69000000D01*
X142093744Y-69000000D01*
X141660582Y-69086161D01*
X141169375Y-69414375D01*
X140970000Y-69712761D01*
X140770625Y-69414375D01*
X140279418Y-69086161D01*
X139846256Y-69000000D01*
X139553744Y-69000000D01*
X139120582Y-69086161D01*
X138629375Y-69414375D01*
X138430000Y-69712761D01*
X138230625Y-69414375D01*
X137739418Y-69086161D01*
X137306256Y-69000000D01*
X137013744Y-69000000D01*
X136580582Y-69086161D01*
X136089375Y-69414375D01*
X135890000Y-69712761D01*
X135690625Y-69414375D01*
X135199418Y-69086161D01*
X134766256Y-69000000D01*
X134473744Y-69000000D01*
X134040582Y-69086161D01*
X133549375Y-69414375D01*
X133350000Y-69712761D01*
X133150625Y-69414375D01*
X132659418Y-69086161D01*
X132226256Y-69000000D01*
X131933744Y-69000000D01*
X131500582Y-69086161D01*
X131009375Y-69414375D01*
X130810000Y-69712761D01*
X130610625Y-69414375D01*
X130119418Y-69086161D01*
X129686256Y-69000000D01*
X129393744Y-69000000D01*
X128960582Y-69086161D01*
X128469375Y-69414375D01*
X128270000Y-69712761D01*
X128070625Y-69414375D01*
X127579418Y-69086161D01*
X127146256Y-69000000D01*
X126853744Y-69000000D01*
X126420582Y-69086161D01*
X125929375Y-69414375D01*
X125730000Y-69712761D01*
X125530625Y-69414375D01*
X125039418Y-69086161D01*
X124606256Y-69000000D01*
X124313744Y-69000000D01*
X123880582Y-69086161D01*
X123389375Y-69414375D01*
X123176157Y-69733478D01*
X123115183Y-69603642D01*
X122686924Y-69213355D01*
X122276890Y-69043524D01*
X122047000Y-69164845D01*
X122047000Y-70358000D01*
X122067000Y-70358000D01*
X122067000Y-70612000D01*
X122047000Y-70612000D01*
X122047000Y-71805155D01*
X122276890Y-71926476D01*
X122686924Y-71756645D01*
X123115183Y-71366358D01*
X123176157Y-71236522D01*
X123389375Y-71555625D01*
X123880582Y-71883839D01*
X124313744Y-71970000D01*
X124606256Y-71970000D01*
X124678960Y-71955538D01*
X125821277Y-73097856D01*
X125870651Y-73171749D01*
X125944544Y-73221123D01*
X125944545Y-73221124D01*
X126026599Y-73275951D01*
X126163390Y-73367352D01*
X126421535Y-73418700D01*
X126421539Y-73418700D01*
X126508699Y-73436037D01*
X126595859Y-73418700D01*
X133951522Y-73418700D01*
X136657663Y-76124842D01*
X136347138Y-76253466D01*
X135943466Y-76657138D01*
X135725000Y-77184561D01*
X135725000Y-77653422D01*
X135318822Y-78059600D01*
X135294012Y-78059600D01*
X135420000Y-77755439D01*
X135420000Y-77184561D01*
X135201534Y-76657138D01*
X134797862Y-76253466D01*
X134270439Y-76035000D01*
X133699561Y-76035000D01*
X133172138Y-76253466D01*
X132768466Y-76657138D01*
X132550000Y-77184561D01*
X132550000Y-77755439D01*
X132675988Y-78059600D01*
X132651179Y-78059600D01*
X132245000Y-77653421D01*
X132245000Y-77184561D01*
X132026534Y-76657138D01*
X131622862Y-76253466D01*
X131095439Y-76035000D01*
X130524561Y-76035000D01*
X129997138Y-76253466D01*
X129593466Y-76657138D01*
X129375000Y-77184561D01*
X129375000Y-77755439D01*
X129593466Y-78282862D01*
X129997138Y-78686534D01*
X130524561Y-78905000D01*
X130993421Y-78905000D01*
X131082721Y-78994300D01*
X121147279Y-78994300D01*
X120986898Y-78833919D01*
X121158000Y-78739915D01*
X121158000Y-77597000D01*
X121412000Y-77597000D01*
X121412000Y-78739915D01*
X121634039Y-78861904D01*
X122022423Y-78701041D01*
X122437389Y-78325134D01*
X122676914Y-77819041D01*
X122555629Y-77597000D01*
X121412000Y-77597000D01*
X121158000Y-77597000D01*
X121138000Y-77597000D01*
X121138000Y-77343000D01*
X121158000Y-77343000D01*
X121158000Y-76200085D01*
X121412000Y-76200085D01*
X121412000Y-77343000D01*
X122555629Y-77343000D01*
X122642172Y-77184561D01*
X123025000Y-77184561D01*
X123025000Y-77755439D01*
X123243466Y-78282862D01*
X123647138Y-78686534D01*
X124174561Y-78905000D01*
X124745439Y-78905000D01*
X125272862Y-78686534D01*
X125676534Y-78282862D01*
X125895000Y-77755439D01*
X125895000Y-77184561D01*
X126200000Y-77184561D01*
X126200000Y-77755439D01*
X126418466Y-78282862D01*
X126822138Y-78686534D01*
X127349561Y-78905000D01*
X127920439Y-78905000D01*
X128447862Y-78686534D01*
X128851534Y-78282862D01*
X129070000Y-77755439D01*
X129070000Y-77184561D01*
X128851534Y-76657138D01*
X128447862Y-76253466D01*
X127920439Y-76035000D01*
X127349561Y-76035000D01*
X126822138Y-76253466D01*
X126418466Y-76657138D01*
X126200000Y-77184561D01*
X125895000Y-77184561D01*
X125676534Y-76657138D01*
X125272862Y-76253466D01*
X124745439Y-76035000D01*
X124174561Y-76035000D01*
X123647138Y-76253466D01*
X123243466Y-76657138D01*
X123025000Y-77184561D01*
X122642172Y-77184561D01*
X122676914Y-77120959D01*
X122437389Y-76614866D01*
X122022423Y-76238959D01*
X121634039Y-76078096D01*
X121412000Y-76200085D01*
X121158000Y-76200085D01*
X120935961Y-76078096D01*
X120547577Y-76238959D01*
X120265000Y-76494938D01*
X120265000Y-71679656D01*
X120450625Y-71555625D01*
X120663843Y-71236522D01*
X120724817Y-71366358D01*
X121153076Y-71756645D01*
X121563110Y-71926476D01*
X121793000Y-71805155D01*
X121793000Y-70612000D01*
X121773000Y-70612000D01*
X121773000Y-70358000D01*
X121793000Y-70358000D01*
X121793000Y-69164845D01*
X121563110Y-69043524D01*
X121153076Y-69213355D01*
X120724817Y-69603642D01*
X120663843Y-69733478D01*
X120450625Y-69414375D01*
X119959418Y-69086161D01*
X119526256Y-69000000D01*
X119233744Y-69000000D01*
X118800582Y-69086161D01*
X118309375Y-69414375D01*
X118110000Y-69712761D01*
X117910625Y-69414375D01*
X117419418Y-69086161D01*
X116986256Y-69000000D01*
X116693744Y-69000000D01*
X116260582Y-69086161D01*
X115769375Y-69414375D01*
X115570000Y-69712761D01*
X115370625Y-69414375D01*
X114879418Y-69086161D01*
X114446256Y-69000000D01*
X114153744Y-69000000D01*
X113720582Y-69086161D01*
X113229375Y-69414375D01*
X113214904Y-69436033D01*
X113148327Y-69275302D01*
X112969699Y-69096673D01*
X112736310Y-69000000D01*
X112045750Y-69000000D01*
X111887000Y-69158750D01*
X111887000Y-70358000D01*
X111907000Y-70358000D01*
X111907000Y-70612000D01*
X111887000Y-70612000D01*
X111887000Y-71811250D01*
X112045750Y-71970000D01*
X112736310Y-71970000D01*
X112969699Y-71873327D01*
X113148327Y-71694698D01*
X113214904Y-71533967D01*
X113229375Y-71555625D01*
X113415001Y-71679656D01*
X113415000Y-76747839D01*
X113397663Y-76835000D01*
X113415000Y-76922161D01*
X113415000Y-76922164D01*
X113466348Y-77180309D01*
X113661951Y-77473049D01*
X113735847Y-77522425D01*
X117578177Y-81364756D01*
X117627551Y-81438649D01*
X117701444Y-81488023D01*
X117701445Y-81488024D01*
X117812480Y-81562215D01*
X117920290Y-81634252D01*
X118178435Y-81685600D01*
X118178439Y-81685600D01*
X118265599Y-81702937D01*
X118352759Y-81685600D01*
X150472322Y-81685600D01*
X152516704Y-83729983D01*
X152475091Y-83738260D01*
X152000423Y-84055423D01*
X151683260Y-84530091D01*
X151571887Y-85090000D01*
X151683260Y-85649909D01*
X152000423Y-86124577D01*
X152475091Y-86441740D01*
X152893667Y-86525000D01*
X153176333Y-86525000D01*
X153594909Y-86441740D01*
X153943203Y-86209017D01*
X153984451Y-86270749D01*
X154058347Y-86320125D01*
X155738221Y-88000000D01*
X155269670Y-88000000D01*
X154705493Y-88233690D01*
X154273690Y-88665493D01*
X154040000Y-89229670D01*
X154040000Y-89840330D01*
X154273690Y-90404507D01*
X154442908Y-90573725D01*
X154427235Y-90576843D01*
X154217191Y-90717191D01*
X154076843Y-90927235D01*
X154027560Y-91175000D01*
X154027560Y-91190000D01*
X152042440Y-91190000D01*
X152042440Y-91175000D01*
X151993157Y-90927235D01*
X151852809Y-90717191D01*
X151642765Y-90576843D01*
X151627092Y-90573725D01*
X151796310Y-90404507D01*
X152030000Y-89840330D01*
X152030000Y-89229670D01*
X151796310Y-88665493D01*
X151364507Y-88233690D01*
X150800330Y-88000000D01*
X150745000Y-88000000D01*
X150745000Y-86224521D01*
X150894577Y-86124577D01*
X151211740Y-85649909D01*
X151323113Y-85090000D01*
X151211740Y-84530091D01*
X150894577Y-84055423D01*
X150419909Y-83738260D01*
X150001333Y-83655000D01*
X149718667Y-83655000D01*
X149300091Y-83738260D01*
X148825423Y-84055423D01*
X148508260Y-84530091D01*
X148396887Y-85090000D01*
X148508260Y-85649909D01*
X148825423Y-86124577D01*
X148975000Y-86224521D01*
X148975001Y-88812835D01*
X148957663Y-88900000D01*
X149002722Y-89126530D01*
X148960000Y-89229670D01*
X148960000Y-89840330D01*
X149193690Y-90404507D01*
X149362908Y-90573725D01*
X149347235Y-90576843D01*
X149137191Y-90717191D01*
X148996843Y-90927235D01*
X148947560Y-91175000D01*
X148947560Y-91190000D01*
X146962440Y-91190000D01*
X146962440Y-91175000D01*
X146913157Y-90927235D01*
X146772809Y-90717191D01*
X146562765Y-90576843D01*
X146547092Y-90573725D01*
X146716310Y-90404507D01*
X146950000Y-89840330D01*
X146950000Y-89229670D01*
X146716310Y-88665493D01*
X146284507Y-88233690D01*
X145720330Y-88000000D01*
X145109670Y-88000000D01*
X144545493Y-88233690D01*
X144113690Y-88665493D01*
X143880000Y-89229670D01*
X143880000Y-89840330D01*
X144113690Y-90404507D01*
X144282908Y-90573725D01*
X144267235Y-90576843D01*
X144057191Y-90717191D01*
X143916843Y-90927235D01*
X143867560Y-91175000D01*
X143867560Y-91190000D01*
X141882440Y-91190000D01*
X141882440Y-91175000D01*
X141833157Y-90927235D01*
X141692809Y-90717191D01*
X141482765Y-90576843D01*
X141467092Y-90573725D01*
X141636310Y-90404507D01*
X141870000Y-89840330D01*
X141870000Y-89251578D01*
X144074156Y-87047423D01*
X144148049Y-86998049D01*
X144202310Y-86916843D01*
X144282822Y-86796348D01*
X144343652Y-86705310D01*
X144395000Y-86447165D01*
X144395000Y-86447160D01*
X144412337Y-86360001D01*
X144395000Y-86272841D01*
X144395000Y-86224521D01*
X144544577Y-86124577D01*
X144861740Y-85649909D01*
X144973113Y-85090000D01*
X145221887Y-85090000D01*
X145333260Y-85649909D01*
X145650423Y-86124577D01*
X146125091Y-86441740D01*
X146543667Y-86525000D01*
X146826333Y-86525000D01*
X147244909Y-86441740D01*
X147719577Y-86124577D01*
X148036740Y-85649909D01*
X148148113Y-85090000D01*
X148036740Y-84530091D01*
X147719577Y-84055423D01*
X147244909Y-83738260D01*
X146826333Y-83655000D01*
X146543667Y-83655000D01*
X146125091Y-83738260D01*
X145650423Y-84055423D01*
X145333260Y-84530091D01*
X145221887Y-85090000D01*
X144973113Y-85090000D01*
X144861740Y-84530091D01*
X144544577Y-84055423D01*
X144069909Y-83738260D01*
X143651333Y-83655000D01*
X143368667Y-83655000D01*
X142950091Y-83738260D01*
X142475423Y-84055423D01*
X142158260Y-84530091D01*
X142046887Y-85090000D01*
X142158260Y-85649909D01*
X142475423Y-86124577D01*
X142486466Y-86131955D01*
X140618422Y-88000000D01*
X140029670Y-88000000D01*
X139465493Y-88233690D01*
X139033690Y-88665493D01*
X138800000Y-89229670D01*
X138800000Y-89840330D01*
X139033690Y-90404507D01*
X139202908Y-90573725D01*
X139187235Y-90576843D01*
X138977191Y-90717191D01*
X138836843Y-90927235D01*
X138787560Y-91175000D01*
X138787560Y-91190000D01*
X136802440Y-91190000D01*
X136802440Y-91175000D01*
X136753157Y-90927235D01*
X136612809Y-90717191D01*
X136402765Y-90576843D01*
X136387092Y-90573725D01*
X136556310Y-90404507D01*
X136790000Y-89840330D01*
X136790000Y-89229670D01*
X136556310Y-88665493D01*
X136124507Y-88233690D01*
X135560330Y-88000000D01*
X135501578Y-88000000D01*
X136983562Y-86518017D01*
X137018667Y-86525000D01*
X137301333Y-86525000D01*
X137719909Y-86441740D01*
X138194577Y-86124577D01*
X138511740Y-85649909D01*
X138623113Y-85090000D01*
X138871887Y-85090000D01*
X138983260Y-85649909D01*
X139300423Y-86124577D01*
X139775091Y-86441740D01*
X140193667Y-86525000D01*
X140476333Y-86525000D01*
X140894909Y-86441740D01*
X141369577Y-86124577D01*
X141686740Y-85649909D01*
X141798113Y-85090000D01*
X141686740Y-84530091D01*
X141369577Y-84055423D01*
X140894909Y-83738260D01*
X140476333Y-83655000D01*
X140193667Y-83655000D01*
X139775091Y-83738260D01*
X139300423Y-84055423D01*
X138983260Y-84530091D01*
X138871887Y-85090000D01*
X138623113Y-85090000D01*
X138511740Y-84530091D01*
X138194577Y-84055423D01*
X137719909Y-83738260D01*
X137301333Y-83655000D01*
X137018667Y-83655000D01*
X136600091Y-83738260D01*
X136125423Y-84055423D01*
X135808260Y-84530091D01*
X135696887Y-85090000D01*
X135731983Y-85266438D01*
X135313035Y-85685387D01*
X135336740Y-85649909D01*
X135448113Y-85090000D01*
X135336740Y-84530091D01*
X135019577Y-84055423D01*
X134544909Y-83738260D01*
X134126333Y-83655000D01*
X133843667Y-83655000D01*
X133425091Y-83738260D01*
X132950423Y-84055423D01*
X132633260Y-84530091D01*
X132521887Y-85090000D01*
X132556983Y-85266438D01*
X132138034Y-85685387D01*
X132161740Y-85649909D01*
X132273113Y-85090000D01*
X132161740Y-84530091D01*
X131844577Y-84055423D01*
X131369909Y-83738260D01*
X130951333Y-83655000D01*
X130668667Y-83655000D01*
X130250091Y-83738260D01*
X129775423Y-84055423D01*
X129458260Y-84530091D01*
X129346887Y-85090000D01*
X129458260Y-85649909D01*
X129775423Y-86124577D01*
X129888287Y-86199990D01*
X128556713Y-86199990D01*
X128669577Y-86124577D01*
X128986740Y-85649909D01*
X129098113Y-85090000D01*
X128986740Y-84530091D01*
X128669577Y-84055423D01*
X128194909Y-83738260D01*
X127776333Y-83655000D01*
X127493667Y-83655000D01*
X127075091Y-83738260D01*
X126600423Y-84055423D01*
X126283260Y-84530091D01*
X126171887Y-85090000D01*
X126283260Y-85649909D01*
X126600423Y-86124577D01*
X126994917Y-86388170D01*
X126980855Y-86397566D01*
X126980854Y-86397567D01*
X126906961Y-86446941D01*
X126857587Y-86520834D01*
X125378422Y-88000000D01*
X124789670Y-88000000D01*
X124225493Y-88233690D01*
X123793690Y-88665493D01*
X123560000Y-89229670D01*
X123560000Y-89840330D01*
X123793690Y-90404507D01*
X123962908Y-90573725D01*
X123947235Y-90576843D01*
X123737191Y-90717191D01*
X123596843Y-90927235D01*
X123547560Y-91175000D01*
X123547560Y-91190000D01*
X122901579Y-91190000D01*
X119412424Y-87700846D01*
X119363049Y-87626951D01*
X119070310Y-87431348D01*
X118846964Y-87386922D01*
X118823157Y-87267235D01*
X118682809Y-87057191D01*
X118472765Y-86916843D01*
X118225000Y-86867560D01*
X117584019Y-86867560D01*
X118540279Y-85911300D01*
X120076904Y-85911300D01*
X120472138Y-86306534D01*
X120999561Y-86525000D01*
X121570439Y-86525000D01*
X122097862Y-86306534D01*
X122501534Y-85902862D01*
X122720000Y-85375439D01*
X122720000Y-85090000D01*
X122996887Y-85090000D01*
X123108260Y-85649909D01*
X123425423Y-86124577D01*
X123900091Y-86441740D01*
X124318667Y-86525000D01*
X124601333Y-86525000D01*
X125019909Y-86441740D01*
X125494577Y-86124577D01*
X125811740Y-85649909D01*
X125923113Y-85090000D01*
X125811740Y-84530091D01*
X125494577Y-84055423D01*
X125019909Y-83738260D01*
X124601333Y-83655000D01*
X124318667Y-83655000D01*
X123900091Y-83738260D01*
X123425423Y-84055423D01*
X123108260Y-84530091D01*
X122996887Y-85090000D01*
X122720000Y-85090000D01*
X122720000Y-84804561D01*
X122501534Y-84277138D01*
X122097862Y-83873466D01*
X121570439Y-83655000D01*
X120999561Y-83655000D01*
X120472138Y-83873466D01*
X120204304Y-84141300D01*
X118540279Y-84141300D01*
X111144600Y-76745622D01*
X111144600Y-71970000D01*
X111474250Y-71970000D01*
X111633000Y-71811250D01*
X111633000Y-70612000D01*
X111613000Y-70612000D01*
X111613000Y-70358000D01*
X111633000Y-70358000D01*
X111633000Y-69158750D01*
X111474250Y-69000000D01*
X111144600Y-69000000D01*
X111144600Y-68462178D01*
X114131780Y-65474999D01*
X125401662Y-65474999D01*
X125398260Y-65480091D01*
X125398260Y-65480091D01*
G37*
X125398260Y-65480091D02*
X125286887Y-66040000D01*
X125398260Y-66599909D01*
X125715423Y-67074577D01*
X126190091Y-67391740D01*
X126608667Y-67475000D01*
X126891333Y-67475000D01*
X127309909Y-67391740D01*
X127784577Y-67074577D01*
X128020000Y-66722242D01*
X128255423Y-67074577D01*
X128730091Y-67391740D01*
X129148667Y-67475000D01*
X129431333Y-67475000D01*
X129849909Y-67391740D01*
X130324577Y-67074577D01*
X130560000Y-66722242D01*
X130795423Y-67074577D01*
X131270091Y-67391740D01*
X131688667Y-67475000D01*
X131971333Y-67475000D01*
X132389909Y-67391740D01*
X132864577Y-67074577D01*
X133120947Y-66690892D01*
X133217611Y-66895134D01*
X133632577Y-67271041D01*
X134020961Y-67431904D01*
X134243000Y-67309915D01*
X134243000Y-66167000D01*
X134223000Y-66167000D01*
X134223000Y-65913000D01*
X134243000Y-65913000D01*
X134243000Y-65893000D01*
X134497000Y-65893000D01*
X134497000Y-65913000D01*
X134517000Y-65913000D01*
X134517000Y-66167000D01*
X134497000Y-66167000D01*
X134497000Y-67309915D01*
X134719039Y-67431904D01*
X135107423Y-67271041D01*
X135522389Y-66895134D01*
X135619053Y-66690892D01*
X135875423Y-67074577D01*
X136350091Y-67391740D01*
X136768667Y-67475000D01*
X137051333Y-67475000D01*
X137469909Y-67391740D01*
X137944577Y-67074577D01*
X138180000Y-66722242D01*
X138415423Y-67074577D01*
X138890091Y-67391740D01*
X139308667Y-67475000D01*
X139591333Y-67475000D01*
X140009909Y-67391740D01*
X140484577Y-67074577D01*
X140720000Y-66722242D01*
X140955423Y-67074577D01*
X141430091Y-67391740D01*
X141848667Y-67475000D01*
X142131333Y-67475000D01*
X142549909Y-67391740D01*
X143024577Y-67074577D01*
X143260000Y-66722242D01*
X143495423Y-67074577D01*
X143970091Y-67391740D01*
X144388667Y-67475000D01*
X144671333Y-67475000D01*
X145089909Y-67391740D01*
X145564577Y-67074577D01*
X145800000Y-66722242D01*
X146035423Y-67074577D01*
X146510091Y-67391740D01*
X146928667Y-67475000D01*
X147211333Y-67475000D01*
X147629909Y-67391740D01*
X148104577Y-67074577D01*
X148340000Y-66722242D01*
X148575423Y-67074577D01*
X149050091Y-67391740D01*
X149468667Y-67475000D01*
X149751333Y-67475000D01*
X150169909Y-67391740D01*
X150644577Y-67074577D01*
X150961740Y-66599909D01*
X151073113Y-66040000D01*
X150961740Y-65480091D01*
X150958338Y-65474999D01*
X152321662Y-65474999D01*
X152318260Y-65480091D01*
X152206887Y-66040000D01*
X152241983Y-66216438D01*
X150368122Y-68090300D01*
X146376859Y-68090300D01*
X146289699Y-68072963D01*
X146202539Y-68090300D01*
X146202535Y-68090300D01*
X145944390Y-68141648D01*
X145944388Y-68141649D01*
X145944389Y-68141649D01*
X145725545Y-68287876D01*
X145725544Y-68287877D01*
X145651651Y-68337251D01*
X145602277Y-68411144D01*
X144998960Y-69014462D01*
X144926256Y-69000000D01*
X144633744Y-69000000D01*
X144200582Y-69086161D01*
X143709375Y-69414375D01*
X143510000Y-69712761D01*
X143310625Y-69414375D01*
X142819418Y-69086161D01*
X142386256Y-69000000D01*
X142093744Y-69000000D01*
X141660582Y-69086161D01*
X141169375Y-69414375D01*
X140970000Y-69712761D01*
X140770625Y-69414375D01*
X140279418Y-69086161D01*
X139846256Y-69000000D01*
X139553744Y-69000000D01*
X139120582Y-69086161D01*
X138629375Y-69414375D01*
X138430000Y-69712761D01*
X138230625Y-69414375D01*
X137739418Y-69086161D01*
X137306256Y-69000000D01*
X137013744Y-69000000D01*
X136580582Y-69086161D01*
X136089375Y-69414375D01*
X135890000Y-69712761D01*
X135690625Y-69414375D01*
X135199418Y-69086161D01*
X134766256Y-69000000D01*
X134473744Y-69000000D01*
X134040582Y-69086161D01*
X133549375Y-69414375D01*
X133350000Y-69712761D01*
X133150625Y-69414375D01*
X132659418Y-69086161D01*
X132226256Y-69000000D01*
X131933744Y-69000000D01*
X131500582Y-69086161D01*
X131009375Y-69414375D01*
X130810000Y-69712761D01*
X130610625Y-69414375D01*
X130119418Y-69086161D01*
X129686256Y-69000000D01*
X129393744Y-69000000D01*
X128960582Y-69086161D01*
X128469375Y-69414375D01*
X128270000Y-69712761D01*
X128070625Y-69414375D01*
X127579418Y-69086161D01*
X127146256Y-69000000D01*
X126853744Y-69000000D01*
X126420582Y-69086161D01*
X125929375Y-69414375D01*
X125730000Y-69712761D01*
X125530625Y-69414375D01*
X125039418Y-69086161D01*
X124606256Y-69000000D01*
X124313744Y-69000000D01*
X123880582Y-69086161D01*
X123389375Y-69414375D01*
X123176157Y-69733478D01*
X123115183Y-69603642D01*
X122686924Y-69213355D01*
X122276890Y-69043524D01*
X122047000Y-69164845D01*
X122047000Y-70358000D01*
X122067000Y-70358000D01*
X122067000Y-70612000D01*
X122047000Y-70612000D01*
X122047000Y-71805155D01*
X122276890Y-71926476D01*
X122686924Y-71756645D01*
X123115183Y-71366358D01*
X123176157Y-71236522D01*
X123389375Y-71555625D01*
X123880582Y-71883839D01*
X124313744Y-71970000D01*
X124606256Y-71970000D01*
X124678960Y-71955538D01*
X125821277Y-73097856D01*
X125870651Y-73171749D01*
X125944544Y-73221123D01*
X125944545Y-73221124D01*
X126026599Y-73275951D01*
X126163390Y-73367352D01*
X126421535Y-73418700D01*
X126421539Y-73418700D01*
X126508699Y-73436037D01*
X126595859Y-73418700D01*
X133951522Y-73418700D01*
X136657663Y-76124842D01*
X136347138Y-76253466D01*
X135943466Y-76657138D01*
X135725000Y-77184561D01*
X135725000Y-77653422D01*
X135318822Y-78059600D01*
X135294012Y-78059600D01*
X135420000Y-77755439D01*
X135420000Y-77184561D01*
X135201534Y-76657138D01*
X134797862Y-76253466D01*
X134270439Y-76035000D01*
X133699561Y-76035000D01*
X133172138Y-76253466D01*
X132768466Y-76657138D01*
X132550000Y-77184561D01*
X132550000Y-77755439D01*
X132675988Y-78059600D01*
X132651179Y-78059600D01*
X132245000Y-77653421D01*
X132245000Y-77184561D01*
X132026534Y-76657138D01*
X131622862Y-76253466D01*
X131095439Y-76035000D01*
X130524561Y-76035000D01*
X129997138Y-76253466D01*
X129593466Y-76657138D01*
X129375000Y-77184561D01*
X129375000Y-77755439D01*
X129593466Y-78282862D01*
X129997138Y-78686534D01*
X130524561Y-78905000D01*
X130993421Y-78905000D01*
X131082721Y-78994300D01*
X121147279Y-78994300D01*
X120986898Y-78833919D01*
X121158000Y-78739915D01*
X121158000Y-77597000D01*
X121412000Y-77597000D01*
X121412000Y-78739915D01*
X121634039Y-78861904D01*
X122022423Y-78701041D01*
X122437389Y-78325134D01*
X122676914Y-77819041D01*
X122555629Y-77597000D01*
X121412000Y-77597000D01*
X121158000Y-77597000D01*
X121138000Y-77597000D01*
X121138000Y-77343000D01*
X121158000Y-77343000D01*
X121158000Y-76200085D01*
X121412000Y-76200085D01*
X121412000Y-77343000D01*
X122555629Y-77343000D01*
X122642172Y-77184561D01*
X123025000Y-77184561D01*
X123025000Y-77755439D01*
X123243466Y-78282862D01*
X123647138Y-78686534D01*
X124174561Y-78905000D01*
X124745439Y-78905000D01*
X125272862Y-78686534D01*
X125676534Y-78282862D01*
X125895000Y-77755439D01*
X125895000Y-77184561D01*
X126200000Y-77184561D01*
X126200000Y-77755439D01*
X126418466Y-78282862D01*
X126822138Y-78686534D01*
X127349561Y-78905000D01*
X127920439Y-78905000D01*
X128447862Y-78686534D01*
X128851534Y-78282862D01*
X129070000Y-77755439D01*
X129070000Y-77184561D01*
X128851534Y-76657138D01*
X128447862Y-76253466D01*
X127920439Y-76035000D01*
X127349561Y-76035000D01*
X126822138Y-76253466D01*
X126418466Y-76657138D01*
X126200000Y-77184561D01*
X125895000Y-77184561D01*
X125676534Y-76657138D01*
X125272862Y-76253466D01*
X124745439Y-76035000D01*
X124174561Y-76035000D01*
X123647138Y-76253466D01*
X123243466Y-76657138D01*
X123025000Y-77184561D01*
X122642172Y-77184561D01*
X122676914Y-77120959D01*
X122437389Y-76614866D01*
X122022423Y-76238959D01*
X121634039Y-76078096D01*
X121412000Y-76200085D01*
X121158000Y-76200085D01*
X120935961Y-76078096D01*
X120547577Y-76238959D01*
X120265000Y-76494938D01*
X120265000Y-71679656D01*
X120450625Y-71555625D01*
X120663843Y-71236522D01*
X120724817Y-71366358D01*
X121153076Y-71756645D01*
X121563110Y-71926476D01*
X121793000Y-71805155D01*
X121793000Y-70612000D01*
X121773000Y-70612000D01*
X121773000Y-70358000D01*
X121793000Y-70358000D01*
X121793000Y-69164845D01*
X121563110Y-69043524D01*
X121153076Y-69213355D01*
X120724817Y-69603642D01*
X120663843Y-69733478D01*
X120450625Y-69414375D01*
X119959418Y-69086161D01*
X119526256Y-69000000D01*
X119233744Y-69000000D01*
X118800582Y-69086161D01*
X118309375Y-69414375D01*
X118110000Y-69712761D01*
X117910625Y-69414375D01*
X117419418Y-69086161D01*
X116986256Y-69000000D01*
X116693744Y-69000000D01*
X116260582Y-69086161D01*
X115769375Y-69414375D01*
X115570000Y-69712761D01*
X115370625Y-69414375D01*
X114879418Y-69086161D01*
X114446256Y-69000000D01*
X114153744Y-69000000D01*
X113720582Y-69086161D01*
X113229375Y-69414375D01*
X113214904Y-69436033D01*
X113148327Y-69275302D01*
X112969699Y-69096673D01*
X112736310Y-69000000D01*
X112045750Y-69000000D01*
X111887000Y-69158750D01*
X111887000Y-70358000D01*
X111907000Y-70358000D01*
X111907000Y-70612000D01*
X111887000Y-70612000D01*
X111887000Y-71811250D01*
X112045750Y-71970000D01*
X112736310Y-71970000D01*
X112969699Y-71873327D01*
X113148327Y-71694698D01*
X113214904Y-71533967D01*
X113229375Y-71555625D01*
X113415001Y-71679656D01*
X113415000Y-76747839D01*
X113397663Y-76835000D01*
X113415000Y-76922161D01*
X113415000Y-76922164D01*
X113466348Y-77180309D01*
X113661951Y-77473049D01*
X113735847Y-77522425D01*
X117578177Y-81364756D01*
X117627551Y-81438649D01*
X117701444Y-81488023D01*
X117701445Y-81488024D01*
X117812480Y-81562215D01*
X117920290Y-81634252D01*
X118178435Y-81685600D01*
X118178439Y-81685600D01*
X118265599Y-81702937D01*
X118352759Y-81685600D01*
X150472322Y-81685600D01*
X152516704Y-83729983D01*
X152475091Y-83738260D01*
X152000423Y-84055423D01*
X151683260Y-84530091D01*
X151571887Y-85090000D01*
X151683260Y-85649909D01*
X152000423Y-86124577D01*
X152475091Y-86441740D01*
X152893667Y-86525000D01*
X153176333Y-86525000D01*
X153594909Y-86441740D01*
X153943203Y-86209017D01*
X153984451Y-86270749D01*
X154058347Y-86320125D01*
X155738221Y-88000000D01*
X155269670Y-88000000D01*
X154705493Y-88233690D01*
X154273690Y-88665493D01*
X154040000Y-89229670D01*
X154040000Y-89840330D01*
X154273690Y-90404507D01*
X154442908Y-90573725D01*
X154427235Y-90576843D01*
X154217191Y-90717191D01*
X154076843Y-90927235D01*
X154027560Y-91175000D01*
X154027560Y-91190000D01*
X152042440Y-91190000D01*
X152042440Y-91175000D01*
X151993157Y-90927235D01*
X151852809Y-90717191D01*
X151642765Y-90576843D01*
X151627092Y-90573725D01*
X151796310Y-90404507D01*
X152030000Y-89840330D01*
X152030000Y-89229670D01*
X151796310Y-88665493D01*
X151364507Y-88233690D01*
X150800330Y-88000000D01*
X150745000Y-88000000D01*
X150745000Y-86224521D01*
X150894577Y-86124577D01*
X151211740Y-85649909D01*
X151323113Y-85090000D01*
X151211740Y-84530091D01*
X150894577Y-84055423D01*
X150419909Y-83738260D01*
X150001333Y-83655000D01*
X149718667Y-83655000D01*
X149300091Y-83738260D01*
X148825423Y-84055423D01*
X148508260Y-84530091D01*
X148396887Y-85090000D01*
X148508260Y-85649909D01*
X148825423Y-86124577D01*
X148975000Y-86224521D01*
X148975001Y-88812835D01*
X148957663Y-88900000D01*
X149002722Y-89126530D01*
X148960000Y-89229670D01*
X148960000Y-89840330D01*
X149193690Y-90404507D01*
X149362908Y-90573725D01*
X149347235Y-90576843D01*
X149137191Y-90717191D01*
X148996843Y-90927235D01*
X148947560Y-91175000D01*
X148947560Y-91190000D01*
X146962440Y-91190000D01*
X146962440Y-91175000D01*
X146913157Y-90927235D01*
X146772809Y-90717191D01*
X146562765Y-90576843D01*
X146547092Y-90573725D01*
X146716310Y-90404507D01*
X146950000Y-89840330D01*
X146950000Y-89229670D01*
X146716310Y-88665493D01*
X146284507Y-88233690D01*
X145720330Y-88000000D01*
X145109670Y-88000000D01*
X144545493Y-88233690D01*
X144113690Y-88665493D01*
X143880000Y-89229670D01*
X143880000Y-89840330D01*
X144113690Y-90404507D01*
X144282908Y-90573725D01*
X144267235Y-90576843D01*
X144057191Y-90717191D01*
X143916843Y-90927235D01*
X143867560Y-91175000D01*
X143867560Y-91190000D01*
X141882440Y-91190000D01*
X141882440Y-91175000D01*
X141833157Y-90927235D01*
X141692809Y-90717191D01*
X141482765Y-90576843D01*
X141467092Y-90573725D01*
X141636310Y-90404507D01*
X141870000Y-89840330D01*
X141870000Y-89251578D01*
X144074156Y-87047423D01*
X144148049Y-86998049D01*
X144202310Y-86916843D01*
X144282822Y-86796348D01*
X144343652Y-86705310D01*
X144395000Y-86447165D01*
X144395000Y-86447160D01*
X144412337Y-86360001D01*
X144395000Y-86272841D01*
X144395000Y-86224521D01*
X144544577Y-86124577D01*
X144861740Y-85649909D01*
X144973113Y-85090000D01*
X145221887Y-85090000D01*
X145333260Y-85649909D01*
X145650423Y-86124577D01*
X146125091Y-86441740D01*
X146543667Y-86525000D01*
X146826333Y-86525000D01*
X147244909Y-86441740D01*
X147719577Y-86124577D01*
X148036740Y-85649909D01*
X148148113Y-85090000D01*
X148036740Y-84530091D01*
X147719577Y-84055423D01*
X147244909Y-83738260D01*
X146826333Y-83655000D01*
X146543667Y-83655000D01*
X146125091Y-83738260D01*
X145650423Y-84055423D01*
X145333260Y-84530091D01*
X145221887Y-85090000D01*
X144973113Y-85090000D01*
X144861740Y-84530091D01*
X144544577Y-84055423D01*
X144069909Y-83738260D01*
X143651333Y-83655000D01*
X143368667Y-83655000D01*
X142950091Y-83738260D01*
X142475423Y-84055423D01*
X142158260Y-84530091D01*
X142046887Y-85090000D01*
X142158260Y-85649909D01*
X142475423Y-86124577D01*
X142486466Y-86131955D01*
X140618422Y-88000000D01*
X140029670Y-88000000D01*
X139465493Y-88233690D01*
X139033690Y-88665493D01*
X138800000Y-89229670D01*
X138800000Y-89840330D01*
X139033690Y-90404507D01*
X139202908Y-90573725D01*
X139187235Y-90576843D01*
X138977191Y-90717191D01*
X138836843Y-90927235D01*
X138787560Y-91175000D01*
X138787560Y-91190000D01*
X136802440Y-91190000D01*
X136802440Y-91175000D01*
X136753157Y-90927235D01*
X136612809Y-90717191D01*
X136402765Y-90576843D01*
X136387092Y-90573725D01*
X136556310Y-90404507D01*
X136790000Y-89840330D01*
X136790000Y-89229670D01*
X136556310Y-88665493D01*
X136124507Y-88233690D01*
X135560330Y-88000000D01*
X135501578Y-88000000D01*
X136983562Y-86518017D01*
X137018667Y-86525000D01*
X137301333Y-86525000D01*
X137719909Y-86441740D01*
X138194577Y-86124577D01*
X138511740Y-85649909D01*
X138623113Y-85090000D01*
X138871887Y-85090000D01*
X138983260Y-85649909D01*
X139300423Y-86124577D01*
X139775091Y-86441740D01*
X140193667Y-86525000D01*
X140476333Y-86525000D01*
X140894909Y-86441740D01*
X141369577Y-86124577D01*
X141686740Y-85649909D01*
X141798113Y-85090000D01*
X141686740Y-84530091D01*
X141369577Y-84055423D01*
X140894909Y-83738260D01*
X140476333Y-83655000D01*
X140193667Y-83655000D01*
X139775091Y-83738260D01*
X139300423Y-84055423D01*
X138983260Y-84530091D01*
X138871887Y-85090000D01*
X138623113Y-85090000D01*
X138511740Y-84530091D01*
X138194577Y-84055423D01*
X137719909Y-83738260D01*
X137301333Y-83655000D01*
X137018667Y-83655000D01*
X136600091Y-83738260D01*
X136125423Y-84055423D01*
X135808260Y-84530091D01*
X135696887Y-85090000D01*
X135731983Y-85266438D01*
X135313035Y-85685387D01*
X135336740Y-85649909D01*
X135448113Y-85090000D01*
X135336740Y-84530091D01*
X135019577Y-84055423D01*
X134544909Y-83738260D01*
X134126333Y-83655000D01*
X133843667Y-83655000D01*
X133425091Y-83738260D01*
X132950423Y-84055423D01*
X132633260Y-84530091D01*
X132521887Y-85090000D01*
X132556983Y-85266438D01*
X132138034Y-85685387D01*
X132161740Y-85649909D01*
X132273113Y-85090000D01*
X132161740Y-84530091D01*
X131844577Y-84055423D01*
X131369909Y-83738260D01*
X130951333Y-83655000D01*
X130668667Y-83655000D01*
X130250091Y-83738260D01*
X129775423Y-84055423D01*
X129458260Y-84530091D01*
X129346887Y-85090000D01*
X129458260Y-85649909D01*
X129775423Y-86124577D01*
X129888287Y-86199990D01*
X128556713Y-86199990D01*
X128669577Y-86124577D01*
X128986740Y-85649909D01*
X129098113Y-85090000D01*
X128986740Y-84530091D01*
X128669577Y-84055423D01*
X128194909Y-83738260D01*
X127776333Y-83655000D01*
X127493667Y-83655000D01*
X127075091Y-83738260D01*
X126600423Y-84055423D01*
X126283260Y-84530091D01*
X126171887Y-85090000D01*
X126283260Y-85649909D01*
X126600423Y-86124577D01*
X126994917Y-86388170D01*
X126980855Y-86397566D01*
X126980854Y-86397567D01*
X126906961Y-86446941D01*
X126857587Y-86520834D01*
X125378422Y-88000000D01*
X124789670Y-88000000D01*
X124225493Y-88233690D01*
X123793690Y-88665493D01*
X123560000Y-89229670D01*
X123560000Y-89840330D01*
X123793690Y-90404507D01*
X123962908Y-90573725D01*
X123947235Y-90576843D01*
X123737191Y-90717191D01*
X123596843Y-90927235D01*
X123547560Y-91175000D01*
X123547560Y-91190000D01*
X122901579Y-91190000D01*
X119412424Y-87700846D01*
X119363049Y-87626951D01*
X119070310Y-87431348D01*
X118846964Y-87386922D01*
X118823157Y-87267235D01*
X118682809Y-87057191D01*
X118472765Y-86916843D01*
X118225000Y-86867560D01*
X117584019Y-86867560D01*
X118540279Y-85911300D01*
X120076904Y-85911300D01*
X120472138Y-86306534D01*
X120999561Y-86525000D01*
X121570439Y-86525000D01*
X122097862Y-86306534D01*
X122501534Y-85902862D01*
X122720000Y-85375439D01*
X122720000Y-85090000D01*
X122996887Y-85090000D01*
X123108260Y-85649909D01*
X123425423Y-86124577D01*
X123900091Y-86441740D01*
X124318667Y-86525000D01*
X124601333Y-86525000D01*
X125019909Y-86441740D01*
X125494577Y-86124577D01*
X125811740Y-85649909D01*
X125923113Y-85090000D01*
X125811740Y-84530091D01*
X125494577Y-84055423D01*
X125019909Y-83738260D01*
X124601333Y-83655000D01*
X124318667Y-83655000D01*
X123900091Y-83738260D01*
X123425423Y-84055423D01*
X123108260Y-84530091D01*
X122996887Y-85090000D01*
X122720000Y-85090000D01*
X122720000Y-84804561D01*
X122501534Y-84277138D01*
X122097862Y-83873466D01*
X121570439Y-83655000D01*
X120999561Y-83655000D01*
X120472138Y-83873466D01*
X120204304Y-84141300D01*
X118540279Y-84141300D01*
X111144600Y-76745622D01*
X111144600Y-71970000D01*
X111474250Y-71970000D01*
X111633000Y-71811250D01*
X111633000Y-70612000D01*
X111613000Y-70612000D01*
X111613000Y-70358000D01*
X111633000Y-70358000D01*
X111633000Y-69158750D01*
X111474250Y-69000000D01*
X111144600Y-69000000D01*
X111144600Y-68462178D01*
X114131780Y-65474999D01*
X125401662Y-65474999D01*
X125398260Y-65480091D01*
G04 #@! TD*
M02*
