G04 #@! TF.GenerationSoftware,KiCad,Pcbnew,5.0.2-bee76a0~70~ubuntu14.04.1*
G04 #@! TF.CreationDate,2019-04-02T14:46:03+02:00*
G04 #@! TF.ProjectId,shield_a,73686965-6c64-45f6-912e-6b696361645f,1.1*
G04 #@! TF.SameCoordinates,Original*
G04 #@! TF.FileFunction,Soldermask,Bot*
G04 #@! TF.FilePolarity,Negative*
%FSLAX46Y46*%
G04 Gerber Fmt 4.6, Leading zero omitted, Abs format (unit mm)*
G04 Created by KiCad (PCBNEW 5.0.2-bee76a0~70~ubuntu14.04.1) date Uto 02 Tra 2019 14:46:03*
%MOMM*%
%LPD*%
G01*
G04 APERTURE LIST*
%ADD10C,0.100000*%
G04 APERTURE END LIST*
D10*
G36*
X136741000Y-115151000D02*
X135039000Y-115151000D01*
X135039000Y-113449000D01*
X136741000Y-113449000D01*
X136741000Y-115151000D01*
X136741000Y-115151000D01*
G37*
G36*
X169076821Y-113461313D02*
X169076824Y-113461314D01*
X169076825Y-113461314D01*
X169237239Y-113509975D01*
X169237241Y-113509976D01*
X169237244Y-113509977D01*
X169385078Y-113588995D01*
X169514659Y-113695341D01*
X169621005Y-113824922D01*
X169700023Y-113972756D01*
X169700024Y-113972759D01*
X169700025Y-113972761D01*
X169748686Y-114133175D01*
X169748687Y-114133179D01*
X169765117Y-114300000D01*
X169748687Y-114466821D01*
X169700023Y-114627244D01*
X169621005Y-114775078D01*
X169514659Y-114904659D01*
X169385078Y-115011005D01*
X169237244Y-115090023D01*
X169237241Y-115090024D01*
X169237239Y-115090025D01*
X169076825Y-115138686D01*
X169076824Y-115138686D01*
X169076821Y-115138687D01*
X168951804Y-115151000D01*
X168868196Y-115151000D01*
X168743179Y-115138687D01*
X168743176Y-115138686D01*
X168743175Y-115138686D01*
X168582761Y-115090025D01*
X168582759Y-115090024D01*
X168582756Y-115090023D01*
X168434922Y-115011005D01*
X168305341Y-114904659D01*
X168198995Y-114775078D01*
X168119977Y-114627244D01*
X168071313Y-114466821D01*
X168054883Y-114300000D01*
X168071313Y-114133179D01*
X168071314Y-114133175D01*
X168119975Y-113972761D01*
X168119976Y-113972759D01*
X168119977Y-113972756D01*
X168198995Y-113824922D01*
X168305341Y-113695341D01*
X168434922Y-113588995D01*
X168582756Y-113509977D01*
X168582759Y-113509976D01*
X168582761Y-113509975D01*
X168743175Y-113461314D01*
X168743176Y-113461314D01*
X168743179Y-113461313D01*
X168868196Y-113449000D01*
X168951804Y-113449000D01*
X169076821Y-113461313D01*
X169076821Y-113461313D01*
G37*
G36*
X171616821Y-113461313D02*
X171616824Y-113461314D01*
X171616825Y-113461314D01*
X171777239Y-113509975D01*
X171777241Y-113509976D01*
X171777244Y-113509977D01*
X171925078Y-113588995D01*
X172054659Y-113695341D01*
X172161005Y-113824922D01*
X172240023Y-113972756D01*
X172240024Y-113972759D01*
X172240025Y-113972761D01*
X172288686Y-114133175D01*
X172288687Y-114133179D01*
X172305117Y-114300000D01*
X172288687Y-114466821D01*
X172240023Y-114627244D01*
X172161005Y-114775078D01*
X172054659Y-114904659D01*
X171925078Y-115011005D01*
X171777244Y-115090023D01*
X171777241Y-115090024D01*
X171777239Y-115090025D01*
X171616825Y-115138686D01*
X171616824Y-115138686D01*
X171616821Y-115138687D01*
X171491804Y-115151000D01*
X171408196Y-115151000D01*
X171283179Y-115138687D01*
X171283176Y-115138686D01*
X171283175Y-115138686D01*
X171122761Y-115090025D01*
X171122759Y-115090024D01*
X171122756Y-115090023D01*
X170974922Y-115011005D01*
X170845341Y-114904659D01*
X170738995Y-114775078D01*
X170659977Y-114627244D01*
X170611313Y-114466821D01*
X170594883Y-114300000D01*
X170611313Y-114133179D01*
X170611314Y-114133175D01*
X170659975Y-113972761D01*
X170659976Y-113972759D01*
X170659977Y-113972756D01*
X170738995Y-113824922D01*
X170845341Y-113695341D01*
X170974922Y-113588995D01*
X171122756Y-113509977D01*
X171122759Y-113509976D01*
X171122761Y-113509975D01*
X171283175Y-113461314D01*
X171283176Y-113461314D01*
X171283179Y-113461313D01*
X171408196Y-113449000D01*
X171491804Y-113449000D01*
X171616821Y-113461313D01*
X171616821Y-113461313D01*
G37*
G36*
X166536821Y-113461313D02*
X166536824Y-113461314D01*
X166536825Y-113461314D01*
X166697239Y-113509975D01*
X166697241Y-113509976D01*
X166697244Y-113509977D01*
X166845078Y-113588995D01*
X166974659Y-113695341D01*
X167081005Y-113824922D01*
X167160023Y-113972756D01*
X167160024Y-113972759D01*
X167160025Y-113972761D01*
X167208686Y-114133175D01*
X167208687Y-114133179D01*
X167225117Y-114300000D01*
X167208687Y-114466821D01*
X167160023Y-114627244D01*
X167081005Y-114775078D01*
X166974659Y-114904659D01*
X166845078Y-115011005D01*
X166697244Y-115090023D01*
X166697241Y-115090024D01*
X166697239Y-115090025D01*
X166536825Y-115138686D01*
X166536824Y-115138686D01*
X166536821Y-115138687D01*
X166411804Y-115151000D01*
X166328196Y-115151000D01*
X166203179Y-115138687D01*
X166203176Y-115138686D01*
X166203175Y-115138686D01*
X166042761Y-115090025D01*
X166042759Y-115090024D01*
X166042756Y-115090023D01*
X165894922Y-115011005D01*
X165765341Y-114904659D01*
X165658995Y-114775078D01*
X165579977Y-114627244D01*
X165531313Y-114466821D01*
X165514883Y-114300000D01*
X165531313Y-114133179D01*
X165531314Y-114133175D01*
X165579975Y-113972761D01*
X165579976Y-113972759D01*
X165579977Y-113972756D01*
X165658995Y-113824922D01*
X165765341Y-113695341D01*
X165894922Y-113588995D01*
X166042756Y-113509977D01*
X166042759Y-113509976D01*
X166042761Y-113509975D01*
X166203175Y-113461314D01*
X166203176Y-113461314D01*
X166203179Y-113461313D01*
X166328196Y-113449000D01*
X166411804Y-113449000D01*
X166536821Y-113461313D01*
X166536821Y-113461313D01*
G37*
G36*
X163996821Y-113461313D02*
X163996824Y-113461314D01*
X163996825Y-113461314D01*
X164157239Y-113509975D01*
X164157241Y-113509976D01*
X164157244Y-113509977D01*
X164305078Y-113588995D01*
X164434659Y-113695341D01*
X164541005Y-113824922D01*
X164620023Y-113972756D01*
X164620024Y-113972759D01*
X164620025Y-113972761D01*
X164668686Y-114133175D01*
X164668687Y-114133179D01*
X164685117Y-114300000D01*
X164668687Y-114466821D01*
X164620023Y-114627244D01*
X164541005Y-114775078D01*
X164434659Y-114904659D01*
X164305078Y-115011005D01*
X164157244Y-115090023D01*
X164157241Y-115090024D01*
X164157239Y-115090025D01*
X163996825Y-115138686D01*
X163996824Y-115138686D01*
X163996821Y-115138687D01*
X163871804Y-115151000D01*
X163788196Y-115151000D01*
X163663179Y-115138687D01*
X163663176Y-115138686D01*
X163663175Y-115138686D01*
X163502761Y-115090025D01*
X163502759Y-115090024D01*
X163502756Y-115090023D01*
X163354922Y-115011005D01*
X163225341Y-114904659D01*
X163118995Y-114775078D01*
X163039977Y-114627244D01*
X162991313Y-114466821D01*
X162974883Y-114300000D01*
X162991313Y-114133179D01*
X162991314Y-114133175D01*
X163039975Y-113972761D01*
X163039976Y-113972759D01*
X163039977Y-113972756D01*
X163118995Y-113824922D01*
X163225341Y-113695341D01*
X163354922Y-113588995D01*
X163502756Y-113509977D01*
X163502759Y-113509976D01*
X163502761Y-113509975D01*
X163663175Y-113461314D01*
X163663176Y-113461314D01*
X163663179Y-113461313D01*
X163788196Y-113449000D01*
X163871804Y-113449000D01*
X163996821Y-113461313D01*
X163996821Y-113461313D01*
G37*
G36*
X161456821Y-113461313D02*
X161456824Y-113461314D01*
X161456825Y-113461314D01*
X161617239Y-113509975D01*
X161617241Y-113509976D01*
X161617244Y-113509977D01*
X161765078Y-113588995D01*
X161894659Y-113695341D01*
X162001005Y-113824922D01*
X162080023Y-113972756D01*
X162080024Y-113972759D01*
X162080025Y-113972761D01*
X162128686Y-114133175D01*
X162128687Y-114133179D01*
X162145117Y-114300000D01*
X162128687Y-114466821D01*
X162080023Y-114627244D01*
X162001005Y-114775078D01*
X161894659Y-114904659D01*
X161765078Y-115011005D01*
X161617244Y-115090023D01*
X161617241Y-115090024D01*
X161617239Y-115090025D01*
X161456825Y-115138686D01*
X161456824Y-115138686D01*
X161456821Y-115138687D01*
X161331804Y-115151000D01*
X161248196Y-115151000D01*
X161123179Y-115138687D01*
X161123176Y-115138686D01*
X161123175Y-115138686D01*
X160962761Y-115090025D01*
X160962759Y-115090024D01*
X160962756Y-115090023D01*
X160814922Y-115011005D01*
X160685341Y-114904659D01*
X160578995Y-114775078D01*
X160499977Y-114627244D01*
X160451313Y-114466821D01*
X160434883Y-114300000D01*
X160451313Y-114133179D01*
X160451314Y-114133175D01*
X160499975Y-113972761D01*
X160499976Y-113972759D01*
X160499977Y-113972756D01*
X160578995Y-113824922D01*
X160685341Y-113695341D01*
X160814922Y-113588995D01*
X160962756Y-113509977D01*
X160962759Y-113509976D01*
X160962761Y-113509975D01*
X161123175Y-113461314D01*
X161123176Y-113461314D01*
X161123179Y-113461313D01*
X161248196Y-113449000D01*
X161331804Y-113449000D01*
X161456821Y-113461313D01*
X161456821Y-113461313D01*
G37*
G36*
X158916821Y-113461313D02*
X158916824Y-113461314D01*
X158916825Y-113461314D01*
X159077239Y-113509975D01*
X159077241Y-113509976D01*
X159077244Y-113509977D01*
X159225078Y-113588995D01*
X159354659Y-113695341D01*
X159461005Y-113824922D01*
X159540023Y-113972756D01*
X159540024Y-113972759D01*
X159540025Y-113972761D01*
X159588686Y-114133175D01*
X159588687Y-114133179D01*
X159605117Y-114300000D01*
X159588687Y-114466821D01*
X159540023Y-114627244D01*
X159461005Y-114775078D01*
X159354659Y-114904659D01*
X159225078Y-115011005D01*
X159077244Y-115090023D01*
X159077241Y-115090024D01*
X159077239Y-115090025D01*
X158916825Y-115138686D01*
X158916824Y-115138686D01*
X158916821Y-115138687D01*
X158791804Y-115151000D01*
X158708196Y-115151000D01*
X158583179Y-115138687D01*
X158583176Y-115138686D01*
X158583175Y-115138686D01*
X158422761Y-115090025D01*
X158422759Y-115090024D01*
X158422756Y-115090023D01*
X158274922Y-115011005D01*
X158145341Y-114904659D01*
X158038995Y-114775078D01*
X157959977Y-114627244D01*
X157911313Y-114466821D01*
X157894883Y-114300000D01*
X157911313Y-114133179D01*
X157911314Y-114133175D01*
X157959975Y-113972761D01*
X157959976Y-113972759D01*
X157959977Y-113972756D01*
X158038995Y-113824922D01*
X158145341Y-113695341D01*
X158274922Y-113588995D01*
X158422756Y-113509977D01*
X158422759Y-113509976D01*
X158422761Y-113509975D01*
X158583175Y-113461314D01*
X158583176Y-113461314D01*
X158583179Y-113461313D01*
X158708196Y-113449000D01*
X158791804Y-113449000D01*
X158916821Y-113461313D01*
X158916821Y-113461313D01*
G37*
G36*
X153836821Y-113461313D02*
X153836824Y-113461314D01*
X153836825Y-113461314D01*
X153997239Y-113509975D01*
X153997241Y-113509976D01*
X153997244Y-113509977D01*
X154145078Y-113588995D01*
X154274659Y-113695341D01*
X154381005Y-113824922D01*
X154460023Y-113972756D01*
X154460024Y-113972759D01*
X154460025Y-113972761D01*
X154508686Y-114133175D01*
X154508687Y-114133179D01*
X154525117Y-114300000D01*
X154508687Y-114466821D01*
X154460023Y-114627244D01*
X154381005Y-114775078D01*
X154274659Y-114904659D01*
X154145078Y-115011005D01*
X153997244Y-115090023D01*
X153997241Y-115090024D01*
X153997239Y-115090025D01*
X153836825Y-115138686D01*
X153836824Y-115138686D01*
X153836821Y-115138687D01*
X153711804Y-115151000D01*
X153628196Y-115151000D01*
X153503179Y-115138687D01*
X153503176Y-115138686D01*
X153503175Y-115138686D01*
X153342761Y-115090025D01*
X153342759Y-115090024D01*
X153342756Y-115090023D01*
X153194922Y-115011005D01*
X153065341Y-114904659D01*
X152958995Y-114775078D01*
X152879977Y-114627244D01*
X152831313Y-114466821D01*
X152814883Y-114300000D01*
X152831313Y-114133179D01*
X152831314Y-114133175D01*
X152879975Y-113972761D01*
X152879976Y-113972759D01*
X152879977Y-113972756D01*
X152958995Y-113824922D01*
X153065341Y-113695341D01*
X153194922Y-113588995D01*
X153342756Y-113509977D01*
X153342759Y-113509976D01*
X153342761Y-113509975D01*
X153503175Y-113461314D01*
X153503176Y-113461314D01*
X153503179Y-113461313D01*
X153628196Y-113449000D01*
X153711804Y-113449000D01*
X153836821Y-113461313D01*
X153836821Y-113461313D01*
G37*
G36*
X148756821Y-113461313D02*
X148756824Y-113461314D01*
X148756825Y-113461314D01*
X148917239Y-113509975D01*
X148917241Y-113509976D01*
X148917244Y-113509977D01*
X149065078Y-113588995D01*
X149194659Y-113695341D01*
X149301005Y-113824922D01*
X149380023Y-113972756D01*
X149380024Y-113972759D01*
X149380025Y-113972761D01*
X149428686Y-114133175D01*
X149428687Y-114133179D01*
X149445117Y-114300000D01*
X149428687Y-114466821D01*
X149380023Y-114627244D01*
X149301005Y-114775078D01*
X149194659Y-114904659D01*
X149065078Y-115011005D01*
X148917244Y-115090023D01*
X148917241Y-115090024D01*
X148917239Y-115090025D01*
X148756825Y-115138686D01*
X148756824Y-115138686D01*
X148756821Y-115138687D01*
X148631804Y-115151000D01*
X148548196Y-115151000D01*
X148423179Y-115138687D01*
X148423176Y-115138686D01*
X148423175Y-115138686D01*
X148262761Y-115090025D01*
X148262759Y-115090024D01*
X148262756Y-115090023D01*
X148114922Y-115011005D01*
X147985341Y-114904659D01*
X147878995Y-114775078D01*
X147799977Y-114627244D01*
X147751313Y-114466821D01*
X147734883Y-114300000D01*
X147751313Y-114133179D01*
X147751314Y-114133175D01*
X147799975Y-113972761D01*
X147799976Y-113972759D01*
X147799977Y-113972756D01*
X147878995Y-113824922D01*
X147985341Y-113695341D01*
X148114922Y-113588995D01*
X148262756Y-113509977D01*
X148262759Y-113509976D01*
X148262761Y-113509975D01*
X148423175Y-113461314D01*
X148423176Y-113461314D01*
X148423179Y-113461313D01*
X148548196Y-113449000D01*
X148631804Y-113449000D01*
X148756821Y-113461313D01*
X148756821Y-113461313D01*
G37*
G36*
X151296821Y-113461313D02*
X151296824Y-113461314D01*
X151296825Y-113461314D01*
X151457239Y-113509975D01*
X151457241Y-113509976D01*
X151457244Y-113509977D01*
X151605078Y-113588995D01*
X151734659Y-113695341D01*
X151841005Y-113824922D01*
X151920023Y-113972756D01*
X151920024Y-113972759D01*
X151920025Y-113972761D01*
X151968686Y-114133175D01*
X151968687Y-114133179D01*
X151985117Y-114300000D01*
X151968687Y-114466821D01*
X151920023Y-114627244D01*
X151841005Y-114775078D01*
X151734659Y-114904659D01*
X151605078Y-115011005D01*
X151457244Y-115090023D01*
X151457241Y-115090024D01*
X151457239Y-115090025D01*
X151296825Y-115138686D01*
X151296824Y-115138686D01*
X151296821Y-115138687D01*
X151171804Y-115151000D01*
X151088196Y-115151000D01*
X150963179Y-115138687D01*
X150963176Y-115138686D01*
X150963175Y-115138686D01*
X150802761Y-115090025D01*
X150802759Y-115090024D01*
X150802756Y-115090023D01*
X150654922Y-115011005D01*
X150525341Y-114904659D01*
X150418995Y-114775078D01*
X150339977Y-114627244D01*
X150291313Y-114466821D01*
X150274883Y-114300000D01*
X150291313Y-114133179D01*
X150291314Y-114133175D01*
X150339975Y-113972761D01*
X150339976Y-113972759D01*
X150339977Y-113972756D01*
X150418995Y-113824922D01*
X150525341Y-113695341D01*
X150654922Y-113588995D01*
X150802756Y-113509977D01*
X150802759Y-113509976D01*
X150802761Y-113509975D01*
X150963175Y-113461314D01*
X150963176Y-113461314D01*
X150963179Y-113461313D01*
X151088196Y-113449000D01*
X151171804Y-113449000D01*
X151296821Y-113461313D01*
X151296821Y-113461313D01*
G37*
G36*
X138596821Y-113461313D02*
X138596824Y-113461314D01*
X138596825Y-113461314D01*
X138757239Y-113509975D01*
X138757241Y-113509976D01*
X138757244Y-113509977D01*
X138905078Y-113588995D01*
X139034659Y-113695341D01*
X139141005Y-113824922D01*
X139220023Y-113972756D01*
X139220024Y-113972759D01*
X139220025Y-113972761D01*
X139268686Y-114133175D01*
X139268687Y-114133179D01*
X139285117Y-114300000D01*
X139268687Y-114466821D01*
X139220023Y-114627244D01*
X139141005Y-114775078D01*
X139034659Y-114904659D01*
X138905078Y-115011005D01*
X138757244Y-115090023D01*
X138757241Y-115090024D01*
X138757239Y-115090025D01*
X138596825Y-115138686D01*
X138596824Y-115138686D01*
X138596821Y-115138687D01*
X138471804Y-115151000D01*
X138388196Y-115151000D01*
X138263179Y-115138687D01*
X138263176Y-115138686D01*
X138263175Y-115138686D01*
X138102761Y-115090025D01*
X138102759Y-115090024D01*
X138102756Y-115090023D01*
X137954922Y-115011005D01*
X137825341Y-114904659D01*
X137718995Y-114775078D01*
X137639977Y-114627244D01*
X137591313Y-114466821D01*
X137574883Y-114300000D01*
X137591313Y-114133179D01*
X137591314Y-114133175D01*
X137639975Y-113972761D01*
X137639976Y-113972759D01*
X137639977Y-113972756D01*
X137718995Y-113824922D01*
X137825341Y-113695341D01*
X137954922Y-113588995D01*
X138102756Y-113509977D01*
X138102759Y-113509976D01*
X138102761Y-113509975D01*
X138263175Y-113461314D01*
X138263176Y-113461314D01*
X138263179Y-113461313D01*
X138388196Y-113449000D01*
X138471804Y-113449000D01*
X138596821Y-113461313D01*
X138596821Y-113461313D01*
G37*
G36*
X141136821Y-113461313D02*
X141136824Y-113461314D01*
X141136825Y-113461314D01*
X141297239Y-113509975D01*
X141297241Y-113509976D01*
X141297244Y-113509977D01*
X141445078Y-113588995D01*
X141574659Y-113695341D01*
X141681005Y-113824922D01*
X141760023Y-113972756D01*
X141760024Y-113972759D01*
X141760025Y-113972761D01*
X141808686Y-114133175D01*
X141808687Y-114133179D01*
X141825117Y-114300000D01*
X141808687Y-114466821D01*
X141760023Y-114627244D01*
X141681005Y-114775078D01*
X141574659Y-114904659D01*
X141445078Y-115011005D01*
X141297244Y-115090023D01*
X141297241Y-115090024D01*
X141297239Y-115090025D01*
X141136825Y-115138686D01*
X141136824Y-115138686D01*
X141136821Y-115138687D01*
X141011804Y-115151000D01*
X140928196Y-115151000D01*
X140803179Y-115138687D01*
X140803176Y-115138686D01*
X140803175Y-115138686D01*
X140642761Y-115090025D01*
X140642759Y-115090024D01*
X140642756Y-115090023D01*
X140494922Y-115011005D01*
X140365341Y-114904659D01*
X140258995Y-114775078D01*
X140179977Y-114627244D01*
X140131313Y-114466821D01*
X140114883Y-114300000D01*
X140131313Y-114133179D01*
X140131314Y-114133175D01*
X140179975Y-113972761D01*
X140179976Y-113972759D01*
X140179977Y-113972756D01*
X140258995Y-113824922D01*
X140365341Y-113695341D01*
X140494922Y-113588995D01*
X140642756Y-113509977D01*
X140642759Y-113509976D01*
X140642761Y-113509975D01*
X140803175Y-113461314D01*
X140803176Y-113461314D01*
X140803179Y-113461313D01*
X140928196Y-113449000D01*
X141011804Y-113449000D01*
X141136821Y-113461313D01*
X141136821Y-113461313D01*
G37*
G36*
X146216821Y-113461313D02*
X146216824Y-113461314D01*
X146216825Y-113461314D01*
X146377239Y-113509975D01*
X146377241Y-113509976D01*
X146377244Y-113509977D01*
X146525078Y-113588995D01*
X146654659Y-113695341D01*
X146761005Y-113824922D01*
X146840023Y-113972756D01*
X146840024Y-113972759D01*
X146840025Y-113972761D01*
X146888686Y-114133175D01*
X146888687Y-114133179D01*
X146905117Y-114300000D01*
X146888687Y-114466821D01*
X146840023Y-114627244D01*
X146761005Y-114775078D01*
X146654659Y-114904659D01*
X146525078Y-115011005D01*
X146377244Y-115090023D01*
X146377241Y-115090024D01*
X146377239Y-115090025D01*
X146216825Y-115138686D01*
X146216824Y-115138686D01*
X146216821Y-115138687D01*
X146091804Y-115151000D01*
X146008196Y-115151000D01*
X145883179Y-115138687D01*
X145883176Y-115138686D01*
X145883175Y-115138686D01*
X145722761Y-115090025D01*
X145722759Y-115090024D01*
X145722756Y-115090023D01*
X145574922Y-115011005D01*
X145445341Y-114904659D01*
X145338995Y-114775078D01*
X145259977Y-114627244D01*
X145211313Y-114466821D01*
X145194883Y-114300000D01*
X145211313Y-114133179D01*
X145211314Y-114133175D01*
X145259975Y-113972761D01*
X145259976Y-113972759D01*
X145259977Y-113972756D01*
X145338995Y-113824922D01*
X145445341Y-113695341D01*
X145574922Y-113588995D01*
X145722756Y-113509977D01*
X145722759Y-113509976D01*
X145722761Y-113509975D01*
X145883175Y-113461314D01*
X145883176Y-113461314D01*
X145883179Y-113461313D01*
X146008196Y-113449000D01*
X146091804Y-113449000D01*
X146216821Y-113461313D01*
X146216821Y-113461313D01*
G37*
G36*
X143676821Y-113461313D02*
X143676824Y-113461314D01*
X143676825Y-113461314D01*
X143837239Y-113509975D01*
X143837241Y-113509976D01*
X143837244Y-113509977D01*
X143985078Y-113588995D01*
X144114659Y-113695341D01*
X144221005Y-113824922D01*
X144300023Y-113972756D01*
X144300024Y-113972759D01*
X144300025Y-113972761D01*
X144348686Y-114133175D01*
X144348687Y-114133179D01*
X144365117Y-114300000D01*
X144348687Y-114466821D01*
X144300023Y-114627244D01*
X144221005Y-114775078D01*
X144114659Y-114904659D01*
X143985078Y-115011005D01*
X143837244Y-115090023D01*
X143837241Y-115090024D01*
X143837239Y-115090025D01*
X143676825Y-115138686D01*
X143676824Y-115138686D01*
X143676821Y-115138687D01*
X143551804Y-115151000D01*
X143468196Y-115151000D01*
X143343179Y-115138687D01*
X143343176Y-115138686D01*
X143343175Y-115138686D01*
X143182761Y-115090025D01*
X143182759Y-115090024D01*
X143182756Y-115090023D01*
X143034922Y-115011005D01*
X142905341Y-114904659D01*
X142798995Y-114775078D01*
X142719977Y-114627244D01*
X142671313Y-114466821D01*
X142654883Y-114300000D01*
X142671313Y-114133179D01*
X142671314Y-114133175D01*
X142719975Y-113972761D01*
X142719976Y-113972759D01*
X142719977Y-113972756D01*
X142798995Y-113824922D01*
X142905341Y-113695341D01*
X143034922Y-113588995D01*
X143182756Y-113509977D01*
X143182759Y-113509976D01*
X143182761Y-113509975D01*
X143343175Y-113461314D01*
X143343176Y-113461314D01*
X143343179Y-113461313D01*
X143468196Y-113449000D01*
X143551804Y-113449000D01*
X143676821Y-113461313D01*
X143676821Y-113461313D01*
G37*
G36*
X113790589Y-112903876D02*
X113889893Y-112923629D01*
X114030206Y-112981748D01*
X114156484Y-113066125D01*
X114263875Y-113173516D01*
X114348252Y-113299794D01*
X114406371Y-113440107D01*
X114420269Y-113509977D01*
X114435987Y-113588995D01*
X114436000Y-113589063D01*
X114436000Y-113740937D01*
X114406371Y-113889893D01*
X114348252Y-114030206D01*
X114263875Y-114156484D01*
X114156484Y-114263875D01*
X114030206Y-114348252D01*
X113889893Y-114406371D01*
X113790589Y-114426124D01*
X113740938Y-114436000D01*
X113589062Y-114436000D01*
X113539411Y-114426124D01*
X113440107Y-114406371D01*
X113299794Y-114348252D01*
X113173516Y-114263875D01*
X113066125Y-114156484D01*
X112981748Y-114030206D01*
X112923629Y-113889893D01*
X112894000Y-113740937D01*
X112894000Y-113589063D01*
X112894014Y-113588995D01*
X112909731Y-113509977D01*
X112923629Y-113440107D01*
X112981748Y-113299794D01*
X113066125Y-113173516D01*
X113173516Y-113066125D01*
X113299794Y-112981748D01*
X113440107Y-112923629D01*
X113539411Y-112903876D01*
X113589062Y-112894000D01*
X113740938Y-112894000D01*
X113790589Y-112903876D01*
X113790589Y-112903876D01*
G37*
G36*
X132388252Y-109667818D02*
X132388254Y-109667819D01*
X132388255Y-109667819D01*
X132761513Y-109822427D01*
X132761514Y-109822428D01*
X133097439Y-110046886D01*
X133383114Y-110332561D01*
X133383116Y-110332564D01*
X133607573Y-110668487D01*
X133753789Y-111021486D01*
X133762182Y-111041748D01*
X133841000Y-111437993D01*
X133841000Y-111842007D01*
X133768521Y-112206385D01*
X133762181Y-112238255D01*
X133607573Y-112611513D01*
X133607572Y-112611514D01*
X133383114Y-112947439D01*
X133097439Y-113233114D01*
X133097436Y-113233116D01*
X132761513Y-113457573D01*
X132388255Y-113612181D01*
X132388254Y-113612181D01*
X132388252Y-113612182D01*
X131992007Y-113691000D01*
X131587993Y-113691000D01*
X131191748Y-113612182D01*
X131191746Y-113612181D01*
X131191745Y-113612181D01*
X130818487Y-113457573D01*
X130482564Y-113233116D01*
X130482561Y-113233114D01*
X130196886Y-112947439D01*
X129972428Y-112611514D01*
X129972427Y-112611513D01*
X129817819Y-112238255D01*
X129811480Y-112206385D01*
X129739000Y-111842007D01*
X129739000Y-111437993D01*
X129817818Y-111041748D01*
X129826211Y-111021486D01*
X129972427Y-110668487D01*
X130196884Y-110332564D01*
X130196886Y-110332561D01*
X130482561Y-110046886D01*
X130818486Y-109822428D01*
X130818487Y-109822427D01*
X131191745Y-109667819D01*
X131191746Y-109667819D01*
X131191748Y-109667818D01*
X131587993Y-109589000D01*
X131992007Y-109589000D01*
X132388252Y-109667818D01*
X132388252Y-109667818D01*
G37*
G36*
X122888252Y-109667818D02*
X122888254Y-109667819D01*
X122888255Y-109667819D01*
X123261513Y-109822427D01*
X123261514Y-109822428D01*
X123597439Y-110046886D01*
X123883114Y-110332561D01*
X123883116Y-110332564D01*
X124107573Y-110668487D01*
X124253789Y-111021486D01*
X124262182Y-111041748D01*
X124341000Y-111437993D01*
X124341000Y-111842007D01*
X124268521Y-112206385D01*
X124262181Y-112238255D01*
X124107573Y-112611513D01*
X124107572Y-112611514D01*
X123883114Y-112947439D01*
X123597439Y-113233114D01*
X123597436Y-113233116D01*
X123261513Y-113457573D01*
X122888255Y-113612181D01*
X122888254Y-113612181D01*
X122888252Y-113612182D01*
X122492007Y-113691000D01*
X122087993Y-113691000D01*
X121691748Y-113612182D01*
X121691746Y-113612181D01*
X121691745Y-113612181D01*
X121318487Y-113457573D01*
X120982564Y-113233116D01*
X120982561Y-113233114D01*
X120696886Y-112947439D01*
X120472428Y-112611514D01*
X120472427Y-112611513D01*
X120317819Y-112238255D01*
X120311480Y-112206385D01*
X120239000Y-111842007D01*
X120239000Y-111437993D01*
X120317818Y-111041748D01*
X120326211Y-111021486D01*
X120472427Y-110668487D01*
X120696884Y-110332564D01*
X120696886Y-110332561D01*
X120982561Y-110046886D01*
X121318486Y-109822428D01*
X121318487Y-109822427D01*
X121691745Y-109667819D01*
X121691746Y-109667819D01*
X121691748Y-109667818D01*
X122087993Y-109589000D01*
X122492007Y-109589000D01*
X122888252Y-109667818D01*
X122888252Y-109667818D01*
G37*
G36*
X152651565Y-110264389D02*
X152842834Y-110343615D01*
X153014976Y-110458637D01*
X153161363Y-110605024D01*
X153276385Y-110777166D01*
X153355611Y-110968435D01*
X153396000Y-111171484D01*
X153396000Y-111378516D01*
X153355611Y-111581565D01*
X153276385Y-111772834D01*
X153161363Y-111944976D01*
X153014976Y-112091363D01*
X152842834Y-112206385D01*
X152651565Y-112285611D01*
X152448516Y-112326000D01*
X152241484Y-112326000D01*
X152038435Y-112285611D01*
X151847166Y-112206385D01*
X151675024Y-112091363D01*
X151528637Y-111944976D01*
X151413615Y-111772834D01*
X151334389Y-111581565D01*
X151294000Y-111378516D01*
X151294000Y-111171484D01*
X151334389Y-110968435D01*
X151413615Y-110777166D01*
X151528637Y-110605024D01*
X151675024Y-110458637D01*
X151847166Y-110343615D01*
X152038435Y-110264389D01*
X152241484Y-110224000D01*
X152448516Y-110224000D01*
X152651565Y-110264389D01*
X152651565Y-110264389D01*
G37*
G36*
X157151565Y-110264389D02*
X157342834Y-110343615D01*
X157514976Y-110458637D01*
X157661363Y-110605024D01*
X157776385Y-110777166D01*
X157855611Y-110968435D01*
X157896000Y-111171484D01*
X157896000Y-111378516D01*
X157855611Y-111581565D01*
X157776385Y-111772834D01*
X157661363Y-111944976D01*
X157514976Y-112091363D01*
X157342834Y-112206385D01*
X157151565Y-112285611D01*
X156948516Y-112326000D01*
X156741484Y-112326000D01*
X156538435Y-112285611D01*
X156347166Y-112206385D01*
X156175024Y-112091363D01*
X156028637Y-111944976D01*
X155913615Y-111772834D01*
X155834389Y-111581565D01*
X155794000Y-111378516D01*
X155794000Y-111171484D01*
X155834389Y-110968435D01*
X155913615Y-110777166D01*
X156028637Y-110605024D01*
X156175024Y-110458637D01*
X156347166Y-110343615D01*
X156538435Y-110264389D01*
X156741484Y-110224000D01*
X156948516Y-110224000D01*
X157151565Y-110264389D01*
X157151565Y-110264389D01*
G37*
G36*
X164771565Y-110264389D02*
X164962834Y-110343615D01*
X165134976Y-110458637D01*
X165281363Y-110605024D01*
X165396385Y-110777166D01*
X165475611Y-110968435D01*
X165516000Y-111171484D01*
X165516000Y-111378516D01*
X165475611Y-111581565D01*
X165396385Y-111772834D01*
X165281363Y-111944976D01*
X165134976Y-112091363D01*
X164962834Y-112206385D01*
X164771565Y-112285611D01*
X164568516Y-112326000D01*
X164361484Y-112326000D01*
X164158435Y-112285611D01*
X163967166Y-112206385D01*
X163795024Y-112091363D01*
X163648637Y-111944976D01*
X163533615Y-111772834D01*
X163454389Y-111581565D01*
X163414000Y-111378516D01*
X163414000Y-111171484D01*
X163454389Y-110968435D01*
X163533615Y-110777166D01*
X163648637Y-110605024D01*
X163795024Y-110458637D01*
X163967166Y-110343615D01*
X164158435Y-110264389D01*
X164361484Y-110224000D01*
X164568516Y-110224000D01*
X164771565Y-110264389D01*
X164771565Y-110264389D01*
G37*
G36*
X160271565Y-110264389D02*
X160462834Y-110343615D01*
X160634976Y-110458637D01*
X160781363Y-110605024D01*
X160896385Y-110777166D01*
X160975611Y-110968435D01*
X161016000Y-111171484D01*
X161016000Y-111378516D01*
X160975611Y-111581565D01*
X160896385Y-111772834D01*
X160781363Y-111944976D01*
X160634976Y-112091363D01*
X160462834Y-112206385D01*
X160271565Y-112285611D01*
X160068516Y-112326000D01*
X159861484Y-112326000D01*
X159658435Y-112285611D01*
X159467166Y-112206385D01*
X159295024Y-112091363D01*
X159148637Y-111944976D01*
X159033615Y-111772834D01*
X158954389Y-111581565D01*
X158914000Y-111378516D01*
X158914000Y-111171484D01*
X158954389Y-110968435D01*
X159033615Y-110777166D01*
X159148637Y-110605024D01*
X159295024Y-110458637D01*
X159467166Y-110343615D01*
X159658435Y-110264389D01*
X159861484Y-110224000D01*
X160068516Y-110224000D01*
X160271565Y-110264389D01*
X160271565Y-110264389D01*
G37*
G36*
X136196565Y-110114389D02*
X136387834Y-110193615D01*
X136559976Y-110308637D01*
X136706363Y-110455024D01*
X136821385Y-110627166D01*
X136900611Y-110818435D01*
X136941000Y-111021484D01*
X136941000Y-111228516D01*
X136900611Y-111431565D01*
X136821385Y-111622834D01*
X136706363Y-111794976D01*
X136559976Y-111941363D01*
X136387834Y-112056385D01*
X136196565Y-112135611D01*
X135993516Y-112176000D01*
X135786484Y-112176000D01*
X135583435Y-112135611D01*
X135392166Y-112056385D01*
X135220024Y-111941363D01*
X135073637Y-111794976D01*
X134958615Y-111622834D01*
X134879389Y-111431565D01*
X134839000Y-111228516D01*
X134839000Y-111021484D01*
X134879389Y-110818435D01*
X134958615Y-110627166D01*
X135073637Y-110455024D01*
X135220024Y-110308637D01*
X135392166Y-110193615D01*
X135583435Y-110114389D01*
X135786484Y-110074000D01*
X135993516Y-110074000D01*
X136196565Y-110114389D01*
X136196565Y-110114389D01*
G37*
G36*
X140696565Y-110114389D02*
X140887834Y-110193615D01*
X141059976Y-110308637D01*
X141206363Y-110455024D01*
X141321385Y-110627166D01*
X141400611Y-110818435D01*
X141441000Y-111021484D01*
X141441000Y-111228516D01*
X141400611Y-111431565D01*
X141321385Y-111622834D01*
X141206363Y-111794976D01*
X141059976Y-111941363D01*
X140887834Y-112056385D01*
X140696565Y-112135611D01*
X140493516Y-112176000D01*
X140286484Y-112176000D01*
X140083435Y-112135611D01*
X139892166Y-112056385D01*
X139720024Y-111941363D01*
X139573637Y-111794976D01*
X139458615Y-111622834D01*
X139379389Y-111431565D01*
X139339000Y-111228516D01*
X139339000Y-111021484D01*
X139379389Y-110818435D01*
X139458615Y-110627166D01*
X139573637Y-110455024D01*
X139720024Y-110308637D01*
X139892166Y-110193615D01*
X140083435Y-110114389D01*
X140286484Y-110074000D01*
X140493516Y-110074000D01*
X140696565Y-110114389D01*
X140696565Y-110114389D01*
G37*
G36*
X144311821Y-110286313D02*
X144311824Y-110286314D01*
X144311825Y-110286314D01*
X144472239Y-110334975D01*
X144472241Y-110334976D01*
X144472244Y-110334977D01*
X144620078Y-110413995D01*
X144749659Y-110520341D01*
X144856005Y-110649922D01*
X144935023Y-110797756D01*
X144983687Y-110958179D01*
X145000117Y-111125000D01*
X144983687Y-111291821D01*
X144983686Y-111291824D01*
X144983686Y-111291825D01*
X144957389Y-111378516D01*
X144935023Y-111452244D01*
X144856005Y-111600078D01*
X144749659Y-111729659D01*
X144620078Y-111836005D01*
X144472244Y-111915023D01*
X144472241Y-111915024D01*
X144472239Y-111915025D01*
X144311825Y-111963686D01*
X144311824Y-111963686D01*
X144311821Y-111963687D01*
X144186804Y-111976000D01*
X144103196Y-111976000D01*
X143978179Y-111963687D01*
X143978176Y-111963686D01*
X143978175Y-111963686D01*
X143817761Y-111915025D01*
X143817759Y-111915024D01*
X143817756Y-111915023D01*
X143669922Y-111836005D01*
X143540341Y-111729659D01*
X143433995Y-111600078D01*
X143354977Y-111452244D01*
X143332612Y-111378516D01*
X143306314Y-111291825D01*
X143306314Y-111291824D01*
X143306313Y-111291821D01*
X143289883Y-111125000D01*
X143306313Y-110958179D01*
X143354977Y-110797756D01*
X143433995Y-110649922D01*
X143540341Y-110520341D01*
X143669922Y-110413995D01*
X143817756Y-110334977D01*
X143817759Y-110334976D01*
X143817761Y-110334975D01*
X143978175Y-110286314D01*
X143978176Y-110286314D01*
X143978179Y-110286313D01*
X144103196Y-110274000D01*
X144186804Y-110274000D01*
X144311821Y-110286313D01*
X144311821Y-110286313D01*
G37*
G36*
X148121821Y-110286313D02*
X148121824Y-110286314D01*
X148121825Y-110286314D01*
X148282239Y-110334975D01*
X148282241Y-110334976D01*
X148282244Y-110334977D01*
X148430078Y-110413995D01*
X148559659Y-110520341D01*
X148666005Y-110649922D01*
X148745023Y-110797756D01*
X148793687Y-110958179D01*
X148810117Y-111125000D01*
X148793687Y-111291821D01*
X148793686Y-111291824D01*
X148793686Y-111291825D01*
X148767389Y-111378516D01*
X148745023Y-111452244D01*
X148666005Y-111600078D01*
X148559659Y-111729659D01*
X148430078Y-111836005D01*
X148282244Y-111915023D01*
X148282241Y-111915024D01*
X148282239Y-111915025D01*
X148121825Y-111963686D01*
X148121824Y-111963686D01*
X148121821Y-111963687D01*
X147996804Y-111976000D01*
X147913196Y-111976000D01*
X147788179Y-111963687D01*
X147788176Y-111963686D01*
X147788175Y-111963686D01*
X147627761Y-111915025D01*
X147627759Y-111915024D01*
X147627756Y-111915023D01*
X147479922Y-111836005D01*
X147350341Y-111729659D01*
X147243995Y-111600078D01*
X147164977Y-111452244D01*
X147142612Y-111378516D01*
X147116314Y-111291825D01*
X147116314Y-111291824D01*
X147116313Y-111291821D01*
X147099883Y-111125000D01*
X147116313Y-110958179D01*
X147164977Y-110797756D01*
X147243995Y-110649922D01*
X147350341Y-110520341D01*
X147479922Y-110413995D01*
X147627756Y-110334977D01*
X147627759Y-110334976D01*
X147627761Y-110334975D01*
X147788175Y-110286314D01*
X147788176Y-110286314D01*
X147788179Y-110286313D01*
X147913196Y-110274000D01*
X147996804Y-110274000D01*
X148121821Y-110286313D01*
X148121821Y-110286313D01*
G37*
G36*
X111250589Y-110363876D02*
X111349893Y-110383629D01*
X111490206Y-110441748D01*
X111616484Y-110526125D01*
X111723875Y-110633516D01*
X111808252Y-110759794D01*
X111866371Y-110900107D01*
X111866371Y-110900109D01*
X111894545Y-111041745D01*
X111896000Y-111049063D01*
X111896000Y-111200937D01*
X111866371Y-111349893D01*
X111808252Y-111490206D01*
X111723875Y-111616484D01*
X111616484Y-111723875D01*
X111490206Y-111808252D01*
X111349893Y-111866371D01*
X111250589Y-111886124D01*
X111200938Y-111896000D01*
X111049062Y-111896000D01*
X110999411Y-111886124D01*
X110900107Y-111866371D01*
X110759794Y-111808252D01*
X110633516Y-111723875D01*
X110526125Y-111616484D01*
X110441748Y-111490206D01*
X110383629Y-111349893D01*
X110354000Y-111200937D01*
X110354000Y-111049063D01*
X110355456Y-111041745D01*
X110383629Y-110900109D01*
X110383629Y-110900107D01*
X110441748Y-110759794D01*
X110526125Y-110633516D01*
X110633516Y-110526125D01*
X110759794Y-110441748D01*
X110900107Y-110383629D01*
X110999411Y-110363876D01*
X111049062Y-110354000D01*
X111200938Y-110354000D01*
X111250589Y-110363876D01*
X111250589Y-110363876D01*
G37*
G36*
X116330589Y-110363876D02*
X116429893Y-110383629D01*
X116570206Y-110441748D01*
X116696484Y-110526125D01*
X116803875Y-110633516D01*
X116888252Y-110759794D01*
X116946371Y-110900107D01*
X116946371Y-110900109D01*
X116974545Y-111041745D01*
X116976000Y-111049063D01*
X116976000Y-111200937D01*
X116946371Y-111349893D01*
X116888252Y-111490206D01*
X116803875Y-111616484D01*
X116696484Y-111723875D01*
X116570206Y-111808252D01*
X116429893Y-111866371D01*
X116330589Y-111886124D01*
X116280938Y-111896000D01*
X116129062Y-111896000D01*
X116079411Y-111886124D01*
X115980107Y-111866371D01*
X115839794Y-111808252D01*
X115713516Y-111723875D01*
X115606125Y-111616484D01*
X115521748Y-111490206D01*
X115463629Y-111349893D01*
X115434000Y-111200937D01*
X115434000Y-111049063D01*
X115435456Y-111041745D01*
X115463629Y-110900109D01*
X115463629Y-110900107D01*
X115521748Y-110759794D01*
X115606125Y-110633516D01*
X115713516Y-110526125D01*
X115839794Y-110441748D01*
X115980107Y-110383629D01*
X116079411Y-110363876D01*
X116129062Y-110354000D01*
X116280938Y-110354000D01*
X116330589Y-110363876D01*
X116330589Y-110363876D01*
G37*
G36*
X174891000Y-109486000D02*
X173089000Y-109486000D01*
X173089000Y-107684000D01*
X174891000Y-107684000D01*
X174891000Y-109486000D01*
X174891000Y-109486000D01*
G37*
G36*
X174100443Y-105150519D02*
X174166627Y-105157037D01*
X174279853Y-105191384D01*
X174336467Y-105208557D01*
X174456719Y-105272834D01*
X174492991Y-105292222D01*
X174528729Y-105321552D01*
X174630186Y-105404814D01*
X174713448Y-105506271D01*
X174742778Y-105542009D01*
X174742779Y-105542011D01*
X174826443Y-105698533D01*
X174828825Y-105706385D01*
X174877963Y-105868373D01*
X174895359Y-106045000D01*
X174877963Y-106221627D01*
X174843616Y-106334853D01*
X174826443Y-106391467D01*
X174752348Y-106530087D01*
X174742778Y-106547991D01*
X174713448Y-106583729D01*
X174630186Y-106685186D01*
X174528729Y-106768448D01*
X174492991Y-106797778D01*
X174492989Y-106797779D01*
X174336467Y-106881443D01*
X174279853Y-106898616D01*
X174166627Y-106932963D01*
X174100442Y-106939482D01*
X174034260Y-106946000D01*
X173945740Y-106946000D01*
X173879558Y-106939482D01*
X173813373Y-106932963D01*
X173700147Y-106898616D01*
X173643533Y-106881443D01*
X173487011Y-106797779D01*
X173487009Y-106797778D01*
X173451271Y-106768448D01*
X173349814Y-106685186D01*
X173266552Y-106583729D01*
X173237222Y-106547991D01*
X173227652Y-106530087D01*
X173153557Y-106391467D01*
X173136384Y-106334853D01*
X173102037Y-106221627D01*
X173084641Y-106045000D01*
X173102037Y-105868373D01*
X173151175Y-105706385D01*
X173153557Y-105698533D01*
X173237221Y-105542011D01*
X173237222Y-105542009D01*
X173266552Y-105506271D01*
X173349814Y-105404814D01*
X173451271Y-105321552D01*
X173487009Y-105292222D01*
X173523281Y-105272834D01*
X173643533Y-105208557D01*
X173700147Y-105191384D01*
X173813373Y-105157037D01*
X173879558Y-105150518D01*
X173945740Y-105144000D01*
X174034260Y-105144000D01*
X174100443Y-105150519D01*
X174100443Y-105150519D01*
G37*
G36*
X160271565Y-103764389D02*
X160462834Y-103843615D01*
X160634976Y-103958637D01*
X160781363Y-104105024D01*
X160896385Y-104277166D01*
X160975611Y-104468435D01*
X161016000Y-104671484D01*
X161016000Y-104878516D01*
X160975611Y-105081565D01*
X160896385Y-105272834D01*
X160781363Y-105444976D01*
X160634976Y-105591363D01*
X160462834Y-105706385D01*
X160271565Y-105785611D01*
X160068516Y-105826000D01*
X159861484Y-105826000D01*
X159658435Y-105785611D01*
X159467166Y-105706385D01*
X159295024Y-105591363D01*
X159148637Y-105444976D01*
X159033615Y-105272834D01*
X158954389Y-105081565D01*
X158914000Y-104878516D01*
X158914000Y-104671484D01*
X158954389Y-104468435D01*
X159033615Y-104277166D01*
X159148637Y-104105024D01*
X159295024Y-103958637D01*
X159467166Y-103843615D01*
X159658435Y-103764389D01*
X159861484Y-103724000D01*
X160068516Y-103724000D01*
X160271565Y-103764389D01*
X160271565Y-103764389D01*
G37*
G36*
X164771565Y-103764389D02*
X164962834Y-103843615D01*
X165134976Y-103958637D01*
X165281363Y-104105024D01*
X165396385Y-104277166D01*
X165475611Y-104468435D01*
X165516000Y-104671484D01*
X165516000Y-104878516D01*
X165475611Y-105081565D01*
X165396385Y-105272834D01*
X165281363Y-105444976D01*
X165134976Y-105591363D01*
X164962834Y-105706385D01*
X164771565Y-105785611D01*
X164568516Y-105826000D01*
X164361484Y-105826000D01*
X164158435Y-105785611D01*
X163967166Y-105706385D01*
X163795024Y-105591363D01*
X163648637Y-105444976D01*
X163533615Y-105272834D01*
X163454389Y-105081565D01*
X163414000Y-104878516D01*
X163414000Y-104671484D01*
X163454389Y-104468435D01*
X163533615Y-104277166D01*
X163648637Y-104105024D01*
X163795024Y-103958637D01*
X163967166Y-103843615D01*
X164158435Y-103764389D01*
X164361484Y-103724000D01*
X164568516Y-103724000D01*
X164771565Y-103764389D01*
X164771565Y-103764389D01*
G37*
G36*
X152651565Y-103764389D02*
X152842834Y-103843615D01*
X153014976Y-103958637D01*
X153161363Y-104105024D01*
X153276385Y-104277166D01*
X153355611Y-104468435D01*
X153396000Y-104671484D01*
X153396000Y-104878516D01*
X153355611Y-105081565D01*
X153276385Y-105272834D01*
X153161363Y-105444976D01*
X153014976Y-105591363D01*
X152842834Y-105706385D01*
X152651565Y-105785611D01*
X152448516Y-105826000D01*
X152241484Y-105826000D01*
X152038435Y-105785611D01*
X151847166Y-105706385D01*
X151675024Y-105591363D01*
X151528637Y-105444976D01*
X151413615Y-105272834D01*
X151334389Y-105081565D01*
X151294000Y-104878516D01*
X151294000Y-104671484D01*
X151334389Y-104468435D01*
X151413615Y-104277166D01*
X151528637Y-104105024D01*
X151675024Y-103958637D01*
X151847166Y-103843615D01*
X152038435Y-103764389D01*
X152241484Y-103724000D01*
X152448516Y-103724000D01*
X152651565Y-103764389D01*
X152651565Y-103764389D01*
G37*
G36*
X157151565Y-103764389D02*
X157342834Y-103843615D01*
X157514976Y-103958637D01*
X157661363Y-104105024D01*
X157776385Y-104277166D01*
X157855611Y-104468435D01*
X157896000Y-104671484D01*
X157896000Y-104878516D01*
X157855611Y-105081565D01*
X157776385Y-105272834D01*
X157661363Y-105444976D01*
X157514976Y-105591363D01*
X157342834Y-105706385D01*
X157151565Y-105785611D01*
X156948516Y-105826000D01*
X156741484Y-105826000D01*
X156538435Y-105785611D01*
X156347166Y-105706385D01*
X156175024Y-105591363D01*
X156028637Y-105444976D01*
X155913615Y-105272834D01*
X155834389Y-105081565D01*
X155794000Y-104878516D01*
X155794000Y-104671484D01*
X155834389Y-104468435D01*
X155913615Y-104277166D01*
X156028637Y-104105024D01*
X156175024Y-103958637D01*
X156347166Y-103843615D01*
X156538435Y-103764389D01*
X156741484Y-103724000D01*
X156948516Y-103724000D01*
X157151565Y-103764389D01*
X157151565Y-103764389D01*
G37*
G36*
X140696565Y-103614389D02*
X140887834Y-103693615D01*
X141059976Y-103808637D01*
X141206363Y-103955024D01*
X141321385Y-104127166D01*
X141400611Y-104318435D01*
X141441000Y-104521484D01*
X141441000Y-104728516D01*
X141400611Y-104931565D01*
X141321385Y-105122834D01*
X141206363Y-105294976D01*
X141059976Y-105441363D01*
X140887834Y-105556385D01*
X140696565Y-105635611D01*
X140493516Y-105676000D01*
X140286484Y-105676000D01*
X140083435Y-105635611D01*
X139892166Y-105556385D01*
X139720024Y-105441363D01*
X139573637Y-105294976D01*
X139458615Y-105122834D01*
X139379389Y-104931565D01*
X139339000Y-104728516D01*
X139339000Y-104521484D01*
X139379389Y-104318435D01*
X139458615Y-104127166D01*
X139573637Y-103955024D01*
X139720024Y-103808637D01*
X139892166Y-103693615D01*
X140083435Y-103614389D01*
X140286484Y-103574000D01*
X140493516Y-103574000D01*
X140696565Y-103614389D01*
X140696565Y-103614389D01*
G37*
G36*
X136196565Y-103614389D02*
X136387834Y-103693615D01*
X136559976Y-103808637D01*
X136706363Y-103955024D01*
X136821385Y-104127166D01*
X136900611Y-104318435D01*
X136941000Y-104521484D01*
X136941000Y-104728516D01*
X136900611Y-104931565D01*
X136821385Y-105122834D01*
X136706363Y-105294976D01*
X136559976Y-105441363D01*
X136387834Y-105556385D01*
X136196565Y-105635611D01*
X135993516Y-105676000D01*
X135786484Y-105676000D01*
X135583435Y-105635611D01*
X135392166Y-105556385D01*
X135220024Y-105441363D01*
X135073637Y-105294976D01*
X134958615Y-105122834D01*
X134879389Y-104931565D01*
X134839000Y-104728516D01*
X134839000Y-104521484D01*
X134879389Y-104318435D01*
X134958615Y-104127166D01*
X135073637Y-103955024D01*
X135220024Y-103808637D01*
X135392166Y-103693615D01*
X135583435Y-103614389D01*
X135786484Y-103574000D01*
X135993516Y-103574000D01*
X136196565Y-103614389D01*
X136196565Y-103614389D01*
G37*
G36*
X124817396Y-103225546D02*
X124990466Y-103297234D01*
X125146230Y-103401312D01*
X125278688Y-103533770D01*
X125382766Y-103689534D01*
X125454454Y-103862604D01*
X125491000Y-104046333D01*
X125491000Y-104233667D01*
X125454454Y-104417396D01*
X125382766Y-104590466D01*
X125278688Y-104746230D01*
X125146230Y-104878688D01*
X124990466Y-104982766D01*
X124817396Y-105054454D01*
X124633667Y-105091000D01*
X124446333Y-105091000D01*
X124262604Y-105054454D01*
X124089534Y-104982766D01*
X123933770Y-104878688D01*
X123801312Y-104746230D01*
X123697234Y-104590466D01*
X123625546Y-104417396D01*
X123589000Y-104233667D01*
X123589000Y-104046333D01*
X123625546Y-103862604D01*
X123697234Y-103689534D01*
X123801312Y-103533770D01*
X123933770Y-103401312D01*
X124089534Y-103297234D01*
X124262604Y-103225546D01*
X124446333Y-103189000D01*
X124633667Y-103189000D01*
X124817396Y-103225546D01*
X124817396Y-103225546D01*
G37*
G36*
X127317396Y-103225546D02*
X127490466Y-103297234D01*
X127646230Y-103401312D01*
X127778688Y-103533770D01*
X127882766Y-103689534D01*
X127954454Y-103862604D01*
X127991000Y-104046333D01*
X127991000Y-104233667D01*
X127954454Y-104417396D01*
X127882766Y-104590466D01*
X127778688Y-104746230D01*
X127646230Y-104878688D01*
X127490466Y-104982766D01*
X127317396Y-105054454D01*
X127133667Y-105091000D01*
X126946333Y-105091000D01*
X126762604Y-105054454D01*
X126589534Y-104982766D01*
X126433770Y-104878688D01*
X126301312Y-104746230D01*
X126197234Y-104590466D01*
X126125546Y-104417396D01*
X126089000Y-104233667D01*
X126089000Y-104046333D01*
X126125546Y-103862604D01*
X126197234Y-103689534D01*
X126301312Y-103533770D01*
X126433770Y-103401312D01*
X126589534Y-103297234D01*
X126762604Y-103225546D01*
X126946333Y-103189000D01*
X127133667Y-103189000D01*
X127317396Y-103225546D01*
X127317396Y-103225546D01*
G37*
G36*
X129817396Y-103225546D02*
X129990466Y-103297234D01*
X130146230Y-103401312D01*
X130278688Y-103533770D01*
X130382766Y-103689534D01*
X130454454Y-103862604D01*
X130491000Y-104046333D01*
X130491000Y-104233667D01*
X130454454Y-104417396D01*
X130382766Y-104590466D01*
X130278688Y-104746230D01*
X130146230Y-104878688D01*
X129990466Y-104982766D01*
X129817396Y-105054454D01*
X129633667Y-105091000D01*
X129446333Y-105091000D01*
X129262604Y-105054454D01*
X129089534Y-104982766D01*
X128933770Y-104878688D01*
X128801312Y-104746230D01*
X128697234Y-104590466D01*
X128625546Y-104417396D01*
X128589000Y-104233667D01*
X128589000Y-104046333D01*
X128625546Y-103862604D01*
X128697234Y-103689534D01*
X128801312Y-103533770D01*
X128933770Y-103401312D01*
X129089534Y-103297234D01*
X129262604Y-103225546D01*
X129446333Y-103189000D01*
X129633667Y-103189000D01*
X129817396Y-103225546D01*
X129817396Y-103225546D01*
G37*
G36*
X174100442Y-102610518D02*
X174166627Y-102617037D01*
X174279853Y-102651384D01*
X174336467Y-102668557D01*
X174475087Y-102742652D01*
X174492991Y-102752222D01*
X174528729Y-102781552D01*
X174630186Y-102864814D01*
X174710369Y-102962519D01*
X174742778Y-103002009D01*
X174742779Y-103002011D01*
X174826443Y-103158533D01*
X174826443Y-103158534D01*
X174877963Y-103328373D01*
X174895359Y-103505000D01*
X174877963Y-103681627D01*
X174875564Y-103689534D01*
X174826443Y-103851467D01*
X174752348Y-103990087D01*
X174742778Y-104007991D01*
X174713448Y-104043729D01*
X174630186Y-104145186D01*
X174528729Y-104228448D01*
X174492991Y-104257778D01*
X174492989Y-104257779D01*
X174336467Y-104341443D01*
X174288478Y-104356000D01*
X174166627Y-104392963D01*
X174100442Y-104399482D01*
X174034260Y-104406000D01*
X173945740Y-104406000D01*
X173879558Y-104399482D01*
X173813373Y-104392963D01*
X173691522Y-104356000D01*
X173643533Y-104341443D01*
X173487011Y-104257779D01*
X173487009Y-104257778D01*
X173451271Y-104228448D01*
X173349814Y-104145186D01*
X173266552Y-104043729D01*
X173237222Y-104007991D01*
X173227652Y-103990087D01*
X173153557Y-103851467D01*
X173104436Y-103689534D01*
X173102037Y-103681627D01*
X173084641Y-103505000D01*
X173102037Y-103328373D01*
X173153557Y-103158534D01*
X173153557Y-103158533D01*
X173237221Y-103002011D01*
X173237222Y-103002009D01*
X173269631Y-102962519D01*
X173349814Y-102864814D01*
X173451271Y-102781552D01*
X173487009Y-102752222D01*
X173504913Y-102742652D01*
X173643533Y-102668557D01*
X173700147Y-102651384D01*
X173813373Y-102617037D01*
X173879558Y-102610518D01*
X173945740Y-102604000D01*
X174034260Y-102604000D01*
X174100442Y-102610518D01*
X174100442Y-102610518D01*
G37*
G36*
X144393228Y-102686703D02*
X144548100Y-102750853D01*
X144687481Y-102843985D01*
X144806015Y-102962519D01*
X144899147Y-103101900D01*
X144963297Y-103256772D01*
X144996000Y-103421184D01*
X144996000Y-103588816D01*
X144963297Y-103753228D01*
X144899147Y-103908100D01*
X144806015Y-104047481D01*
X144687481Y-104166015D01*
X144548100Y-104259147D01*
X144393228Y-104323297D01*
X144228816Y-104356000D01*
X144061184Y-104356000D01*
X143896772Y-104323297D01*
X143741900Y-104259147D01*
X143602519Y-104166015D01*
X143483985Y-104047481D01*
X143390853Y-103908100D01*
X143326703Y-103753228D01*
X143294000Y-103588816D01*
X143294000Y-103421184D01*
X143326703Y-103256772D01*
X143390853Y-103101900D01*
X143483985Y-102962519D01*
X143602519Y-102843985D01*
X143741900Y-102750853D01*
X143896772Y-102686703D01*
X144061184Y-102654000D01*
X144228816Y-102654000D01*
X144393228Y-102686703D01*
X144393228Y-102686703D01*
G37*
G36*
X148203228Y-102686703D02*
X148358100Y-102750853D01*
X148497481Y-102843985D01*
X148616015Y-102962519D01*
X148709147Y-103101900D01*
X148773297Y-103256772D01*
X148806000Y-103421184D01*
X148806000Y-103588816D01*
X148773297Y-103753228D01*
X148709147Y-103908100D01*
X148616015Y-104047481D01*
X148497481Y-104166015D01*
X148358100Y-104259147D01*
X148203228Y-104323297D01*
X148038816Y-104356000D01*
X147871184Y-104356000D01*
X147706772Y-104323297D01*
X147551900Y-104259147D01*
X147412519Y-104166015D01*
X147293985Y-104047481D01*
X147200853Y-103908100D01*
X147136703Y-103753228D01*
X147104000Y-103588816D01*
X147104000Y-103421184D01*
X147136703Y-103256772D01*
X147200853Y-103101900D01*
X147293985Y-102962519D01*
X147412519Y-102843985D01*
X147551900Y-102750853D01*
X147706772Y-102686703D01*
X147871184Y-102654000D01*
X148038816Y-102654000D01*
X148203228Y-102686703D01*
X148203228Y-102686703D01*
G37*
G36*
X174100442Y-100070518D02*
X174166627Y-100077037D01*
X174279853Y-100111384D01*
X174336467Y-100128557D01*
X174475087Y-100202652D01*
X174492991Y-100212222D01*
X174528729Y-100241552D01*
X174630186Y-100324814D01*
X174713448Y-100426271D01*
X174742778Y-100462009D01*
X174742779Y-100462011D01*
X174826443Y-100618533D01*
X174826443Y-100618534D01*
X174877963Y-100788373D01*
X174895359Y-100965000D01*
X174877963Y-101141627D01*
X174843616Y-101254853D01*
X174826443Y-101311467D01*
X174752348Y-101450087D01*
X174742778Y-101467991D01*
X174713448Y-101503729D01*
X174630186Y-101605186D01*
X174528729Y-101688448D01*
X174492991Y-101717778D01*
X174492989Y-101717779D01*
X174336467Y-101801443D01*
X174279853Y-101818616D01*
X174166627Y-101852963D01*
X174100443Y-101859481D01*
X174034260Y-101866000D01*
X173945740Y-101866000D01*
X173879558Y-101859482D01*
X173813373Y-101852963D01*
X173700147Y-101818616D01*
X173643533Y-101801443D01*
X173487011Y-101717779D01*
X173487009Y-101717778D01*
X173451271Y-101688448D01*
X173349814Y-101605186D01*
X173266552Y-101503729D01*
X173237222Y-101467991D01*
X173227652Y-101450087D01*
X173153557Y-101311467D01*
X173136384Y-101254853D01*
X173102037Y-101141627D01*
X173084641Y-100965000D01*
X173102037Y-100788373D01*
X173153557Y-100618534D01*
X173153557Y-100618533D01*
X173237221Y-100462011D01*
X173237222Y-100462009D01*
X173266552Y-100426271D01*
X173349814Y-100324814D01*
X173451271Y-100241552D01*
X173487009Y-100212222D01*
X173504913Y-100202652D01*
X173643533Y-100128557D01*
X173700147Y-100111384D01*
X173813373Y-100077037D01*
X173879557Y-100070519D01*
X173945740Y-100064000D01*
X174034260Y-100064000D01*
X174100442Y-100070518D01*
X174100442Y-100070518D01*
G37*
G36*
X158594877Y-95307479D02*
X158705338Y-95340987D01*
X158807137Y-95395400D01*
X158896369Y-95468631D01*
X158969600Y-95557863D01*
X159024013Y-95659662D01*
X159057521Y-95770123D01*
X159068835Y-95885000D01*
X159057521Y-95999877D01*
X159024013Y-96110338D01*
X158969600Y-96212137D01*
X158896369Y-96301369D01*
X158807137Y-96374600D01*
X158741357Y-96409760D01*
X158720982Y-96423373D01*
X158703655Y-96440700D01*
X158690041Y-96461075D01*
X158680664Y-96483714D01*
X158675883Y-96507747D01*
X158675883Y-96532252D01*
X158680663Y-96556285D01*
X158690041Y-96578924D01*
X158703654Y-96599299D01*
X158720981Y-96616626D01*
X158741357Y-96630240D01*
X158807137Y-96665400D01*
X158896369Y-96738631D01*
X158969600Y-96827863D01*
X159024013Y-96929662D01*
X159057521Y-97040123D01*
X159068835Y-97155000D01*
X159057521Y-97269877D01*
X159024013Y-97380338D01*
X158969600Y-97482137D01*
X158896369Y-97571369D01*
X158807137Y-97644600D01*
X158741357Y-97679760D01*
X158720982Y-97693373D01*
X158703655Y-97710700D01*
X158690041Y-97731075D01*
X158680664Y-97753714D01*
X158675883Y-97777747D01*
X158675883Y-97802252D01*
X158680663Y-97826285D01*
X158690041Y-97848924D01*
X158703654Y-97869299D01*
X158720981Y-97886626D01*
X158741357Y-97900240D01*
X158807137Y-97935400D01*
X158896369Y-98008631D01*
X158969600Y-98097863D01*
X159024013Y-98199662D01*
X159057521Y-98310123D01*
X159068835Y-98425000D01*
X159057521Y-98539877D01*
X159024013Y-98650338D01*
X158969600Y-98752137D01*
X158896369Y-98841369D01*
X158840312Y-98887374D01*
X158822985Y-98904701D01*
X158809372Y-98925076D01*
X158799994Y-98947715D01*
X158795214Y-98971749D01*
X158795214Y-98996253D01*
X158799995Y-99020286D01*
X158809372Y-99042925D01*
X158822986Y-99063300D01*
X158840313Y-99080627D01*
X158860688Y-99094240D01*
X158883327Y-99103618D01*
X158919612Y-99109000D01*
X159066000Y-99109000D01*
X159066000Y-100281000D01*
X157164000Y-100281000D01*
X157164000Y-99109000D01*
X157310388Y-99109000D01*
X157334774Y-99106598D01*
X157358223Y-99099485D01*
X157379834Y-99087934D01*
X157398776Y-99072388D01*
X157414322Y-99053446D01*
X157425873Y-99031835D01*
X157432986Y-99008386D01*
X157435388Y-98984000D01*
X157432986Y-98959614D01*
X157425873Y-98936165D01*
X157414322Y-98914554D01*
X157389688Y-98887374D01*
X157333631Y-98841369D01*
X157260400Y-98752137D01*
X157205987Y-98650338D01*
X157172479Y-98539877D01*
X157161165Y-98425000D01*
X157172479Y-98310123D01*
X157205987Y-98199662D01*
X157260400Y-98097863D01*
X157333631Y-98008631D01*
X157422863Y-97935400D01*
X157488643Y-97900240D01*
X157509018Y-97886627D01*
X157526345Y-97869300D01*
X157539959Y-97848925D01*
X157549336Y-97826286D01*
X157554117Y-97802253D01*
X157554117Y-97777748D01*
X157549337Y-97753715D01*
X157539959Y-97731076D01*
X157526346Y-97710701D01*
X157509019Y-97693374D01*
X157488643Y-97679760D01*
X157422863Y-97644600D01*
X157333631Y-97571369D01*
X157260400Y-97482137D01*
X157205987Y-97380338D01*
X157172479Y-97269877D01*
X157161165Y-97155000D01*
X157172479Y-97040123D01*
X157205987Y-96929662D01*
X157260400Y-96827863D01*
X157333631Y-96738631D01*
X157422863Y-96665400D01*
X157488643Y-96630240D01*
X157509018Y-96616627D01*
X157526345Y-96599300D01*
X157539959Y-96578925D01*
X157549336Y-96556286D01*
X157554117Y-96532253D01*
X157554117Y-96507748D01*
X157549337Y-96483715D01*
X157539959Y-96461076D01*
X157526346Y-96440701D01*
X157509019Y-96423374D01*
X157488643Y-96409760D01*
X157422863Y-96374600D01*
X157333631Y-96301369D01*
X157260400Y-96212137D01*
X157205987Y-96110338D01*
X157172479Y-95999877D01*
X157161165Y-95885000D01*
X157172479Y-95770123D01*
X157205987Y-95659662D01*
X157260400Y-95557863D01*
X157333631Y-95468631D01*
X157422863Y-95395400D01*
X157524662Y-95340987D01*
X157635123Y-95307479D01*
X157721214Y-95299000D01*
X158508786Y-95299000D01*
X158594877Y-95307479D01*
X158594877Y-95307479D01*
G37*
G36*
X148434877Y-95307479D02*
X148545338Y-95340987D01*
X148647137Y-95395400D01*
X148736369Y-95468631D01*
X148809600Y-95557863D01*
X148864013Y-95659662D01*
X148897521Y-95770123D01*
X148908835Y-95885000D01*
X148897521Y-95999877D01*
X148864013Y-96110338D01*
X148809600Y-96212137D01*
X148736369Y-96301369D01*
X148647137Y-96374600D01*
X148581357Y-96409760D01*
X148560982Y-96423373D01*
X148543655Y-96440700D01*
X148530041Y-96461075D01*
X148520664Y-96483714D01*
X148515883Y-96507747D01*
X148515883Y-96532252D01*
X148520663Y-96556285D01*
X148530041Y-96578924D01*
X148543654Y-96599299D01*
X148560981Y-96616626D01*
X148581357Y-96630240D01*
X148647137Y-96665400D01*
X148736369Y-96738631D01*
X148809600Y-96827863D01*
X148864013Y-96929662D01*
X148897521Y-97040123D01*
X148908835Y-97155000D01*
X148897521Y-97269877D01*
X148864013Y-97380338D01*
X148809600Y-97482137D01*
X148736369Y-97571369D01*
X148647137Y-97644600D01*
X148581357Y-97679760D01*
X148560982Y-97693373D01*
X148543655Y-97710700D01*
X148530041Y-97731075D01*
X148520664Y-97753714D01*
X148515883Y-97777747D01*
X148515883Y-97802252D01*
X148520663Y-97826285D01*
X148530041Y-97848924D01*
X148543654Y-97869299D01*
X148560981Y-97886626D01*
X148581357Y-97900240D01*
X148647137Y-97935400D01*
X148736369Y-98008631D01*
X148809600Y-98097863D01*
X148864013Y-98199662D01*
X148897521Y-98310123D01*
X148908835Y-98425000D01*
X148897521Y-98539877D01*
X148864013Y-98650338D01*
X148809600Y-98752137D01*
X148736369Y-98841369D01*
X148680312Y-98887374D01*
X148662985Y-98904701D01*
X148649372Y-98925076D01*
X148639994Y-98947715D01*
X148635214Y-98971749D01*
X148635214Y-98996253D01*
X148639995Y-99020286D01*
X148649372Y-99042925D01*
X148662986Y-99063300D01*
X148680313Y-99080627D01*
X148700688Y-99094240D01*
X148723327Y-99103618D01*
X148759612Y-99109000D01*
X148906000Y-99109000D01*
X148906000Y-100281000D01*
X147004000Y-100281000D01*
X147004000Y-99109000D01*
X147150388Y-99109000D01*
X147174774Y-99106598D01*
X147198223Y-99099485D01*
X147219834Y-99087934D01*
X147238776Y-99072388D01*
X147254322Y-99053446D01*
X147265873Y-99031835D01*
X147272986Y-99008386D01*
X147275388Y-98984000D01*
X147272986Y-98959614D01*
X147265873Y-98936165D01*
X147254322Y-98914554D01*
X147229688Y-98887374D01*
X147173631Y-98841369D01*
X147100400Y-98752137D01*
X147045987Y-98650338D01*
X147012479Y-98539877D01*
X147001165Y-98425000D01*
X147012479Y-98310123D01*
X147045987Y-98199662D01*
X147100400Y-98097863D01*
X147173631Y-98008631D01*
X147262863Y-97935400D01*
X147328643Y-97900240D01*
X147349018Y-97886627D01*
X147366345Y-97869300D01*
X147379959Y-97848925D01*
X147389336Y-97826286D01*
X147394117Y-97802253D01*
X147394117Y-97777748D01*
X147389337Y-97753715D01*
X147379959Y-97731076D01*
X147366346Y-97710701D01*
X147349019Y-97693374D01*
X147328643Y-97679760D01*
X147262863Y-97644600D01*
X147173631Y-97571369D01*
X147100400Y-97482137D01*
X147045987Y-97380338D01*
X147012479Y-97269877D01*
X147001165Y-97155000D01*
X147012479Y-97040123D01*
X147045987Y-96929662D01*
X147100400Y-96827863D01*
X147173631Y-96738631D01*
X147262863Y-96665400D01*
X147328643Y-96630240D01*
X147349018Y-96616627D01*
X147366345Y-96599300D01*
X147379959Y-96578925D01*
X147389336Y-96556286D01*
X147394117Y-96532253D01*
X147394117Y-96507748D01*
X147389337Y-96483715D01*
X147379959Y-96461076D01*
X147366346Y-96440701D01*
X147349019Y-96423374D01*
X147328643Y-96409760D01*
X147262863Y-96374600D01*
X147173631Y-96301369D01*
X147100400Y-96212137D01*
X147045987Y-96110338D01*
X147012479Y-95999877D01*
X147001165Y-95885000D01*
X147012479Y-95770123D01*
X147045987Y-95659662D01*
X147100400Y-95557863D01*
X147173631Y-95468631D01*
X147262863Y-95395400D01*
X147364662Y-95340987D01*
X147475123Y-95307479D01*
X147561214Y-95299000D01*
X148348786Y-95299000D01*
X148434877Y-95307479D01*
X148434877Y-95307479D01*
G37*
G36*
X138274877Y-95307479D02*
X138385338Y-95340987D01*
X138487137Y-95395400D01*
X138576369Y-95468631D01*
X138649600Y-95557863D01*
X138704013Y-95659662D01*
X138737521Y-95770123D01*
X138748835Y-95885000D01*
X138737521Y-95999877D01*
X138704013Y-96110338D01*
X138649600Y-96212137D01*
X138576369Y-96301369D01*
X138487137Y-96374600D01*
X138421357Y-96409760D01*
X138400982Y-96423373D01*
X138383655Y-96440700D01*
X138370041Y-96461075D01*
X138360664Y-96483714D01*
X138355883Y-96507747D01*
X138355883Y-96532252D01*
X138360663Y-96556285D01*
X138370041Y-96578924D01*
X138383654Y-96599299D01*
X138400981Y-96616626D01*
X138421357Y-96630240D01*
X138487137Y-96665400D01*
X138576369Y-96738631D01*
X138649600Y-96827863D01*
X138704013Y-96929662D01*
X138737521Y-97040123D01*
X138748835Y-97155000D01*
X138737521Y-97269877D01*
X138704013Y-97380338D01*
X138649600Y-97482137D01*
X138576369Y-97571369D01*
X138487137Y-97644600D01*
X138421357Y-97679760D01*
X138400982Y-97693373D01*
X138383655Y-97710700D01*
X138370041Y-97731075D01*
X138360664Y-97753714D01*
X138355883Y-97777747D01*
X138355883Y-97802252D01*
X138360663Y-97826285D01*
X138370041Y-97848924D01*
X138383654Y-97869299D01*
X138400981Y-97886626D01*
X138421357Y-97900240D01*
X138487137Y-97935400D01*
X138576369Y-98008631D01*
X138649600Y-98097863D01*
X138704013Y-98199662D01*
X138737521Y-98310123D01*
X138748835Y-98425000D01*
X138737521Y-98539877D01*
X138704013Y-98650338D01*
X138649600Y-98752137D01*
X138576369Y-98841369D01*
X138520312Y-98887374D01*
X138502985Y-98904701D01*
X138489372Y-98925076D01*
X138479994Y-98947715D01*
X138475214Y-98971749D01*
X138475214Y-98996253D01*
X138479995Y-99020286D01*
X138489372Y-99042925D01*
X138502986Y-99063300D01*
X138520313Y-99080627D01*
X138540688Y-99094240D01*
X138563327Y-99103618D01*
X138599612Y-99109000D01*
X138746000Y-99109000D01*
X138746000Y-100281000D01*
X136844000Y-100281000D01*
X136844000Y-99109000D01*
X136990388Y-99109000D01*
X137014774Y-99106598D01*
X137038223Y-99099485D01*
X137059834Y-99087934D01*
X137078776Y-99072388D01*
X137094322Y-99053446D01*
X137105873Y-99031835D01*
X137112986Y-99008386D01*
X137115388Y-98984000D01*
X137112986Y-98959614D01*
X137105873Y-98936165D01*
X137094322Y-98914554D01*
X137069688Y-98887374D01*
X137013631Y-98841369D01*
X136940400Y-98752137D01*
X136885987Y-98650338D01*
X136852479Y-98539877D01*
X136841165Y-98425000D01*
X136852479Y-98310123D01*
X136885987Y-98199662D01*
X136940400Y-98097863D01*
X137013631Y-98008631D01*
X137102863Y-97935400D01*
X137168643Y-97900240D01*
X137189018Y-97886627D01*
X137206345Y-97869300D01*
X137219959Y-97848925D01*
X137229336Y-97826286D01*
X137234117Y-97802253D01*
X137234117Y-97777748D01*
X137229337Y-97753715D01*
X137219959Y-97731076D01*
X137206346Y-97710701D01*
X137189019Y-97693374D01*
X137168643Y-97679760D01*
X137102863Y-97644600D01*
X137013631Y-97571369D01*
X136940400Y-97482137D01*
X136885987Y-97380338D01*
X136852479Y-97269877D01*
X136841165Y-97155000D01*
X136852479Y-97040123D01*
X136885987Y-96929662D01*
X136940400Y-96827863D01*
X137013631Y-96738631D01*
X137102863Y-96665400D01*
X137168643Y-96630240D01*
X137189018Y-96616627D01*
X137206345Y-96599300D01*
X137219959Y-96578925D01*
X137229336Y-96556286D01*
X137234117Y-96532253D01*
X137234117Y-96507748D01*
X137229337Y-96483715D01*
X137219959Y-96461076D01*
X137206346Y-96440701D01*
X137189019Y-96423374D01*
X137168643Y-96409760D01*
X137102863Y-96374600D01*
X137013631Y-96301369D01*
X136940400Y-96212137D01*
X136885987Y-96110338D01*
X136852479Y-95999877D01*
X136841165Y-95885000D01*
X136852479Y-95770123D01*
X136885987Y-95659662D01*
X136940400Y-95557863D01*
X137013631Y-95468631D01*
X137102863Y-95395400D01*
X137204662Y-95340987D01*
X137315123Y-95307479D01*
X137401214Y-95299000D01*
X138188786Y-95299000D01*
X138274877Y-95307479D01*
X138274877Y-95307479D01*
G37*
G36*
X128114877Y-95307479D02*
X128225338Y-95340987D01*
X128327137Y-95395400D01*
X128416369Y-95468631D01*
X128489600Y-95557863D01*
X128544013Y-95659662D01*
X128577521Y-95770123D01*
X128588835Y-95885000D01*
X128577521Y-95999877D01*
X128544013Y-96110338D01*
X128489600Y-96212137D01*
X128416369Y-96301369D01*
X128327137Y-96374600D01*
X128261357Y-96409760D01*
X128240982Y-96423373D01*
X128223655Y-96440700D01*
X128210041Y-96461075D01*
X128200664Y-96483714D01*
X128195883Y-96507747D01*
X128195883Y-96532252D01*
X128200663Y-96556285D01*
X128210041Y-96578924D01*
X128223654Y-96599299D01*
X128240981Y-96616626D01*
X128261357Y-96630240D01*
X128327137Y-96665400D01*
X128416369Y-96738631D01*
X128489600Y-96827863D01*
X128544013Y-96929662D01*
X128577521Y-97040123D01*
X128588835Y-97155000D01*
X128577521Y-97269877D01*
X128544013Y-97380338D01*
X128489600Y-97482137D01*
X128416369Y-97571369D01*
X128327137Y-97644600D01*
X128261357Y-97679760D01*
X128240982Y-97693373D01*
X128223655Y-97710700D01*
X128210041Y-97731075D01*
X128200664Y-97753714D01*
X128195883Y-97777747D01*
X128195883Y-97802252D01*
X128200663Y-97826285D01*
X128210041Y-97848924D01*
X128223654Y-97869299D01*
X128240981Y-97886626D01*
X128261357Y-97900240D01*
X128327137Y-97935400D01*
X128416369Y-98008631D01*
X128489600Y-98097863D01*
X128544013Y-98199662D01*
X128577521Y-98310123D01*
X128588835Y-98425000D01*
X128577521Y-98539877D01*
X128544013Y-98650338D01*
X128489600Y-98752137D01*
X128416369Y-98841369D01*
X128360312Y-98887374D01*
X128342985Y-98904701D01*
X128329372Y-98925076D01*
X128319994Y-98947715D01*
X128315214Y-98971749D01*
X128315214Y-98996253D01*
X128319995Y-99020286D01*
X128329372Y-99042925D01*
X128342986Y-99063300D01*
X128360313Y-99080627D01*
X128380688Y-99094240D01*
X128403327Y-99103618D01*
X128439612Y-99109000D01*
X128586000Y-99109000D01*
X128586000Y-100281000D01*
X126684000Y-100281000D01*
X126684000Y-99109000D01*
X126830388Y-99109000D01*
X126854774Y-99106598D01*
X126878223Y-99099485D01*
X126899834Y-99087934D01*
X126918776Y-99072388D01*
X126934322Y-99053446D01*
X126945873Y-99031835D01*
X126952986Y-99008386D01*
X126955388Y-98984000D01*
X126952986Y-98959614D01*
X126945873Y-98936165D01*
X126934322Y-98914554D01*
X126909688Y-98887374D01*
X126853631Y-98841369D01*
X126780400Y-98752137D01*
X126725987Y-98650338D01*
X126692479Y-98539877D01*
X126681165Y-98425000D01*
X126692479Y-98310123D01*
X126725987Y-98199662D01*
X126780400Y-98097863D01*
X126853631Y-98008631D01*
X126942863Y-97935400D01*
X127008643Y-97900240D01*
X127029018Y-97886627D01*
X127046345Y-97869300D01*
X127059959Y-97848925D01*
X127069336Y-97826286D01*
X127074117Y-97802253D01*
X127074117Y-97777748D01*
X127069337Y-97753715D01*
X127059959Y-97731076D01*
X127046346Y-97710701D01*
X127029019Y-97693374D01*
X127008643Y-97679760D01*
X126942863Y-97644600D01*
X126853631Y-97571369D01*
X126780400Y-97482137D01*
X126725987Y-97380338D01*
X126692479Y-97269877D01*
X126681165Y-97155000D01*
X126692479Y-97040123D01*
X126725987Y-96929662D01*
X126780400Y-96827863D01*
X126853631Y-96738631D01*
X126942863Y-96665400D01*
X127008643Y-96630240D01*
X127029018Y-96616627D01*
X127046345Y-96599300D01*
X127059959Y-96578925D01*
X127069336Y-96556286D01*
X127074117Y-96532253D01*
X127074117Y-96507748D01*
X127069337Y-96483715D01*
X127059959Y-96461076D01*
X127046346Y-96440701D01*
X127029019Y-96423374D01*
X127008643Y-96409760D01*
X126942863Y-96374600D01*
X126853631Y-96301369D01*
X126780400Y-96212137D01*
X126725987Y-96110338D01*
X126692479Y-95999877D01*
X126681165Y-95885000D01*
X126692479Y-95770123D01*
X126725987Y-95659662D01*
X126780400Y-95557863D01*
X126853631Y-95468631D01*
X126942863Y-95395400D01*
X127044662Y-95340987D01*
X127155123Y-95307479D01*
X127241214Y-95299000D01*
X128028786Y-95299000D01*
X128114877Y-95307479D01*
X128114877Y-95307479D01*
G37*
G36*
X113446000Y-99476000D02*
X110074000Y-99476000D01*
X110074000Y-97374000D01*
X113446000Y-97374000D01*
X113446000Y-99476000D01*
X113446000Y-99476000D01*
G37*
G36*
X117781565Y-97414389D02*
X117972834Y-97493615D01*
X118030554Y-97532182D01*
X118052165Y-97543733D01*
X118075614Y-97550846D01*
X118100000Y-97553248D01*
X118124386Y-97550846D01*
X118147836Y-97543733D01*
X118169446Y-97532182D01*
X118227166Y-97493615D01*
X118418435Y-97414389D01*
X118621484Y-97374000D01*
X118828516Y-97374000D01*
X119031565Y-97414389D01*
X119222834Y-97493615D01*
X119394976Y-97608637D01*
X119541363Y-97755024D01*
X119656385Y-97927166D01*
X119735611Y-98118435D01*
X119776000Y-98321484D01*
X119776000Y-98528516D01*
X119735611Y-98731565D01*
X119656385Y-98922834D01*
X119541363Y-99094976D01*
X119394976Y-99241363D01*
X119222834Y-99356385D01*
X119031565Y-99435611D01*
X118828516Y-99476000D01*
X118621484Y-99476000D01*
X118418435Y-99435611D01*
X118227166Y-99356385D01*
X118169446Y-99317818D01*
X118147835Y-99306267D01*
X118124386Y-99299154D01*
X118100000Y-99296752D01*
X118075614Y-99299154D01*
X118052164Y-99306267D01*
X118030554Y-99317818D01*
X117972834Y-99356385D01*
X117781565Y-99435611D01*
X117578516Y-99476000D01*
X117371484Y-99476000D01*
X117168435Y-99435611D01*
X116977166Y-99356385D01*
X116805024Y-99241363D01*
X116658637Y-99094976D01*
X116543615Y-98922834D01*
X116464389Y-98731565D01*
X116424000Y-98528516D01*
X116424000Y-98321484D01*
X116464389Y-98118435D01*
X116543615Y-97927166D01*
X116658637Y-97755024D01*
X116805024Y-97608637D01*
X116977166Y-97493615D01*
X117168435Y-97414389D01*
X117371484Y-97374000D01*
X117578516Y-97374000D01*
X117781565Y-97414389D01*
X117781565Y-97414389D01*
G37*
G36*
X167888228Y-94431703D02*
X168043100Y-94495853D01*
X168182481Y-94588985D01*
X168301015Y-94707519D01*
X168394147Y-94846900D01*
X168458297Y-95001772D01*
X168491000Y-95166184D01*
X168491000Y-95333816D01*
X168458297Y-95498228D01*
X168394147Y-95653100D01*
X168301015Y-95792481D01*
X168182481Y-95911015D01*
X168043100Y-96004147D01*
X167888228Y-96068297D01*
X167723816Y-96101000D01*
X167556184Y-96101000D01*
X167391772Y-96068297D01*
X167236900Y-96004147D01*
X167097519Y-95911015D01*
X166978985Y-95792481D01*
X166885853Y-95653100D01*
X166821703Y-95498228D01*
X166789000Y-95333816D01*
X166789000Y-95166184D01*
X166821703Y-95001772D01*
X166885853Y-94846900D01*
X166978985Y-94707519D01*
X167097519Y-94588985D01*
X167236900Y-94495853D01*
X167391772Y-94431703D01*
X167556184Y-94399000D01*
X167723816Y-94399000D01*
X167888228Y-94431703D01*
X167888228Y-94431703D01*
G37*
G36*
X171063228Y-94431703D02*
X171218100Y-94495853D01*
X171357481Y-94588985D01*
X171476015Y-94707519D01*
X171569147Y-94846900D01*
X171633297Y-95001772D01*
X171666000Y-95166184D01*
X171666000Y-95333816D01*
X171633297Y-95498228D01*
X171569147Y-95653100D01*
X171476015Y-95792481D01*
X171357481Y-95911015D01*
X171218100Y-96004147D01*
X171063228Y-96068297D01*
X170898816Y-96101000D01*
X170731184Y-96101000D01*
X170566772Y-96068297D01*
X170411900Y-96004147D01*
X170272519Y-95911015D01*
X170153985Y-95792481D01*
X170060853Y-95653100D01*
X169996703Y-95498228D01*
X169964000Y-95333816D01*
X169964000Y-95166184D01*
X169996703Y-95001772D01*
X170060853Y-94846900D01*
X170153985Y-94707519D01*
X170272519Y-94588985D01*
X170411900Y-94495853D01*
X170566772Y-94431703D01*
X170731184Y-94399000D01*
X170898816Y-94399000D01*
X171063228Y-94431703D01*
X171063228Y-94431703D01*
G37*
G36*
X174238228Y-94431703D02*
X174393100Y-94495853D01*
X174532481Y-94588985D01*
X174651015Y-94707519D01*
X174744147Y-94846900D01*
X174808297Y-95001772D01*
X174841000Y-95166184D01*
X174841000Y-95333816D01*
X174808297Y-95498228D01*
X174744147Y-95653100D01*
X174651015Y-95792481D01*
X174532481Y-95911015D01*
X174393100Y-96004147D01*
X174238228Y-96068297D01*
X174073816Y-96101000D01*
X173906184Y-96101000D01*
X173741772Y-96068297D01*
X173586900Y-96004147D01*
X173447519Y-95911015D01*
X173328985Y-95792481D01*
X173235853Y-95653100D01*
X173171703Y-95498228D01*
X173139000Y-95333816D01*
X173139000Y-95166184D01*
X173171703Y-95001772D01*
X173235853Y-94846900D01*
X173328985Y-94707519D01*
X173447519Y-94588985D01*
X173586900Y-94495853D01*
X173741772Y-94431703D01*
X173906184Y-94399000D01*
X174073816Y-94399000D01*
X174238228Y-94431703D01*
X174238228Y-94431703D01*
G37*
G36*
X126046000Y-93026000D02*
X124144000Y-93026000D01*
X124144000Y-91124000D01*
X126046000Y-91124000D01*
X126046000Y-93026000D01*
X126046000Y-93026000D01*
G37*
G36*
X131126000Y-93026000D02*
X129224000Y-93026000D01*
X129224000Y-91124000D01*
X131126000Y-91124000D01*
X131126000Y-93026000D01*
X131126000Y-93026000D01*
G37*
G36*
X146366000Y-93026000D02*
X144464000Y-93026000D01*
X144464000Y-91124000D01*
X146366000Y-91124000D01*
X146366000Y-93026000D01*
X146366000Y-93026000D01*
G37*
G36*
X141286000Y-93026000D02*
X139384000Y-93026000D01*
X139384000Y-91124000D01*
X141286000Y-91124000D01*
X141286000Y-93026000D01*
X141286000Y-93026000D01*
G37*
G36*
X151446000Y-93026000D02*
X149544000Y-93026000D01*
X149544000Y-91124000D01*
X151446000Y-91124000D01*
X151446000Y-93026000D01*
X151446000Y-93026000D01*
G37*
G36*
X156526000Y-93026000D02*
X154624000Y-93026000D01*
X154624000Y-91124000D01*
X156526000Y-91124000D01*
X156526000Y-93026000D01*
X156526000Y-93026000D01*
G37*
G36*
X136206000Y-93026000D02*
X134304000Y-93026000D01*
X134304000Y-91124000D01*
X136206000Y-91124000D01*
X136206000Y-93026000D01*
X136206000Y-93026000D01*
G37*
G36*
X161606000Y-93026000D02*
X159704000Y-93026000D01*
X159704000Y-91124000D01*
X161606000Y-91124000D01*
X161606000Y-93026000D01*
X161606000Y-93026000D01*
G37*
G36*
X160932396Y-88620546D02*
X161105466Y-88692234D01*
X161261230Y-88796312D01*
X161393688Y-88928770D01*
X161497766Y-89084534D01*
X161569454Y-89257604D01*
X161606000Y-89441333D01*
X161606000Y-89628667D01*
X161569454Y-89812396D01*
X161497766Y-89985466D01*
X161393688Y-90141230D01*
X161261230Y-90273688D01*
X161105466Y-90377766D01*
X160932396Y-90449454D01*
X160748667Y-90486000D01*
X160561333Y-90486000D01*
X160377604Y-90449454D01*
X160204534Y-90377766D01*
X160048770Y-90273688D01*
X159916312Y-90141230D01*
X159812234Y-89985466D01*
X159740546Y-89812396D01*
X159704000Y-89628667D01*
X159704000Y-89441333D01*
X159740546Y-89257604D01*
X159812234Y-89084534D01*
X159916312Y-88928770D01*
X160048770Y-88796312D01*
X160204534Y-88692234D01*
X160377604Y-88620546D01*
X160561333Y-88584000D01*
X160748667Y-88584000D01*
X160932396Y-88620546D01*
X160932396Y-88620546D01*
G37*
G36*
X130452396Y-88620546D02*
X130625466Y-88692234D01*
X130781230Y-88796312D01*
X130913688Y-88928770D01*
X131017766Y-89084534D01*
X131089454Y-89257604D01*
X131126000Y-89441333D01*
X131126000Y-89628667D01*
X131089454Y-89812396D01*
X131017766Y-89985466D01*
X130913688Y-90141230D01*
X130781230Y-90273688D01*
X130625466Y-90377766D01*
X130452396Y-90449454D01*
X130268667Y-90486000D01*
X130081333Y-90486000D01*
X129897604Y-90449454D01*
X129724534Y-90377766D01*
X129568770Y-90273688D01*
X129436312Y-90141230D01*
X129332234Y-89985466D01*
X129260546Y-89812396D01*
X129224000Y-89628667D01*
X129224000Y-89441333D01*
X129260546Y-89257604D01*
X129332234Y-89084534D01*
X129436312Y-88928770D01*
X129568770Y-88796312D01*
X129724534Y-88692234D01*
X129897604Y-88620546D01*
X130081333Y-88584000D01*
X130268667Y-88584000D01*
X130452396Y-88620546D01*
X130452396Y-88620546D01*
G37*
G36*
X150772396Y-88620546D02*
X150945466Y-88692234D01*
X151101230Y-88796312D01*
X151233688Y-88928770D01*
X151337766Y-89084534D01*
X151409454Y-89257604D01*
X151446000Y-89441333D01*
X151446000Y-89628667D01*
X151409454Y-89812396D01*
X151337766Y-89985466D01*
X151233688Y-90141230D01*
X151101230Y-90273688D01*
X150945466Y-90377766D01*
X150772396Y-90449454D01*
X150588667Y-90486000D01*
X150401333Y-90486000D01*
X150217604Y-90449454D01*
X150044534Y-90377766D01*
X149888770Y-90273688D01*
X149756312Y-90141230D01*
X149652234Y-89985466D01*
X149580546Y-89812396D01*
X149544000Y-89628667D01*
X149544000Y-89441333D01*
X149580546Y-89257604D01*
X149652234Y-89084534D01*
X149756312Y-88928770D01*
X149888770Y-88796312D01*
X150044534Y-88692234D01*
X150217604Y-88620546D01*
X150401333Y-88584000D01*
X150588667Y-88584000D01*
X150772396Y-88620546D01*
X150772396Y-88620546D01*
G37*
G36*
X155852396Y-88620546D02*
X156025466Y-88692234D01*
X156181230Y-88796312D01*
X156313688Y-88928770D01*
X156417766Y-89084534D01*
X156489454Y-89257604D01*
X156526000Y-89441333D01*
X156526000Y-89628667D01*
X156489454Y-89812396D01*
X156417766Y-89985466D01*
X156313688Y-90141230D01*
X156181230Y-90273688D01*
X156025466Y-90377766D01*
X155852396Y-90449454D01*
X155668667Y-90486000D01*
X155481333Y-90486000D01*
X155297604Y-90449454D01*
X155124534Y-90377766D01*
X154968770Y-90273688D01*
X154836312Y-90141230D01*
X154732234Y-89985466D01*
X154660546Y-89812396D01*
X154624000Y-89628667D01*
X154624000Y-89441333D01*
X154660546Y-89257604D01*
X154732234Y-89084534D01*
X154836312Y-88928770D01*
X154968770Y-88796312D01*
X155124534Y-88692234D01*
X155297604Y-88620546D01*
X155481333Y-88584000D01*
X155668667Y-88584000D01*
X155852396Y-88620546D01*
X155852396Y-88620546D01*
G37*
G36*
X140612396Y-88620546D02*
X140785466Y-88692234D01*
X140941230Y-88796312D01*
X141073688Y-88928770D01*
X141177766Y-89084534D01*
X141249454Y-89257604D01*
X141286000Y-89441333D01*
X141286000Y-89628667D01*
X141249454Y-89812396D01*
X141177766Y-89985466D01*
X141073688Y-90141230D01*
X140941230Y-90273688D01*
X140785466Y-90377766D01*
X140612396Y-90449454D01*
X140428667Y-90486000D01*
X140241333Y-90486000D01*
X140057604Y-90449454D01*
X139884534Y-90377766D01*
X139728770Y-90273688D01*
X139596312Y-90141230D01*
X139492234Y-89985466D01*
X139420546Y-89812396D01*
X139384000Y-89628667D01*
X139384000Y-89441333D01*
X139420546Y-89257604D01*
X139492234Y-89084534D01*
X139596312Y-88928770D01*
X139728770Y-88796312D01*
X139884534Y-88692234D01*
X140057604Y-88620546D01*
X140241333Y-88584000D01*
X140428667Y-88584000D01*
X140612396Y-88620546D01*
X140612396Y-88620546D01*
G37*
G36*
X135532396Y-88620546D02*
X135705466Y-88692234D01*
X135861230Y-88796312D01*
X135993688Y-88928770D01*
X136097766Y-89084534D01*
X136169454Y-89257604D01*
X136206000Y-89441333D01*
X136206000Y-89628667D01*
X136169454Y-89812396D01*
X136097766Y-89985466D01*
X135993688Y-90141230D01*
X135861230Y-90273688D01*
X135705466Y-90377766D01*
X135532396Y-90449454D01*
X135348667Y-90486000D01*
X135161333Y-90486000D01*
X134977604Y-90449454D01*
X134804534Y-90377766D01*
X134648770Y-90273688D01*
X134516312Y-90141230D01*
X134412234Y-89985466D01*
X134340546Y-89812396D01*
X134304000Y-89628667D01*
X134304000Y-89441333D01*
X134340546Y-89257604D01*
X134412234Y-89084534D01*
X134516312Y-88928770D01*
X134648770Y-88796312D01*
X134804534Y-88692234D01*
X134977604Y-88620546D01*
X135161333Y-88584000D01*
X135348667Y-88584000D01*
X135532396Y-88620546D01*
X135532396Y-88620546D01*
G37*
G36*
X145692396Y-88620546D02*
X145865466Y-88692234D01*
X146021230Y-88796312D01*
X146153688Y-88928770D01*
X146257766Y-89084534D01*
X146329454Y-89257604D01*
X146366000Y-89441333D01*
X146366000Y-89628667D01*
X146329454Y-89812396D01*
X146257766Y-89985466D01*
X146153688Y-90141230D01*
X146021230Y-90273688D01*
X145865466Y-90377766D01*
X145692396Y-90449454D01*
X145508667Y-90486000D01*
X145321333Y-90486000D01*
X145137604Y-90449454D01*
X144964534Y-90377766D01*
X144808770Y-90273688D01*
X144676312Y-90141230D01*
X144572234Y-89985466D01*
X144500546Y-89812396D01*
X144464000Y-89628667D01*
X144464000Y-89441333D01*
X144500546Y-89257604D01*
X144572234Y-89084534D01*
X144676312Y-88928770D01*
X144808770Y-88796312D01*
X144964534Y-88692234D01*
X145137604Y-88620546D01*
X145321333Y-88584000D01*
X145508667Y-88584000D01*
X145692396Y-88620546D01*
X145692396Y-88620546D01*
G37*
G36*
X125372396Y-88620546D02*
X125545466Y-88692234D01*
X125701230Y-88796312D01*
X125833688Y-88928770D01*
X125937766Y-89084534D01*
X126009454Y-89257604D01*
X126046000Y-89441333D01*
X126046000Y-89628667D01*
X126009454Y-89812396D01*
X125937766Y-89985466D01*
X125833688Y-90141230D01*
X125701230Y-90273688D01*
X125545466Y-90377766D01*
X125372396Y-90449454D01*
X125188667Y-90486000D01*
X125001333Y-90486000D01*
X124817604Y-90449454D01*
X124644534Y-90377766D01*
X124488770Y-90273688D01*
X124356312Y-90141230D01*
X124252234Y-89985466D01*
X124180546Y-89812396D01*
X124144000Y-89628667D01*
X124144000Y-89441333D01*
X124180546Y-89257604D01*
X124252234Y-89084534D01*
X124356312Y-88928770D01*
X124488770Y-88796312D01*
X124644534Y-88692234D01*
X124817604Y-88620546D01*
X125001333Y-88584000D01*
X125188667Y-88584000D01*
X125372396Y-88620546D01*
X125372396Y-88620546D01*
G37*
G36*
X112628643Y-87494781D02*
X112774415Y-87555162D01*
X112905611Y-87642824D01*
X113017176Y-87754389D01*
X113104838Y-87885585D01*
X113165219Y-88031357D01*
X113196000Y-88186107D01*
X113196000Y-88343893D01*
X113165219Y-88498643D01*
X113104838Y-88644415D01*
X113017176Y-88775611D01*
X112905611Y-88887176D01*
X112774415Y-88974838D01*
X112628643Y-89035219D01*
X112473893Y-89066000D01*
X112316107Y-89066000D01*
X112161357Y-89035219D01*
X112015585Y-88974838D01*
X111884389Y-88887176D01*
X111772824Y-88775611D01*
X111685162Y-88644415D01*
X111624781Y-88498643D01*
X111594000Y-88343893D01*
X111594000Y-88186107D01*
X111624781Y-88031357D01*
X111685162Y-87885585D01*
X111772824Y-87754389D01*
X111884389Y-87642824D01*
X112015585Y-87555162D01*
X112161357Y-87494781D01*
X112316107Y-87464000D01*
X112473893Y-87464000D01*
X112628643Y-87494781D01*
X112628643Y-87494781D01*
G37*
G36*
X118276000Y-89066000D02*
X116674000Y-89066000D01*
X116674000Y-87464000D01*
X118276000Y-87464000D01*
X118276000Y-89066000D01*
X118276000Y-89066000D01*
G37*
G36*
X115168643Y-87494781D02*
X115314415Y-87555162D01*
X115445611Y-87642824D01*
X115557176Y-87754389D01*
X115644838Y-87885585D01*
X115705219Y-88031357D01*
X115736000Y-88186107D01*
X115736000Y-88343893D01*
X115705219Y-88498643D01*
X115644838Y-88644415D01*
X115557176Y-88775611D01*
X115445611Y-88887176D01*
X115314415Y-88974838D01*
X115168643Y-89035219D01*
X115013893Y-89066000D01*
X114856107Y-89066000D01*
X114701357Y-89035219D01*
X114555585Y-88974838D01*
X114424389Y-88887176D01*
X114312824Y-88775611D01*
X114225162Y-88644415D01*
X114164781Y-88498643D01*
X114134000Y-88343893D01*
X114134000Y-88186107D01*
X114164781Y-88031357D01*
X114225162Y-87885585D01*
X114312824Y-87754389D01*
X114424389Y-87642824D01*
X114555585Y-87555162D01*
X114701357Y-87494781D01*
X114856107Y-87464000D01*
X115013893Y-87464000D01*
X115168643Y-87494781D01*
X115168643Y-87494781D01*
G37*
G36*
X167806821Y-86791313D02*
X167806824Y-86791314D01*
X167806825Y-86791314D01*
X167967239Y-86839975D01*
X167967241Y-86839976D01*
X167967244Y-86839977D01*
X168115078Y-86918995D01*
X168244659Y-87025341D01*
X168351005Y-87154922D01*
X168430023Y-87302756D01*
X168478687Y-87463179D01*
X168495117Y-87630000D01*
X168478687Y-87796821D01*
X168430023Y-87957244D01*
X168351005Y-88105078D01*
X168244659Y-88234659D01*
X168115078Y-88341005D01*
X167967244Y-88420023D01*
X167967241Y-88420024D01*
X167967239Y-88420025D01*
X167806825Y-88468686D01*
X167806824Y-88468686D01*
X167806821Y-88468687D01*
X167681804Y-88481000D01*
X167598196Y-88481000D01*
X167473179Y-88468687D01*
X167473176Y-88468686D01*
X167473175Y-88468686D01*
X167312761Y-88420025D01*
X167312759Y-88420024D01*
X167312756Y-88420023D01*
X167164922Y-88341005D01*
X167035341Y-88234659D01*
X166928995Y-88105078D01*
X166849977Y-87957244D01*
X166801313Y-87796821D01*
X166784883Y-87630000D01*
X166801313Y-87463179D01*
X166849977Y-87302756D01*
X166928995Y-87154922D01*
X167035341Y-87025341D01*
X167164922Y-86918995D01*
X167312756Y-86839977D01*
X167312759Y-86839976D01*
X167312761Y-86839975D01*
X167473175Y-86791314D01*
X167473176Y-86791314D01*
X167473179Y-86791313D01*
X167598196Y-86779000D01*
X167681804Y-86779000D01*
X167806821Y-86791313D01*
X167806821Y-86791313D01*
G37*
G36*
X170981821Y-86791313D02*
X170981824Y-86791314D01*
X170981825Y-86791314D01*
X171142239Y-86839975D01*
X171142241Y-86839976D01*
X171142244Y-86839977D01*
X171290078Y-86918995D01*
X171419659Y-87025341D01*
X171526005Y-87154922D01*
X171605023Y-87302756D01*
X171653687Y-87463179D01*
X171670117Y-87630000D01*
X171653687Y-87796821D01*
X171605023Y-87957244D01*
X171526005Y-88105078D01*
X171419659Y-88234659D01*
X171290078Y-88341005D01*
X171142244Y-88420023D01*
X171142241Y-88420024D01*
X171142239Y-88420025D01*
X170981825Y-88468686D01*
X170981824Y-88468686D01*
X170981821Y-88468687D01*
X170856804Y-88481000D01*
X170773196Y-88481000D01*
X170648179Y-88468687D01*
X170648176Y-88468686D01*
X170648175Y-88468686D01*
X170487761Y-88420025D01*
X170487759Y-88420024D01*
X170487756Y-88420023D01*
X170339922Y-88341005D01*
X170210341Y-88234659D01*
X170103995Y-88105078D01*
X170024977Y-87957244D01*
X169976313Y-87796821D01*
X169959883Y-87630000D01*
X169976313Y-87463179D01*
X170024977Y-87302756D01*
X170103995Y-87154922D01*
X170210341Y-87025341D01*
X170339922Y-86918995D01*
X170487756Y-86839977D01*
X170487759Y-86839976D01*
X170487761Y-86839975D01*
X170648175Y-86791314D01*
X170648176Y-86791314D01*
X170648179Y-86791313D01*
X170773196Y-86779000D01*
X170856804Y-86779000D01*
X170981821Y-86791313D01*
X170981821Y-86791313D01*
G37*
G36*
X174156821Y-86791313D02*
X174156824Y-86791314D01*
X174156825Y-86791314D01*
X174317239Y-86839975D01*
X174317241Y-86839976D01*
X174317244Y-86839977D01*
X174465078Y-86918995D01*
X174594659Y-87025341D01*
X174701005Y-87154922D01*
X174780023Y-87302756D01*
X174828687Y-87463179D01*
X174845117Y-87630000D01*
X174828687Y-87796821D01*
X174780023Y-87957244D01*
X174701005Y-88105078D01*
X174594659Y-88234659D01*
X174465078Y-88341005D01*
X174317244Y-88420023D01*
X174317241Y-88420024D01*
X174317239Y-88420025D01*
X174156825Y-88468686D01*
X174156824Y-88468686D01*
X174156821Y-88468687D01*
X174031804Y-88481000D01*
X173948196Y-88481000D01*
X173823179Y-88468687D01*
X173823176Y-88468686D01*
X173823175Y-88468686D01*
X173662761Y-88420025D01*
X173662759Y-88420024D01*
X173662756Y-88420023D01*
X173514922Y-88341005D01*
X173385341Y-88234659D01*
X173278995Y-88105078D01*
X173199977Y-87957244D01*
X173151313Y-87796821D01*
X173134883Y-87630000D01*
X173151313Y-87463179D01*
X173199977Y-87302756D01*
X173278995Y-87154922D01*
X173385341Y-87025341D01*
X173514922Y-86918995D01*
X173662756Y-86839977D01*
X173662759Y-86839976D01*
X173662761Y-86839975D01*
X173823175Y-86791314D01*
X173823176Y-86791314D01*
X173823179Y-86791313D01*
X173948196Y-86779000D01*
X174031804Y-86779000D01*
X174156821Y-86791313D01*
X174156821Y-86791313D01*
G37*
G36*
X134151821Y-84251313D02*
X134151824Y-84251314D01*
X134151825Y-84251314D01*
X134312239Y-84299975D01*
X134312241Y-84299976D01*
X134312244Y-84299977D01*
X134460078Y-84378995D01*
X134589659Y-84485341D01*
X134696005Y-84614922D01*
X134775023Y-84762756D01*
X134775024Y-84762759D01*
X134775025Y-84762761D01*
X134823686Y-84923175D01*
X134823687Y-84923179D01*
X134840117Y-85090000D01*
X134823687Y-85256821D01*
X134823686Y-85256824D01*
X134823686Y-85256825D01*
X134798993Y-85338228D01*
X134775023Y-85417244D01*
X134696005Y-85565078D01*
X134589659Y-85694659D01*
X134460078Y-85801005D01*
X134312244Y-85880023D01*
X134312241Y-85880024D01*
X134312239Y-85880025D01*
X134151825Y-85928686D01*
X134151824Y-85928686D01*
X134151821Y-85928687D01*
X134026804Y-85941000D01*
X133943196Y-85941000D01*
X133818179Y-85928687D01*
X133818176Y-85928686D01*
X133818175Y-85928686D01*
X133657761Y-85880025D01*
X133657759Y-85880024D01*
X133657756Y-85880023D01*
X133509922Y-85801005D01*
X133380341Y-85694659D01*
X133273995Y-85565078D01*
X133194977Y-85417244D01*
X133171008Y-85338228D01*
X133146314Y-85256825D01*
X133146314Y-85256824D01*
X133146313Y-85256821D01*
X133129883Y-85090000D01*
X133146313Y-84923179D01*
X133146314Y-84923175D01*
X133194975Y-84762761D01*
X133194976Y-84762759D01*
X133194977Y-84762756D01*
X133273995Y-84614922D01*
X133380341Y-84485341D01*
X133509922Y-84378995D01*
X133657756Y-84299977D01*
X133657759Y-84299976D01*
X133657761Y-84299975D01*
X133818175Y-84251314D01*
X133818176Y-84251314D01*
X133818179Y-84251313D01*
X133943196Y-84239000D01*
X134026804Y-84239000D01*
X134151821Y-84251313D01*
X134151821Y-84251313D01*
G37*
G36*
X163361821Y-84251313D02*
X163361824Y-84251314D01*
X163361825Y-84251314D01*
X163522239Y-84299975D01*
X163522241Y-84299976D01*
X163522244Y-84299977D01*
X163670078Y-84378995D01*
X163799659Y-84485341D01*
X163906005Y-84614922D01*
X163985023Y-84762756D01*
X163985024Y-84762759D01*
X163985025Y-84762761D01*
X164033686Y-84923175D01*
X164033687Y-84923179D01*
X164050117Y-85090000D01*
X164033687Y-85256821D01*
X164033686Y-85256824D01*
X164033686Y-85256825D01*
X164008993Y-85338228D01*
X163985023Y-85417244D01*
X163906005Y-85565078D01*
X163799659Y-85694659D01*
X163670078Y-85801005D01*
X163522244Y-85880023D01*
X163522241Y-85880024D01*
X163522239Y-85880025D01*
X163361825Y-85928686D01*
X163361824Y-85928686D01*
X163361821Y-85928687D01*
X163236804Y-85941000D01*
X163153196Y-85941000D01*
X163028179Y-85928687D01*
X163028176Y-85928686D01*
X163028175Y-85928686D01*
X162867761Y-85880025D01*
X162867759Y-85880024D01*
X162867756Y-85880023D01*
X162719922Y-85801005D01*
X162590341Y-85694659D01*
X162483995Y-85565078D01*
X162404977Y-85417244D01*
X162381008Y-85338228D01*
X162356314Y-85256825D01*
X162356314Y-85256824D01*
X162356313Y-85256821D01*
X162339883Y-85090000D01*
X162356313Y-84923179D01*
X162356314Y-84923175D01*
X162404975Y-84762761D01*
X162404976Y-84762759D01*
X162404977Y-84762756D01*
X162483995Y-84614922D01*
X162590341Y-84485341D01*
X162719922Y-84378995D01*
X162867756Y-84299977D01*
X162867759Y-84299976D01*
X162867761Y-84299975D01*
X163028175Y-84251314D01*
X163028176Y-84251314D01*
X163028179Y-84251313D01*
X163153196Y-84239000D01*
X163236804Y-84239000D01*
X163361821Y-84251313D01*
X163361821Y-84251313D01*
G37*
G36*
X160821821Y-84251313D02*
X160821824Y-84251314D01*
X160821825Y-84251314D01*
X160982239Y-84299975D01*
X160982241Y-84299976D01*
X160982244Y-84299977D01*
X161130078Y-84378995D01*
X161259659Y-84485341D01*
X161366005Y-84614922D01*
X161445023Y-84762756D01*
X161445024Y-84762759D01*
X161445025Y-84762761D01*
X161493686Y-84923175D01*
X161493687Y-84923179D01*
X161510117Y-85090000D01*
X161493687Y-85256821D01*
X161493686Y-85256824D01*
X161493686Y-85256825D01*
X161468993Y-85338228D01*
X161445023Y-85417244D01*
X161366005Y-85565078D01*
X161259659Y-85694659D01*
X161130078Y-85801005D01*
X160982244Y-85880023D01*
X160982241Y-85880024D01*
X160982239Y-85880025D01*
X160821825Y-85928686D01*
X160821824Y-85928686D01*
X160821821Y-85928687D01*
X160696804Y-85941000D01*
X160613196Y-85941000D01*
X160488179Y-85928687D01*
X160488176Y-85928686D01*
X160488175Y-85928686D01*
X160327761Y-85880025D01*
X160327759Y-85880024D01*
X160327756Y-85880023D01*
X160179922Y-85801005D01*
X160050341Y-85694659D01*
X159943995Y-85565078D01*
X159864977Y-85417244D01*
X159841008Y-85338228D01*
X159816314Y-85256825D01*
X159816314Y-85256824D01*
X159816313Y-85256821D01*
X159799883Y-85090000D01*
X159816313Y-84923179D01*
X159816314Y-84923175D01*
X159864975Y-84762761D01*
X159864976Y-84762759D01*
X159864977Y-84762756D01*
X159943995Y-84614922D01*
X160050341Y-84485341D01*
X160179922Y-84378995D01*
X160327756Y-84299977D01*
X160327759Y-84299976D01*
X160327761Y-84299975D01*
X160488175Y-84251314D01*
X160488176Y-84251314D01*
X160488179Y-84251313D01*
X160613196Y-84239000D01*
X160696804Y-84239000D01*
X160821821Y-84251313D01*
X160821821Y-84251313D01*
G37*
G36*
X143676821Y-84251313D02*
X143676824Y-84251314D01*
X143676825Y-84251314D01*
X143837239Y-84299975D01*
X143837241Y-84299976D01*
X143837244Y-84299977D01*
X143985078Y-84378995D01*
X144114659Y-84485341D01*
X144221005Y-84614922D01*
X144300023Y-84762756D01*
X144300024Y-84762759D01*
X144300025Y-84762761D01*
X144348686Y-84923175D01*
X144348687Y-84923179D01*
X144365117Y-85090000D01*
X144348687Y-85256821D01*
X144348686Y-85256824D01*
X144348686Y-85256825D01*
X144323993Y-85338228D01*
X144300023Y-85417244D01*
X144221005Y-85565078D01*
X144114659Y-85694659D01*
X143985078Y-85801005D01*
X143837244Y-85880023D01*
X143837241Y-85880024D01*
X143837239Y-85880025D01*
X143676825Y-85928686D01*
X143676824Y-85928686D01*
X143676821Y-85928687D01*
X143551804Y-85941000D01*
X143468196Y-85941000D01*
X143343179Y-85928687D01*
X143343176Y-85928686D01*
X143343175Y-85928686D01*
X143182761Y-85880025D01*
X143182759Y-85880024D01*
X143182756Y-85880023D01*
X143034922Y-85801005D01*
X142905341Y-85694659D01*
X142798995Y-85565078D01*
X142719977Y-85417244D01*
X142696008Y-85338228D01*
X142671314Y-85256825D01*
X142671314Y-85256824D01*
X142671313Y-85256821D01*
X142654883Y-85090000D01*
X142671313Y-84923179D01*
X142671314Y-84923175D01*
X142719975Y-84762761D01*
X142719976Y-84762759D01*
X142719977Y-84762756D01*
X142798995Y-84614922D01*
X142905341Y-84485341D01*
X143034922Y-84378995D01*
X143182756Y-84299977D01*
X143182759Y-84299976D01*
X143182761Y-84299975D01*
X143343175Y-84251314D01*
X143343176Y-84251314D01*
X143343179Y-84251313D01*
X143468196Y-84239000D01*
X143551804Y-84239000D01*
X143676821Y-84251313D01*
X143676821Y-84251313D01*
G37*
G36*
X146851821Y-84251313D02*
X146851824Y-84251314D01*
X146851825Y-84251314D01*
X147012239Y-84299975D01*
X147012241Y-84299976D01*
X147012244Y-84299977D01*
X147160078Y-84378995D01*
X147289659Y-84485341D01*
X147396005Y-84614922D01*
X147475023Y-84762756D01*
X147475024Y-84762759D01*
X147475025Y-84762761D01*
X147523686Y-84923175D01*
X147523687Y-84923179D01*
X147540117Y-85090000D01*
X147523687Y-85256821D01*
X147523686Y-85256824D01*
X147523686Y-85256825D01*
X147498993Y-85338228D01*
X147475023Y-85417244D01*
X147396005Y-85565078D01*
X147289659Y-85694659D01*
X147160078Y-85801005D01*
X147012244Y-85880023D01*
X147012241Y-85880024D01*
X147012239Y-85880025D01*
X146851825Y-85928686D01*
X146851824Y-85928686D01*
X146851821Y-85928687D01*
X146726804Y-85941000D01*
X146643196Y-85941000D01*
X146518179Y-85928687D01*
X146518176Y-85928686D01*
X146518175Y-85928686D01*
X146357761Y-85880025D01*
X146357759Y-85880024D01*
X146357756Y-85880023D01*
X146209922Y-85801005D01*
X146080341Y-85694659D01*
X145973995Y-85565078D01*
X145894977Y-85417244D01*
X145871008Y-85338228D01*
X145846314Y-85256825D01*
X145846314Y-85256824D01*
X145846313Y-85256821D01*
X145829883Y-85090000D01*
X145846313Y-84923179D01*
X145846314Y-84923175D01*
X145894975Y-84762761D01*
X145894976Y-84762759D01*
X145894977Y-84762756D01*
X145973995Y-84614922D01*
X146080341Y-84485341D01*
X146209922Y-84378995D01*
X146357756Y-84299977D01*
X146357759Y-84299976D01*
X146357761Y-84299975D01*
X146518175Y-84251314D01*
X146518176Y-84251314D01*
X146518179Y-84251313D01*
X146643196Y-84239000D01*
X146726804Y-84239000D01*
X146851821Y-84251313D01*
X146851821Y-84251313D01*
G37*
G36*
X124626821Y-84251313D02*
X124626824Y-84251314D01*
X124626825Y-84251314D01*
X124787239Y-84299975D01*
X124787241Y-84299976D01*
X124787244Y-84299977D01*
X124935078Y-84378995D01*
X125064659Y-84485341D01*
X125171005Y-84614922D01*
X125250023Y-84762756D01*
X125250024Y-84762759D01*
X125250025Y-84762761D01*
X125298686Y-84923175D01*
X125298687Y-84923179D01*
X125315117Y-85090000D01*
X125298687Y-85256821D01*
X125298686Y-85256824D01*
X125298686Y-85256825D01*
X125273993Y-85338228D01*
X125250023Y-85417244D01*
X125171005Y-85565078D01*
X125064659Y-85694659D01*
X124935078Y-85801005D01*
X124787244Y-85880023D01*
X124787241Y-85880024D01*
X124787239Y-85880025D01*
X124626825Y-85928686D01*
X124626824Y-85928686D01*
X124626821Y-85928687D01*
X124501804Y-85941000D01*
X124418196Y-85941000D01*
X124293179Y-85928687D01*
X124293176Y-85928686D01*
X124293175Y-85928686D01*
X124132761Y-85880025D01*
X124132759Y-85880024D01*
X124132756Y-85880023D01*
X123984922Y-85801005D01*
X123855341Y-85694659D01*
X123748995Y-85565078D01*
X123669977Y-85417244D01*
X123646008Y-85338228D01*
X123621314Y-85256825D01*
X123621314Y-85256824D01*
X123621313Y-85256821D01*
X123604883Y-85090000D01*
X123621313Y-84923179D01*
X123621314Y-84923175D01*
X123669975Y-84762761D01*
X123669976Y-84762759D01*
X123669977Y-84762756D01*
X123748995Y-84614922D01*
X123855341Y-84485341D01*
X123984922Y-84378995D01*
X124132756Y-84299977D01*
X124132759Y-84299976D01*
X124132761Y-84299975D01*
X124293175Y-84251314D01*
X124293176Y-84251314D01*
X124293179Y-84251313D01*
X124418196Y-84239000D01*
X124501804Y-84239000D01*
X124626821Y-84251313D01*
X124626821Y-84251313D01*
G37*
G36*
X121533228Y-84271703D02*
X121688100Y-84335853D01*
X121827481Y-84428985D01*
X121946015Y-84547519D01*
X122039147Y-84686900D01*
X122103297Y-84841772D01*
X122136000Y-85006184D01*
X122136000Y-85173816D01*
X122103297Y-85338228D01*
X122039147Y-85493100D01*
X121946015Y-85632481D01*
X121827481Y-85751015D01*
X121688100Y-85844147D01*
X121533228Y-85908297D01*
X121368816Y-85941000D01*
X121201184Y-85941000D01*
X121036772Y-85908297D01*
X120881900Y-85844147D01*
X120742519Y-85751015D01*
X120623985Y-85632481D01*
X120530853Y-85493100D01*
X120466703Y-85338228D01*
X120434000Y-85173816D01*
X120434000Y-85006184D01*
X120466703Y-84841772D01*
X120530853Y-84686900D01*
X120623985Y-84547519D01*
X120742519Y-84428985D01*
X120881900Y-84335853D01*
X121036772Y-84271703D01*
X121201184Y-84239000D01*
X121368816Y-84239000D01*
X121533228Y-84271703D01*
X121533228Y-84271703D01*
G37*
G36*
X137326821Y-84251313D02*
X137326824Y-84251314D01*
X137326825Y-84251314D01*
X137487239Y-84299975D01*
X137487241Y-84299976D01*
X137487244Y-84299977D01*
X137635078Y-84378995D01*
X137764659Y-84485341D01*
X137871005Y-84614922D01*
X137950023Y-84762756D01*
X137950024Y-84762759D01*
X137950025Y-84762761D01*
X137998686Y-84923175D01*
X137998687Y-84923179D01*
X138015117Y-85090000D01*
X137998687Y-85256821D01*
X137998686Y-85256824D01*
X137998686Y-85256825D01*
X137973993Y-85338228D01*
X137950023Y-85417244D01*
X137871005Y-85565078D01*
X137764659Y-85694659D01*
X137635078Y-85801005D01*
X137487244Y-85880023D01*
X137487241Y-85880024D01*
X137487239Y-85880025D01*
X137326825Y-85928686D01*
X137326824Y-85928686D01*
X137326821Y-85928687D01*
X137201804Y-85941000D01*
X137118196Y-85941000D01*
X136993179Y-85928687D01*
X136993176Y-85928686D01*
X136993175Y-85928686D01*
X136832761Y-85880025D01*
X136832759Y-85880024D01*
X136832756Y-85880023D01*
X136684922Y-85801005D01*
X136555341Y-85694659D01*
X136448995Y-85565078D01*
X136369977Y-85417244D01*
X136346008Y-85338228D01*
X136321314Y-85256825D01*
X136321314Y-85256824D01*
X136321313Y-85256821D01*
X136304883Y-85090000D01*
X136321313Y-84923179D01*
X136321314Y-84923175D01*
X136369975Y-84762761D01*
X136369976Y-84762759D01*
X136369977Y-84762756D01*
X136448995Y-84614922D01*
X136555341Y-84485341D01*
X136684922Y-84378995D01*
X136832756Y-84299977D01*
X136832759Y-84299976D01*
X136832761Y-84299975D01*
X136993175Y-84251314D01*
X136993176Y-84251314D01*
X136993179Y-84251313D01*
X137118196Y-84239000D01*
X137201804Y-84239000D01*
X137326821Y-84251313D01*
X137326821Y-84251313D01*
G37*
G36*
X130976821Y-84251313D02*
X130976824Y-84251314D01*
X130976825Y-84251314D01*
X131137239Y-84299975D01*
X131137241Y-84299976D01*
X131137244Y-84299977D01*
X131285078Y-84378995D01*
X131414659Y-84485341D01*
X131521005Y-84614922D01*
X131600023Y-84762756D01*
X131600024Y-84762759D01*
X131600025Y-84762761D01*
X131648686Y-84923175D01*
X131648687Y-84923179D01*
X131665117Y-85090000D01*
X131648687Y-85256821D01*
X131648686Y-85256824D01*
X131648686Y-85256825D01*
X131623993Y-85338228D01*
X131600023Y-85417244D01*
X131521005Y-85565078D01*
X131414659Y-85694659D01*
X131285078Y-85801005D01*
X131137244Y-85880023D01*
X131137241Y-85880024D01*
X131137239Y-85880025D01*
X130976825Y-85928686D01*
X130976824Y-85928686D01*
X130976821Y-85928687D01*
X130851804Y-85941000D01*
X130768196Y-85941000D01*
X130643179Y-85928687D01*
X130643176Y-85928686D01*
X130643175Y-85928686D01*
X130482761Y-85880025D01*
X130482759Y-85880024D01*
X130482756Y-85880023D01*
X130334922Y-85801005D01*
X130205341Y-85694659D01*
X130098995Y-85565078D01*
X130019977Y-85417244D01*
X129996008Y-85338228D01*
X129971314Y-85256825D01*
X129971314Y-85256824D01*
X129971313Y-85256821D01*
X129954883Y-85090000D01*
X129971313Y-84923179D01*
X129971314Y-84923175D01*
X130019975Y-84762761D01*
X130019976Y-84762759D01*
X130019977Y-84762756D01*
X130098995Y-84614922D01*
X130205341Y-84485341D01*
X130334922Y-84378995D01*
X130482756Y-84299977D01*
X130482759Y-84299976D01*
X130482761Y-84299975D01*
X130643175Y-84251314D01*
X130643176Y-84251314D01*
X130643179Y-84251313D01*
X130768196Y-84239000D01*
X130851804Y-84239000D01*
X130976821Y-84251313D01*
X130976821Y-84251313D01*
G37*
G36*
X153201821Y-84251313D02*
X153201824Y-84251314D01*
X153201825Y-84251314D01*
X153362239Y-84299975D01*
X153362241Y-84299976D01*
X153362244Y-84299977D01*
X153510078Y-84378995D01*
X153639659Y-84485341D01*
X153746005Y-84614922D01*
X153825023Y-84762756D01*
X153825024Y-84762759D01*
X153825025Y-84762761D01*
X153873686Y-84923175D01*
X153873687Y-84923179D01*
X153890117Y-85090000D01*
X153873687Y-85256821D01*
X153873686Y-85256824D01*
X153873686Y-85256825D01*
X153848993Y-85338228D01*
X153825023Y-85417244D01*
X153746005Y-85565078D01*
X153639659Y-85694659D01*
X153510078Y-85801005D01*
X153362244Y-85880023D01*
X153362241Y-85880024D01*
X153362239Y-85880025D01*
X153201825Y-85928686D01*
X153201824Y-85928686D01*
X153201821Y-85928687D01*
X153076804Y-85941000D01*
X152993196Y-85941000D01*
X152868179Y-85928687D01*
X152868176Y-85928686D01*
X152868175Y-85928686D01*
X152707761Y-85880025D01*
X152707759Y-85880024D01*
X152707756Y-85880023D01*
X152559922Y-85801005D01*
X152430341Y-85694659D01*
X152323995Y-85565078D01*
X152244977Y-85417244D01*
X152221008Y-85338228D01*
X152196314Y-85256825D01*
X152196314Y-85256824D01*
X152196313Y-85256821D01*
X152179883Y-85090000D01*
X152196313Y-84923179D01*
X152196314Y-84923175D01*
X152244975Y-84762761D01*
X152244976Y-84762759D01*
X152244977Y-84762756D01*
X152323995Y-84614922D01*
X152430341Y-84485341D01*
X152559922Y-84378995D01*
X152707756Y-84299977D01*
X152707759Y-84299976D01*
X152707761Y-84299975D01*
X152868175Y-84251314D01*
X152868176Y-84251314D01*
X152868179Y-84251313D01*
X152993196Y-84239000D01*
X153076804Y-84239000D01*
X153201821Y-84251313D01*
X153201821Y-84251313D01*
G37*
G36*
X150026821Y-84251313D02*
X150026824Y-84251314D01*
X150026825Y-84251314D01*
X150187239Y-84299975D01*
X150187241Y-84299976D01*
X150187244Y-84299977D01*
X150335078Y-84378995D01*
X150464659Y-84485341D01*
X150571005Y-84614922D01*
X150650023Y-84762756D01*
X150650024Y-84762759D01*
X150650025Y-84762761D01*
X150698686Y-84923175D01*
X150698687Y-84923179D01*
X150715117Y-85090000D01*
X150698687Y-85256821D01*
X150698686Y-85256824D01*
X150698686Y-85256825D01*
X150673993Y-85338228D01*
X150650023Y-85417244D01*
X150571005Y-85565078D01*
X150464659Y-85694659D01*
X150335078Y-85801005D01*
X150187244Y-85880023D01*
X150187241Y-85880024D01*
X150187239Y-85880025D01*
X150026825Y-85928686D01*
X150026824Y-85928686D01*
X150026821Y-85928687D01*
X149901804Y-85941000D01*
X149818196Y-85941000D01*
X149693179Y-85928687D01*
X149693176Y-85928686D01*
X149693175Y-85928686D01*
X149532761Y-85880025D01*
X149532759Y-85880024D01*
X149532756Y-85880023D01*
X149384922Y-85801005D01*
X149255341Y-85694659D01*
X149148995Y-85565078D01*
X149069977Y-85417244D01*
X149046008Y-85338228D01*
X149021314Y-85256825D01*
X149021314Y-85256824D01*
X149021313Y-85256821D01*
X149004883Y-85090000D01*
X149021313Y-84923179D01*
X149021314Y-84923175D01*
X149069975Y-84762761D01*
X149069976Y-84762759D01*
X149069977Y-84762756D01*
X149148995Y-84614922D01*
X149255341Y-84485341D01*
X149384922Y-84378995D01*
X149532756Y-84299977D01*
X149532759Y-84299976D01*
X149532761Y-84299975D01*
X149693175Y-84251314D01*
X149693176Y-84251314D01*
X149693179Y-84251313D01*
X149818196Y-84239000D01*
X149901804Y-84239000D01*
X150026821Y-84251313D01*
X150026821Y-84251313D01*
G37*
G36*
X156376821Y-84251313D02*
X156376824Y-84251314D01*
X156376825Y-84251314D01*
X156537239Y-84299975D01*
X156537241Y-84299976D01*
X156537244Y-84299977D01*
X156685078Y-84378995D01*
X156814659Y-84485341D01*
X156921005Y-84614922D01*
X157000023Y-84762756D01*
X157000024Y-84762759D01*
X157000025Y-84762761D01*
X157048686Y-84923175D01*
X157048687Y-84923179D01*
X157065117Y-85090000D01*
X157048687Y-85256821D01*
X157048686Y-85256824D01*
X157048686Y-85256825D01*
X157023993Y-85338228D01*
X157000023Y-85417244D01*
X156921005Y-85565078D01*
X156814659Y-85694659D01*
X156685078Y-85801005D01*
X156537244Y-85880023D01*
X156537241Y-85880024D01*
X156537239Y-85880025D01*
X156376825Y-85928686D01*
X156376824Y-85928686D01*
X156376821Y-85928687D01*
X156251804Y-85941000D01*
X156168196Y-85941000D01*
X156043179Y-85928687D01*
X156043176Y-85928686D01*
X156043175Y-85928686D01*
X155882761Y-85880025D01*
X155882759Y-85880024D01*
X155882756Y-85880023D01*
X155734922Y-85801005D01*
X155605341Y-85694659D01*
X155498995Y-85565078D01*
X155419977Y-85417244D01*
X155396008Y-85338228D01*
X155371314Y-85256825D01*
X155371314Y-85256824D01*
X155371313Y-85256821D01*
X155354883Y-85090000D01*
X155371313Y-84923179D01*
X155371314Y-84923175D01*
X155419975Y-84762761D01*
X155419976Y-84762759D01*
X155419977Y-84762756D01*
X155498995Y-84614922D01*
X155605341Y-84485341D01*
X155734922Y-84378995D01*
X155882756Y-84299977D01*
X155882759Y-84299976D01*
X155882761Y-84299975D01*
X156043175Y-84251314D01*
X156043176Y-84251314D01*
X156043179Y-84251313D01*
X156168196Y-84239000D01*
X156251804Y-84239000D01*
X156376821Y-84251313D01*
X156376821Y-84251313D01*
G37*
G36*
X127801821Y-84251313D02*
X127801824Y-84251314D01*
X127801825Y-84251314D01*
X127962239Y-84299975D01*
X127962241Y-84299976D01*
X127962244Y-84299977D01*
X128110078Y-84378995D01*
X128239659Y-84485341D01*
X128346005Y-84614922D01*
X128425023Y-84762756D01*
X128425024Y-84762759D01*
X128425025Y-84762761D01*
X128473686Y-84923175D01*
X128473687Y-84923179D01*
X128490117Y-85090000D01*
X128473687Y-85256821D01*
X128473686Y-85256824D01*
X128473686Y-85256825D01*
X128448993Y-85338228D01*
X128425023Y-85417244D01*
X128346005Y-85565078D01*
X128239659Y-85694659D01*
X128110078Y-85801005D01*
X127962244Y-85880023D01*
X127962241Y-85880024D01*
X127962239Y-85880025D01*
X127801825Y-85928686D01*
X127801824Y-85928686D01*
X127801821Y-85928687D01*
X127676804Y-85941000D01*
X127593196Y-85941000D01*
X127468179Y-85928687D01*
X127468176Y-85928686D01*
X127468175Y-85928686D01*
X127307761Y-85880025D01*
X127307759Y-85880024D01*
X127307756Y-85880023D01*
X127159922Y-85801005D01*
X127030341Y-85694659D01*
X126923995Y-85565078D01*
X126844977Y-85417244D01*
X126821008Y-85338228D01*
X126796314Y-85256825D01*
X126796314Y-85256824D01*
X126796313Y-85256821D01*
X126779883Y-85090000D01*
X126796313Y-84923179D01*
X126796314Y-84923175D01*
X126844975Y-84762761D01*
X126844976Y-84762759D01*
X126844977Y-84762756D01*
X126923995Y-84614922D01*
X127030341Y-84485341D01*
X127159922Y-84378995D01*
X127307756Y-84299977D01*
X127307759Y-84299976D01*
X127307761Y-84299975D01*
X127468175Y-84251314D01*
X127468176Y-84251314D01*
X127468179Y-84251313D01*
X127593196Y-84239000D01*
X127676804Y-84239000D01*
X127801821Y-84251313D01*
X127801821Y-84251313D01*
G37*
G36*
X140501821Y-84251313D02*
X140501824Y-84251314D01*
X140501825Y-84251314D01*
X140662239Y-84299975D01*
X140662241Y-84299976D01*
X140662244Y-84299977D01*
X140810078Y-84378995D01*
X140939659Y-84485341D01*
X141046005Y-84614922D01*
X141125023Y-84762756D01*
X141125024Y-84762759D01*
X141125025Y-84762761D01*
X141173686Y-84923175D01*
X141173687Y-84923179D01*
X141190117Y-85090000D01*
X141173687Y-85256821D01*
X141173686Y-85256824D01*
X141173686Y-85256825D01*
X141148993Y-85338228D01*
X141125023Y-85417244D01*
X141046005Y-85565078D01*
X140939659Y-85694659D01*
X140810078Y-85801005D01*
X140662244Y-85880023D01*
X140662241Y-85880024D01*
X140662239Y-85880025D01*
X140501825Y-85928686D01*
X140501824Y-85928686D01*
X140501821Y-85928687D01*
X140376804Y-85941000D01*
X140293196Y-85941000D01*
X140168179Y-85928687D01*
X140168176Y-85928686D01*
X140168175Y-85928686D01*
X140007761Y-85880025D01*
X140007759Y-85880024D01*
X140007756Y-85880023D01*
X139859922Y-85801005D01*
X139730341Y-85694659D01*
X139623995Y-85565078D01*
X139544977Y-85417244D01*
X139521008Y-85338228D01*
X139496314Y-85256825D01*
X139496314Y-85256824D01*
X139496313Y-85256821D01*
X139479883Y-85090000D01*
X139496313Y-84923179D01*
X139496314Y-84923175D01*
X139544975Y-84762761D01*
X139544976Y-84762759D01*
X139544977Y-84762756D01*
X139623995Y-84614922D01*
X139730341Y-84485341D01*
X139859922Y-84378995D01*
X140007756Y-84299977D01*
X140007759Y-84299976D01*
X140007761Y-84299975D01*
X140168175Y-84251314D01*
X140168176Y-84251314D01*
X140168179Y-84251313D01*
X140293196Y-84239000D01*
X140376804Y-84239000D01*
X140501821Y-84251313D01*
X140501821Y-84251313D01*
G37*
G36*
X169076000Y-83351000D02*
X167474000Y-83351000D01*
X167474000Y-81749000D01*
X169076000Y-81749000D01*
X169076000Y-83351000D01*
X169076000Y-83351000D01*
G37*
G36*
X173588643Y-81779781D02*
X173734415Y-81840162D01*
X173865611Y-81927824D01*
X173977176Y-82039389D01*
X174064838Y-82170585D01*
X174125219Y-82316357D01*
X174156000Y-82471107D01*
X174156000Y-82628893D01*
X174125219Y-82783643D01*
X174064838Y-82929415D01*
X173977176Y-83060611D01*
X173865611Y-83172176D01*
X173734415Y-83259838D01*
X173588643Y-83320219D01*
X173433893Y-83351000D01*
X173276107Y-83351000D01*
X173121357Y-83320219D01*
X172975585Y-83259838D01*
X172844389Y-83172176D01*
X172732824Y-83060611D01*
X172645162Y-82929415D01*
X172584781Y-82783643D01*
X172554000Y-82628893D01*
X172554000Y-82471107D01*
X172584781Y-82316357D01*
X172645162Y-82170585D01*
X172732824Y-82039389D01*
X172844389Y-81927824D01*
X172975585Y-81840162D01*
X173121357Y-81779781D01*
X173276107Y-81749000D01*
X173433893Y-81749000D01*
X173588643Y-81779781D01*
X173588643Y-81779781D01*
G37*
G36*
X171048643Y-81779781D02*
X171194415Y-81840162D01*
X171325611Y-81927824D01*
X171437176Y-82039389D01*
X171524838Y-82170585D01*
X171585219Y-82316357D01*
X171616000Y-82471107D01*
X171616000Y-82628893D01*
X171585219Y-82783643D01*
X171524838Y-82929415D01*
X171437176Y-83060611D01*
X171325611Y-83172176D01*
X171194415Y-83259838D01*
X171048643Y-83320219D01*
X170893893Y-83351000D01*
X170736107Y-83351000D01*
X170581357Y-83320219D01*
X170435585Y-83259838D01*
X170304389Y-83172176D01*
X170192824Y-83060611D01*
X170105162Y-82929415D01*
X170044781Y-82783643D01*
X170014000Y-82628893D01*
X170014000Y-82471107D01*
X170044781Y-82316357D01*
X170105162Y-82170585D01*
X170192824Y-82039389D01*
X170304389Y-81927824D01*
X170435585Y-81840162D01*
X170581357Y-81779781D01*
X170736107Y-81749000D01*
X170893893Y-81749000D01*
X171048643Y-81779781D01*
X171048643Y-81779781D01*
G37*
G36*
X140583228Y-76651703D02*
X140738100Y-76715853D01*
X140877481Y-76808985D01*
X140996015Y-76927519D01*
X141089147Y-77066900D01*
X141153297Y-77221772D01*
X141186000Y-77386184D01*
X141186000Y-77553816D01*
X141153297Y-77718228D01*
X141089147Y-77873100D01*
X140996015Y-78012481D01*
X140877481Y-78131015D01*
X140738100Y-78224147D01*
X140583228Y-78288297D01*
X140418816Y-78321000D01*
X140251184Y-78321000D01*
X140086772Y-78288297D01*
X139931900Y-78224147D01*
X139792519Y-78131015D01*
X139673985Y-78012481D01*
X139580853Y-77873100D01*
X139516703Y-77718228D01*
X139484000Y-77553816D01*
X139484000Y-77386184D01*
X139516703Y-77221772D01*
X139580853Y-77066900D01*
X139673985Y-76927519D01*
X139792519Y-76808985D01*
X139931900Y-76715853D01*
X140086772Y-76651703D01*
X140251184Y-76619000D01*
X140418816Y-76619000D01*
X140583228Y-76651703D01*
X140583228Y-76651703D01*
G37*
G36*
X146933228Y-76651703D02*
X147088100Y-76715853D01*
X147227481Y-76808985D01*
X147346015Y-76927519D01*
X147439147Y-77066900D01*
X147503297Y-77221772D01*
X147536000Y-77386184D01*
X147536000Y-77553816D01*
X147503297Y-77718228D01*
X147439147Y-77873100D01*
X147346015Y-78012481D01*
X147227481Y-78131015D01*
X147088100Y-78224147D01*
X146933228Y-78288297D01*
X146768816Y-78321000D01*
X146601184Y-78321000D01*
X146436772Y-78288297D01*
X146281900Y-78224147D01*
X146142519Y-78131015D01*
X146023985Y-78012481D01*
X145930853Y-77873100D01*
X145866703Y-77718228D01*
X145834000Y-77553816D01*
X145834000Y-77386184D01*
X145866703Y-77221772D01*
X145930853Y-77066900D01*
X146023985Y-76927519D01*
X146142519Y-76808985D01*
X146281900Y-76715853D01*
X146436772Y-76651703D01*
X146601184Y-76619000D01*
X146768816Y-76619000D01*
X146933228Y-76651703D01*
X146933228Y-76651703D01*
G37*
G36*
X143758228Y-76651703D02*
X143913100Y-76715853D01*
X144052481Y-76808985D01*
X144171015Y-76927519D01*
X144264147Y-77066900D01*
X144328297Y-77221772D01*
X144361000Y-77386184D01*
X144361000Y-77553816D01*
X144328297Y-77718228D01*
X144264147Y-77873100D01*
X144171015Y-78012481D01*
X144052481Y-78131015D01*
X143913100Y-78224147D01*
X143758228Y-78288297D01*
X143593816Y-78321000D01*
X143426184Y-78321000D01*
X143261772Y-78288297D01*
X143106900Y-78224147D01*
X142967519Y-78131015D01*
X142848985Y-78012481D01*
X142755853Y-77873100D01*
X142691703Y-77718228D01*
X142659000Y-77553816D01*
X142659000Y-77386184D01*
X142691703Y-77221772D01*
X142755853Y-77066900D01*
X142848985Y-76927519D01*
X142967519Y-76808985D01*
X143106900Y-76715853D01*
X143261772Y-76651703D01*
X143426184Y-76619000D01*
X143593816Y-76619000D01*
X143758228Y-76651703D01*
X143758228Y-76651703D01*
G37*
G36*
X137408228Y-76651703D02*
X137563100Y-76715853D01*
X137702481Y-76808985D01*
X137821015Y-76927519D01*
X137914147Y-77066900D01*
X137978297Y-77221772D01*
X138011000Y-77386184D01*
X138011000Y-77553816D01*
X137978297Y-77718228D01*
X137914147Y-77873100D01*
X137821015Y-78012481D01*
X137702481Y-78131015D01*
X137563100Y-78224147D01*
X137408228Y-78288297D01*
X137243816Y-78321000D01*
X137076184Y-78321000D01*
X136911772Y-78288297D01*
X136756900Y-78224147D01*
X136617519Y-78131015D01*
X136498985Y-78012481D01*
X136405853Y-77873100D01*
X136341703Y-77718228D01*
X136309000Y-77553816D01*
X136309000Y-77386184D01*
X136341703Y-77221772D01*
X136405853Y-77066900D01*
X136498985Y-76927519D01*
X136617519Y-76808985D01*
X136756900Y-76715853D01*
X136911772Y-76651703D01*
X137076184Y-76619000D01*
X137243816Y-76619000D01*
X137408228Y-76651703D01*
X137408228Y-76651703D01*
G37*
G36*
X134233228Y-76651703D02*
X134388100Y-76715853D01*
X134527481Y-76808985D01*
X134646015Y-76927519D01*
X134739147Y-77066900D01*
X134803297Y-77221772D01*
X134836000Y-77386184D01*
X134836000Y-77553816D01*
X134803297Y-77718228D01*
X134739147Y-77873100D01*
X134646015Y-78012481D01*
X134527481Y-78131015D01*
X134388100Y-78224147D01*
X134233228Y-78288297D01*
X134068816Y-78321000D01*
X133901184Y-78321000D01*
X133736772Y-78288297D01*
X133581900Y-78224147D01*
X133442519Y-78131015D01*
X133323985Y-78012481D01*
X133230853Y-77873100D01*
X133166703Y-77718228D01*
X133134000Y-77553816D01*
X133134000Y-77386184D01*
X133166703Y-77221772D01*
X133230853Y-77066900D01*
X133323985Y-76927519D01*
X133442519Y-76808985D01*
X133581900Y-76715853D01*
X133736772Y-76651703D01*
X133901184Y-76619000D01*
X134068816Y-76619000D01*
X134233228Y-76651703D01*
X134233228Y-76651703D01*
G37*
G36*
X127883228Y-76651703D02*
X128038100Y-76715853D01*
X128177481Y-76808985D01*
X128296015Y-76927519D01*
X128389147Y-77066900D01*
X128453297Y-77221772D01*
X128486000Y-77386184D01*
X128486000Y-77553816D01*
X128453297Y-77718228D01*
X128389147Y-77873100D01*
X128296015Y-78012481D01*
X128177481Y-78131015D01*
X128038100Y-78224147D01*
X127883228Y-78288297D01*
X127718816Y-78321000D01*
X127551184Y-78321000D01*
X127386772Y-78288297D01*
X127231900Y-78224147D01*
X127092519Y-78131015D01*
X126973985Y-78012481D01*
X126880853Y-77873100D01*
X126816703Y-77718228D01*
X126784000Y-77553816D01*
X126784000Y-77386184D01*
X126816703Y-77221772D01*
X126880853Y-77066900D01*
X126973985Y-76927519D01*
X127092519Y-76808985D01*
X127231900Y-76715853D01*
X127386772Y-76651703D01*
X127551184Y-76619000D01*
X127718816Y-76619000D01*
X127883228Y-76651703D01*
X127883228Y-76651703D01*
G37*
G36*
X124708228Y-76651703D02*
X124863100Y-76715853D01*
X125002481Y-76808985D01*
X125121015Y-76927519D01*
X125214147Y-77066900D01*
X125278297Y-77221772D01*
X125311000Y-77386184D01*
X125311000Y-77553816D01*
X125278297Y-77718228D01*
X125214147Y-77873100D01*
X125121015Y-78012481D01*
X125002481Y-78131015D01*
X124863100Y-78224147D01*
X124708228Y-78288297D01*
X124543816Y-78321000D01*
X124376184Y-78321000D01*
X124211772Y-78288297D01*
X124056900Y-78224147D01*
X123917519Y-78131015D01*
X123798985Y-78012481D01*
X123705853Y-77873100D01*
X123641703Y-77718228D01*
X123609000Y-77553816D01*
X123609000Y-77386184D01*
X123641703Y-77221772D01*
X123705853Y-77066900D01*
X123798985Y-76927519D01*
X123917519Y-76808985D01*
X124056900Y-76715853D01*
X124211772Y-76651703D01*
X124376184Y-76619000D01*
X124543816Y-76619000D01*
X124708228Y-76651703D01*
X124708228Y-76651703D01*
G37*
G36*
X121451821Y-76631313D02*
X121451824Y-76631314D01*
X121451825Y-76631314D01*
X121612239Y-76679975D01*
X121612241Y-76679976D01*
X121612244Y-76679977D01*
X121760078Y-76758995D01*
X121889659Y-76865341D01*
X121996005Y-76994922D01*
X122075023Y-77142756D01*
X122075024Y-77142759D01*
X122075025Y-77142761D01*
X122123686Y-77303175D01*
X122123687Y-77303179D01*
X122140117Y-77470000D01*
X122123687Y-77636821D01*
X122123686Y-77636824D01*
X122123686Y-77636825D01*
X122098993Y-77718228D01*
X122075023Y-77797244D01*
X121996005Y-77945078D01*
X121889659Y-78074659D01*
X121760078Y-78181005D01*
X121612244Y-78260023D01*
X121612241Y-78260024D01*
X121612239Y-78260025D01*
X121451825Y-78308686D01*
X121451824Y-78308686D01*
X121451821Y-78308687D01*
X121326804Y-78321000D01*
X121243196Y-78321000D01*
X121118179Y-78308687D01*
X121118176Y-78308686D01*
X121118175Y-78308686D01*
X120957761Y-78260025D01*
X120957759Y-78260024D01*
X120957756Y-78260023D01*
X120809922Y-78181005D01*
X120680341Y-78074659D01*
X120573995Y-77945078D01*
X120494977Y-77797244D01*
X120471008Y-77718228D01*
X120446314Y-77636825D01*
X120446314Y-77636824D01*
X120446313Y-77636821D01*
X120429883Y-77470000D01*
X120446313Y-77303179D01*
X120446314Y-77303175D01*
X120494975Y-77142761D01*
X120494976Y-77142759D01*
X120494977Y-77142756D01*
X120573995Y-76994922D01*
X120680341Y-76865341D01*
X120809922Y-76758995D01*
X120957756Y-76679977D01*
X120957759Y-76679976D01*
X120957761Y-76679975D01*
X121118175Y-76631314D01*
X121118176Y-76631314D01*
X121118179Y-76631313D01*
X121243196Y-76619000D01*
X121326804Y-76619000D01*
X121451821Y-76631313D01*
X121451821Y-76631313D01*
G37*
G36*
X131058228Y-76651703D02*
X131213100Y-76715853D01*
X131352481Y-76808985D01*
X131471015Y-76927519D01*
X131564147Y-77066900D01*
X131628297Y-77221772D01*
X131661000Y-77386184D01*
X131661000Y-77553816D01*
X131628297Y-77718228D01*
X131564147Y-77873100D01*
X131471015Y-78012481D01*
X131352481Y-78131015D01*
X131213100Y-78224147D01*
X131058228Y-78288297D01*
X130893816Y-78321000D01*
X130726184Y-78321000D01*
X130561772Y-78288297D01*
X130406900Y-78224147D01*
X130267519Y-78131015D01*
X130148985Y-78012481D01*
X130055853Y-77873100D01*
X129991703Y-77718228D01*
X129959000Y-77553816D01*
X129959000Y-77386184D01*
X129991703Y-77221772D01*
X130055853Y-77066900D01*
X130148985Y-76927519D01*
X130267519Y-76808985D01*
X130406900Y-76715853D01*
X130561772Y-76651703D01*
X130726184Y-76619000D01*
X130893816Y-76619000D01*
X131058228Y-76651703D01*
X131058228Y-76651703D01*
G37*
G36*
X150108228Y-76651703D02*
X150263100Y-76715853D01*
X150402481Y-76808985D01*
X150521015Y-76927519D01*
X150614147Y-77066900D01*
X150678297Y-77221772D01*
X150711000Y-77386184D01*
X150711000Y-77553816D01*
X150678297Y-77718228D01*
X150614147Y-77873100D01*
X150521015Y-78012481D01*
X150402481Y-78131015D01*
X150263100Y-78224147D01*
X150108228Y-78288297D01*
X149943816Y-78321000D01*
X149776184Y-78321000D01*
X149611772Y-78288297D01*
X149456900Y-78224147D01*
X149317519Y-78131015D01*
X149198985Y-78012481D01*
X149105853Y-77873100D01*
X149041703Y-77718228D01*
X149009000Y-77553816D01*
X149009000Y-77386184D01*
X149041703Y-77221772D01*
X149105853Y-77066900D01*
X149198985Y-76927519D01*
X149317519Y-76808985D01*
X149456900Y-76715853D01*
X149611772Y-76651703D01*
X149776184Y-76619000D01*
X149943816Y-76619000D01*
X150108228Y-76651703D01*
X150108228Y-76651703D01*
G37*
G36*
X153283228Y-76651703D02*
X153438100Y-76715853D01*
X153577481Y-76808985D01*
X153696015Y-76927519D01*
X153789147Y-77066900D01*
X153853297Y-77221772D01*
X153886000Y-77386184D01*
X153886000Y-77553816D01*
X153853297Y-77718228D01*
X153789147Y-77873100D01*
X153696015Y-78012481D01*
X153577481Y-78131015D01*
X153438100Y-78224147D01*
X153283228Y-78288297D01*
X153118816Y-78321000D01*
X152951184Y-78321000D01*
X152786772Y-78288297D01*
X152631900Y-78224147D01*
X152492519Y-78131015D01*
X152373985Y-78012481D01*
X152280853Y-77873100D01*
X152216703Y-77718228D01*
X152184000Y-77553816D01*
X152184000Y-77386184D01*
X152216703Y-77221772D01*
X152280853Y-77066900D01*
X152373985Y-76927519D01*
X152492519Y-76808985D01*
X152631900Y-76715853D01*
X152786772Y-76651703D01*
X152951184Y-76619000D01*
X153118816Y-76619000D01*
X153283228Y-76651703D01*
X153283228Y-76651703D01*
G37*
G36*
X160821821Y-76631313D02*
X160821824Y-76631314D01*
X160821825Y-76631314D01*
X160982239Y-76679975D01*
X160982241Y-76679976D01*
X160982244Y-76679977D01*
X161130078Y-76758995D01*
X161259659Y-76865341D01*
X161366005Y-76994922D01*
X161445023Y-77142756D01*
X161445024Y-77142759D01*
X161445025Y-77142761D01*
X161493686Y-77303175D01*
X161493687Y-77303179D01*
X161510117Y-77470000D01*
X161493687Y-77636821D01*
X161493686Y-77636824D01*
X161493686Y-77636825D01*
X161468993Y-77718228D01*
X161445023Y-77797244D01*
X161366005Y-77945078D01*
X161259659Y-78074659D01*
X161130078Y-78181005D01*
X160982244Y-78260023D01*
X160982241Y-78260024D01*
X160982239Y-78260025D01*
X160821825Y-78308686D01*
X160821824Y-78308686D01*
X160821821Y-78308687D01*
X160696804Y-78321000D01*
X160613196Y-78321000D01*
X160488179Y-78308687D01*
X160488176Y-78308686D01*
X160488175Y-78308686D01*
X160327761Y-78260025D01*
X160327759Y-78260024D01*
X160327756Y-78260023D01*
X160179922Y-78181005D01*
X160050341Y-78074659D01*
X159943995Y-77945078D01*
X159864977Y-77797244D01*
X159841008Y-77718228D01*
X159816314Y-77636825D01*
X159816314Y-77636824D01*
X159816313Y-77636821D01*
X159799883Y-77470000D01*
X159816313Y-77303179D01*
X159816314Y-77303175D01*
X159864975Y-77142761D01*
X159864976Y-77142759D01*
X159864977Y-77142756D01*
X159943995Y-76994922D01*
X160050341Y-76865341D01*
X160179922Y-76758995D01*
X160327756Y-76679977D01*
X160327759Y-76679976D01*
X160327761Y-76679975D01*
X160488175Y-76631314D01*
X160488176Y-76631314D01*
X160488179Y-76631313D01*
X160613196Y-76619000D01*
X160696804Y-76619000D01*
X160821821Y-76631313D01*
X160821821Y-76631313D01*
G37*
G36*
X164046000Y-78321000D02*
X162344000Y-78321000D01*
X162344000Y-76619000D01*
X164046000Y-76619000D01*
X164046000Y-78321000D01*
X164046000Y-78321000D01*
G37*
G36*
X156458228Y-76651703D02*
X156613100Y-76715853D01*
X156752481Y-76808985D01*
X156871015Y-76927519D01*
X156964147Y-77066900D01*
X157028297Y-77221772D01*
X157061000Y-77386184D01*
X157061000Y-77553816D01*
X157028297Y-77718228D01*
X156964147Y-77873100D01*
X156871015Y-78012481D01*
X156752481Y-78131015D01*
X156613100Y-78224147D01*
X156458228Y-78288297D01*
X156293816Y-78321000D01*
X156126184Y-78321000D01*
X155961772Y-78288297D01*
X155806900Y-78224147D01*
X155667519Y-78131015D01*
X155548985Y-78012481D01*
X155455853Y-77873100D01*
X155391703Y-77718228D01*
X155359000Y-77553816D01*
X155359000Y-77386184D01*
X155391703Y-77221772D01*
X155455853Y-77066900D01*
X155548985Y-76927519D01*
X155667519Y-76808985D01*
X155806900Y-76715853D01*
X155961772Y-76651703D01*
X156126184Y-76619000D01*
X156293816Y-76619000D01*
X156458228Y-76651703D01*
X156458228Y-76651703D01*
G37*
G36*
X122030442Y-69590518D02*
X122096627Y-69597037D01*
X122209853Y-69631384D01*
X122266467Y-69648557D01*
X122353311Y-69694977D01*
X122422991Y-69732222D01*
X122458729Y-69761552D01*
X122560186Y-69844814D01*
X122640369Y-69942519D01*
X122672778Y-69982009D01*
X122672779Y-69982011D01*
X122756443Y-70138533D01*
X122773616Y-70195147D01*
X122807963Y-70308373D01*
X122825359Y-70485000D01*
X122807963Y-70661627D01*
X122786243Y-70733228D01*
X122756443Y-70831467D01*
X122687698Y-70960078D01*
X122672778Y-70987991D01*
X122643448Y-71023729D01*
X122560186Y-71125186D01*
X122458729Y-71208448D01*
X122422991Y-71237778D01*
X122422989Y-71237779D01*
X122266467Y-71321443D01*
X122259069Y-71323687D01*
X122096627Y-71372963D01*
X122030442Y-71379482D01*
X121964260Y-71386000D01*
X121875740Y-71386000D01*
X121809558Y-71379482D01*
X121743373Y-71372963D01*
X121580931Y-71323687D01*
X121573533Y-71321443D01*
X121417011Y-71237779D01*
X121417009Y-71237778D01*
X121381271Y-71208448D01*
X121279814Y-71125186D01*
X121196552Y-71023729D01*
X121167222Y-70987991D01*
X121152302Y-70960078D01*
X121083557Y-70831467D01*
X121053757Y-70733228D01*
X121032037Y-70661627D01*
X121014641Y-70485000D01*
X121032037Y-70308373D01*
X121066384Y-70195147D01*
X121083557Y-70138533D01*
X121167221Y-69982011D01*
X121167222Y-69982009D01*
X121199631Y-69942519D01*
X121279814Y-69844814D01*
X121381271Y-69761552D01*
X121417009Y-69732222D01*
X121486689Y-69694977D01*
X121573533Y-69648557D01*
X121630147Y-69631384D01*
X121743373Y-69597037D01*
X121809558Y-69590518D01*
X121875740Y-69584000D01*
X121964260Y-69584000D01*
X122030442Y-69590518D01*
X122030442Y-69590518D01*
G37*
G36*
X116950442Y-69590518D02*
X117016627Y-69597037D01*
X117129853Y-69631384D01*
X117186467Y-69648557D01*
X117273311Y-69694977D01*
X117342991Y-69732222D01*
X117378729Y-69761552D01*
X117480186Y-69844814D01*
X117560369Y-69942519D01*
X117592778Y-69982009D01*
X117592779Y-69982011D01*
X117676443Y-70138533D01*
X117693616Y-70195147D01*
X117727963Y-70308373D01*
X117745359Y-70485000D01*
X117727963Y-70661627D01*
X117706243Y-70733228D01*
X117676443Y-70831467D01*
X117607698Y-70960078D01*
X117592778Y-70987991D01*
X117563448Y-71023729D01*
X117480186Y-71125186D01*
X117378729Y-71208448D01*
X117342991Y-71237778D01*
X117342989Y-71237779D01*
X117186467Y-71321443D01*
X117179069Y-71323687D01*
X117016627Y-71372963D01*
X116950442Y-71379482D01*
X116884260Y-71386000D01*
X116795740Y-71386000D01*
X116729558Y-71379482D01*
X116663373Y-71372963D01*
X116500931Y-71323687D01*
X116493533Y-71321443D01*
X116337011Y-71237779D01*
X116337009Y-71237778D01*
X116301271Y-71208448D01*
X116199814Y-71125186D01*
X116116552Y-71023729D01*
X116087222Y-70987991D01*
X116072302Y-70960078D01*
X116003557Y-70831467D01*
X115973757Y-70733228D01*
X115952037Y-70661627D01*
X115934641Y-70485000D01*
X115952037Y-70308373D01*
X115986384Y-70195147D01*
X116003557Y-70138533D01*
X116087221Y-69982011D01*
X116087222Y-69982009D01*
X116119631Y-69942519D01*
X116199814Y-69844814D01*
X116301271Y-69761552D01*
X116337009Y-69732222D01*
X116406689Y-69694977D01*
X116493533Y-69648557D01*
X116550147Y-69631384D01*
X116663373Y-69597037D01*
X116729558Y-69590518D01*
X116795740Y-69584000D01*
X116884260Y-69584000D01*
X116950442Y-69590518D01*
X116950442Y-69590518D01*
G37*
G36*
X112661000Y-71386000D02*
X110859000Y-71386000D01*
X110859000Y-69584000D01*
X112661000Y-69584000D01*
X112661000Y-71386000D01*
X112661000Y-71386000D01*
G37*
G36*
X114410442Y-69590518D02*
X114476627Y-69597037D01*
X114589853Y-69631384D01*
X114646467Y-69648557D01*
X114733311Y-69694977D01*
X114802991Y-69732222D01*
X114838729Y-69761552D01*
X114940186Y-69844814D01*
X115020369Y-69942519D01*
X115052778Y-69982009D01*
X115052779Y-69982011D01*
X115136443Y-70138533D01*
X115153616Y-70195147D01*
X115187963Y-70308373D01*
X115205359Y-70485000D01*
X115187963Y-70661627D01*
X115166243Y-70733228D01*
X115136443Y-70831467D01*
X115067698Y-70960078D01*
X115052778Y-70987991D01*
X115023448Y-71023729D01*
X114940186Y-71125186D01*
X114838729Y-71208448D01*
X114802991Y-71237778D01*
X114802989Y-71237779D01*
X114646467Y-71321443D01*
X114639069Y-71323687D01*
X114476627Y-71372963D01*
X114410442Y-71379482D01*
X114344260Y-71386000D01*
X114255740Y-71386000D01*
X114189558Y-71379482D01*
X114123373Y-71372963D01*
X113960931Y-71323687D01*
X113953533Y-71321443D01*
X113797011Y-71237779D01*
X113797009Y-71237778D01*
X113761271Y-71208448D01*
X113659814Y-71125186D01*
X113576552Y-71023729D01*
X113547222Y-70987991D01*
X113532302Y-70960078D01*
X113463557Y-70831467D01*
X113433757Y-70733228D01*
X113412037Y-70661627D01*
X113394641Y-70485000D01*
X113412037Y-70308373D01*
X113446384Y-70195147D01*
X113463557Y-70138533D01*
X113547221Y-69982011D01*
X113547222Y-69982009D01*
X113579631Y-69942519D01*
X113659814Y-69844814D01*
X113761271Y-69761552D01*
X113797009Y-69732222D01*
X113866689Y-69694977D01*
X113953533Y-69648557D01*
X114010147Y-69631384D01*
X114123373Y-69597037D01*
X114189558Y-69590518D01*
X114255740Y-69584000D01*
X114344260Y-69584000D01*
X114410442Y-69590518D01*
X114410442Y-69590518D01*
G37*
G36*
X149970442Y-69590518D02*
X150036627Y-69597037D01*
X150149853Y-69631384D01*
X150206467Y-69648557D01*
X150293311Y-69694977D01*
X150362991Y-69732222D01*
X150398729Y-69761552D01*
X150500186Y-69844814D01*
X150580369Y-69942519D01*
X150612778Y-69982009D01*
X150612779Y-69982011D01*
X150696443Y-70138533D01*
X150713616Y-70195147D01*
X150747963Y-70308373D01*
X150765359Y-70485000D01*
X150747963Y-70661627D01*
X150726243Y-70733228D01*
X150696443Y-70831467D01*
X150627698Y-70960078D01*
X150612778Y-70987991D01*
X150583448Y-71023729D01*
X150500186Y-71125186D01*
X150398729Y-71208448D01*
X150362991Y-71237778D01*
X150362989Y-71237779D01*
X150206467Y-71321443D01*
X150199069Y-71323687D01*
X150036627Y-71372963D01*
X149970442Y-71379482D01*
X149904260Y-71386000D01*
X149815740Y-71386000D01*
X149749558Y-71379482D01*
X149683373Y-71372963D01*
X149520931Y-71323687D01*
X149513533Y-71321443D01*
X149357011Y-71237779D01*
X149357009Y-71237778D01*
X149321271Y-71208448D01*
X149219814Y-71125186D01*
X149136552Y-71023729D01*
X149107222Y-70987991D01*
X149092302Y-70960078D01*
X149023557Y-70831467D01*
X148993757Y-70733228D01*
X148972037Y-70661627D01*
X148954641Y-70485000D01*
X148972037Y-70308373D01*
X149006384Y-70195147D01*
X149023557Y-70138533D01*
X149107221Y-69982011D01*
X149107222Y-69982009D01*
X149139631Y-69942519D01*
X149219814Y-69844814D01*
X149321271Y-69761552D01*
X149357009Y-69732222D01*
X149426689Y-69694977D01*
X149513533Y-69648557D01*
X149570147Y-69631384D01*
X149683373Y-69597037D01*
X149749558Y-69590518D01*
X149815740Y-69584000D01*
X149904260Y-69584000D01*
X149970442Y-69590518D01*
X149970442Y-69590518D01*
G37*
G36*
X147430442Y-69590518D02*
X147496627Y-69597037D01*
X147609853Y-69631384D01*
X147666467Y-69648557D01*
X147753311Y-69694977D01*
X147822991Y-69732222D01*
X147858729Y-69761552D01*
X147960186Y-69844814D01*
X148040369Y-69942519D01*
X148072778Y-69982009D01*
X148072779Y-69982011D01*
X148156443Y-70138533D01*
X148173616Y-70195147D01*
X148207963Y-70308373D01*
X148225359Y-70485000D01*
X148207963Y-70661627D01*
X148186243Y-70733228D01*
X148156443Y-70831467D01*
X148087698Y-70960078D01*
X148072778Y-70987991D01*
X148043448Y-71023729D01*
X147960186Y-71125186D01*
X147858729Y-71208448D01*
X147822991Y-71237778D01*
X147822989Y-71237779D01*
X147666467Y-71321443D01*
X147659069Y-71323687D01*
X147496627Y-71372963D01*
X147430442Y-71379482D01*
X147364260Y-71386000D01*
X147275740Y-71386000D01*
X147209558Y-71379482D01*
X147143373Y-71372963D01*
X146980931Y-71323687D01*
X146973533Y-71321443D01*
X146817011Y-71237779D01*
X146817009Y-71237778D01*
X146781271Y-71208448D01*
X146679814Y-71125186D01*
X146596552Y-71023729D01*
X146567222Y-70987991D01*
X146552302Y-70960078D01*
X146483557Y-70831467D01*
X146453757Y-70733228D01*
X146432037Y-70661627D01*
X146414641Y-70485000D01*
X146432037Y-70308373D01*
X146466384Y-70195147D01*
X146483557Y-70138533D01*
X146567221Y-69982011D01*
X146567222Y-69982009D01*
X146599631Y-69942519D01*
X146679814Y-69844814D01*
X146781271Y-69761552D01*
X146817009Y-69732222D01*
X146886689Y-69694977D01*
X146973533Y-69648557D01*
X147030147Y-69631384D01*
X147143373Y-69597037D01*
X147209558Y-69590518D01*
X147275740Y-69584000D01*
X147364260Y-69584000D01*
X147430442Y-69590518D01*
X147430442Y-69590518D01*
G37*
G36*
X144890442Y-69590518D02*
X144956627Y-69597037D01*
X145069853Y-69631384D01*
X145126467Y-69648557D01*
X145213311Y-69694977D01*
X145282991Y-69732222D01*
X145318729Y-69761552D01*
X145420186Y-69844814D01*
X145500369Y-69942519D01*
X145532778Y-69982009D01*
X145532779Y-69982011D01*
X145616443Y-70138533D01*
X145633616Y-70195147D01*
X145667963Y-70308373D01*
X145685359Y-70485000D01*
X145667963Y-70661627D01*
X145646243Y-70733228D01*
X145616443Y-70831467D01*
X145547698Y-70960078D01*
X145532778Y-70987991D01*
X145503448Y-71023729D01*
X145420186Y-71125186D01*
X145318729Y-71208448D01*
X145282991Y-71237778D01*
X145282989Y-71237779D01*
X145126467Y-71321443D01*
X145119069Y-71323687D01*
X144956627Y-71372963D01*
X144890442Y-71379482D01*
X144824260Y-71386000D01*
X144735740Y-71386000D01*
X144669558Y-71379482D01*
X144603373Y-71372963D01*
X144440931Y-71323687D01*
X144433533Y-71321443D01*
X144277011Y-71237779D01*
X144277009Y-71237778D01*
X144241271Y-71208448D01*
X144139814Y-71125186D01*
X144056552Y-71023729D01*
X144027222Y-70987991D01*
X144012302Y-70960078D01*
X143943557Y-70831467D01*
X143913757Y-70733228D01*
X143892037Y-70661627D01*
X143874641Y-70485000D01*
X143892037Y-70308373D01*
X143926384Y-70195147D01*
X143943557Y-70138533D01*
X144027221Y-69982011D01*
X144027222Y-69982009D01*
X144059631Y-69942519D01*
X144139814Y-69844814D01*
X144241271Y-69761552D01*
X144277009Y-69732222D01*
X144346689Y-69694977D01*
X144433533Y-69648557D01*
X144490147Y-69631384D01*
X144603373Y-69597037D01*
X144669558Y-69590518D01*
X144735740Y-69584000D01*
X144824260Y-69584000D01*
X144890442Y-69590518D01*
X144890442Y-69590518D01*
G37*
G36*
X142350442Y-69590518D02*
X142416627Y-69597037D01*
X142529853Y-69631384D01*
X142586467Y-69648557D01*
X142673311Y-69694977D01*
X142742991Y-69732222D01*
X142778729Y-69761552D01*
X142880186Y-69844814D01*
X142960369Y-69942519D01*
X142992778Y-69982009D01*
X142992779Y-69982011D01*
X143076443Y-70138533D01*
X143093616Y-70195147D01*
X143127963Y-70308373D01*
X143145359Y-70485000D01*
X143127963Y-70661627D01*
X143106243Y-70733228D01*
X143076443Y-70831467D01*
X143007698Y-70960078D01*
X142992778Y-70987991D01*
X142963448Y-71023729D01*
X142880186Y-71125186D01*
X142778729Y-71208448D01*
X142742991Y-71237778D01*
X142742989Y-71237779D01*
X142586467Y-71321443D01*
X142579069Y-71323687D01*
X142416627Y-71372963D01*
X142350442Y-71379482D01*
X142284260Y-71386000D01*
X142195740Y-71386000D01*
X142129558Y-71379482D01*
X142063373Y-71372963D01*
X141900931Y-71323687D01*
X141893533Y-71321443D01*
X141737011Y-71237779D01*
X141737009Y-71237778D01*
X141701271Y-71208448D01*
X141599814Y-71125186D01*
X141516552Y-71023729D01*
X141487222Y-70987991D01*
X141472302Y-70960078D01*
X141403557Y-70831467D01*
X141373757Y-70733228D01*
X141352037Y-70661627D01*
X141334641Y-70485000D01*
X141352037Y-70308373D01*
X141386384Y-70195147D01*
X141403557Y-70138533D01*
X141487221Y-69982011D01*
X141487222Y-69982009D01*
X141519631Y-69942519D01*
X141599814Y-69844814D01*
X141701271Y-69761552D01*
X141737009Y-69732222D01*
X141806689Y-69694977D01*
X141893533Y-69648557D01*
X141950147Y-69631384D01*
X142063373Y-69597037D01*
X142129558Y-69590518D01*
X142195740Y-69584000D01*
X142284260Y-69584000D01*
X142350442Y-69590518D01*
X142350442Y-69590518D01*
G37*
G36*
X137270442Y-69590518D02*
X137336627Y-69597037D01*
X137449853Y-69631384D01*
X137506467Y-69648557D01*
X137593311Y-69694977D01*
X137662991Y-69732222D01*
X137698729Y-69761552D01*
X137800186Y-69844814D01*
X137880369Y-69942519D01*
X137912778Y-69982009D01*
X137912779Y-69982011D01*
X137996443Y-70138533D01*
X138013616Y-70195147D01*
X138047963Y-70308373D01*
X138065359Y-70485000D01*
X138047963Y-70661627D01*
X138026243Y-70733228D01*
X137996443Y-70831467D01*
X137927698Y-70960078D01*
X137912778Y-70987991D01*
X137883448Y-71023729D01*
X137800186Y-71125186D01*
X137698729Y-71208448D01*
X137662991Y-71237778D01*
X137662989Y-71237779D01*
X137506467Y-71321443D01*
X137499069Y-71323687D01*
X137336627Y-71372963D01*
X137270442Y-71379482D01*
X137204260Y-71386000D01*
X137115740Y-71386000D01*
X137049558Y-71379482D01*
X136983373Y-71372963D01*
X136820931Y-71323687D01*
X136813533Y-71321443D01*
X136657011Y-71237779D01*
X136657009Y-71237778D01*
X136621271Y-71208448D01*
X136519814Y-71125186D01*
X136436552Y-71023729D01*
X136407222Y-70987991D01*
X136392302Y-70960078D01*
X136323557Y-70831467D01*
X136293757Y-70733228D01*
X136272037Y-70661627D01*
X136254641Y-70485000D01*
X136272037Y-70308373D01*
X136306384Y-70195147D01*
X136323557Y-70138533D01*
X136407221Y-69982011D01*
X136407222Y-69982009D01*
X136439631Y-69942519D01*
X136519814Y-69844814D01*
X136621271Y-69761552D01*
X136657009Y-69732222D01*
X136726689Y-69694977D01*
X136813533Y-69648557D01*
X136870147Y-69631384D01*
X136983373Y-69597037D01*
X137049558Y-69590518D01*
X137115740Y-69584000D01*
X137204260Y-69584000D01*
X137270442Y-69590518D01*
X137270442Y-69590518D01*
G37*
G36*
X134730442Y-69590518D02*
X134796627Y-69597037D01*
X134909853Y-69631384D01*
X134966467Y-69648557D01*
X135053311Y-69694977D01*
X135122991Y-69732222D01*
X135158729Y-69761552D01*
X135260186Y-69844814D01*
X135340369Y-69942519D01*
X135372778Y-69982009D01*
X135372779Y-69982011D01*
X135456443Y-70138533D01*
X135473616Y-70195147D01*
X135507963Y-70308373D01*
X135525359Y-70485000D01*
X135507963Y-70661627D01*
X135486243Y-70733228D01*
X135456443Y-70831467D01*
X135387698Y-70960078D01*
X135372778Y-70987991D01*
X135343448Y-71023729D01*
X135260186Y-71125186D01*
X135158729Y-71208448D01*
X135122991Y-71237778D01*
X135122989Y-71237779D01*
X134966467Y-71321443D01*
X134959069Y-71323687D01*
X134796627Y-71372963D01*
X134730442Y-71379482D01*
X134664260Y-71386000D01*
X134575740Y-71386000D01*
X134509558Y-71379482D01*
X134443373Y-71372963D01*
X134280931Y-71323687D01*
X134273533Y-71321443D01*
X134117011Y-71237779D01*
X134117009Y-71237778D01*
X134081271Y-71208448D01*
X133979814Y-71125186D01*
X133896552Y-71023729D01*
X133867222Y-70987991D01*
X133852302Y-70960078D01*
X133783557Y-70831467D01*
X133753757Y-70733228D01*
X133732037Y-70661627D01*
X133714641Y-70485000D01*
X133732037Y-70308373D01*
X133766384Y-70195147D01*
X133783557Y-70138533D01*
X133867221Y-69982011D01*
X133867222Y-69982009D01*
X133899631Y-69942519D01*
X133979814Y-69844814D01*
X134081271Y-69761552D01*
X134117009Y-69732222D01*
X134186689Y-69694977D01*
X134273533Y-69648557D01*
X134330147Y-69631384D01*
X134443373Y-69597037D01*
X134509558Y-69590518D01*
X134575740Y-69584000D01*
X134664260Y-69584000D01*
X134730442Y-69590518D01*
X134730442Y-69590518D01*
G37*
G36*
X132190442Y-69590518D02*
X132256627Y-69597037D01*
X132369853Y-69631384D01*
X132426467Y-69648557D01*
X132513311Y-69694977D01*
X132582991Y-69732222D01*
X132618729Y-69761552D01*
X132720186Y-69844814D01*
X132800369Y-69942519D01*
X132832778Y-69982009D01*
X132832779Y-69982011D01*
X132916443Y-70138533D01*
X132933616Y-70195147D01*
X132967963Y-70308373D01*
X132985359Y-70485000D01*
X132967963Y-70661627D01*
X132946243Y-70733228D01*
X132916443Y-70831467D01*
X132847698Y-70960078D01*
X132832778Y-70987991D01*
X132803448Y-71023729D01*
X132720186Y-71125186D01*
X132618729Y-71208448D01*
X132582991Y-71237778D01*
X132582989Y-71237779D01*
X132426467Y-71321443D01*
X132419069Y-71323687D01*
X132256627Y-71372963D01*
X132190442Y-71379482D01*
X132124260Y-71386000D01*
X132035740Y-71386000D01*
X131969558Y-71379482D01*
X131903373Y-71372963D01*
X131740931Y-71323687D01*
X131733533Y-71321443D01*
X131577011Y-71237779D01*
X131577009Y-71237778D01*
X131541271Y-71208448D01*
X131439814Y-71125186D01*
X131356552Y-71023729D01*
X131327222Y-70987991D01*
X131312302Y-70960078D01*
X131243557Y-70831467D01*
X131213757Y-70733228D01*
X131192037Y-70661627D01*
X131174641Y-70485000D01*
X131192037Y-70308373D01*
X131226384Y-70195147D01*
X131243557Y-70138533D01*
X131327221Y-69982011D01*
X131327222Y-69982009D01*
X131359631Y-69942519D01*
X131439814Y-69844814D01*
X131541271Y-69761552D01*
X131577009Y-69732222D01*
X131646689Y-69694977D01*
X131733533Y-69648557D01*
X131790147Y-69631384D01*
X131903373Y-69597037D01*
X131969558Y-69590518D01*
X132035740Y-69584000D01*
X132124260Y-69584000D01*
X132190442Y-69590518D01*
X132190442Y-69590518D01*
G37*
G36*
X129650442Y-69590518D02*
X129716627Y-69597037D01*
X129829853Y-69631384D01*
X129886467Y-69648557D01*
X129973311Y-69694977D01*
X130042991Y-69732222D01*
X130078729Y-69761552D01*
X130180186Y-69844814D01*
X130260369Y-69942519D01*
X130292778Y-69982009D01*
X130292779Y-69982011D01*
X130376443Y-70138533D01*
X130393616Y-70195147D01*
X130427963Y-70308373D01*
X130445359Y-70485000D01*
X130427963Y-70661627D01*
X130406243Y-70733228D01*
X130376443Y-70831467D01*
X130307698Y-70960078D01*
X130292778Y-70987991D01*
X130263448Y-71023729D01*
X130180186Y-71125186D01*
X130078729Y-71208448D01*
X130042991Y-71237778D01*
X130042989Y-71237779D01*
X129886467Y-71321443D01*
X129879069Y-71323687D01*
X129716627Y-71372963D01*
X129650442Y-71379482D01*
X129584260Y-71386000D01*
X129495740Y-71386000D01*
X129429558Y-71379482D01*
X129363373Y-71372963D01*
X129200931Y-71323687D01*
X129193533Y-71321443D01*
X129037011Y-71237779D01*
X129037009Y-71237778D01*
X129001271Y-71208448D01*
X128899814Y-71125186D01*
X128816552Y-71023729D01*
X128787222Y-70987991D01*
X128772302Y-70960078D01*
X128703557Y-70831467D01*
X128673757Y-70733228D01*
X128652037Y-70661627D01*
X128634641Y-70485000D01*
X128652037Y-70308373D01*
X128686384Y-70195147D01*
X128703557Y-70138533D01*
X128787221Y-69982011D01*
X128787222Y-69982009D01*
X128819631Y-69942519D01*
X128899814Y-69844814D01*
X129001271Y-69761552D01*
X129037009Y-69732222D01*
X129106689Y-69694977D01*
X129193533Y-69648557D01*
X129250147Y-69631384D01*
X129363373Y-69597037D01*
X129429558Y-69590518D01*
X129495740Y-69584000D01*
X129584260Y-69584000D01*
X129650442Y-69590518D01*
X129650442Y-69590518D01*
G37*
G36*
X127110442Y-69590518D02*
X127176627Y-69597037D01*
X127289853Y-69631384D01*
X127346467Y-69648557D01*
X127433311Y-69694977D01*
X127502991Y-69732222D01*
X127538729Y-69761552D01*
X127640186Y-69844814D01*
X127720369Y-69942519D01*
X127752778Y-69982009D01*
X127752779Y-69982011D01*
X127836443Y-70138533D01*
X127853616Y-70195147D01*
X127887963Y-70308373D01*
X127905359Y-70485000D01*
X127887963Y-70661627D01*
X127866243Y-70733228D01*
X127836443Y-70831467D01*
X127767698Y-70960078D01*
X127752778Y-70987991D01*
X127723448Y-71023729D01*
X127640186Y-71125186D01*
X127538729Y-71208448D01*
X127502991Y-71237778D01*
X127502989Y-71237779D01*
X127346467Y-71321443D01*
X127339069Y-71323687D01*
X127176627Y-71372963D01*
X127110442Y-71379482D01*
X127044260Y-71386000D01*
X126955740Y-71386000D01*
X126889558Y-71379482D01*
X126823373Y-71372963D01*
X126660931Y-71323687D01*
X126653533Y-71321443D01*
X126497011Y-71237779D01*
X126497009Y-71237778D01*
X126461271Y-71208448D01*
X126359814Y-71125186D01*
X126276552Y-71023729D01*
X126247222Y-70987991D01*
X126232302Y-70960078D01*
X126163557Y-70831467D01*
X126133757Y-70733228D01*
X126112037Y-70661627D01*
X126094641Y-70485000D01*
X126112037Y-70308373D01*
X126146384Y-70195147D01*
X126163557Y-70138533D01*
X126247221Y-69982011D01*
X126247222Y-69982009D01*
X126279631Y-69942519D01*
X126359814Y-69844814D01*
X126461271Y-69761552D01*
X126497009Y-69732222D01*
X126566689Y-69694977D01*
X126653533Y-69648557D01*
X126710147Y-69631384D01*
X126823373Y-69597037D01*
X126889558Y-69590518D01*
X126955740Y-69584000D01*
X127044260Y-69584000D01*
X127110442Y-69590518D01*
X127110442Y-69590518D01*
G37*
G36*
X124570442Y-69590518D02*
X124636627Y-69597037D01*
X124749853Y-69631384D01*
X124806467Y-69648557D01*
X124893311Y-69694977D01*
X124962991Y-69732222D01*
X124998729Y-69761552D01*
X125100186Y-69844814D01*
X125180369Y-69942519D01*
X125212778Y-69982009D01*
X125212779Y-69982011D01*
X125296443Y-70138533D01*
X125313616Y-70195147D01*
X125347963Y-70308373D01*
X125365359Y-70485000D01*
X125347963Y-70661627D01*
X125326243Y-70733228D01*
X125296443Y-70831467D01*
X125227698Y-70960078D01*
X125212778Y-70987991D01*
X125183448Y-71023729D01*
X125100186Y-71125186D01*
X124998729Y-71208448D01*
X124962991Y-71237778D01*
X124962989Y-71237779D01*
X124806467Y-71321443D01*
X124799069Y-71323687D01*
X124636627Y-71372963D01*
X124570442Y-71379482D01*
X124504260Y-71386000D01*
X124415740Y-71386000D01*
X124349558Y-71379482D01*
X124283373Y-71372963D01*
X124120931Y-71323687D01*
X124113533Y-71321443D01*
X123957011Y-71237779D01*
X123957009Y-71237778D01*
X123921271Y-71208448D01*
X123819814Y-71125186D01*
X123736552Y-71023729D01*
X123707222Y-70987991D01*
X123692302Y-70960078D01*
X123623557Y-70831467D01*
X123593757Y-70733228D01*
X123572037Y-70661627D01*
X123554641Y-70485000D01*
X123572037Y-70308373D01*
X123606384Y-70195147D01*
X123623557Y-70138533D01*
X123707221Y-69982011D01*
X123707222Y-69982009D01*
X123739631Y-69942519D01*
X123819814Y-69844814D01*
X123921271Y-69761552D01*
X123957009Y-69732222D01*
X124026689Y-69694977D01*
X124113533Y-69648557D01*
X124170147Y-69631384D01*
X124283373Y-69597037D01*
X124349558Y-69590518D01*
X124415740Y-69584000D01*
X124504260Y-69584000D01*
X124570442Y-69590518D01*
X124570442Y-69590518D01*
G37*
G36*
X119490442Y-69590518D02*
X119556627Y-69597037D01*
X119669853Y-69631384D01*
X119726467Y-69648557D01*
X119813311Y-69694977D01*
X119882991Y-69732222D01*
X119918729Y-69761552D01*
X120020186Y-69844814D01*
X120100369Y-69942519D01*
X120132778Y-69982009D01*
X120132779Y-69982011D01*
X120216443Y-70138533D01*
X120233616Y-70195147D01*
X120267963Y-70308373D01*
X120285359Y-70485000D01*
X120267963Y-70661627D01*
X120246243Y-70733228D01*
X120216443Y-70831467D01*
X120147698Y-70960078D01*
X120132778Y-70987991D01*
X120103448Y-71023729D01*
X120020186Y-71125186D01*
X119918729Y-71208448D01*
X119882991Y-71237778D01*
X119882989Y-71237779D01*
X119726467Y-71321443D01*
X119719069Y-71323687D01*
X119556627Y-71372963D01*
X119490442Y-71379482D01*
X119424260Y-71386000D01*
X119335740Y-71386000D01*
X119269558Y-71379482D01*
X119203373Y-71372963D01*
X119040931Y-71323687D01*
X119033533Y-71321443D01*
X118877011Y-71237779D01*
X118877009Y-71237778D01*
X118841271Y-71208448D01*
X118739814Y-71125186D01*
X118656552Y-71023729D01*
X118627222Y-70987991D01*
X118612302Y-70960078D01*
X118543557Y-70831467D01*
X118513757Y-70733228D01*
X118492037Y-70661627D01*
X118474641Y-70485000D01*
X118492037Y-70308373D01*
X118526384Y-70195147D01*
X118543557Y-70138533D01*
X118627221Y-69982011D01*
X118627222Y-69982009D01*
X118659631Y-69942519D01*
X118739814Y-69844814D01*
X118841271Y-69761552D01*
X118877009Y-69732222D01*
X118946689Y-69694977D01*
X119033533Y-69648557D01*
X119090147Y-69631384D01*
X119203373Y-69597037D01*
X119269558Y-69590518D01*
X119335740Y-69584000D01*
X119424260Y-69584000D01*
X119490442Y-69590518D01*
X119490442Y-69590518D01*
G37*
G36*
X139810442Y-69590518D02*
X139876627Y-69597037D01*
X139989853Y-69631384D01*
X140046467Y-69648557D01*
X140133311Y-69694977D01*
X140202991Y-69732222D01*
X140238729Y-69761552D01*
X140340186Y-69844814D01*
X140420369Y-69942519D01*
X140452778Y-69982009D01*
X140452779Y-69982011D01*
X140536443Y-70138533D01*
X140553616Y-70195147D01*
X140587963Y-70308373D01*
X140605359Y-70485000D01*
X140587963Y-70661627D01*
X140566243Y-70733228D01*
X140536443Y-70831467D01*
X140467698Y-70960078D01*
X140452778Y-70987991D01*
X140423448Y-71023729D01*
X140340186Y-71125186D01*
X140238729Y-71208448D01*
X140202991Y-71237778D01*
X140202989Y-71237779D01*
X140046467Y-71321443D01*
X140039069Y-71323687D01*
X139876627Y-71372963D01*
X139810442Y-71379482D01*
X139744260Y-71386000D01*
X139655740Y-71386000D01*
X139589558Y-71379482D01*
X139523373Y-71372963D01*
X139360931Y-71323687D01*
X139353533Y-71321443D01*
X139197011Y-71237779D01*
X139197009Y-71237778D01*
X139161271Y-71208448D01*
X139059814Y-71125186D01*
X138976552Y-71023729D01*
X138947222Y-70987991D01*
X138932302Y-70960078D01*
X138863557Y-70831467D01*
X138833757Y-70733228D01*
X138812037Y-70661627D01*
X138794641Y-70485000D01*
X138812037Y-70308373D01*
X138846384Y-70195147D01*
X138863557Y-70138533D01*
X138947221Y-69982011D01*
X138947222Y-69982009D01*
X138979631Y-69942519D01*
X139059814Y-69844814D01*
X139161271Y-69761552D01*
X139197009Y-69732222D01*
X139266689Y-69694977D01*
X139353533Y-69648557D01*
X139410147Y-69631384D01*
X139523373Y-69597037D01*
X139589558Y-69590518D01*
X139655740Y-69584000D01*
X139744260Y-69584000D01*
X139810442Y-69590518D01*
X139810442Y-69590518D01*
G37*
G36*
X161456821Y-69646313D02*
X161456824Y-69646314D01*
X161456825Y-69646314D01*
X161617239Y-69694975D01*
X161617241Y-69694976D01*
X161617244Y-69694977D01*
X161765078Y-69773995D01*
X161894659Y-69880341D01*
X162001005Y-70009922D01*
X162080023Y-70157756D01*
X162080024Y-70157759D01*
X162080025Y-70157761D01*
X162125713Y-70308375D01*
X162128687Y-70318179D01*
X162145117Y-70485000D01*
X162128687Y-70651821D01*
X162128686Y-70651824D01*
X162128686Y-70651825D01*
X162103993Y-70733228D01*
X162080023Y-70812244D01*
X162001005Y-70960078D01*
X161894659Y-71089659D01*
X161765078Y-71196005D01*
X161617244Y-71275023D01*
X161617241Y-71275024D01*
X161617239Y-71275025D01*
X161456825Y-71323686D01*
X161456824Y-71323686D01*
X161456821Y-71323687D01*
X161331804Y-71336000D01*
X161248196Y-71336000D01*
X161123179Y-71323687D01*
X161123176Y-71323686D01*
X161123175Y-71323686D01*
X160962761Y-71275025D01*
X160962759Y-71275024D01*
X160962756Y-71275023D01*
X160814922Y-71196005D01*
X160685341Y-71089659D01*
X160578995Y-70960078D01*
X160499977Y-70812244D01*
X160476008Y-70733228D01*
X160451314Y-70651825D01*
X160451314Y-70651824D01*
X160451313Y-70651821D01*
X160434883Y-70485000D01*
X160451313Y-70318179D01*
X160454287Y-70308375D01*
X160499975Y-70157761D01*
X160499976Y-70157759D01*
X160499977Y-70157756D01*
X160578995Y-70009922D01*
X160685341Y-69880341D01*
X160814922Y-69773995D01*
X160962756Y-69694977D01*
X160962759Y-69694976D01*
X160962761Y-69694975D01*
X161123175Y-69646314D01*
X161123176Y-69646314D01*
X161123179Y-69646313D01*
X161248196Y-69634000D01*
X161331804Y-69634000D01*
X161456821Y-69646313D01*
X161456821Y-69646313D01*
G37*
G36*
X153918228Y-69666703D02*
X154073100Y-69730853D01*
X154212481Y-69823985D01*
X154331015Y-69942519D01*
X154424147Y-70081900D01*
X154488297Y-70236772D01*
X154521000Y-70401184D01*
X154521000Y-70568816D01*
X154488297Y-70733228D01*
X154424147Y-70888100D01*
X154331015Y-71027481D01*
X154212481Y-71146015D01*
X154073100Y-71239147D01*
X153918228Y-71303297D01*
X153753816Y-71336000D01*
X153586184Y-71336000D01*
X153421772Y-71303297D01*
X153266900Y-71239147D01*
X153127519Y-71146015D01*
X153008985Y-71027481D01*
X152915853Y-70888100D01*
X152851703Y-70733228D01*
X152819000Y-70568816D01*
X152819000Y-70401184D01*
X152851703Y-70236772D01*
X152915853Y-70081900D01*
X153008985Y-69942519D01*
X153127519Y-69823985D01*
X153266900Y-69730853D01*
X153421772Y-69666703D01*
X153586184Y-69634000D01*
X153753816Y-69634000D01*
X153918228Y-69666703D01*
X153918228Y-69666703D01*
G37*
G36*
X156376821Y-65201313D02*
X156376824Y-65201314D01*
X156376825Y-65201314D01*
X156537239Y-65249975D01*
X156537241Y-65249976D01*
X156537244Y-65249977D01*
X156685078Y-65328995D01*
X156814659Y-65435341D01*
X156921005Y-65564922D01*
X157000023Y-65712756D01*
X157048687Y-65873179D01*
X157065117Y-66040000D01*
X157048687Y-66206821D01*
X157000023Y-66367244D01*
X156921005Y-66515078D01*
X156814659Y-66644659D01*
X156685078Y-66751005D01*
X156537244Y-66830023D01*
X156537241Y-66830024D01*
X156537239Y-66830025D01*
X156376825Y-66878686D01*
X156376824Y-66878686D01*
X156376821Y-66878687D01*
X156251804Y-66891000D01*
X156168196Y-66891000D01*
X156043179Y-66878687D01*
X156043176Y-66878686D01*
X156043175Y-66878686D01*
X155882761Y-66830025D01*
X155882759Y-66830024D01*
X155882756Y-66830023D01*
X155734922Y-66751005D01*
X155605341Y-66644659D01*
X155498995Y-66515078D01*
X155419977Y-66367244D01*
X155371313Y-66206821D01*
X155354883Y-66040000D01*
X155371313Y-65873179D01*
X155419977Y-65712756D01*
X155498995Y-65564922D01*
X155605341Y-65435341D01*
X155734922Y-65328995D01*
X155882756Y-65249977D01*
X155882759Y-65249976D01*
X155882761Y-65249975D01*
X156043175Y-65201314D01*
X156043176Y-65201314D01*
X156043179Y-65201313D01*
X156168196Y-65189000D01*
X156251804Y-65189000D01*
X156376821Y-65201313D01*
X156376821Y-65201313D01*
G37*
G36*
X149776821Y-65201313D02*
X149776824Y-65201314D01*
X149776825Y-65201314D01*
X149937239Y-65249975D01*
X149937241Y-65249976D01*
X149937244Y-65249977D01*
X150085078Y-65328995D01*
X150214659Y-65435341D01*
X150321005Y-65564922D01*
X150400023Y-65712756D01*
X150448687Y-65873179D01*
X150465117Y-66040000D01*
X150448687Y-66206821D01*
X150400023Y-66367244D01*
X150321005Y-66515078D01*
X150214659Y-66644659D01*
X150085078Y-66751005D01*
X149937244Y-66830023D01*
X149937241Y-66830024D01*
X149937239Y-66830025D01*
X149776825Y-66878686D01*
X149776824Y-66878686D01*
X149776821Y-66878687D01*
X149651804Y-66891000D01*
X149568196Y-66891000D01*
X149443179Y-66878687D01*
X149443176Y-66878686D01*
X149443175Y-66878686D01*
X149282761Y-66830025D01*
X149282759Y-66830024D01*
X149282756Y-66830023D01*
X149134922Y-66751005D01*
X149005341Y-66644659D01*
X148898995Y-66515078D01*
X148819977Y-66367244D01*
X148771313Y-66206821D01*
X148754883Y-66040000D01*
X148771313Y-65873179D01*
X148819977Y-65712756D01*
X148898995Y-65564922D01*
X149005341Y-65435341D01*
X149134922Y-65328995D01*
X149282756Y-65249977D01*
X149282759Y-65249976D01*
X149282761Y-65249975D01*
X149443175Y-65201314D01*
X149443176Y-65201314D01*
X149443179Y-65201313D01*
X149568196Y-65189000D01*
X149651804Y-65189000D01*
X149776821Y-65201313D01*
X149776821Y-65201313D01*
G37*
G36*
X147236821Y-65201313D02*
X147236824Y-65201314D01*
X147236825Y-65201314D01*
X147397239Y-65249975D01*
X147397241Y-65249976D01*
X147397244Y-65249977D01*
X147545078Y-65328995D01*
X147674659Y-65435341D01*
X147781005Y-65564922D01*
X147860023Y-65712756D01*
X147908687Y-65873179D01*
X147925117Y-66040000D01*
X147908687Y-66206821D01*
X147860023Y-66367244D01*
X147781005Y-66515078D01*
X147674659Y-66644659D01*
X147545078Y-66751005D01*
X147397244Y-66830023D01*
X147397241Y-66830024D01*
X147397239Y-66830025D01*
X147236825Y-66878686D01*
X147236824Y-66878686D01*
X147236821Y-66878687D01*
X147111804Y-66891000D01*
X147028196Y-66891000D01*
X146903179Y-66878687D01*
X146903176Y-66878686D01*
X146903175Y-66878686D01*
X146742761Y-66830025D01*
X146742759Y-66830024D01*
X146742756Y-66830023D01*
X146594922Y-66751005D01*
X146465341Y-66644659D01*
X146358995Y-66515078D01*
X146279977Y-66367244D01*
X146231313Y-66206821D01*
X146214883Y-66040000D01*
X146231313Y-65873179D01*
X146279977Y-65712756D01*
X146358995Y-65564922D01*
X146465341Y-65435341D01*
X146594922Y-65328995D01*
X146742756Y-65249977D01*
X146742759Y-65249976D01*
X146742761Y-65249975D01*
X146903175Y-65201314D01*
X146903176Y-65201314D01*
X146903179Y-65201313D01*
X147028196Y-65189000D01*
X147111804Y-65189000D01*
X147236821Y-65201313D01*
X147236821Y-65201313D01*
G37*
G36*
X137076821Y-65201313D02*
X137076824Y-65201314D01*
X137076825Y-65201314D01*
X137237239Y-65249975D01*
X137237241Y-65249976D01*
X137237244Y-65249977D01*
X137385078Y-65328995D01*
X137514659Y-65435341D01*
X137621005Y-65564922D01*
X137700023Y-65712756D01*
X137748687Y-65873179D01*
X137765117Y-66040000D01*
X137748687Y-66206821D01*
X137700023Y-66367244D01*
X137621005Y-66515078D01*
X137514659Y-66644659D01*
X137385078Y-66751005D01*
X137237244Y-66830023D01*
X137237241Y-66830024D01*
X137237239Y-66830025D01*
X137076825Y-66878686D01*
X137076824Y-66878686D01*
X137076821Y-66878687D01*
X136951804Y-66891000D01*
X136868196Y-66891000D01*
X136743179Y-66878687D01*
X136743176Y-66878686D01*
X136743175Y-66878686D01*
X136582761Y-66830025D01*
X136582759Y-66830024D01*
X136582756Y-66830023D01*
X136434922Y-66751005D01*
X136305341Y-66644659D01*
X136198995Y-66515078D01*
X136119977Y-66367244D01*
X136071313Y-66206821D01*
X136054883Y-66040000D01*
X136071313Y-65873179D01*
X136119977Y-65712756D01*
X136198995Y-65564922D01*
X136305341Y-65435341D01*
X136434922Y-65328995D01*
X136582756Y-65249977D01*
X136582759Y-65249976D01*
X136582761Y-65249975D01*
X136743175Y-65201314D01*
X136743176Y-65201314D01*
X136743179Y-65201313D01*
X136868196Y-65189000D01*
X136951804Y-65189000D01*
X137076821Y-65201313D01*
X137076821Y-65201313D01*
G37*
G36*
X161456821Y-65201313D02*
X161456824Y-65201314D01*
X161456825Y-65201314D01*
X161617239Y-65249975D01*
X161617241Y-65249976D01*
X161617244Y-65249977D01*
X161765078Y-65328995D01*
X161894659Y-65435341D01*
X162001005Y-65564922D01*
X162080023Y-65712756D01*
X162128687Y-65873179D01*
X162145117Y-66040000D01*
X162128687Y-66206821D01*
X162080023Y-66367244D01*
X162001005Y-66515078D01*
X161894659Y-66644659D01*
X161765078Y-66751005D01*
X161617244Y-66830023D01*
X161617241Y-66830024D01*
X161617239Y-66830025D01*
X161456825Y-66878686D01*
X161456824Y-66878686D01*
X161456821Y-66878687D01*
X161331804Y-66891000D01*
X161248196Y-66891000D01*
X161123179Y-66878687D01*
X161123176Y-66878686D01*
X161123175Y-66878686D01*
X160962761Y-66830025D01*
X160962759Y-66830024D01*
X160962756Y-66830023D01*
X160814922Y-66751005D01*
X160685341Y-66644659D01*
X160578995Y-66515078D01*
X160499977Y-66367244D01*
X160451313Y-66206821D01*
X160434883Y-66040000D01*
X160451313Y-65873179D01*
X160499977Y-65712756D01*
X160578995Y-65564922D01*
X160685341Y-65435341D01*
X160814922Y-65328995D01*
X160962756Y-65249977D01*
X160962759Y-65249976D01*
X160962761Y-65249975D01*
X161123175Y-65201314D01*
X161123176Y-65201314D01*
X161123179Y-65201313D01*
X161248196Y-65189000D01*
X161331804Y-65189000D01*
X161456821Y-65201313D01*
X161456821Y-65201313D01*
G37*
G36*
X139616821Y-65201313D02*
X139616824Y-65201314D01*
X139616825Y-65201314D01*
X139777239Y-65249975D01*
X139777241Y-65249976D01*
X139777244Y-65249977D01*
X139925078Y-65328995D01*
X140054659Y-65435341D01*
X140161005Y-65564922D01*
X140240023Y-65712756D01*
X140288687Y-65873179D01*
X140305117Y-66040000D01*
X140288687Y-66206821D01*
X140240023Y-66367244D01*
X140161005Y-66515078D01*
X140054659Y-66644659D01*
X139925078Y-66751005D01*
X139777244Y-66830023D01*
X139777241Y-66830024D01*
X139777239Y-66830025D01*
X139616825Y-66878686D01*
X139616824Y-66878686D01*
X139616821Y-66878687D01*
X139491804Y-66891000D01*
X139408196Y-66891000D01*
X139283179Y-66878687D01*
X139283176Y-66878686D01*
X139283175Y-66878686D01*
X139122761Y-66830025D01*
X139122759Y-66830024D01*
X139122756Y-66830023D01*
X138974922Y-66751005D01*
X138845341Y-66644659D01*
X138738995Y-66515078D01*
X138659977Y-66367244D01*
X138611313Y-66206821D01*
X138594883Y-66040000D01*
X138611313Y-65873179D01*
X138659977Y-65712756D01*
X138738995Y-65564922D01*
X138845341Y-65435341D01*
X138974922Y-65328995D01*
X139122756Y-65249977D01*
X139122759Y-65249976D01*
X139122761Y-65249975D01*
X139283175Y-65201314D01*
X139283176Y-65201314D01*
X139283179Y-65201313D01*
X139408196Y-65189000D01*
X139491804Y-65189000D01*
X139616821Y-65201313D01*
X139616821Y-65201313D01*
G37*
G36*
X158916821Y-65201313D02*
X158916824Y-65201314D01*
X158916825Y-65201314D01*
X159077239Y-65249975D01*
X159077241Y-65249976D01*
X159077244Y-65249977D01*
X159225078Y-65328995D01*
X159354659Y-65435341D01*
X159461005Y-65564922D01*
X159540023Y-65712756D01*
X159588687Y-65873179D01*
X159605117Y-66040000D01*
X159588687Y-66206821D01*
X159540023Y-66367244D01*
X159461005Y-66515078D01*
X159354659Y-66644659D01*
X159225078Y-66751005D01*
X159077244Y-66830023D01*
X159077241Y-66830024D01*
X159077239Y-66830025D01*
X158916825Y-66878686D01*
X158916824Y-66878686D01*
X158916821Y-66878687D01*
X158791804Y-66891000D01*
X158708196Y-66891000D01*
X158583179Y-66878687D01*
X158583176Y-66878686D01*
X158583175Y-66878686D01*
X158422761Y-66830025D01*
X158422759Y-66830024D01*
X158422756Y-66830023D01*
X158274922Y-66751005D01*
X158145341Y-66644659D01*
X158038995Y-66515078D01*
X157959977Y-66367244D01*
X157911313Y-66206821D01*
X157894883Y-66040000D01*
X157911313Y-65873179D01*
X157959977Y-65712756D01*
X158038995Y-65564922D01*
X158145341Y-65435341D01*
X158274922Y-65328995D01*
X158422756Y-65249977D01*
X158422759Y-65249976D01*
X158422761Y-65249975D01*
X158583175Y-65201314D01*
X158583176Y-65201314D01*
X158583179Y-65201313D01*
X158708196Y-65189000D01*
X158791804Y-65189000D01*
X158916821Y-65201313D01*
X158916821Y-65201313D01*
G37*
G36*
X142156821Y-65201313D02*
X142156824Y-65201314D01*
X142156825Y-65201314D01*
X142317239Y-65249975D01*
X142317241Y-65249976D01*
X142317244Y-65249977D01*
X142465078Y-65328995D01*
X142594659Y-65435341D01*
X142701005Y-65564922D01*
X142780023Y-65712756D01*
X142828687Y-65873179D01*
X142845117Y-66040000D01*
X142828687Y-66206821D01*
X142780023Y-66367244D01*
X142701005Y-66515078D01*
X142594659Y-66644659D01*
X142465078Y-66751005D01*
X142317244Y-66830023D01*
X142317241Y-66830024D01*
X142317239Y-66830025D01*
X142156825Y-66878686D01*
X142156824Y-66878686D01*
X142156821Y-66878687D01*
X142031804Y-66891000D01*
X141948196Y-66891000D01*
X141823179Y-66878687D01*
X141823176Y-66878686D01*
X141823175Y-66878686D01*
X141662761Y-66830025D01*
X141662759Y-66830024D01*
X141662756Y-66830023D01*
X141514922Y-66751005D01*
X141385341Y-66644659D01*
X141278995Y-66515078D01*
X141199977Y-66367244D01*
X141151313Y-66206821D01*
X141134883Y-66040000D01*
X141151313Y-65873179D01*
X141199977Y-65712756D01*
X141278995Y-65564922D01*
X141385341Y-65435341D01*
X141514922Y-65328995D01*
X141662756Y-65249977D01*
X141662759Y-65249976D01*
X141662761Y-65249975D01*
X141823175Y-65201314D01*
X141823176Y-65201314D01*
X141823179Y-65201313D01*
X141948196Y-65189000D01*
X142031804Y-65189000D01*
X142156821Y-65201313D01*
X142156821Y-65201313D01*
G37*
G36*
X144696821Y-65201313D02*
X144696824Y-65201314D01*
X144696825Y-65201314D01*
X144857239Y-65249975D01*
X144857241Y-65249976D01*
X144857244Y-65249977D01*
X145005078Y-65328995D01*
X145134659Y-65435341D01*
X145241005Y-65564922D01*
X145320023Y-65712756D01*
X145368687Y-65873179D01*
X145385117Y-66040000D01*
X145368687Y-66206821D01*
X145320023Y-66367244D01*
X145241005Y-66515078D01*
X145134659Y-66644659D01*
X145005078Y-66751005D01*
X144857244Y-66830023D01*
X144857241Y-66830024D01*
X144857239Y-66830025D01*
X144696825Y-66878686D01*
X144696824Y-66878686D01*
X144696821Y-66878687D01*
X144571804Y-66891000D01*
X144488196Y-66891000D01*
X144363179Y-66878687D01*
X144363176Y-66878686D01*
X144363175Y-66878686D01*
X144202761Y-66830025D01*
X144202759Y-66830024D01*
X144202756Y-66830023D01*
X144054922Y-66751005D01*
X143925341Y-66644659D01*
X143818995Y-66515078D01*
X143739977Y-66367244D01*
X143691313Y-66206821D01*
X143674883Y-66040000D01*
X143691313Y-65873179D01*
X143739977Y-65712756D01*
X143818995Y-65564922D01*
X143925341Y-65435341D01*
X144054922Y-65328995D01*
X144202756Y-65249977D01*
X144202759Y-65249976D01*
X144202761Y-65249975D01*
X144363175Y-65201314D01*
X144363176Y-65201314D01*
X144363179Y-65201313D01*
X144488196Y-65189000D01*
X144571804Y-65189000D01*
X144696821Y-65201313D01*
X144696821Y-65201313D01*
G37*
G36*
X153836821Y-65201313D02*
X153836824Y-65201314D01*
X153836825Y-65201314D01*
X153997239Y-65249975D01*
X153997241Y-65249976D01*
X153997244Y-65249977D01*
X154145078Y-65328995D01*
X154274659Y-65435341D01*
X154381005Y-65564922D01*
X154460023Y-65712756D01*
X154508687Y-65873179D01*
X154525117Y-66040000D01*
X154508687Y-66206821D01*
X154460023Y-66367244D01*
X154381005Y-66515078D01*
X154274659Y-66644659D01*
X154145078Y-66751005D01*
X153997244Y-66830023D01*
X153997241Y-66830024D01*
X153997239Y-66830025D01*
X153836825Y-66878686D01*
X153836824Y-66878686D01*
X153836821Y-66878687D01*
X153711804Y-66891000D01*
X153628196Y-66891000D01*
X153503179Y-66878687D01*
X153503176Y-66878686D01*
X153503175Y-66878686D01*
X153342761Y-66830025D01*
X153342759Y-66830024D01*
X153342756Y-66830023D01*
X153194922Y-66751005D01*
X153065341Y-66644659D01*
X152958995Y-66515078D01*
X152879977Y-66367244D01*
X152831313Y-66206821D01*
X152814883Y-66040000D01*
X152831313Y-65873179D01*
X152879977Y-65712756D01*
X152958995Y-65564922D01*
X153065341Y-65435341D01*
X153194922Y-65328995D01*
X153342756Y-65249977D01*
X153342759Y-65249976D01*
X153342761Y-65249975D01*
X153503175Y-65201314D01*
X153503176Y-65201314D01*
X153503179Y-65201313D01*
X153628196Y-65189000D01*
X153711804Y-65189000D01*
X153836821Y-65201313D01*
X153836821Y-65201313D01*
G37*
G36*
X166536821Y-65201313D02*
X166536824Y-65201314D01*
X166536825Y-65201314D01*
X166697239Y-65249975D01*
X166697241Y-65249976D01*
X166697244Y-65249977D01*
X166845078Y-65328995D01*
X166974659Y-65435341D01*
X167081005Y-65564922D01*
X167160023Y-65712756D01*
X167208687Y-65873179D01*
X167225117Y-66040000D01*
X167208687Y-66206821D01*
X167160023Y-66367244D01*
X167081005Y-66515078D01*
X166974659Y-66644659D01*
X166845078Y-66751005D01*
X166697244Y-66830023D01*
X166697241Y-66830024D01*
X166697239Y-66830025D01*
X166536825Y-66878686D01*
X166536824Y-66878686D01*
X166536821Y-66878687D01*
X166411804Y-66891000D01*
X166328196Y-66891000D01*
X166203179Y-66878687D01*
X166203176Y-66878686D01*
X166203175Y-66878686D01*
X166042761Y-66830025D01*
X166042759Y-66830024D01*
X166042756Y-66830023D01*
X165894922Y-66751005D01*
X165765341Y-66644659D01*
X165658995Y-66515078D01*
X165579977Y-66367244D01*
X165531313Y-66206821D01*
X165514883Y-66040000D01*
X165531313Y-65873179D01*
X165579977Y-65712756D01*
X165658995Y-65564922D01*
X165765341Y-65435341D01*
X165894922Y-65328995D01*
X166042756Y-65249977D01*
X166042759Y-65249976D01*
X166042761Y-65249975D01*
X166203175Y-65201314D01*
X166203176Y-65201314D01*
X166203179Y-65201313D01*
X166328196Y-65189000D01*
X166411804Y-65189000D01*
X166536821Y-65201313D01*
X166536821Y-65201313D01*
G37*
G36*
X131996821Y-65201313D02*
X131996824Y-65201314D01*
X131996825Y-65201314D01*
X132157239Y-65249975D01*
X132157241Y-65249976D01*
X132157244Y-65249977D01*
X132305078Y-65328995D01*
X132434659Y-65435341D01*
X132541005Y-65564922D01*
X132620023Y-65712756D01*
X132668687Y-65873179D01*
X132685117Y-66040000D01*
X132668687Y-66206821D01*
X132620023Y-66367244D01*
X132541005Y-66515078D01*
X132434659Y-66644659D01*
X132305078Y-66751005D01*
X132157244Y-66830023D01*
X132157241Y-66830024D01*
X132157239Y-66830025D01*
X131996825Y-66878686D01*
X131996824Y-66878686D01*
X131996821Y-66878687D01*
X131871804Y-66891000D01*
X131788196Y-66891000D01*
X131663179Y-66878687D01*
X131663176Y-66878686D01*
X131663175Y-66878686D01*
X131502761Y-66830025D01*
X131502759Y-66830024D01*
X131502756Y-66830023D01*
X131354922Y-66751005D01*
X131225341Y-66644659D01*
X131118995Y-66515078D01*
X131039977Y-66367244D01*
X130991313Y-66206821D01*
X130974883Y-66040000D01*
X130991313Y-65873179D01*
X131039977Y-65712756D01*
X131118995Y-65564922D01*
X131225341Y-65435341D01*
X131354922Y-65328995D01*
X131502756Y-65249977D01*
X131502759Y-65249976D01*
X131502761Y-65249975D01*
X131663175Y-65201314D01*
X131663176Y-65201314D01*
X131663179Y-65201313D01*
X131788196Y-65189000D01*
X131871804Y-65189000D01*
X131996821Y-65201313D01*
X131996821Y-65201313D01*
G37*
G36*
X169076821Y-65201313D02*
X169076824Y-65201314D01*
X169076825Y-65201314D01*
X169237239Y-65249975D01*
X169237241Y-65249976D01*
X169237244Y-65249977D01*
X169385078Y-65328995D01*
X169514659Y-65435341D01*
X169621005Y-65564922D01*
X169700023Y-65712756D01*
X169748687Y-65873179D01*
X169765117Y-66040000D01*
X169748687Y-66206821D01*
X169700023Y-66367244D01*
X169621005Y-66515078D01*
X169514659Y-66644659D01*
X169385078Y-66751005D01*
X169237244Y-66830023D01*
X169237241Y-66830024D01*
X169237239Y-66830025D01*
X169076825Y-66878686D01*
X169076824Y-66878686D01*
X169076821Y-66878687D01*
X168951804Y-66891000D01*
X168868196Y-66891000D01*
X168743179Y-66878687D01*
X168743176Y-66878686D01*
X168743175Y-66878686D01*
X168582761Y-66830025D01*
X168582759Y-66830024D01*
X168582756Y-66830023D01*
X168434922Y-66751005D01*
X168305341Y-66644659D01*
X168198995Y-66515078D01*
X168119977Y-66367244D01*
X168071313Y-66206821D01*
X168054883Y-66040000D01*
X168071313Y-65873179D01*
X168119977Y-65712756D01*
X168198995Y-65564922D01*
X168305341Y-65435341D01*
X168434922Y-65328995D01*
X168582756Y-65249977D01*
X168582759Y-65249976D01*
X168582761Y-65249975D01*
X168743175Y-65201314D01*
X168743176Y-65201314D01*
X168743179Y-65201313D01*
X168868196Y-65189000D01*
X168951804Y-65189000D01*
X169076821Y-65201313D01*
X169076821Y-65201313D01*
G37*
G36*
X171616821Y-65201313D02*
X171616824Y-65201314D01*
X171616825Y-65201314D01*
X171777239Y-65249975D01*
X171777241Y-65249976D01*
X171777244Y-65249977D01*
X171925078Y-65328995D01*
X172054659Y-65435341D01*
X172161005Y-65564922D01*
X172240023Y-65712756D01*
X172288687Y-65873179D01*
X172305117Y-66040000D01*
X172288687Y-66206821D01*
X172240023Y-66367244D01*
X172161005Y-66515078D01*
X172054659Y-66644659D01*
X171925078Y-66751005D01*
X171777244Y-66830023D01*
X171777241Y-66830024D01*
X171777239Y-66830025D01*
X171616825Y-66878686D01*
X171616824Y-66878686D01*
X171616821Y-66878687D01*
X171491804Y-66891000D01*
X171408196Y-66891000D01*
X171283179Y-66878687D01*
X171283176Y-66878686D01*
X171283175Y-66878686D01*
X171122761Y-66830025D01*
X171122759Y-66830024D01*
X171122756Y-66830023D01*
X170974922Y-66751005D01*
X170845341Y-66644659D01*
X170738995Y-66515078D01*
X170659977Y-66367244D01*
X170611313Y-66206821D01*
X170594883Y-66040000D01*
X170611313Y-65873179D01*
X170659977Y-65712756D01*
X170738995Y-65564922D01*
X170845341Y-65435341D01*
X170974922Y-65328995D01*
X171122756Y-65249977D01*
X171122759Y-65249976D01*
X171122761Y-65249975D01*
X171283175Y-65201314D01*
X171283176Y-65201314D01*
X171283179Y-65201313D01*
X171408196Y-65189000D01*
X171491804Y-65189000D01*
X171616821Y-65201313D01*
X171616821Y-65201313D01*
G37*
G36*
X163996821Y-65201313D02*
X163996824Y-65201314D01*
X163996825Y-65201314D01*
X164157239Y-65249975D01*
X164157241Y-65249976D01*
X164157244Y-65249977D01*
X164305078Y-65328995D01*
X164434659Y-65435341D01*
X164541005Y-65564922D01*
X164620023Y-65712756D01*
X164668687Y-65873179D01*
X164685117Y-66040000D01*
X164668687Y-66206821D01*
X164620023Y-66367244D01*
X164541005Y-66515078D01*
X164434659Y-66644659D01*
X164305078Y-66751005D01*
X164157244Y-66830023D01*
X164157241Y-66830024D01*
X164157239Y-66830025D01*
X163996825Y-66878686D01*
X163996824Y-66878686D01*
X163996821Y-66878687D01*
X163871804Y-66891000D01*
X163788196Y-66891000D01*
X163663179Y-66878687D01*
X163663176Y-66878686D01*
X163663175Y-66878686D01*
X163502761Y-66830025D01*
X163502759Y-66830024D01*
X163502756Y-66830023D01*
X163354922Y-66751005D01*
X163225341Y-66644659D01*
X163118995Y-66515078D01*
X163039977Y-66367244D01*
X162991313Y-66206821D01*
X162974883Y-66040000D01*
X162991313Y-65873179D01*
X163039977Y-65712756D01*
X163118995Y-65564922D01*
X163225341Y-65435341D01*
X163354922Y-65328995D01*
X163502756Y-65249977D01*
X163502759Y-65249976D01*
X163502761Y-65249975D01*
X163663175Y-65201314D01*
X163663176Y-65201314D01*
X163663179Y-65201313D01*
X163788196Y-65189000D01*
X163871804Y-65189000D01*
X163996821Y-65201313D01*
X163996821Y-65201313D01*
G37*
G36*
X134536821Y-65201313D02*
X134536824Y-65201314D01*
X134536825Y-65201314D01*
X134697239Y-65249975D01*
X134697241Y-65249976D01*
X134697244Y-65249977D01*
X134845078Y-65328995D01*
X134974659Y-65435341D01*
X135081005Y-65564922D01*
X135160023Y-65712756D01*
X135208687Y-65873179D01*
X135225117Y-66040000D01*
X135208687Y-66206821D01*
X135160023Y-66367244D01*
X135081005Y-66515078D01*
X134974659Y-66644659D01*
X134845078Y-66751005D01*
X134697244Y-66830023D01*
X134697241Y-66830024D01*
X134697239Y-66830025D01*
X134536825Y-66878686D01*
X134536824Y-66878686D01*
X134536821Y-66878687D01*
X134411804Y-66891000D01*
X134328196Y-66891000D01*
X134203179Y-66878687D01*
X134203176Y-66878686D01*
X134203175Y-66878686D01*
X134042761Y-66830025D01*
X134042759Y-66830024D01*
X134042756Y-66830023D01*
X133894922Y-66751005D01*
X133765341Y-66644659D01*
X133658995Y-66515078D01*
X133579977Y-66367244D01*
X133531313Y-66206821D01*
X133514883Y-66040000D01*
X133531313Y-65873179D01*
X133579977Y-65712756D01*
X133658995Y-65564922D01*
X133765341Y-65435341D01*
X133894922Y-65328995D01*
X134042756Y-65249977D01*
X134042759Y-65249976D01*
X134042761Y-65249975D01*
X134203175Y-65201314D01*
X134203176Y-65201314D01*
X134203179Y-65201313D01*
X134328196Y-65189000D01*
X134411804Y-65189000D01*
X134536821Y-65201313D01*
X134536821Y-65201313D01*
G37*
G36*
X129456821Y-65201313D02*
X129456824Y-65201314D01*
X129456825Y-65201314D01*
X129617239Y-65249975D01*
X129617241Y-65249976D01*
X129617244Y-65249977D01*
X129765078Y-65328995D01*
X129894659Y-65435341D01*
X130001005Y-65564922D01*
X130080023Y-65712756D01*
X130128687Y-65873179D01*
X130145117Y-66040000D01*
X130128687Y-66206821D01*
X130080023Y-66367244D01*
X130001005Y-66515078D01*
X129894659Y-66644659D01*
X129765078Y-66751005D01*
X129617244Y-66830023D01*
X129617241Y-66830024D01*
X129617239Y-66830025D01*
X129456825Y-66878686D01*
X129456824Y-66878686D01*
X129456821Y-66878687D01*
X129331804Y-66891000D01*
X129248196Y-66891000D01*
X129123179Y-66878687D01*
X129123176Y-66878686D01*
X129123175Y-66878686D01*
X128962761Y-66830025D01*
X128962759Y-66830024D01*
X128962756Y-66830023D01*
X128814922Y-66751005D01*
X128685341Y-66644659D01*
X128578995Y-66515078D01*
X128499977Y-66367244D01*
X128451313Y-66206821D01*
X128434883Y-66040000D01*
X128451313Y-65873179D01*
X128499977Y-65712756D01*
X128578995Y-65564922D01*
X128685341Y-65435341D01*
X128814922Y-65328995D01*
X128962756Y-65249977D01*
X128962759Y-65249976D01*
X128962761Y-65249975D01*
X129123175Y-65201314D01*
X129123176Y-65201314D01*
X129123179Y-65201313D01*
X129248196Y-65189000D01*
X129331804Y-65189000D01*
X129456821Y-65201313D01*
X129456821Y-65201313D01*
G37*
G36*
X126916821Y-65201313D02*
X126916824Y-65201314D01*
X126916825Y-65201314D01*
X127077239Y-65249975D01*
X127077241Y-65249976D01*
X127077244Y-65249977D01*
X127225078Y-65328995D01*
X127354659Y-65435341D01*
X127461005Y-65564922D01*
X127540023Y-65712756D01*
X127588687Y-65873179D01*
X127605117Y-66040000D01*
X127588687Y-66206821D01*
X127540023Y-66367244D01*
X127461005Y-66515078D01*
X127354659Y-66644659D01*
X127225078Y-66751005D01*
X127077244Y-66830023D01*
X127077241Y-66830024D01*
X127077239Y-66830025D01*
X126916825Y-66878686D01*
X126916824Y-66878686D01*
X126916821Y-66878687D01*
X126791804Y-66891000D01*
X126708196Y-66891000D01*
X126583179Y-66878687D01*
X126583176Y-66878686D01*
X126583175Y-66878686D01*
X126422761Y-66830025D01*
X126422759Y-66830024D01*
X126422756Y-66830023D01*
X126274922Y-66751005D01*
X126145341Y-66644659D01*
X126038995Y-66515078D01*
X125959977Y-66367244D01*
X125911313Y-66206821D01*
X125894883Y-66040000D01*
X125911313Y-65873179D01*
X125959977Y-65712756D01*
X126038995Y-65564922D01*
X126145341Y-65435341D01*
X126274922Y-65328995D01*
X126422756Y-65249977D01*
X126422759Y-65249976D01*
X126422761Y-65249975D01*
X126583175Y-65201314D01*
X126583176Y-65201314D01*
X126583179Y-65201313D01*
X126708196Y-65189000D01*
X126791804Y-65189000D01*
X126916821Y-65201313D01*
X126916821Y-65201313D01*
G37*
M02*
